<svg width="965" height="764" viewBox="0 0 965 764" fill="none" xmlns="http://www.w3.org/2000/svg">
<path opacity="0.5" d="M381.918 764C235.562 764 116.918 756.837 116.918 748C116.918 739.163 235.562 732 381.918 732C528.273 732 646.918 739.163 646.918 748C646.918 756.837 528.273 764 381.918 764Z" fill="#F28761"/>
<g opacity="0.5">
<path fill-rule="evenodd" clip-rule="evenodd" d="M510.843 110.033C473.257 109.905 436.089 113.428 400.055 124.805C389.114 128.26 378.21 132.086 367.77 136.804C356.538 141.879 346.331 148.942 336.453 156.349C323.466 166.086 311.902 177.315 301.995 190.164C292.215 202.848 285.161 216.779 282.928 232.908C281.51 243.157 282.212 253.135 285.785 262.823C292.448 280.889 301.455 297.504 315.943 310.684C327.373 321.082 338.711 331.583 350.099 342.028C363.029 353.885 375.361 366.302 385.921 380.362C394.231 391.427 401.156 403.213 404.279 416.878C404.965 419.881 405.586 422.933 405.836 425.995C406.964 439.774 400.384 449.847 389.535 457.189C380.817 463.088 370.674 465.616 360.195 465.467C338.397 465.158 316.598 464.575 294.812 463.759C264.61 462.629 234.424 460.985 204.181 461.668C166.17 462.525 128.413 465.61 91.4317 475.078C71.7448 480.117 52.7261 486.932 35.1369 497.314C27.4145 501.873 20.0494 506.968 13.974 513.581C10.4002 517.469 7.05942 521.722 4.40239 526.27C-0.725205 535.053 -1.28459 544.458 2.25812 554.043C5.77751 563.554 11.5888 571.575 18.5111 578.846C29.6986 590.584 43.1857 598.988 57.7527 605.827C75.676 614.248 94.4306 620.436 113.566 625.258C144.836 633.137 176.247 640.483 207.645 647.838C258.759 659.81 309.933 671.528 361.045 683.507C396.478 691.809 432.073 699.261 468.12 704.368C495.871 708.301 523.776 710.404 551.82 709.605C575.708 708.926 598.899 704.762 620.732 694.517C630.776 689.803 639.924 683.816 647.582 675.746C674.498 647.388 657.01 613.064 639.469 585.395C636.162 580.18 632.429 575.216 629.4 569.851C627.316 566.162 625.611 562.099 624.614 557.989C622.56 549.533 625.733 543.161 633.481 539.226C639.387 536.227 645.764 534.955 652.356 534.646C667.893 533.922 683.27 535.659 698.469 538.463C730.196 544.316 761.856 550.541 793.508 556.788C818.301 561.68 843.248 562.643 868.36 560.346C870.742 560.127 873.179 559.777 875.431 559.02C897.88 551.47 918.123 540.306 934.614 522.945C949.151 507.639 957.205 489.155 961.525 468.819C965.965 447.925 965.65 426.952 962.864 405.858C959.051 376.974 950.593 349.643 936.8 323.955C928.714 308.893 919.226 294.838 906.891 282.92C886.893 263.597 867.363 243.726 846.483 225.397C812.002 195.13 772.39 172.845 730.287 154.92C688.25 137.025 644.555 124.869 599.5 117.424C574.565 113.303 549.503 110.596 524.226 110.047C519.766 109.95 515.304 110.033 510.843 110.033Z" fill="#BD8CE9"/>
</g>
<g clip-path="url(#clip0_166_7863)">
<g filter="url(#filter0_d_166_7863)">
<path fill-rule="evenodd" clip-rule="evenodd" d="M158.609 156.027C169.798 156.998 177.997 160.066 183.205 165.233L182.133 160.486L182.686 160.255C186.492 158.697 188.803 158.336 189.617 159.172C190.47 160.048 191.411 162.657 192.439 166.999C200.763 163.82 207.015 162.435 211.194 162.842L212.051 162.93C219.156 163.705 238.299 166.72 242.936 174.598C245.076 178.236 246.428 181.043 246.991 183.019C257.911 193.746 262.178 206.382 259.793 220.927C257.605 234.273 245.898 242.745 224.672 246.345L224.026 246.452L225.649 263.993C226.555 265.707 227.073 267.686 227.073 269.795C227.073 276.315 222.128 281.601 216.028 281.601C209.928 281.601 204.984 276.315 204.984 269.795C204.984 267.976 205.367 266.255 206.054 264.716L205.971 261.981C205.684 253.04 205.314 245.876 204.862 240.488L203.314 242.5L202.254 242.195C187.905 238.014 178.993 233.378 175.517 228.289L174.907 227.375C169.506 219.38 158.713 206.416 169.758 181.896C166.484 177.516 165.656 174.053 167.275 171.506C162.745 171.659 159.856 172.92 158.609 175.288L158.496 175.507C156.654 179.159 154.217 187.869 158.475 208.276L158.609 208.911C161.631 223.103 160.98 236.544 156.656 249.235C153.113 253.658 149.73 254.434 146.508 251.563L146.347 251.416C143.076 248.373 139.301 247.646 135.024 249.235C129.364 251.739 125.254 251.314 122.695 247.958L122.561 247.779C120.013 244.26 115.68 243.278 109.564 244.835L110.716 243.716C119.637 235.001 124.77 228.955 126.116 225.578C128.221 220.297 130.441 174.963 133.494 171.506C136.547 168.05 141.825 154.572 158.609 156.027Z" fill="white"/>
<path fill-rule="evenodd" clip-rule="evenodd" d="M190.379 164.645C190.338 168.304 187.152 171.825 182.82 172.979C182.779 172.692 182.8 172.393 182.849 172.093C183.053 170.852 182.141 169.762 180.896 169.581C180.785 169.565 180.675 169.543 180.566 169.512L180.416 169.695C179.809 170.434 179.203 171.173 178.618 171.929C178.148 172.537 177.697 173.165 177.247 173.793C176.334 175.067 175.42 176.341 174.339 177.452C173.058 178.769 171.137 178.786 169.888 177.422C169.402 176.891 169.328 175.971 169.256 175.067C169.229 174.725 169.202 174.384 169.152 174.068C169.117 173.843 169.312 173.399 169.483 173.351C171.643 172.745 172.302 171.06 172.964 169.371C173.228 168.695 173.493 168.019 173.854 167.411C175.254 165.056 177.531 164.143 180.229 164.67C180.645 164.752 181.047 164.904 181.45 165.057C181.692 165.149 181.935 165.241 182.181 165.317C182.41 165.389 182.652 165.489 182.897 165.592C183.854 165.992 184.869 166.416 185.415 165.182C185.654 164.642 185.358 163.866 185.016 162.968C184.847 162.523 184.666 162.048 184.532 161.558C185.365 160.571 186.652 159.572 188.436 160.39C190.187 161.193 190.398 162.975 190.379 164.645ZM240.464 169.629C232.466 164.095 223.454 161.788 213.903 161.261C207.243 160.892 200.676 161.577 194.185 163.818C194.013 163.356 193.863 162.918 193.719 162.499C193.425 161.642 193.158 160.865 192.791 160.141C191.149 156.898 188.047 155.782 184.767 157.272C183.776 157.723 182.856 158.395 182.017 159.1C179.442 161.26 179.38 161.229 176.732 159.899C176.534 159.8 176.322 159.693 176.093 159.58C172.403 157.749 168.599 155.874 164.629 154.929C149.898 151.423 137.918 157.982 132.62 172.225C131.471 175.315 130.538 178.578 130.143 181.839C129.113 190.35 128.273 198.893 127.656 207.445C126.655 221.334 122.013 233.32 110.579 242.021C109.261 243.023 107.97 244.124 106.921 245.389C106.331 246.099 105.719 247.618 106.065 248.118C107.019 249.5 108.26 248.612 109.216 247.765C110.309 246.796 111.387 245.808 112.465 244.822L112.466 244.821L112.466 244.821C113.737 243.657 115.008 242.495 116.303 241.36C124.525 234.161 128.852 224.943 130.089 214.249C130.688 209.072 131.154 203.879 131.62 198.686C131.934 195.197 132.247 191.708 132.6 188.223C133.274 181.586 134.453 175.053 137.726 169.111C141.208 162.79 146.423 158.886 153.641 157.7C159.775 156.693 165.439 158.255 170.983 160.591C171.082 160.633 171.186 160.677 171.295 160.722L171.305 160.727C172.241 161.119 173.471 161.635 174.107 162.035C170.028 165.093 169.148 167.587 168.733 169.314C168.631 169.334 168.523 169.359 168.409 169.386C168.155 169.444 167.876 169.509 167.593 169.539C160.726 170.262 156.898 173.293 155.547 180.073C154.719 184.229 154.274 188.627 154.67 192.822C155.135 197.762 156.021 202.662 156.906 207.562V207.563C157.251 209.473 157.596 211.383 157.917 213.295C158.028 213.961 158.142 214.627 158.256 215.294C159.427 222.13 160.597 228.964 159.184 235.948C159.141 236.16 159.096 236.373 159.052 236.586L159.051 236.587C158.901 237.305 158.749 238.026 158.657 238.748C158.3 239.127 158.231 239.796 158.165 240.442C158.142 240.661 158.12 240.877 158.087 241.078C156.903 248.324 153.335 254.506 149.309 260.464C149.199 260.626 149.076 260.786 148.954 260.945C148.378 261.693 147.816 262.423 148.757 263.258C149.9 264.273 151.072 263.63 151.993 262.633C152.365 262.23 152.752 261.806 152.992 261.322C153.473 260.353 153.955 259.385 154.437 258.416C156.528 254.216 158.62 250.015 160.591 245.759C161 244.875 161.142 243.866 161.308 242.697V242.696C161.324 242.583 161.34 242.469 161.356 242.353C161.421 241.903 161.422 241.446 161.359 240.999C161.37 240.979 161.38 240.96 161.388 240.941C161.908 239.681 162.188 238.312 162.461 236.965C164.103 228.875 162.7 220.934 161.297 212.991L161.239 212.663C160.969 211.132 160.691 209.601 160.413 208.07C159.578 203.477 158.743 198.881 158.118 194.259C157.447 189.302 157.625 184.302 159.168 179.462C160.085 176.586 161.758 174.42 165.558 173.357C164.872 177.306 166.697 179.753 169.286 181.718C165.167 188.62 162.662 195.769 163.498 203.641C165.203 219.682 174.049 230.962 187.806 238.603C189.975 239.808 193.635 240.701 196.939 241.508C198.718 241.942 200.393 242.351 201.678 242.77C201.879 242.836 202.097 242.905 202.324 242.966C202.913 250.678 203.503 258.391 204.161 266.098C204.239 267.004 204.526 267.891 204.864 268.851C205.331 270.179 207.3 270.138 207.612 268.767C207.74 268.203 207.667 267.636 207.593 267.073V267.072C207.569 266.891 207.546 266.709 207.53 266.529C206.803 258.689 206.09 250.848 205.458 243C205.206 239.873 205.072 236.736 204.937 233.6V233.599C204.912 233.007 204.887 232.416 204.861 231.826C204.674 227.606 204.375 227.316 200.286 227.555C200.035 227.569 199.783 227.587 199.531 227.605C198.535 227.675 197.534 227.746 196.562 227.622C196.393 227.6 196.223 227.58 196.054 227.558C194.308 227.34 192.518 227.115 190.915 226.48C184.323 223.866 183.212 216.848 188.704 212.326C189.918 211.326 191.374 210.613 192.825 209.902C193.369 209.636 193.914 209.369 194.444 209.088C194.86 208.867 195.298 208.681 195.736 208.495C196.451 208.192 197.163 207.89 197.77 207.44C197.902 207.341 198.014 207.194 198.106 207.019C198.901 207.003 199.644 206.303 200.225 205.67C201.058 204.762 201.809 203.737 202.408 202.659C204.385 199.105 205.6 195.305 205.696 191.207C205.726 189.954 205.692 188.479 205.658 187.001V187V186.999C205.634 185.919 205.609 184.838 205.609 183.841C206.741 184.269 207.191 184.434 207.415 184.517L207.416 184.517C207.525 184.557 207.581 184.578 207.637 184.6C207.696 184.623 207.754 184.647 207.874 184.698C215.262 187.812 223.105 188.653 230.974 189.283C235.964 189.683 240.975 189.557 245.722 187.752C246.427 187.484 247.041 187.198 247.566 186.89C251.73 191.713 253.851 196.096 255.889 200.303C256.121 200.783 256.352 201.26 256.585 201.735C260.435 209.596 260.08 219.02 254.109 227.159C246.315 237.784 237.738 243.282 224.831 245.002C223.949 245.119 223.061 245.187 222.172 245.255C221.267 245.323 220.361 245.393 219.463 245.514C219.216 245.547 218.953 245.569 218.683 245.589C217.372 245.693 215.937 245.805 215.846 247.423C215.807 248.107 215.9 248.353 216.211 248.736C216.584 249.194 217.032 249.578 217.523 249.905C217.892 250.151 218.314 250.448 218.73 250.74C219.503 251.283 220.251 251.808 220.577 251.952C222.602 253.223 222.624 253.313 223.65 257.443L223.651 257.446C223.688 257.596 223.727 257.752 223.767 257.913C223.802 258.054 223.838 258.2 223.876 258.351C224.352 260.252 224.441 260.927 224.579 261.973C224.678 262.716 224.802 263.646 225.106 265.335L225.143 265.545C225.49 267.488 225.867 269.598 227.462 269.212C229.048 268.895 228.776 267.418 228.542 266.146C228.513 265.993 228.485 265.842 228.462 265.696C228.192 264.059 227.903 262.426 227.615 260.792C227.122 258.007 226.626 255.221 226.12 252.377L226.113 252.331L225.754 250.315L225.501 248.89C225.887 248.797 226.232 248.712 226.551 248.634L226.554 248.633C227.162 248.482 227.676 248.356 228.192 248.247C235.022 246.81 241.445 244.332 247.339 240.585C252.923 237.035 255.471 232.529 258.69 226.84C258.82 226.611 258.951 226.379 259.083 226.145C263.769 217.88 263.769 208.604 259.966 200.816C259.539 199.943 259.139 199.106 258.75 198.293C256.693 193.994 254.949 190.348 251.363 185.534C250.833 184.824 250.366 184.174 249.951 183.577C250.031 182.489 249.679 181.213 248.922 179.692C246.923 175.685 244.213 172.224 240.464 169.629ZM196.663 204.777C196.871 204.37 197.216 203.973 197.552 203.585L197.553 203.583C197.604 203.525 197.654 203.468 197.704 203.41C200.909 199.675 202.183 195.199 202.399 190.39C202.459 189.058 202.445 187.722 202.432 186.386C202.419 185.09 202.406 183.793 202.461 182.5C202.56 180.113 203.312 179.582 205.63 180.267C206.756 180.6 207.855 181.02 208.955 181.44C209.795 181.76 210.634 182.081 211.487 182.363C220.667 185.404 230.085 186.431 239.718 185.653C241.608 185.5 243.274 184.969 244.741 183.736C244.606 183.427 244.612 183.102 244.818 182.673C244.917 182.466 244.959 181.913 244.981 181.226C242.737 176.321 239.392 172.373 234.507 169.986C222.479 164.11 209.922 162.853 196.958 166.503C195.86 166.812 194.307 166.879 194.307 166.879C194.307 166.879 193.765 169.373 192.048 170.794C191.618 171.149 191.2 171.502 190.792 171.847C187.084 174.973 184.129 177.464 180.108 175.83C178.693 179.011 175.788 181.238 173.334 182.177C173.334 182.177 172.675 183.031 172.07 183.932C168.752 188.877 166.78 194.39 166.792 200.303C166.808 207.909 168.821 215.037 173.371 221.345C179.863 230.345 191.08 236.85 202.054 239.433C201.933 237.856 201.812 236.28 201.69 234.705C201.636 234.011 201.575 233.32 201.503 232.501C201.463 232.038 201.418 231.534 201.37 230.968C200.856 230.968 200.354 230.968 199.862 230.97C198.834 230.972 197.844 230.975 196.854 230.966C193.56 230.938 190.437 230.252 187.618 228.511C182.083 225.097 180.455 218.185 184.039 212.759C186.901 208.428 191.418 206.739 195.914 205.057L195.916 205.056C196.165 204.963 196.414 204.87 196.663 204.777ZM127.692 238.082C128.231 239.24 128.294 240.56 127.956 241.793C127.91 241.962 127.865 242.13 127.82 242.296L127.82 242.297C127.397 243.863 127.002 245.323 126.214 246.525C124.014 249.882 121.539 253.061 119.068 256.237C118.579 256.864 118.091 257.492 117.605 258.12C117.137 258.724 116.305 259.274 115.573 259.38C114.896 259.477 113.831 259.14 113.497 258.627C113.23 258.22 113.61 257.094 114.045 256.574C114.901 255.55 115.81 254.564 116.719 253.579C118.331 251.83 119.942 250.085 121.246 248.133C122.644 246.042 123.497 243.56 124.335 241.12C124.479 240.701 124.622 240.283 124.768 239.869C124.872 239.573 124.938 239.245 125.004 238.921C125.219 237.856 125.424 236.84 126.93 237.194C127.238 237.266 127.479 237.623 127.692 238.082ZM136.354 262.014C135.345 263.696 137.7 265.386 139.042 263.957C139.37 263.608 139.64 263.202 139.886 262.774C143.093 257.204 145.116 251.219 145.883 244.833C145.979 244.031 145.905 243.137 145.629 242.388C145.433 241.855 144.646 241.059 144.336 241.145C143.676 241.33 143.088 241.954 142.61 242.517C142.452 242.702 142.457 243.032 142.462 243.356C142.463 243.482 142.465 243.608 142.457 243.724C142.001 250.339 139.796 256.362 136.368 261.991C136.362 261.999 136.359 262.007 136.354 262.014Z" fill="#670224"/>
<path fill-rule="evenodd" clip-rule="evenodd" d="M168.936 418.061L256.522 406.045C256.522 406.045 374.395 376.051 385.089 376.051C395.783 376.051 456.941 367.187 463.281 396.757C468.971 416.704 441.304 462.855 441.304 462.855L506.039 521.248L509.5 518.465L520.564 523.825L525.666 529.271L523.094 535.009L544.588 544.475C544.588 544.475 564.182 514.411 579.315 515.688C587.55 516.964 594.449 539.441 594.449 539.441L542.227 590.077L503.987 558.181L499.831 560.018L410.332 510.058L389.923 538.855L391.535 543.239L382.928 564.257L374.818 565.916L371.32 571.567L367.986 582.024C367.986 582.024 416.821 584.54 425.964 590.077C435.107 595.614 429.488 605.802 429.488 605.802L415.973 621.837L321.441 613.425C321.441 613.425 332.031 570.333 338.436 564.257C344.841 558.181 341.457 560.018 341.457 560.018L327.057 556.365L325.267 552.632L335.47 530.822H341.457L367.986 488.455H362.28L319.704 463.826C319.704 463.826 227.225 503.927 191.674 473.218C176.885 463.826 168.936 418.061 168.936 418.061Z" fill="white"/>
<path fill-rule="evenodd" clip-rule="evenodd" d="M376.348 584.954C376.348 584.954 378.825 584.918 380.529 585.229C379.542 585.975 378.705 586.832 377.885 587.672C376.418 589.176 375.006 590.622 372.888 591.273C372.223 591.477 371.085 591.499 371.361 590.86C372.583 588.03 374.705 585.748 376.348 584.954ZM549.47 544.229C549.912 546.441 550.383 548.802 549.877 551.187C549.712 551.96 548.672 552.114 548.244 551.448C546.763 549.141 545.909 547.122 546.1 545.632C546.1 545.632 547.505 543.486 549.122 542.369C549.22 542.975 549.343 543.596 549.47 544.229ZM386.73 585.472C386.73 585.472 387.777 585.374 391.513 585.761C390.616 586.569 389.775 587.397 388.939 588.219C387.178 589.949 385.443 591.656 383.264 593.114C382.179 593.84 380.858 592.853 381.054 592.089C382.063 588.153 385.115 585.868 386.73 585.472ZM552.182 537.701C552.182 537.701 553.838 534.953 555.526 533.683C557.03 537.845 557.492 540.78 556.461 544.11C555.285 546.035 551.856 539.799 552.182 537.701ZM559.606 528.634C559.888 527.784 560.879 526.577 562.857 525.129C563.735 528.24 564.541 531.712 564.304 535.168C564.253 535.919 563.41 536.342 562.764 535.957C561.28 535.067 561.003 534.109 560.584 532.668C560.498 532.369 560.405 532.05 560.295 531.706C560.09 531.069 559.606 528.634 559.606 528.634ZM396.056 586.179C396.056 586.179 403.565 586.994 404.342 586.803C403.345 587.666 402.36 588.586 401.363 589.517C398.769 591.937 396.102 594.427 392.968 596.17C392.382 596.496 391.635 596.129 391.576 595.461C391.287 592.177 392.46 589.399 396.056 586.179ZM590.993 537.701C591.312 538.08 591.777 539.572 591.777 539.572C587.737 543.154 579.791 550.925 571.344 559.187C558.055 572.184 543.526 586.395 541.012 587.416L539.824 586.242C546.375 579.905 557.23 569.661 567.745 559.737C576.695 551.289 585.399 543.075 590.993 537.701ZM379.452 610.602C391.885 612.28 406.268 614.321 418.69 616.084L417.263 617.331C407.931 616.213 398.312 614.939 388.578 613.651C367.013 610.797 344.886 607.867 324.097 606.386L324.506 603.836C324.506 603.836 325.644 603.995 326.837 604.12C332.193 604.682 337.549 605.245 342.892 605.913L343.971 606.047C355.803 607.526 367.635 609.004 379.452 610.602ZM323.345 610.225C323.398 609.847 323.45 609.471 323.474 609.21C358.677 612.133 382.057 614.909 407.254 617.9C410.129 618.241 413.029 618.586 415.972 618.933L414.35 620.122C409.186 620.376 400.489 619.5 393.462 618.791C390.903 618.533 388.567 618.298 386.702 618.147C382.297 617.791 377.905 617.288 373.513 616.784C370.756 616.467 367.999 616.151 365.239 615.872C362.209 615.566 359.177 615.292 356.145 615.019C352.148 614.659 348.152 614.299 344.163 613.863C339.251 613.327 334.433 612.708 329.581 612.085C327.469 611.813 325.349 611.542 323.214 611.275C323.237 611.007 323.292 610.615 323.345 610.225ZM587.487 532.945C585.144 535.001 582.454 537.359 579.801 539.441C573.907 534.375 571.677 528.116 571.606 520.886C571.599 520.07 571.606 518.991 571.606 518.991C571.995 518.518 573.152 518.175 573.928 517.963C578.056 516.84 581.559 517.945 584.566 520.84C587.145 523.323 588.393 526.567 589.277 529.909C589.373 530.271 589.51 530.843 589.359 531.315C589.359 531.315 589.009 531.612 588.638 531.936C588.265 532.262 587.88 532.599 587.487 532.945ZM410.097 611.941C408.869 611.74 407.602 611.532 406.279 611.324C406.757 607.44 408.764 604.535 410.848 601.673C413.585 597.914 417.049 594.723 421.101 592.443C421.131 592.425 421.16 592.409 421.191 592.392C421.863 592.016 423.331 591.235 423.331 591.235C424.981 591.03 426.366 592.098 427.79 593.197C428.004 593.361 428.219 593.527 428.435 593.689C430.577 595.293 431.273 597.31 430.439 599.869C428.864 604.7 425.983 608.741 422.508 612.32C422.124 612.717 421.851 612.932 420.875 613.425C420.875 613.425 419.366 613.279 418.751 613.211C415.935 612.901 413.136 612.441 410.097 611.941ZM497.525 557.476C492.047 555.198 487.057 552.026 481.642 548.546C482.081 548.038 482.46 547.588 482.803 547.182C483.446 546.42 483.964 545.806 484.521 545.231C492.021 537.491 499.523 529.753 507.057 522.047C510.183 518.849 510.665 518.751 514.372 521.443C516.314 522.854 518.141 524.424 519.968 525.994C520.656 526.585 521.344 527.176 522.038 527.758C523.321 528.834 523.433 530.053 522.379 531.373C522.249 531.536 522.136 531.712 522.023 531.888C521.912 532.06 521.8 532.233 521.673 532.394C520.097 534.397 518.522 536.4 516.947 538.404C512.375 544.222 507.803 550.039 503.183 555.817C501.07 558.458 500.445 558.691 497.525 557.476ZM577.306 541.321C562.614 554.539 550.159 566.32 534.262 582.024L533.057 581.018C524.415 573.81 515.997 566.79 507.146 559.409C510.521 556.044 514.447 552.992 518.383 549.931C522.338 546.856 526.304 543.773 529.731 540.356C531.297 541.004 532.705 541.572 534.057 542.117C536.999 543.305 539.67 544.382 543.091 545.929C543.091 545.929 543.407 547.447 543.829 548.415C544.604 550.186 545.217 551.404 546.009 552.945C546.475 553.852 547.155 554.648 548.019 555.19C548.685 555.607 549.459 555.901 550.095 555.606C550.214 555.551 550.334 555.498 550.452 555.445C551.315 555.059 552.127 554.697 552.358 553.798C552.737 552.328 552.861 550.794 552.992 549.173C553.047 548.483 553.105 547.779 553.183 547.056C553.411 547.109 553.619 547.153 553.813 547.195C554.197 547.276 554.527 547.346 554.846 547.45C557.755 548.403 559.299 547.615 559.853 544.628C560.053 543.552 560.072 541.841 560.089 540.262C560.099 539.303 560.109 538.392 560.159 537.701C565.315 541.93 567.585 539.921 567.287 534.426C567.108 531.13 566.501 527.836 565.835 524.594C565.707 523.971 565.692 523.095 565.801 522.672C565.801 522.672 566.854 521.61 568.37 521.248C569.095 528.845 571.302 535.813 577.306 541.321ZM379.75 563.892C379.102 564.206 378.375 564.321 377.662 564.223C377.138 564.151 376.637 564.084 376.154 564.018C374.489 563.793 373.027 563.596 371.574 563.347C370.011 563.08 368.448 562.812 366.885 562.546C357.408 560.926 347.932 559.307 338.473 557.596C336.532 557.244 334.622 556.728 332.71 556.211C331.55 555.897 330.388 555.582 329.22 555.305C327.364 554.865 326.725 553.877 327.214 551.985C328.93 545.345 332.101 539.37 335.494 533.484C336.277 532.126 337.425 532.148 338.725 532.384C345.764 533.666 352.803 534.945 359.842 536.224C368.719 537.836 377.595 539.449 386.47 541.067C387.053 541.174 387.625 541.351 388.195 541.528C388.42 541.597 388.644 541.667 388.869 541.732C390.716 542.267 391.404 543.532 390.563 545.213C387.654 551.018 384.709 556.809 381.571 562.492C381.212 563.141 380.435 563.559 379.75 563.892ZM346.969 453.631C365.086 445.787 382.976 438.042 401.614 431.774C399.058 434.952 396.463 438.101 393.87 441.249C382.224 455.386 370.58 469.522 362.306 486.345C348.828 479.425 336.167 472.145 322.943 463.881C331.05 460.522 339.031 457.067 346.969 453.631ZM364.074 567.133C366.274 567.136 368.493 567.139 370.733 567.139C369.983 570.188 368.734 573.789 367.672 576.849C366.595 579.952 365.712 582.498 365.739 583.348C365.769 584.297 368.758 584.297 370.597 584.297C371.31 584.296 371.85 584.296 371.978 584.351C371.686 584.802 371.376 585.268 371.057 585.745C369.61 587.915 368.005 590.32 367.268 592.65C366.992 593.527 366.858 594.64 367.463 595.418C367.867 595.937 368.549 596.178 369.207 596.194C370.803 596.232 372.37 595.278 373.76 594.432C373.998 594.288 374.23 594.146 374.457 594.013C376.033 593.09 377.689 592.088 378.933 590.73C377.932 591.824 377.65 593.955 377.86 595.369C378.315 598.415 381.982 597.813 383.817 596.462C384.934 595.64 386.003 594.755 387.213 593.752C387.781 593.282 388.379 592.786 389.028 592.26C388.933 592.839 388.839 593.344 388.754 593.801C388.592 594.671 388.463 595.368 388.419 596.069C388.232 599.107 389.996 600.567 392.838 599.498C394.487 598.879 396.046 597.846 397.429 596.732C400.123 594.563 402.835 592.371 405.218 589.879C406.324 588.723 407.185 587.549 407.481 587.143C407.481 587.143 410.789 587.656 412.646 587.992C413.684 588.18 414.714 588.446 415.93 588.759C416.746 588.97 417.647 589.202 418.69 589.447C417.759 590.116 416.867 590.712 416.021 591.277C414.233 592.471 412.649 593.53 411.324 594.849C409.203 596.959 407.282 599.423 405.877 602.055C404.532 604.575 402.826 609.21 402.893 610.735C390.567 609.151 378.202 607.563 365.78 605.967C352.348 604.242 338.85 602.509 325.266 600.764C325.364 600.307 325.449 599.871 325.532 599.45C325.699 598.595 325.855 597.804 326.078 597.033C328.86 587.424 332.952 578.346 337.435 569.44C337.525 569.261 337.639 569.005 337.761 568.734C338.006 568.188 338.278 567.579 338.435 567.406C338.435 567.406 339.626 567.244 340.014 567.238C347.95 567.115 355.89 567.124 364.074 567.133ZM496.039 514.122L503.986 521.088L478.532 547.213C469.299 541.758 459.958 536.548 450.626 531.344C437.739 524.156 424.868 516.977 412.317 509.175C416.564 502.821 420.77 496.529 424.964 490.257C430.366 482.176 435.746 474.128 441.164 466.022C459.41 482.015 477.527 497.895 496.039 514.122ZM537.79 582.636C537.933 582.491 538.058 582.363 538.135 582.278C538.135 582.278 583.159 539.441 589.707 533.683L590.35 535.893L541.001 581.818C540.051 582.744 538.153 584.664 538.153 584.664L536.947 583.582C537.048 583.389 537.462 582.969 537.79 582.636ZM408.178 430.04C409.207 428.062 407.259 425.846 405.173 426.637C404.997 426.704 404.822 426.774 404.648 426.845C404.489 426.908 404.332 426.971 404.174 427.032C401.59 428.028 398.999 429.007 396.408 429.986C390.588 432.185 384.768 434.385 379.027 436.777C365.926 442.239 352.853 447.767 339.779 453.295C329.795 457.517 319.81 461.74 309.813 465.932C293.219 472.891 276.503 479.44 258.609 482.466C246.155 484.572 233.733 486.643 221.09 484.511C201.867 481.271 186.899 472.228 179.142 453.439C175.851 445.468 173.575 437.221 172.114 428.744C171.798 426.91 171.534 425.067 171.271 423.224C170.986 421.232 170.701 419.24 170.35 417.26C170.326 417.123 170.265 416.993 170.178 416.867C169.59 416.014 168.209 416.12 167.764 417.056C167.699 417.192 167.66 417.328 167.66 417.464C167.661 418.728 167.85 419.992 168.039 421.254C168.096 421.638 168.154 422.021 168.206 422.404C169.888 434.805 172.679 446.902 178.156 458.245C181.326 464.813 185.561 470.529 191.388 475.054C204.616 485.328 219.817 489.153 236.196 488.21C255.215 487.114 273.733 483.184 291.566 476.372C299.705 473.262 307.791 470.008 315.815 466.617C317.134 466.061 319.285 465.398 319.285 465.398C319.285 465.398 321.547 466.453 322.706 467.137C331.753 472.476 340.874 477.691 349.993 482.905C352.525 484.352 355.056 485.799 357.587 487.249C359.213 488.182 360.857 489.083 362.515 489.991C363.27 490.405 364.029 490.82 364.789 491.241C362.142 495.361 359.511 499.454 356.888 503.535C351.359 512.138 345.867 520.683 340.334 529.295C340.211 529.302 340.075 529.32 339.931 529.339C339.588 529.385 339.199 529.436 338.841 529.354C335.788 528.649 333.852 529.846 332.569 532.633C331.713 534.493 330.797 536.327 329.881 538.161C328.322 541.281 326.765 544.398 325.51 547.636C322.529 555.326 323.54 556.928 331.386 558.979C332.877 559.369 334.363 559.776 335.929 560.206C336.684 560.413 337.458 560.625 338.26 560.843C337.484 562.466 336.73 564.04 335.992 565.58C334.411 568.878 332.906 572.019 331.416 575.168C326.306 585.962 322.446 597.179 320.036 608.884C319.223 612.834 319.943 613.968 323.897 614.443C332.138 615.432 340.387 616.357 348.642 617.217C349.648 617.321 350.654 617.426 351.66 617.532C363.037 618.717 374.415 619.902 385.809 620.928C394.9 621.746 404.013 622.338 413.127 622.864C414.678 622.954 416.819 622.729 417.765 621.755C418.255 621.249 418.748 620.745 419.241 620.241C423.578 615.802 427.931 611.347 430.998 605.839C435.96 596.922 434.022 591.815 424.385 588.261C416.923 585.51 409.187 583.975 401.303 583.475L400.145 583.402C391.296 582.839 382.5 582.28 373.63 581.933C373.228 581.917 372.815 581.93 372.381 581.943C371.574 581.968 370.695 581.995 369.678 581.843C370.529 579.113 371.379 576.391 372.185 573.807C372.927 571.432 373.632 569.172 374.269 567.129C374.358 566.844 376.157 567.05 377.179 567.168C377.497 567.204 377.74 567.232 377.832 567.234C379.085 567.252 380.389 567.123 381.519 566.536C383.135 565.695 384.267 564.192 385.075 562.597C386.205 560.363 387.386 558.153 388.566 555.944C389.799 553.64 391.03 551.335 392.205 549.001C394.011 545.413 395.264 541.751 391.292 538.902C397.769 529.676 404.018 520.774 410.334 511.777C410.849 512.045 411.316 512.285 411.752 512.508C412.598 512.94 413.322 513.311 414.028 513.713C422.425 518.499 430.82 523.287 439.216 528.075C456.181 537.749 473.145 547.423 490.117 557.084C492.037 558.176 493.999 559.278 496.074 559.984C497.851 560.589 499.874 561.042 501.689 560.807C502.598 560.689 503.14 559.749 503.14 559.749C503.14 559.749 505.174 561.619 505.766 562.117C508.793 564.662 511.841 567.184 514.889 569.705C516.749 571.243 518.608 572.781 520.463 574.325C522.415 575.949 524.359 577.584 526.303 579.218C530.398 582.661 534.492 586.103 538.659 589.457C541.413 591.673 542.152 591.607 544.718 589.154C549.818 584.278 554.839 579.312 559.768 574.264C561.07 572.929 562.37 571.591 563.669 570.252C572.788 560.862 581.904 551.471 592.233 543.359C593.81 542.121 594.702 540.711 594.383 538.769C593.326 532.331 591.99 525.937 588.119 520.497C584.57 515.509 578.934 513.399 573.14 515.293C569.936 516.341 566.686 518.003 564.161 520.2C560.575 523.322 557.426 526.973 554.308 530.6C553.222 531.862 552.261 533.154 551.308 534.435C549.875 536.359 548.461 538.258 546.668 540.003C545.007 541.621 543.965 542.276 543.965 542.276C542.922 542.268 541.61 541.733 539.676 540.933C539.676 540.933 533.077 538.096 527.729 535.282C527.261 535.036 526.824 534.841 526.395 534.649C525.804 534.386 525.227 534.129 524.609 533.754C524.705 533.497 524.747 533.375 524.772 533.3C524.812 533.184 524.813 533.179 524.92 532.961C526.915 528.898 526.838 528.139 523.463 525.093C521.206 523.055 518.825 521.146 516.425 519.276C513.146 516.722 509.709 515.229 505.831 518.649C500.434 513.942 495.026 509.265 489.624 504.593C473.831 490.935 458.084 477.318 442.791 463.092C443.102 462.513 443.389 461.982 443.661 461.479C444.104 460.658 444.507 459.913 444.905 459.167C446.032 457.054 447.174 454.948 448.316 452.843C450.936 448.014 453.555 443.186 455.986 438.264C459.915 430.311 463.066 422.032 464.971 413.329C467.477 401.874 465.248 391.826 455.887 384.132C453.458 382.137 450.64 380.506 447.789 379.153C439.813 375.367 431.291 373.58 422.509 373.194C397.559 372.1 373.095 375.853 348.85 381.152C337.609 383.609 326.457 386.483 315.307 389.357C313.072 389.933 310.836 390.509 308.6 391.082C294.735 394.634 280.893 398.278 267.052 401.923C263.784 402.783 260.517 403.644 257.248 404.503C257.017 404.564 256.756 404.609 256.486 404.656C255.327 404.856 254.027 405.081 254.438 406.681C254.848 408.278 256.067 407.856 257.18 407.472C257.444 407.38 257.703 407.291 257.943 407.231C263.259 405.914 268.587 404.634 273.915 403.355C286.199 400.404 298.482 397.454 310.634 394.038C338.908 386.089 367.32 379.033 396.691 376.636C408.148 375.702 419.616 375.156 431.041 377.085C437.636 378.198 443.966 380.13 449.809 383.44C459.949 389.181 464.511 398.481 462.542 409.925C461.82 414.128 460.709 418.307 459.351 422.355C454.884 435.682 448.202 447.964 441.022 459.976C429.684 478.944 417.03 497.023 404.411 515.052C399.014 522.764 393.622 530.466 388.343 538.226C381.803 537.054 375.313 535.892 368.813 534.727C360.529 533.243 352.23 531.757 343.793 530.246C344.105 529.66 344.377 529.13 344.627 528.64C345.109 527.696 345.515 526.901 345.992 526.151C347.657 523.537 349.302 520.909 350.948 518.281C354.96 511.873 358.972 505.464 363.274 499.257C378.655 477.062 393.504 454.53 407.426 431.391C407.692 430.95 407.94 430.497 408.178 430.04ZM528.628 559.666C528.658 562.07 530.459 564.304 532.384 564.323C534.224 564.342 536.037 561.971 536.021 559.565C536.007 557.302 534.413 555.658 532.181 555.607C529.998 555.557 528.596 557.157 528.628 559.666ZM531.741 552.665C536.236 552.712 538.712 555.16 538.719 559.564C538.726 563.978 535.946 567.409 532.393 567.372C528.734 567.334 525.509 563.457 525.672 559.29C525.848 554.788 527.83 552.624 531.741 552.665ZM341.462 587.099C341.337 590.202 343.071 592.37 345.842 592.575C349.637 592.856 353.581 589.605 354.022 585.832C354.372 582.839 352.338 580.039 349.654 579.817C345.984 579.514 341.611 583.402 341.462 587.099ZM356.751 585.209C356.74 591.02 351.488 595.947 345.678 595.596C340.373 595.276 336.953 589.55 339.07 584.236C340.866 579.726 344.463 577.293 349.206 576.834C353.64 576.407 356.761 580.03 356.751 585.209Z" fill="#670224"/>
<path fill-rule="evenodd" clip-rule="evenodd" d="M196.568 264.249L175.213 267.384L142.307 283.31L128.577 301.57L116.624 330.196L107.903 362.308L102.512 380.425L104.344 398.145L108.705 411.497L126.82 420.037H160.586L186.215 418.636L193.304 423.127L204.892 428.571L230.278 432.762H265.004L304.671 420.908L306.299 412.561L334.075 396.06L379.153 365.869L376.297 355.188L423.603 339.725L426.231 334.653L422.867 332.759L423.603 327.985L418.408 325.993L416.693 319.572L391.101 327.124L394.956 318.281L392.663 315.926L366.94 334.046L356.752 327.985L321.632 338.856L318.397 333.037L310.325 309.199L296.133 286.279L277.356 270.551L257.471 265.225L227.296 262.153L223.601 260.851C223.601 260.851 206.314 260.164 201.44 261.519C196.568 262.875 196.568 264.249 196.568 264.249Z" fill="white"/>
<path fill-rule="evenodd" clip-rule="evenodd" d="M240.156 397.524L237.106 397.569C226.289 397.569 215.472 397.569 204.533 397.57L204.261 401.463C206.383 401.765 208.475 402.063 210.546 402.357C214.888 402.975 219.139 403.58 223.39 404.181C224.548 404.344 225.703 404.518 226.859 404.691H226.86C229.662 405.112 232.465 405.532 235.281 405.809C243.466 406.615 250.837 404.195 257.618 399.749C258.171 399.385 258.67 398.937 259.297 398.374C259.631 398.074 260.001 397.741 260.436 397.371L258.564 397.379L257.503 397.384C252.608 397.406 248.109 397.427 243.507 397.448C242.85 399.625 241.676 401.478 239.369 401.591C235.396 401.786 231.401 401.74 227.426 401.568C226.475 401.527 225.698 401.145 225.496 400.324C225.248 399.308 226.167 398.371 227.21 398.451L227.371 398.463L227.373 398.464C228.686 398.564 230.042 398.668 231.4 398.728C231.741 398.742 232.23 398.8 232.805 398.866C235.378 399.163 239.673 399.659 240.156 397.524ZM422.416 329.864C422.411 329.312 422.061 328.805 421.551 328.593C419.804 327.867 418.01 328.27 416.25 328.665C416.138 328.69 416.026 328.715 415.916 328.74C414.429 329.07 412.949 329.434 411.47 329.799C409.324 330.329 407.178 330.858 405.01 331.281C404.144 331.449 402.482 330.99 402.273 330.421C401.685 328.819 403.152 328.44 404.39 328.138C406.306 327.67 408.218 327.188 410.123 326.678C411.36 326.347 412.608 326.06 413.857 325.774H413.858L414.132 325.711C415.383 325.423 416.291 324.944 416.483 323.662C416.589 322.952 415.978 322.339 415.265 322.417L415.087 322.437C414.15 322.537 413.25 322.634 412.418 322.923C408.232 324.376 404.056 325.856 399.879 327.337L399.878 327.338C395.736 328.805 391.595 330.274 387.445 331.714L387.422 331.723C386.054 332.188 384.737 330.868 385.225 329.508C385.302 329.291 385.403 329.095 385.543 328.929C386.52 327.759 387.589 326.666 388.657 325.572C389.523 324.685 390.389 323.798 391.208 322.87L391.296 322.77C392.3 321.633 393.393 320.397 392.853 317.976C388.094 320.837 383.867 324.263 379.67 327.664C374.991 331.454 370.349 335.216 365.051 338.131C368.054 344.476 370.865 350.415 373.569 356.127C376.425 355.076 379.241 354.028 382.031 352.99L382.034 352.988H382.035C388.5 350.582 394.827 348.227 401.201 346.004C405.544 344.489 409.952 343.162 414.361 341.836L414.363 341.835C416.179 341.288 417.995 340.742 419.807 340.182C421.494 339.661 423.02 339 423.803 337.22C424.135 336.463 423.455 335.644 422.64 335.786L422.281 335.849C421.013 336.07 419.858 336.271 418.721 336.551C416.521 337.092 414.328 337.665 412.136 338.237L412.133 338.237C410.312 338.713 408.492 339.188 406.667 339.645C406.568 339.67 406.468 339.696 406.368 339.722C406.012 339.815 405.651 339.909 405.287 339.967C403.586 340.239 402.851 337.903 404.395 337.139C405.08 336.8 405.753 336.501 406.454 336.3C410.706 335.082 414.981 333.912 419.305 332.993C421.347 332.56 422.432 331.735 422.416 329.864ZM292.609 424.277C293.665 423.852 294.717 423.427 295.766 423.005L295.786 422.997C297.814 422.18 299.832 421.366 301.851 420.555C303.489 419.896 304.057 418.76 303.87 416.963C303.4 412.439 303.05 407.903 302.7 403.367L302.634 402.507C302.442 400.012 302.088 397.844 299.765 396.084C297.186 394.131 297.538 392.688 300.274 390.63C300.479 390.476 300.641 390.264 300.839 390.003C300.943 389.866 301.057 389.715 301.194 389.551C301.027 388.747 300.859 387.939 300.691 387.13C299.916 383.401 299.133 379.628 298.335 375.857C298.252 375.467 296.687 370.871 296.79 374.122C296.615 375.199 296.171 376.244 295.742 377.25C294.82 379.417 293.971 381.413 296.047 383.197C295.268 384.579 295.121 386.096 294.983 387.539C294.906 388.336 294.832 389.111 294.654 389.828C293.769 393.388 291.745 394.949 288.241 395.038H288.221C286.303 395.086 284.496 395.132 283.262 397.23C282.889 397.863 281.994 398.188 281.051 398.531C280.608 398.691 280.154 398.856 279.74 399.058C279.256 398.057 278.91 397.342 278.585 396.669L278.312 396.104L275.25 396.367C272.082 396.639 269.037 396.901 266.244 397.141C265.383 398.026 264.725 399.119 264.079 400.19C262.493 402.826 260.981 405.337 256.703 404.344C256.451 404.286 256.125 404.487 255.823 404.674C255.737 404.726 255.654 404.777 255.575 404.821C246.631 409.816 237.037 410.055 227.336 408.253C222.082 407.276 217.33 407.859 212.37 408.467L211.864 408.529C209.28 408.845 209.344 410.808 209.4 412.495C209.41 412.796 209.419 413.088 209.414 413.361C209.4 414.039 209.314 414.721 209.228 415.402C208.978 417.399 208.728 419.387 210.286 421.242C210.52 421.521 210.396 422.1 210.271 422.68C210.213 422.948 210.155 423.216 210.133 423.454C209.871 423.399 209.593 423.366 209.314 423.334C208.686 423.26 208.059 423.187 207.62 422.858C207.045 422.429 206.626 421.79 206.217 421.169C206.045 420.906 205.874 420.646 205.694 420.406C205.096 420.543 204.516 420.673 203.948 420.799L203.942 420.801C202.67 421.085 201.464 421.356 200.264 421.653C199.027 421.961 197.797 422.296 196.568 422.631H196.567C196.022 422.78 195.478 422.928 194.932 423.075C196.223 424.372 197.568 424.983 198.954 425.482C200.001 425.857 201.07 426.171 201.83 426.394C202.094 426.472 202.321 426.539 202.497 426.593C204.466 425.741 205.736 425.192 207.005 424.644C207.249 425.646 207.493 426.648 207.819 427.991L207.918 428.397C234.724 433.942 261.436 433.476 288.999 425.599C288.531 425.171 288.128 424.826 287.779 424.528C287.108 423.954 286.639 423.553 286.299 423.062C285.894 422.474 285.504 421.455 285.756 420.95C286.034 420.389 287.089 419.848 287.733 419.924C288.598 420.025 289.528 420.582 290.185 421.202C290.793 421.775 291.289 422.466 291.831 423.219C292.076 423.561 292.331 423.915 292.609 424.277ZM303.904 323.954C307.685 325.663 307.993 327.017 304.971 329.053C303.492 330.049 302.958 331.122 302.801 332.694C302.725 333.454 302.623 334.212 302.521 334.969V334.97V334.971C302.402 335.859 302.283 336.747 302.205 337.639C302.191 337.805 302.174 337.97 302.157 338.133C302.013 339.528 301.881 340.803 303.481 342.028C305.052 343.228 304.718 346.335 303.057 347.562C299.205 350.407 299.59 354.551 299.929 358.195C299.964 358.586 300 358.971 300.03 359.347C300.283 362.523 301.436 365.629 302.588 368.734C303.076 370.046 303.563 371.358 303.981 372.675C304.778 375.179 305.583 377.683 306.386 380.186L306.388 380.191C307.781 384.531 309.174 388.87 310.535 393.219C311.295 395.651 311.993 398.1 312.696 400.573L312.698 400.578C313.015 401.693 313.334 402.813 313.66 403.937C315.72 402.784 316.664 402.255 317.559 402.328C318.314 402.389 319.036 402.878 320.367 403.782C320.455 403.147 320.535 402.53 320.615 401.926L320.615 401.925C320.814 400.412 321.002 398.985 321.251 397.568C321.36 396.955 321.724 395.98 322.102 395.913C322.785 395.792 323.734 396.029 324.268 396.479C324.885 396.997 325.387 397.652 325.943 398.374L325.943 398.376C326.191 398.698 326.449 399.034 326.732 399.378C332.242 395.846 337.481 392.487 342.246 389.434L343.471 388.648C343.516 387.993 343.5 387.358 343.487 386.782C343.458 385.673 343.436 384.782 343.871 384.371C344.423 383.847 344.797 383.118 345.172 382.387C345.91 380.948 346.651 379.501 348.761 379.595C349.819 381.036 349.219 382.173 348.581 383.384C348.145 384.209 347.692 385.069 347.735 386.083C348.582 385.537 349.404 385.014 350.205 384.505C352.271 383.19 354.198 381.965 356.066 380.654C356.76 380.168 357.313 379.254 357.579 378.424C358.521 375.486 360.274 374.108 363.202 374.248C363.455 374.26 363.729 374.307 364.003 374.354C364.578 374.453 365.151 374.552 365.527 374.323C367.958 372.844 370.333 371.273 372.77 369.661H372.771L372.775 369.659C373.602 369.11 374.439 368.557 375.286 368.002L364.512 344.994L357.209 329.395C355.9 329.794 354.639 330.185 353.412 330.565L353.411 330.566C350.585 331.441 347.933 332.263 345.261 333.014C343.108 333.619 341.075 334.251 340.45 336.578C339.941 336.499 339.447 336.377 338.973 336.259C338.002 336.019 337.114 335.799 336.356 336.019C332.998 336.996 329.687 338.13 326.266 339.301C324.988 339.739 323.695 340.181 322.379 340.623C322.571 341.785 322.762 342.922 322.95 344.04L322.951 344.044C323.428 346.888 323.886 349.613 324.299 352.345C324.31 352.422 324.323 352.5 324.335 352.58C324.518 353.74 324.745 355.177 323.232 355.492C321.671 355.816 321.285 354.373 321.078 353.087C320.901 351.995 320.714 350.904 320.509 349.817C320.21 348.228 319.913 346.638 319.616 345.048C318.694 340.114 317.772 335.18 316.788 330.259C316.555 329.096 316.166 327.964 315.755 326.764C315.558 326.19 315.357 325.602 315.164 324.986C312.147 325.75 310.105 324.361 308.291 322.602C307.026 321.375 307.044 319.169 308.245 318.126C309.595 316.95 310.753 317.42 311.762 318.717C311.851 318.832 312.049 318.861 312.328 318.904C312.487 318.928 312.671 318.956 312.877 319.005C311.325 314.272 309.773 309.953 306.254 305.959C305.43 312.263 304.684 317.978 303.904 323.954ZM160.582 298.512C160.892 294.378 161.173 293.142 162.749 293.158C163.675 293.168 164.445 293.983 164.345 294.904C164.325 295.092 164.322 295.277 164.349 295.458C164.379 295.656 164.405 295.872 164.433 296.096C164.564 297.149 164.714 298.371 165.275 298.65C166.28 299.147 168.777 298.947 170.19 298.833C170.289 298.825 170.383 298.817 170.471 298.811C170.613 298.799 170.499 298.342 170.381 297.865C170.256 297.357 170.124 296.828 170.291 296.791C171.246 296.586 172.558 297.203 172.887 297.619C174.168 299.232 175.824 299.285 177.49 299.338C177.833 299.349 178.177 299.361 178.519 299.385C181.325 299.588 184.141 299.744 186.955 299.709C187.83 299.698 188.591 299.704 189.25 299.709C192.347 299.733 193.18 299.739 192.841 297.896C192.616 296.67 195.018 296.436 195.516 297.715C196.321 299.773 197.775 299.728 199.275 299.681C199.49 299.675 199.706 299.668 199.921 299.668C200.656 299.666 201.803 299.633 203.069 299.595C205.381 299.527 208.093 299.448 209.426 299.528C211.271 299.639 211.391 299.361 211.773 298.48C211.98 298.004 212.263 297.352 212.936 296.49C212.999 296.411 213.638 296.371 214.258 296.351C214.849 296.333 215.37 296.69 215.617 297.227C216.378 298.872 217.59 299.462 217.59 299.462C219.795 299.344 223.847 299.206 225.715 299.144C226.178 298.676 226.618 298.218 227.045 297.773C228.125 296.648 229.125 295.605 230.234 294.698C230.675 294.339 231.962 294.472 232.454 294.875C232.929 295.265 233.127 296.339 233 297.03C232.903 297.556 232.574 298.039 232.201 298.587C232.026 298.844 231.841 299.115 231.666 299.412C232.097 299.418 232.478 299.434 232.825 299.449C233.494 299.476 234.041 299.499 234.58 299.447C235.369 299.371 236.167 299.385 236.965 299.399C239.103 299.435 241.238 299.472 243.192 297.792C244.435 296.723 246.327 297.456 247.818 298.492C248.754 299.143 249.893 299.827 250.974 299.887C256.223 300.179 261.482 300.333 266.739 300.37C267.496 300.375 268.257 300.045 269.017 299.716C269.354 299.57 269.692 299.424 270.028 299.307C270.409 299.175 270.795 299.003 271.18 298.83C272.067 298.432 272.952 298.035 273.774 298.141C274.295 298.207 274.72 299.019 275.126 299.793C275.301 300.129 275.474 300.458 275.649 300.716L283.844 301.288C283.93 300.799 284.028 300.325 284.124 299.86V299.859C284.337 298.83 284.539 297.848 284.586 296.858C284.662 295.234 285.497 294.486 286.922 294.695C288.438 294.918 288.742 295.913 288.332 297.472C288.094 298.377 288.141 299.357 288.191 300.375C288.213 300.838 288.236 301.307 288.232 301.782C289.581 301.764 290.869 301.917 292.12 302.066C294.612 302.362 296.956 302.64 299.335 301.522C299.95 301.231 300.97 301.674 301.853 302.057C302.02 302.13 302.182 302.2 302.336 302.263C302.892 302.491 303.395 302.847 303.898 303.203V303.203C304.125 303.364 304.352 303.525 304.585 303.673L304.785 303.479L304.791 303.473C304.871 303.395 304.921 303.347 305.09 303.184C304.439 302.039 303.789 300.896 303.171 299.811L301.886 297.552C301.289 297.438 300.699 297.377 300.14 297.318C298.986 297.199 297.959 297.092 297.246 296.561C295.896 295.557 296.646 294.728 297.374 293.922C297.754 293.502 298.128 293.088 298.196 292.659C297.993 292.39 297.795 292.118 297.599 291.849C295.861 289.472 294.246 287.262 290.799 287.565C290.295 287.61 289.75 287.2 289.146 286.745C288.847 286.52 288.535 286.285 288.205 286.087L288.686 285.168L288.692 285.157C289.074 284.427 289.445 283.718 289.907 282.835L287.064 280.471L287.041 280.453C284.281 278.158 281.409 275.771 278.097 273.019C278.044 273.773 278.016 274.41 277.992 274.965C277.945 276.051 277.91 276.827 277.731 277.567C277.531 278.391 277.055 279.364 276.393 279.775C276.031 280 274.683 279.377 274.389 278.816C273.787 277.669 273.336 276.312 273.313 275.032C273.299 274.257 273.601 273.476 273.917 272.658C274.061 272.286 274.207 271.906 274.329 271.514C273.991 271.365 273.674 271.217 273.369 271.075L273.368 271.074C272.723 270.773 272.134 270.498 271.522 270.295C270.457 269.943 269.373 269.649 268.559 269.428C268.275 269.351 268.024 269.283 267.817 269.224C267.11 269.531 266.47 269.859 265.87 270.166C264.647 270.793 263.596 271.332 262.507 271.422C260.134 271.619 259.578 269.508 259.506 267.565C250.166 266.307 241.145 265.091 232.062 263.867L231.034 265.771L230.925 265.973C230.379 266.985 229.869 267.929 229.357 268.878C229.465 269.065 229.576 269.239 229.682 269.406C229.902 269.748 230.101 270.061 230.224 270.402C231.096 272.845 229.64 275.024 227.36 274.188C225.232 273.407 223.797 274.115 222.205 274.901C222.029 274.988 221.851 275.075 221.67 275.162C210.745 280.409 199.654 276.342 194.604 268.785C193.435 267.036 191.981 266.455 190.022 266.81C189.172 266.964 188.324 267.131 187.443 267.305L187.441 267.305C187.058 267.38 186.669 267.457 186.27 267.534C186.196 267.691 186.125 267.849 186.054 268.006C185.902 268.344 185.75 268.678 185.576 269.001C184.365 271.256 183.15 271.807 181.471 270.144C179.747 268.436 178.322 268.959 177.103 269.406C177.014 269.439 176.927 269.471 176.841 269.501C176.555 270.079 176.331 270.673 176.121 271.228C175.698 272.347 175.333 273.312 174.649 273.677C173.429 274.328 172.914 273.514 172.315 272.566C171.909 271.926 171.465 271.225 170.739 270.873C169.415 271.495 168.081 272.118 166.741 272.745C162.783 274.595 158.769 276.472 154.778 278.397C153.821 278.858 152.588 279.529 152.306 280.377C152.15 280.848 152.453 281.451 152.77 282.08C152.968 282.475 153.171 282.879 153.269 283.267C153.421 283.866 153.447 284.971 153.166 285.11C152.544 285.416 151.479 285.566 150.979 285.221C150.222 284.701 149.587 284.004 148.937 283.291C148.667 282.994 148.394 282.695 148.11 282.405C147.817 282.61 147.535 282.804 147.261 282.991C146.682 283.387 146.141 283.757 145.626 284.161C145.21 284.489 144.81 284.839 144.41 285.189C143.765 285.754 143.121 286.319 142.411 286.783C141.256 287.538 139.537 289.126 139.774 289.809C139.884 290.123 140.104 290.466 140.33 290.818C140.609 291.252 140.897 291.7 141.002 292.129C141.006 292.147 141.008 292.172 141.009 292.204C141.021 293.075 140.052 293.624 139.278 293.226C139.141 293.156 139.004 293.083 138.868 293.01C138.271 292.692 137.689 292.382 137.289 292.354C137.166 292.476 137.073 292.564 137.002 292.633C136.888 292.74 136.827 292.799 136.779 292.866C128.548 304.36 123.361 317.312 118.826 330.562C118.522 331.45 118.883 332.673 119.207 333.651C120.446 337.396 119.34 339.88 115.524 341.397L115.118 343.236L114.628 345.456C115.063 346.08 115.805 346.387 116.508 346.679C117.629 347.144 118.646 347.566 118.141 349.156C117.671 350.637 116.492 350.555 115.182 350.464C114.479 350.415 113.737 350.363 113.046 350.549C112.446 352.973 111.843 355.415 111.238 357.869C109.818 363.622 108.383 369.44 106.922 375.251C105.461 381.061 104.624 386.937 105.12 392.928C105.757 400.63 108.385 407.382 114.46 412.398C115.611 411.823 116.815 411.582 117.989 411.346C119.636 411.016 121.225 410.698 122.533 409.487C122.81 409.229 123.534 409.454 124.209 409.664C124.506 409.756 124.794 409.845 125.03 409.888C126.123 414.851 124.613 415 119.921 415.463L119.688 415.486C122.461 417.952 134.321 419.822 138.233 418.562C137.984 418.341 137.713 418.137 137.444 417.935C136.832 417.475 136.235 417.025 135.962 416.429C135.787 416.046 135.871 415.545 136.004 415.021C136.176 414.345 136.847 413.912 137.53 414.059C137.958 414.151 138.377 414.262 138.761 414.445C139.046 414.582 139.313 414.88 139.564 415.158C139.867 415.496 140.146 415.807 140.403 415.771C143.166 415.385 144.103 416.947 144.314 419.389C150.746 420.035 158.783 419.375 164.962 418.708C165.213 418.681 165.201 418.303 165.184 417.786C165.157 416.894 165.117 415.586 166.386 414.941C167.648 414.606 167.808 414.816 168.246 415.389C168.551 415.791 168.992 416.369 170.043 417.065C170.654 417.469 171.502 417.761 172.165 417.665C175.506 417.178 179.537 416.478 183.164 415.85L183.171 415.848C183.678 415.761 184.176 415.674 184.664 415.59C184.715 413.074 185.583 410.969 188.049 411.025C189.06 411.049 190.057 411.689 191.054 412.329C191.503 412.617 191.952 412.905 192.402 413.136C192.344 413.365 192.286 413.593 192.229 413.822C192.822 413.647 193.415 413.474 194.008 413.3C194.823 413.061 195.638 412.822 196.452 412.583C196.137 409.969 196.211 407.826 198.988 406.924C199.383 406.795 199.807 406.123 199.854 405.665C200.034 403.913 200.149 402.154 200.266 400.366C200.308 399.738 200.349 399.106 200.394 398.47C199.83 398.694 199.308 398.955 198.823 399.197C197.814 399.701 196.967 400.124 196.249 399.966C195.596 399.821 195.091 399.013 194.557 398.157C194.311 397.766 194.061 397.364 193.787 397.013C192.174 396.976 190.549 396.941 188.915 396.905H188.909C184.685 396.814 180.401 396.721 176.118 396.604C175.693 396.593 175.057 396.518 174.38 396.439C173.342 396.317 172.209 396.185 171.591 396.251C171.031 396.311 170.913 396.785 170.772 397.348C170.65 397.843 170.509 398.406 170.039 398.821C168.407 400.258 167.027 398.924 166.963 395.507C166.817 395.064 166.451 394.916 166.089 394.769C165.959 394.716 165.83 394.664 165.711 394.598C162.94 393.056 162.544 390.375 162.148 387.688L162.119 387.496C161.767 385.113 161.441 382.725 161.103 380.261V380.261L161.102 380.253C160.958 379.197 160.811 378.129 160.66 377.039C160.312 376.944 159.971 376.832 159.633 376.72C158.904 376.48 158.194 376.246 157.474 376.207C156.094 376.132 154.709 376.129 153.324 376.125C152.08 376.122 150.836 376.118 149.593 376.063C149.347 376.052 149.081 376.055 148.806 376.056C147.351 376.067 145.682 376.079 145.685 374.193C145.688 372.462 147.083 372.613 148.333 372.747C148.689 372.785 149.033 372.821 149.33 372.814C151.875 372.744 154.422 372.769 156.967 372.796C157.97 372.806 158.973 372.817 159.974 372.821C159.993 367.567 159.933 367.545 155.205 367.017C154.66 366.956 154.136 366.7 153.618 366.431C153.075 366.149 152.747 365.572 152.778 364.961C152.787 364.781 152.795 364.603 152.804 364.427C152.858 363.281 152.907 362.234 153.107 361.217C153.245 360.517 153.891 359.492 154.441 359.397C155.245 359.259 156.429 359.578 156.982 360.152C157.484 360.675 157.845 361.659 158.181 362.577C158.37 363.096 158.552 363.593 158.748 363.973C158.919 363.927 159.04 363.98 159.161 364.034C159.282 364.088 159.402 364.141 159.572 364.095C159.371 361.088 159.09 357.829 158.811 354.598C158.537 351.435 158.266 348.299 158.075 345.452C157.599 344.86 156.817 344.673 156.088 344.499C155.032 344.247 154.087 344.022 154.342 342.625C154.498 341.77 155.343 341.039 156.273 340.234C156.72 339.848 157.186 339.443 157.606 339.001C157.586 338.529 157.58 338.119 157.575 337.704C157.561 336.575 157.545 335.408 157.238 332.867C157.068 329.439 157.003 327.289 156.953 325.62C156.883 323.348 156.842 321.967 156.601 319.466C156.522 317.071 156.389 315.761 156.276 314.646C156.158 313.477 156.062 312.523 156.071 310.755C156.078 309.585 155.963 308.41 155.849 307.231C155.662 305.307 155.474 303.371 155.806 301.423C155.99 300.332 156.817 299.459 157.89 299.189L160.582 298.512ZM290.234 391.352C292.856 385.419 303.018 312.281 302.086 306.541C301.939 306.508 301.789 306.466 301.635 306.424C301.293 306.33 300.933 306.231 300.568 306.194C274.236 303.56 247.814 302.583 221.375 302.611C216.468 302.616 211.56 302.654 206.653 302.692H206.652C192.747 302.8 178.844 302.908 164.942 302.263C163.655 302.203 162.365 302.193 161.026 302.181C160.388 302.176 159.739 302.17 159.074 302.159C159.072 302.637 159.064 303.064 159.057 303.455V303.456C159.042 304.21 159.03 304.836 159.07 305.459C159.22 307.792 159.381 310.124 159.543 312.456V312.458L159.543 312.459C159.725 315.09 159.907 317.721 160.073 320.354C160.37 325.086 160.654 329.819 160.937 334.552V334.553C161.547 344.732 162.156 354.911 162.908 365.079C163.375 371.385 164.201 377.667 165.027 383.943C165.158 384.937 165.288 385.931 165.417 386.925C166.006 391.449 166.104 391.576 170.768 392.226C175.279 392.854 179.833 393.459 184.377 393.53C201.246 393.795 218.118 393.909 234.99 393.934C245.495 393.95 256.01 393.951 266.502 393.498C272.048 393.258 277.58 392.669 283.044 392.087L283.046 392.087C285.456 391.831 287.853 391.575 290.234 391.352ZM204.373 272.622C210.912 275.364 216.638 274.291 222.472 270.933C222.269 268.052 222.065 265.156 221.842 261.982C221.764 260.876 222.626 259.925 223.734 259.899C224.792 259.874 225.717 259.859 226.624 259.98C229.205 260.326 231.788 260.668 234.37 261.011C244.953 262.415 255.539 263.82 266.094 265.416C273.657 266.561 280.268 270.069 286.006 275.083C294.495 282.501 301.669 290.953 307.67 300.607C314.353 311.356 318.889 322.75 321.277 335.094C321.344 335.434 321.458 335.764 321.611 336.207C321.697 336.454 321.794 336.738 321.903 337.077C322.339 336.951 322.766 336.831 323.187 336.712H323.188C324.297 336.401 325.361 336.102 326.416 335.741C334.939 332.816 343.484 329.944 352.154 327.491C353.255 327.18 354.18 326.893 354.971 326.647C357.016 326.013 358.18 325.651 359.242 325.846C360.645 326.104 361.87 327.333 364.714 330.186C364.877 330.349 365.045 330.518 365.219 330.692C365.599 331.072 365.969 331.461 366.436 331.952C366.682 332.211 366.957 332.499 367.273 332.828C368.21 332.145 369.148 331.471 370.083 330.801L370.083 330.8C372.168 329.303 374.237 327.819 376.246 326.258C377.671 325.151 379.058 323.995 380.445 322.839L380.445 322.838C382.143 321.422 383.84 320.006 385.607 318.682C387.356 317.373 389.359 316.365 391.342 315.422C392.776 314.74 394.36 314.727 395.58 315.998C396.864 317.335 397.004 318.967 396.341 320.635C396.004 321.482 395.605 322.306 395.11 323.33C394.858 323.851 394.582 324.422 394.275 325.075C395.074 324.86 395.827 324.666 396.547 324.48C398.062 324.089 399.432 323.735 400.777 323.301C402.752 322.663 404.711 321.979 406.671 321.295C408.01 320.827 409.35 320.36 410.695 319.907C411.515 319.631 412.349 319.399 413.198 319.234C417.983 318.303 420.373 319.9 419.529 324.436C419.81 324.542 420.236 324.64 420.7 324.745C421.518 324.932 422.454 325.145 422.93 325.482C423.902 326.169 425.068 327.395 425.232 328.358C425.446 329.624 424.481 332.388 424.481 332.388C426.507 333.107 426.746 333.486 427.274 334.327C427.326 334.41 427.381 334.497 427.44 334.59C427.768 335.098 427.971 335.693 427.922 336.296C427.888 336.726 427.748 337.027 427.59 337.367C427.523 337.51 427.453 337.66 427.387 337.829C426.11 341.075 423.444 342.521 420.248 343.571C409.742 347.026 399.275 350.595 388.807 354.164L388.805 354.164C386.975 354.788 385.146 355.413 383.316 356.036C382.441 356.334 381.599 356.724 380.704 357.14C380.27 357.341 379.825 357.549 379.357 357.753C379.561 358.514 379.756 359.27 379.95 360.02L379.951 360.026C380.41 361.807 380.863 363.558 381.405 365.281C381.863 366.736 381.387 367.704 380.281 368.502C380.047 368.67 379.813 368.839 379.579 369.007V369.008C378.129 370.056 376.678 371.104 375.178 372.076C371.138 374.69 367.101 377.308 363.063 379.927C349.447 388.756 335.831 397.585 322.132 406.282C318.881 408.347 315.427 410.088 311.93 411.851C310.313 412.666 308.686 413.486 307.066 414.345C307.063 414.758 307.094 415.198 307.127 415.646C307.2 416.673 307.278 417.748 306.946 418.677C306.084 421.088 304.793 423.045 301.998 424.219C285.322 431.222 267.972 434.607 249.935 435.186C233.641 435.709 217.51 434.874 201.92 429.843C196.674 428.149 191.602 425.912 186.533 423.676H186.532C184.638 422.84 182.744 422.004 180.842 421.198C179.286 420.537 177.892 420.151 176.109 420.451C163.795 422.522 151.37 423.561 138.911 422.695C132.885 422.276 126.762 421.316 120.992 419.578C109.537 416.126 102.224 405.565 101.823 392.683C101.554 384.084 102.726 375.634 105.096 367.326C106.638 361.926 108.101 356.503 109.565 351.079C111.093 345.419 112.62 339.758 114.236 334.123C117.603 322.384 122.413 311.224 128.043 300.384C133.517 289.848 141.449 281.918 151.806 276.172C162.44 270.271 173.638 266.162 185.635 264.113C188.24 263.668 190.797 262.94 193.354 262.212C194.513 261.882 195.673 261.552 196.837 261.248C197.185 261.157 197.533 261.054 197.879 260.951C198.596 260.738 199.313 260.525 200.046 260.418C202.331 260.083 203.039 260.609 203.335 262.936C203.611 265.116 203.832 267.303 204.06 269.567C204.161 270.568 204.263 271.584 204.373 272.622ZM238.18 266.719C236.849 265.941 235.714 266.688 235.79 268.209C235.812 268.537 235.808 268.879 235.805 269.221C235.796 270.009 235.786 270.797 236.097 271.426C236.502 272.245 237.6 273.168 238.437 273.212C239.499 273.268 240.928 272.75 241.575 271.964C241.992 271.459 241.56 269.841 241.018 269.062C240.341 268.088 239.236 267.336 238.18 266.719ZM253.615 275.847C253.018 276.125 252.435 276.396 252.24 276.225C250.937 275.087 249.695 275.332 248.309 275.607C248.098 275.648 247.884 275.691 247.666 275.729C246.718 275.895 245.104 275.236 244.627 274.444C243.809 273.087 245.22 272.26 246.294 271.659C248.781 270.267 252.506 271.357 253.86 273.832C253.98 274.051 254.054 274.296 254.168 274.673C254.234 274.895 254.315 275.162 254.427 275.496C254.178 275.585 253.896 275.717 253.615 275.847ZM261.027 278.963C264.428 279.215 266.412 280.811 266.151 283.086C265.976 284.617 264.556 285.774 262.978 285.672C260.552 285.515 257.952 283.034 258.033 280.952C258.09 279.516 259.132 278.823 261.027 278.963ZM242.793 331.123C248.339 330.876 254.072 325.339 254.33 319.981C254.462 317.234 253.2 316.119 250.901 317.447C247.852 319.21 244.957 321.319 242.288 323.619C241.145 324.604 240.477 326.374 240.066 327.914C239.586 329.718 241.044 331.201 242.793 331.123ZM250.363 321.524C247.46 323.007 245.564 324.272 244.033 327.141C247.261 326.26 249.118 324.948 250.363 321.524ZM228.228 351.974C227.853 351.217 227.578 350.659 227.136 350.312C224.996 348.633 225.017 346.569 225.779 344.336C225.956 343.817 226.127 343.292 226.297 342.766C226.897 340.92 227.5 339.065 228.414 337.385C230.623 333.328 234.405 331.714 238.871 331.999C243.806 332.314 246.931 336.665 244.765 341.059C242.105 346.453 241.803 351.075 244.623 356.616C247.066 361.419 245.129 366.871 241.495 369.803C237.089 373.361 230.562 373.926 225.9 371.155C220.193 367.762 218.61 360.886 222.419 355.453C222.953 354.693 224.135 354.273 225.101 353.959C225.766 353.744 226.475 353.67 227.396 353.574C227.861 353.526 228.38 353.472 228.974 353.391C228.667 352.86 228.433 352.387 228.228 351.974ZM231.791 369.577C239.551 370.035 244.01 364.059 241.342 356.769L241.304 356.665C241.128 356.179 240.948 355.682 240.67 355.254C237.978 351.114 237.903 346.983 240.619 342.82C240.826 342.503 240.966 342.142 241.105 341.781C241.167 341.622 241.228 341.465 241.295 341.311L241.306 341.286C241.974 339.743 242.671 338.132 241.345 336.648C240.024 335.175 238.311 335.031 236.393 335.421C232.985 336.113 231.347 338.453 230.127 341.417C228.984 344.191 228.304 346.546 230.569 349.404C233.363 352.927 231.901 356.061 227.6 357.066C227.332 357.128 227.053 357.182 226.779 357.179C225.247 357.162 224.615 358.147 224.219 359.426C222.246 365.798 226.691 368.977 231.791 369.577ZM149.685 350.071C147.191 355.263 143.609 354.27 140.003 353.269C139.515 353.134 139.026 352.998 138.54 352.878C138.264 352.809 138.025 352.631 137.895 352.38C137.324 351.276 137.837 350.198 139.029 349.979C141.824 349.465 144.68 349.264 147.526 349.063C147.89 349.037 148.253 349.011 148.617 348.985C148.841 348.969 149.09 349.302 149.339 349.638C149.455 349.793 149.572 349.95 149.685 350.071ZM138.99 383.056C138.938 383.122 138.879 383.227 138.812 383.349C138.618 383.692 138.351 384.167 137.979 384.273C137.294 384.466 136.268 384.397 135.739 383.988C134.794 383.258 133.922 382.287 133.38 381.231C132.936 380.367 132.583 378.992 132.979 378.287C133.392 377.554 134.781 376.957 135.686 377.029C136.59 377.101 137.805 377.888 138.196 378.695C138.586 379.497 138.685 380.44 138.798 381.51C138.849 381.999 138.904 382.515 138.99 383.056ZM113.481 395.536C113.232 395.76 112.984 396.038 112.735 396.317C112.171 396.949 111.607 397.581 111.047 397.576C110.128 397.569 108.399 396.315 108.45 395.724C108.639 393.516 109.344 391.334 110.037 389.203C110.141 388.888 111.319 388.63 111.819 388.82C112.311 389.009 112.844 389.78 112.883 390.33C112.964 391.468 112.922 392.615 112.88 393.76C112.863 394.213 112.846 394.664 112.837 395.115L113.159 395.325L113.16 395.326L113.162 395.327L113.481 395.536ZM181.651 407.812L181.235 407.733L181.17 407.721L181.124 407.712C180.418 407.579 179.389 407.384 178.257 407.169C178.3 406.845 178.313 406.532 178.324 406.245C178.346 405.686 178.365 405.224 178.603 404.965C179.842 403.619 181.229 402.402 182.624 401.213C183.011 400.884 183.713 400.555 184.119 400.689C184.958 400.966 186.063 401.389 186.363 402.063C186.624 402.649 186.144 403.856 185.612 404.445C184.93 405.201 184.121 405.84 183.135 406.618L183.134 406.619C182.679 406.979 182.186 407.368 181.651 407.812ZM250.074 295.568C249.904 295.557 249.731 295.554 249.557 295.553C249.177 295.549 248.796 295.545 248.449 295.435C246.963 294.963 246.615 293.56 247.824 292.666C248.915 291.859 250.13 291.173 251.376 290.633C252.766 290.031 254.155 290.234 254.941 291.676C255.801 293.25 254.846 294.379 253.557 295.02C252.845 295.375 252.034 295.525 251.221 295.676C250.861 295.742 250.501 295.809 250.15 295.893L250.115 295.744L250.109 295.717L250.074 295.568ZM125.842 378.104C126.274 376.792 125.045 375.138 123.51 375.16C123.449 375.194 123.351 375.229 123.239 375.269C122.927 375.381 122.499 375.535 122.398 375.809C121.616 377.92 120.89 380.064 120.388 382.252C120.309 382.601 121.43 383.582 122.047 383.633C122.672 383.684 123.636 383.1 123.968 382.517C124.754 381.136 125.343 379.621 125.842 378.104ZM154.953 415.765C156.598 417.319 156.882 417.271 158.993 415.145C158.651 414.542 158.334 413.979 158.032 413.442L158.031 413.441L158.03 413.439L158.028 413.436L158.028 413.435L158.026 413.432C157.403 412.325 156.846 411.335 156.273 410.356C155.522 409.072 154.026 408.762 153.224 409.692C152.049 411.05 152.818 413.75 154.953 415.765ZM233.558 288.554C233.803 288.727 234.075 288.922 234.339 289.148C234.852 288.938 235.365 288.736 235.877 288.535C237.323 287.966 238.754 287.403 240.106 286.69C240.475 286.495 240.588 285.081 240.277 284.542C239.97 284.014 238.863 283.495 238.302 283.654C236.64 284.13 235.01 284.831 233.506 285.686C232.996 285.975 232.66 287.002 232.696 287.667C232.712 287.951 233.084 288.216 233.558 288.554ZM152.038 298.285C154.048 298.532 155.052 296.769 154.996 292.808C151.443 292.139 149.724 292.741 149.385 294.637C149.116 296.138 150.545 298.102 152.038 298.285ZM141.72 304.51C141.642 304.376 141.576 304.263 141.535 304.178C142.35 302.119 141.912 301.168 140.645 300.826C139.182 300.43 138.311 301.312 137.833 302.608C137.134 304.503 138.208 307.125 140.25 308.243C140.761 308.524 141.864 308.64 142.069 308.365C142.465 307.837 142.638 306.924 142.492 306.262C142.34 305.573 141.966 304.932 141.72 304.51ZM126.767 340.014C124.765 340.172 124.337 341.435 125.039 343.176C124.958 343.368 124.85 343.565 124.742 343.76C124.501 344.199 124.263 344.632 124.345 344.991C124.492 345.643 125.089 346.505 125.671 346.68C127.053 347.096 129.081 345.221 129.319 343.543C129.56 341.847 128.261 339.896 126.767 340.014ZM124.285 353.987C124.441 353.878 124.59 353.774 124.732 353.683C124.683 353.448 124.653 353.237 124.629 353.062C124.588 352.767 124.561 352.576 124.48 352.55C124.115 352.426 123.745 352.275 123.374 352.123C122.354 351.706 121.324 351.284 120.379 351.423C119.305 351.58 118.273 352.879 117.522 353.894C117.29 354.209 117.892 355.414 118.407 355.899C118.668 356.146 119.436 355.93 120.021 355.765H120.022L120.124 355.736L120.201 355.714C121.167 355.449 122.127 355.137 123.043 354.736C123.496 354.538 123.91 354.249 124.285 353.987ZM264.792 294.675C265.151 294.76 265.576 294.861 266.096 295.003C266.167 294.958 266.298 294.9 266.459 294.83C266.97 294.607 267.775 294.255 267.88 293.755C268.046 292.974 267.401 291.545 266.697 291.172C265.719 290.654 264.296 290.59 263.186 290.851C262.964 290.903 262.766 291.056 262.58 291.261C261.816 292.11 262.068 293.438 263.034 294.049C263.127 294.107 263.223 294.163 263.319 294.214C263.702 294.415 264.137 294.519 264.792 294.675ZM169.509 283.867C169.956 282.926 169.567 281.791 168.645 281.305C168.559 281.26 168.473 281.213 168.387 281.168L168.387 281.167C167.132 280.493 165.976 279.871 164.724 281.646C163.95 282.744 165.213 285.163 166.576 285.678C167.756 286.125 168.667 285.638 169.509 283.867ZM136.941 372.719C138.003 373.438 139.464 372.925 139.889 371.714C140.023 371.337 140.148 370.97 140.27 370.602C140.764 369.098 140.125 368.153 138.664 367.879C137.273 367.617 136.261 368.263 135.801 369.631C135.372 370.906 135.644 371.844 136.941 372.719ZM202.046 280.187C201.744 281.436 203.632 283.945 205.466 284.279C205.569 284.159 205.706 284.03 205.856 283.89C206.241 283.527 206.703 283.092 206.85 282.569C206.955 282.198 206.818 281.77 206.679 281.333C206.563 280.97 206.444 280.6 206.46 280.25C206.515 279.038 206.451 277.93 204.987 277.872C203.467 277.812 202.406 278.687 202.046 280.187ZM151.894 384.33C152.741 385.866 153.981 386.386 155.65 385.266C155.567 384.765 155.496 384.269 155.425 383.778C155.263 382.66 155.105 381.567 154.83 380.504C154.48 379.155 152.813 378.952 151.907 380.079C150.783 381.476 151.14 382.964 151.894 384.33ZM146.311 389.582C145.639 391.202 144.983 392.785 144.256 394.534C145.374 396.141 146.521 395.869 147.511 394.938C148.742 393.778 149.548 392.334 148.878 390.566C148.416 389.345 147.505 388.971 146.311 389.582ZM145.243 328.133C145.476 327.828 145.709 327.523 145.955 327.261C146.02 325.263 145.68 323.99 143.889 323.867C142.288 323.757 141.473 324.854 141.349 326.443C141.21 328.204 142.293 330.073 143.522 329.706C144.192 329.506 144.717 328.82 145.243 328.133ZM217.107 279.778C216.015 280.185 215.607 281.532 216.279 282.483C216.548 282.863 216.804 283.148 217.123 283.309C217.958 283.733 219.233 283.894 220.052 283.546C220.677 283.28 221.394 281.841 221.17 281.288C220.834 280.458 219.744 279.476 218.913 279.415C218.341 279.373 217.755 279.538 217.107 279.778ZM123.194 330.794C123.715 332.241 125.068 332.613 126.858 331.579C126.794 331.145 126.738 330.726 126.684 330.317C126.556 329.342 126.436 328.432 126.216 327.547C126.078 326.992 125.539 326.139 125.163 326.128C124.477 326.109 123.265 326.513 123.179 326.926C122.923 328.178 122.776 329.636 123.194 330.794ZM134.679 304.846C133.058 304.738 132.624 305.834 132.321 307.549C132.489 307.868 132.633 308.227 132.778 308.587C133.106 309.4 133.432 310.213 134.03 310.56C135.051 311.152 136.88 308.927 136.884 307.29C136.889 305.817 136.036 304.936 134.679 304.846ZM129.23 401.452C129.864 401.181 130.193 400.472 130.034 399.801L129.987 399.606L129.913 399.287C129.664 398.225 129.433 397.24 129.13 396.279C128.752 395.079 127.805 394.959 126.87 395.58C125.724 396.34 125.532 398.508 126.488 400.058C127.171 401.165 128.002 401.978 129.23 401.452ZM149.973 335.472C148.934 336.41 147.885 337.357 148.023 339.054C150.772 339.55 153.134 338.313 153.318 336.248C153.371 335.657 153.038 334.902 152.63 334.448C152.367 334.156 151.341 334.042 151.178 334.252C150.835 334.692 150.404 335.082 149.973 335.472ZM136.632 326.117C136.087 324.509 135.091 323.964 133.436 325.073C133.411 325.417 133.378 325.767 133.344 326.119C133.267 326.929 133.188 327.756 133.216 328.579C133.263 329.906 134.442 330.682 135.397 330.05C136.82 329.107 137.168 327.699 136.632 326.117ZM118.374 368.208C119.527 367.742 119.657 366.145 118.669 365.389C117.762 364.695 116.951 364.095 116.102 363.553C116.006 363.491 114.84 364.536 114.754 365.148C114.57 366.463 116.546 368.381 117.984 368.302C118.113 368.294 118.241 368.262 118.374 368.208ZM172.332 412.712C173.08 413.15 174.035 412.809 174.36 412.005C175.066 410.257 174.774 409.301 173.577 408.578C172.366 407.848 171.321 408.277 170.849 409.446C170.105 411.291 171.101 411.991 172.332 412.712ZM127.706 361.576C127.412 360.956 126.658 360.699 126.049 361.016C124.761 361.687 124.832 362.881 125.376 364.063C125.758 364.896 126.828 366.02 127.518 365.974C128.937 365.878 128.874 364.517 128.493 363.415C128.275 362.784 127.991 362.176 127.706 361.576ZM143.934 363.101C144.113 362.806 144.3 362.5 144.499 362.18C144.359 361.902 144.243 361.593 144.13 361.292C143.891 360.652 143.664 360.048 143.245 359.849C141.887 359.204 141.233 360.438 141.034 361.496C140.825 362.618 140.954 363.823 141.106 364.97C141.131 365.165 142.321 365.495 142.445 365.34C142.98 364.67 143.428 363.932 143.934 363.101ZM155.373 283.571C155.045 284.835 155.201 285.595 156.053 286.443C156.804 287.191 158.112 286.835 158.37 285.806C158.786 284.136 158.508 283.402 157.257 282.74C156.507 282.343 155.585 282.75 155.373 283.571ZM176.125 279.74C176.69 279.199 176.72 278.303 176.194 277.725C175.808 277.301 175.5 276.991 175.132 276.875C174.188 276.58 172.159 279.045 172.396 280.334C172.499 280.89 173.764 281.788 173.888 281.698C174.655 281.133 175.354 280.477 176.125 279.74ZM162.167 408.075C163.228 407.596 163.435 406.186 162.569 405.407C162.138 405.019 161.781 404.761 161.393 404.7C159.7 404.435 158.945 405.829 158.775 407.241C158.715 407.73 159.754 408.867 160.122 408.799C160.772 408.678 161.396 408.425 162.167 408.075ZM223.011 289.281C221.581 289.904 221.336 291.876 222.684 292.659C223.504 293.135 224.354 292.95 225.269 292.115C225.763 291.664 226.217 290.37 225.966 290.071C225.472 289.482 224.408 288.954 223.692 289.072C223.46 289.11 223.233 289.184 223.011 289.281ZM144.259 341.982C143.653 341.133 142.408 341.049 141.702 341.817C141.298 342.258 141.017 342.631 140.981 343.027C140.908 343.843 141.507 345.117 142.199 345.51C143.23 346.094 145.188 344.596 144.984 343.411C144.904 342.942 144.634 342.507 144.259 341.982ZM129.144 319.487L129.172 319.466C129.723 319.053 129.774 318.244 129.283 317.763L129.142 317.625C128.438 316.935 127.895 316.403 127.244 316.153C126.844 315.999 125.305 317.4 125.397 317.611C125.611 318.104 125.889 318.567 126.197 319.018C126.857 319.987 128.203 320.192 129.144 319.487ZM207.516 293.017L207.541 292.992C208.195 292.337 208.266 291.291 207.701 290.558C207.357 290.113 207.053 289.78 206.705 289.726C205.227 289.496 204.341 290.638 204.517 291.976C204.553 292.247 204.671 292.508 204.834 292.762C205.423 293.687 206.739 293.794 207.516 293.017ZM196.172 276.22C195.732 274.755 193.755 274.507 192.93 275.795C192.795 276.004 192.692 276.207 192.623 276.421C192.269 277.516 192.617 278.858 194.009 278.732C194.829 278.658 195.945 277.684 196.206 276.88C196.267 276.69 196.248 276.473 196.172 276.22ZM188.967 290.494C190.103 289.835 190.106 288.093 188.907 287.559C188.845 287.532 188.783 287.509 188.719 287.493C187.369 287.147 185.391 288.746 185.648 289.986C185.764 290.546 186.836 291.431 187.211 291.316C187.802 291.135 188.36 290.846 188.967 290.494ZM276.892 291.632L276.904 291.62L276.956 291.572C277.73 290.858 278.511 290.137 279.52 289.206C279.338 288.863 279.194 288.523 279.06 288.207L279.059 288.206C278.789 287.57 278.559 287.031 278.152 286.771C277.149 286.128 275.682 287.369 275.664 289.078C275.659 289.664 276.033 290.254 276.407 290.843C276.577 291.11 276.746 291.377 276.88 291.643L276.892 291.632ZM150.35 309.911C149.757 309.196 148.642 309.265 148.132 310.04C147.736 310.642 147.458 311.108 147.39 311.603C147.227 312.801 148.049 313.892 149.315 313.548C150.121 313.328 151.149 312.255 151.22 311.486C151.26 311.041 150.888 310.559 150.35 309.911ZM109.875 373.305C110.254 373.971 111.161 374.109 111.721 373.585C112.519 372.838 113.139 372.244 113.636 371.561C113.728 371.435 112.317 369.735 111.961 369.853C110.944 370.189 109.93 370.954 109.301 371.829C109.152 372.036 109.456 372.569 109.872 373.3L109.875 373.305ZM175.849 292.039C175.9 292.339 175.951 292.639 175.972 292.927L176.012 292.93C176.376 292.968 176.739 293.007 177.104 293.044C177.263 292.915 177.439 292.796 177.615 292.677C178.01 292.412 178.404 292.145 178.611 291.775C179.031 291.025 179.256 290.121 179.338 289.263C179.358 289.057 178.352 288.448 178.049 288.575C177.22 288.923 176.177 289.413 175.853 290.133C175.616 290.661 175.732 291.351 175.849 292.039ZM170.432 403.741C171.21 403.218 171.266 402.096 170.544 401.497C170.218 401.225 169.947 401.044 169.654 400.992C168.206 400.731 166.486 402.021 166.786 403.162C166.954 403.797 168.118 404.681 168.687 404.585C169.262 404.489 169.799 404.165 170.432 403.741ZM182.639 278.595L181.441 279.747C180.831 280.334 180.687 281.262 181.091 282.008C181.489 282.742 181.822 283.346 182.261 283.436C183.934 283.782 184.271 282.195 184.14 281.042C184.073 280.446 183.633 279.892 183.194 279.339C182.997 279.093 182.802 278.846 182.639 278.595ZM139.234 315.146C139.915 314.569 139.994 313.54 139.406 312.868C139.109 312.529 138.845 312.276 138.532 312.165C137.4 311.768 136.085 313.256 136.234 314.895C136.285 315.452 137.444 316.451 137.581 316.371C138.15 316.038 138.67 315.623 139.234 315.146ZM233.699 280.509L231.663 277.996C231.33 278.304 230.981 278.605 230.672 278.872C230.107 279.359 229.676 279.73 229.727 279.816C230.219 280.647 230.856 281.614 231.679 281.933C231.972 282.047 232.494 281.572 233.015 281.097C233.25 280.883 233.485 280.669 233.699 280.509ZM283.989 284.9C284.211 284.703 284.456 284.485 284.717 284.288C284.46 284.078 284.236 283.86 284.034 283.664C283.637 283.278 283.327 282.977 283.028 282.988C282.691 282.999 282.364 283.331 282.037 283.663C281.894 283.808 281.751 283.953 281.607 284.071C281.742 284.219 281.87 284.383 281.998 284.549H281.998C282.31 284.95 282.621 285.351 283.027 285.507C283.222 285.582 283.562 285.28 283.989 284.9ZM249.158 281.912C250.328 282.638 250.231 284.399 249.048 285.103C248.849 285.221 248.67 285.281 248.504 285.256C247.904 285.16 247.059 284.041 247.073 283.389C247.088 282.796 248.088 281.806 248.702 281.769C248.849 281.759 248.999 281.813 249.158 281.912ZM239.516 293.254C239.954 293.369 240.499 293.083 241.188 292.719C241.532 292.537 241.913 292.336 242.335 292.157C242.014 291.836 241.743 291.514 241.504 291.23C241.05 290.691 240.711 290.288 240.366 290.283C239.821 290.274 239.271 290.591 238.721 290.908C238.487 291.043 238.253 291.178 238.02 291.287C238.168 291.499 238.308 291.749 238.446 292C238.763 292.569 239.08 293.139 239.516 293.254ZM143.025 411.855C143.37 412.361 144.084 412.444 144.534 412.03L144.557 412.009C145.044 411.562 145.405 411.23 145.548 410.824C145.927 409.741 144.638 408.283 143.47 408.529C142.888 408.652 141.979 409.606 142.062 410.012C142.186 410.623 142.566 411.182 143.025 411.855ZM200.078 285.285C199.642 284.158 198.062 284.107 197.428 285.137C197.223 285.467 197.076 285.775 197.01 286.1C196.946 286.42 197.345 286.833 197.744 287.247C197.925 287.434 198.105 287.621 198.243 287.8C198.432 287.597 198.638 287.401 198.844 287.205C199.348 286.726 199.852 286.246 200.109 285.658C200.152 285.559 200.137 285.437 200.078 285.285ZM215.529 287.72C215.34 287.529 215.134 287.321 214.94 287.087C214.454 287.637 214.101 288.037 213.782 288.399L213.479 288.742C214.039 289.226 214.599 289.709 215.159 290.192C215.276 290.044 215.42 289.897 215.565 289.75C215.895 289.414 216.225 289.077 216.225 288.74C216.225 288.424 215.912 288.108 215.529 287.72ZM199.356 293.518L199.95 293.13C199.739 292.906 199.556 292.674 199.389 292.463C199.051 292.037 198.778 291.691 198.462 291.645C198.136 291.598 197.763 291.878 197.391 292.158C197.227 292.281 197.064 292.403 196.905 292.498C197.303 293.112 197.7 293.726 198.099 294.34C198.479 294.091 198.858 293.844 199.356 293.518ZM364.514 368.528C362.198 368.247 360.318 366.449 360.481 364.671C360.629 363.064 362.485 361.796 364.448 361.958C366.432 362.123 368.141 363.992 367.915 365.748C367.692 367.463 366.148 368.726 364.514 368.528ZM331.873 385.037C331.543 385.294 331.26 385.554 331.006 385.788C330.51 386.244 330.12 386.602 329.695 386.651C328.716 386.766 327.55 386.625 326.701 386.159C325.986 385.767 325.396 385.145 324.807 384.525C324.567 384.272 324.327 384.019 324.079 383.781C322.853 382.61 323.05 380.643 324.646 380.223C325.665 379.955 327.172 380.204 327.995 380.832C328.983 381.585 329.798 382.569 330.67 383.623C331.054 384.085 331.447 384.561 331.873 385.037ZM339.632 340.002C339.901 340.375 340.175 340.699 340.427 340.996C340.917 341.574 341.319 342.05 341.418 342.581C341.448 342.738 341.476 342.895 341.505 343.052C341.871 345.065 342.228 347.02 343.819 348.562C344.075 348.81 344.038 349.834 343.774 350.046C343.315 350.413 342.293 350.768 341.998 350.527C341.918 350.461 341.837 350.395 341.755 350.328C340.677 349.449 339.502 348.493 338.99 347.3C338.309 345.713 338.201 343.833 338.113 342.067C338.095 341.705 338.45 341.324 338.895 340.847C339.13 340.596 339.389 340.318 339.632 340.002ZM310.115 361.061C308.267 358.72 306.816 356.882 305.276 354.929C305.957 353.364 307.373 352.861 308.906 353.41C310.662 354.04 311.975 355.394 312.014 357.411C312.016 357.508 312.018 357.607 312.02 357.706C312.058 359.201 312.1 360.855 310.115 361.061ZM336.04 365.082C335.761 365.095 335.481 365.111 335.2 365.127C334.592 365.161 333.985 365.195 333.377 365.193C331.297 365.183 329.293 363.522 329.113 361.512C329.062 360.947 329.436 359.959 329.837 359.824C330.48 359.607 331.786 359.699 331.979 360.081C333.074 362.244 334.362 363.635 337.065 362.829C337.233 362.778 337.573 363.303 337.913 363.828L337.913 363.829C338.071 364.072 338.229 364.316 338.37 364.502L337.891 364.825L337.245 365.262L337.224 365.277L336.33 365.881C336.236 365.621 336.142 365.36 336.046 365.1L336.04 365.082ZM352.299 358.768C352.163 358.697 351.999 358.626 351.82 358.549C351.367 358.355 350.819 358.121 350.412 357.737C349.309 356.7 349.896 355.034 351.45 354.638C351.974 354.505 352.554 354.453 353.086 354.525L353.137 354.532C354.252 354.684 355.391 354.838 356.425 355.237C356.656 355.326 356.746 356.839 356.443 357.056C355.665 357.614 354.772 358.013 353.881 358.412C353.588 358.543 353.295 358.674 353.006 358.81C352.94 358.841 352.854 358.83 352.696 358.809C352.596 358.796 352.469 358.779 352.299 358.768ZM340.94 377.292C340.67 377.995 340.44 378.612 340.233 379.168V379.169C339.77 380.411 339.421 381.347 339.002 382.25C338.803 382.678 338.172 383.24 337.827 383.186C337.254 383.096 336.572 382.668 336.263 382.178C335.995 381.754 335.938 381.188 335.881 380.637C335.866 380.49 335.851 380.343 335.832 380.201C335.646 378.803 335.528 377.168 337.12 376.717C337.83 376.516 338.658 376.734 339.575 376.975C340.011 377.09 340.467 377.209 340.94 377.292ZM353.837 342.155C356.312 342.336 356.828 343.303 356.727 344.742C356.625 346.195 355.911 347.059 354.373 346.958C352.74 346.851 350.691 345.207 351.222 344.355C351.728 343.544 352.614 342.969 353.267 342.545C353.494 342.398 353.693 342.269 353.837 342.155ZM314.766 383.05C316.576 383.004 319.046 385.324 318.808 386.554C318.672 387.25 317.784 388.205 317.117 388.313C315.328 388.603 313.245 386.833 313.493 385.294C313.596 384.65 314.037 384.06 314.399 383.573L314.4 383.572C314.542 383.381 314.673 383.206 314.766 383.05ZM310.919 333.453C311.234 333.935 311.548 334.349 311.833 334.722C312.389 335.452 312.828 336.029 312.919 336.656C313.125 338.083 311.576 339.228 310.187 338.862C308.774 338.49 307.471 337.625 308.031 336.009C308.23 335.433 308.838 334.999 309.611 334.447C310.013 334.16 310.46 333.841 310.919 333.453ZM315.958 370.278C315.963 371.705 314.737 372.929 313.253 372.521C312.276 372.252 311.125 371.347 310.76 370.439C310.31 369.324 311.973 367.989 313.459 368.167C314.674 368.314 315.907 368.655 315.958 370.278ZM366.848 353.596C366.521 353.838 366.219 354.11 365.938 354.364C365.377 354.873 364.897 355.306 364.464 355.263C363.009 355.12 362.721 353.796 362.834 352.487C362.954 351.107 363.688 349.892 365.081 350.361C365.564 350.524 365.855 351.254 366.213 352.149C366.396 352.606 366.596 353.106 366.848 353.596ZM346.922 365.467C348.026 363.655 349.195 363.321 350.201 364.503C350.919 365.345 351.523 366.64 351.466 367.695C351.403 368.883 350.094 369.046 349.256 368.331C348.635 367.802 348.142 367.121 347.631 366.416L347.63 366.415C347.402 366.101 347.17 365.781 346.922 365.467ZM336.102 354.323C333.258 353.541 331.722 351.882 332.393 350.54C332.673 349.981 333.858 349.306 334.288 349.488C336.257 350.328 336.36 352.045 336.102 354.323ZM331.463 347.263C331.054 347.235 330.656 347.218 330.267 347.201C329.298 347.16 328.387 347.121 327.518 346.912C327.119 346.817 326.748 345.865 326.709 345.281C326.683 344.887 327.171 344.263 327.583 344.07C329.118 343.351 330.804 344.594 331.463 347.263ZM327.407 375.305C327.124 374.845 326.824 374.432 326.56 374.07C326.069 373.396 325.707 372.897 325.831 372.604C326.186 371.759 327.116 370.911 327.988 370.634C328.41 370.499 329.881 371.92 329.775 372.175C329.488 372.861 328.979 373.453 328.316 374.222L328.315 374.223L328.315 374.224C328.037 374.546 327.733 374.9 327.407 375.305ZM306.222 367.684C305.57 368.766 303.941 368.556 303.447 367.394C303.291 367.029 303.191 366.693 303.176 366.355C303.161 366.013 303.639 365.649 304.119 365.286C304.334 365.121 304.55 364.958 304.72 364.795C304.884 365.036 305.065 365.272 305.247 365.507C305.691 366.086 306.136 366.664 306.315 367.315C306.344 367.419 306.308 367.54 306.222 367.684ZM316.349 375.719C317.202 376.994 317.89 378.022 318.578 379.052C318.38 379.166 318.179 379.315 317.979 379.464C317.54 379.79 317.102 380.116 316.693 380.082C315.229 379.964 314.041 378.299 314.526 377.204C314.666 376.885 315.008 376.655 315.478 376.339C315.734 376.167 316.028 375.97 316.349 375.719ZM348.448 340.454C347.742 341.059 347.155 341.561 346.474 341.813C346.249 341.896 345.796 341.365 345.344 340.833C345.138 340.592 344.932 340.35 344.747 340.166C344.977 339.966 345.2 339.757 345.424 339.547C346.017 338.991 346.609 338.435 347.302 338.067C347.473 337.975 347.878 338.325 348.426 338.797C348.726 339.055 349.069 339.351 349.439 339.63C349.076 339.916 348.751 340.194 348.448 340.454ZM316.231 397.541L316.23 397.54C315.802 396.942 315.501 396.521 315.602 396.246C315.827 395.628 316.313 395.102 316.797 394.577C316.996 394.363 317.195 394.147 317.376 393.925C317.546 394.123 317.767 394.326 317.987 394.529C318.478 394.985 318.969 395.44 318.916 395.817C318.832 396.399 318.4 396.932 317.852 397.606C317.588 397.93 317.299 398.287 317.009 398.697C316.741 398.254 316.466 397.871 316.231 397.541ZM320.46 363.492C320.075 362.858 319.786 362.381 319.899 362.248C320.618 361.403 321.6 360.752 322.582 360.203C322.68 360.147 323.924 361.588 323.798 361.777C323.345 362.461 322.745 363.046 322.018 363.757C321.739 364.03 321.441 364.321 321.126 364.642C320.909 364.232 320.671 363.839 320.461 363.494L320.46 363.492ZM355.599 368.854C355.886 369.304 356.177 369.689 356.432 370.027C356.921 370.673 357.276 371.144 357.218 371.555C357.13 372.165 356.125 372.884 355.402 373.06C355.058 373.144 354.02 372.068 354.038 371.542C354.052 371.072 354.381 370.612 354.835 369.979C355.066 369.657 355.329 369.291 355.599 368.854ZM315.843 350.19C315.438 349.642 315.13 349.224 315.23 348.969C315.432 348.457 315.913 348.056 316.394 347.653L316.395 347.653C316.595 347.486 316.795 347.318 316.975 347.144C317.138 347.34 317.342 347.537 317.546 347.734C318.01 348.183 318.474 348.631 318.457 349.061C318.44 349.475 317.977 349.87 317.405 350.357C317.122 350.599 316.814 350.862 316.519 351.162C316.298 350.805 316.057 350.479 315.843 350.19ZM349.208 373.426C348.895 373.646 348.613 373.882 348.357 374.097C347.85 374.524 347.444 374.863 347.097 374.812C346.684 374.751 346.328 374.307 345.971 373.862C345.816 373.669 345.661 373.476 345.501 373.314C345.661 373.162 345.821 372.973 345.98 372.783C346.341 372.356 346.703 371.928 347.063 371.929C347.463 371.929 347.863 372.283 348.369 372.728C348.619 372.948 348.895 373.191 349.208 373.426ZM277.134 417.421C277.429 417.244 277.706 417.062 277.974 416.886C278.584 416.484 279.146 416.115 279.762 415.9C280.297 415.712 281.37 415.815 281.554 416.147C281.877 416.728 281.951 417.698 281.68 418.303C281.374 418.982 280.892 419.582 280.383 420.216L280.381 420.218L280.379 420.221C280.158 420.496 279.932 420.777 279.713 421.075C279.159 421.036 278.6 421.006 278.038 420.975H278.037H278.034L278.033 420.975H278.032H278.031H278.031C276.725 420.904 275.407 420.832 274.104 420.653C272.578 420.443 271.766 418.689 272.377 417.095C273.001 415.463 274.241 415.716 275.457 416.289C275.861 416.479 276.226 416.753 276.601 417.033C276.775 417.164 276.951 417.296 277.134 417.421ZM274.282 404.098C273.512 404.645 272.642 404.787 271.816 404.922C270.615 405.118 269.51 405.298 268.951 406.688C268.845 406.953 267.495 407.084 267.106 406.783C266.546 406.346 266.044 405.462 266.032 404.761C265.995 402.568 269.787 399.525 271.963 400.03C273.662 400.423 273.883 401.766 274.121 403.207C274.17 403.503 274.219 403.802 274.282 404.098ZM252.324 417.084C252.143 416.949 251.919 416.794 251.668 416.62C250.892 416.083 249.851 415.362 248.967 414.482C248.573 414.09 248.579 412.757 248.951 412.281C249.339 411.783 250.456 411.497 251.131 411.652C252.766 412.029 254.393 412.588 255.887 413.343C256.431 413.619 256.927 414.708 256.832 415.331C256.738 415.938 255.944 416.595 255.3 416.911C254.942 417.088 254.494 417.082 253.786 417.072H253.784C253.388 417.066 252.912 417.06 252.324 417.084ZM217.296 411.844C217.602 411.969 217.858 412.059 218.058 412.13C218.374 412.241 218.549 412.303 218.552 412.373C218.603 413.461 219.202 414.378 219.798 415.291C220.614 416.539 221.425 417.779 220.82 419.441C220.581 420.099 219.913 420.773 219.275 421.042C218.959 421.174 217.985 420.515 217.788 420.021C217.033 418.14 216.283 416.213 215.941 414.232C215.855 413.734 216.321 413.141 216.767 412.572C216.964 412.321 217.157 412.075 217.296 411.844ZM289.477 405.312C289.206 405.506 288.942 405.737 288.694 405.953C288.205 406.38 287.783 406.748 287.524 406.656C285.765 406.033 283.922 405.356 282.473 404.23C281.168 403.215 281.533 401.099 282.872 400.339C284.459 399.439 285.339 400.217 286.043 401.721C286.285 402.241 286.76 402.651 287.236 403.062C287.457 403.253 287.677 403.444 287.875 403.646C288.172 403.949 288.465 404.256 288.831 404.639L288.831 404.639C288.967 404.78 289.112 404.933 289.272 405.098L289.477 405.312ZM228.764 412.965C229.047 413.393 229.337 413.759 229.587 414.075L229.588 414.076C230.037 414.644 230.359 415.05 230.282 415.356C229.841 417.114 230.506 418.15 231.808 419.199C232.227 419.537 232.387 420.894 232.065 421.268C231.69 421.704 230.56 421.854 229.926 421.637C227.837 420.92 226.05 418.05 226.58 416.092C226.758 415.432 227.239 414.854 227.823 414.154C228.118 413.798 228.441 413.41 228.764 412.965ZM293.161 400.987C294.62 399.559 296.018 400.208 296.595 401.494C297.228 402.905 297.297 404.639 297.282 406.229C297.279 406.569 296.776 406.904 296.273 407.24C296.042 407.394 295.811 407.548 295.629 407.701C295.48 407.526 295.31 407.357 295.14 407.188C294.763 406.815 294.388 406.442 294.251 405.996C293.922 404.927 293.712 403.823 293.48 402.609L293.479 402.608V402.606C293.38 402.088 293.278 401.55 293.161 400.987ZM298.532 411.117C298.765 411.527 299.018 411.975 299.329 412.438L296.362 414.594C296.192 414.328 295.988 414.066 295.784 413.805C295.332 413.224 294.879 412.643 294.8 412.014C294.6 410.433 296.145 408.757 297.114 409.302C297.687 409.625 298.065 410.293 298.532 411.116L298.532 411.117ZM252.742 428.7C252.457 428.103 252.164 427.592 251.917 427.16C251.479 426.395 251.185 425.881 251.331 425.581C251.656 424.919 252.276 424.402 252.896 423.884C253.151 423.67 253.407 423.456 253.644 423.232C253.801 423.401 254.011 423.589 254.22 423.776C254.678 424.186 255.136 424.596 255.057 424.814C254.777 425.592 254.307 426.303 253.669 427.269L253.668 427.27C253.391 427.69 253.081 428.158 252.742 428.7ZM286.025 409.168C286.32 409.501 286.603 409.794 286.863 410.063C287.47 410.69 287.956 411.194 288.194 411.795C288.304 412.07 287.108 413.274 286.425 413.358C285.129 413.518 283.8 412.898 283.934 411.332C283.97 410.913 284.436 410.53 285.028 410.044C285.34 409.788 285.687 409.503 286.025 409.168ZM238.569 415.686C238.752 416.11 238.939 416.488 239.11 416.834C239.484 417.588 239.785 418.197 239.821 418.821C239.848 419.267 238.857 420.119 238.263 420.182C237.037 420.31 235.966 418.777 236.442 417.597C236.6 417.204 236.996 416.907 237.547 416.495H237.547V416.494C237.847 416.27 238.191 416.012 238.569 415.686ZM279.369 425.389V425.39C278.88 425.939 278.466 426.406 278.044 426.413C277.44 426.423 276.417 425.476 276.288 424.811C276.05 423.591 276.944 422.72 278.21 422.918C278.6 422.979 278.942 423.346 279.373 423.809C279.597 424.049 279.845 424.315 280.137 424.578C279.857 424.84 279.604 425.125 279.369 425.389ZM263.747 414.353C263.002 414.73 262.473 414.996 262.074 414.866C261.605 414.714 261.27 414.146 260.935 413.579C260.79 413.331 260.644 413.084 260.487 412.872C260.69 412.751 260.897 412.595 261.104 412.438C261.571 412.086 262.037 411.735 262.444 411.794C262.928 411.863 263.367 412.24 263.987 412.772C264.31 413.048 264.68 413.366 265.131 413.705C264.6 413.923 264.142 414.154 263.747 414.353ZM241.722 426.141C241.144 426.541 240.706 426.844 240.512 426.73C239.95 426.401 239.517 425.853 239.084 425.306C238.911 425.088 238.738 424.868 238.557 424.664C238.777 424.539 239 424.379 239.224 424.218C239.734 423.852 240.245 423.485 240.705 423.54C241.134 423.592 241.515 424.044 241.982 424.599L241.983 424.6C242.214 424.875 242.467 425.175 242.757 425.464C242.383 425.684 242.033 425.926 241.722 426.141Z" fill="#670224"/>
<path fill-rule="evenodd" clip-rule="evenodd" d="M241.294 216.436L241.295 216.438C241.534 217.429 241.777 218.433 242.019 219.457C241.466 219.511 240.945 219.552 240.449 219.592C239.262 219.685 238.217 219.768 237.202 219.99C236.713 220.098 236.078 220.907 236.064 221.41C236.052 221.884 236.697 222.686 237.182 222.802C238.646 223.151 240.168 223.335 241.675 223.406C245.19 223.574 246.219 222.409 245.485 218.983C244.793 215.756 243.982 212.552 243.172 209.35L242.97 208.551C242.919 208.349 242.873 208.131 242.827 207.908C242.551 206.585 242.237 205.083 240.465 205.504C238.717 205.918 239.118 207.342 239.467 208.584C239.542 208.848 239.614 209.104 239.663 209.34C240.146 211.691 240.71 214.024 241.294 216.436ZM227.254 228.417C228.236 231.646 233.399 235.207 237.87 235.277C240.865 235.192 243.675 233.036 246.087 230.251C246.439 229.846 246.567 228.633 246.312 228.44C245.756 228.023 244.743 227.688 244.178 227.93C243.53 228.207 242.976 228.695 242.42 229.187C242.135 229.438 241.85 229.689 241.552 229.913C237.877 232.675 235.296 232.501 232.056 229.219C231.726 228.885 231.443 228.499 231.161 228.115C230.781 227.599 230.404 227.085 229.918 226.703C229.382 226.281 228.246 226.015 227.763 226.31C227.313 226.585 227.062 227.785 227.254 228.417ZM223.726 218.269C222.923 215.646 224.245 212.315 226.367 211.611C227.994 211.072 229.561 212.179 230.236 214.343C231.087 217.074 229.705 220.143 227.356 220.738C225.708 221.155 224.319 220.21 223.726 218.269ZM253.091 220.36C255.01 220.551 256.695 218.686 256.818 216.234C256.934 213.934 255.294 211.813 253.389 211.798C251.626 211.783 250.365 213.47 250.264 215.975C250.165 218.468 251.267 220.177 253.091 220.36Z" fill="#670224"/>
</g>
</g>
<defs>
<filter id="filter0_d_166_7863" x="97.7852" y="154" width="500.664" height="476.882" filterUnits="userSpaceOnUse" color-interpolation-filters="sRGB">
<feFlood flood-opacity="0" result="BackgroundImageFix"/>
<feColorMatrix in="SourceAlpha" type="matrix" values="0 0 0 0 0 0 0 0 0 0 0 0 0 0 0 0 0 0 127 0" result="hardAlpha"/>
<feOffset dy="4"/>
<feGaussianBlur stdDeviation="2"/>
<feComposite in2="hardAlpha" operator="out"/>
<feColorMatrix type="matrix" values="0 0 0 0 0 0 0 0 0 0 0 0 0 0 0 0 0 0 0.25 0"/>
<feBlend mode="normal" in2="BackgroundImageFix" result="effect1_dropShadow_166_7863"/>
<feBlend mode="normal" in="SourceGraphic" in2="effect1_dropShadow_166_7863" result="shape"/>
</filter>
<clipPath id="clip0_166_7863">
<rect width="660.887" height="624.65" fill="white" transform="translate(97.918)"/>
</clipPath>
</defs>
</svg>
