<svg width="3240" height="1880" viewBox="0 0 3240 1880" fill="none" xmlns="http://www.w3.org/2000/svg">
<path opacity="0.5" fill-rule="evenodd" clip-rule="evenodd" d="M284.24 1368.48C284.24 1368.48 230.84 1174.88 337.65 1168.2C444.45 1161.52 464.48 1261.67 464.48 1261.67C464.48 1261.67 210.81 807.693 464.48 667.497C718.15 527.301 810.08 968.82 810.08 968.82C810.08 968.82 878.36 787.668 925.09 821.049C971.82 854.43 925.09 1234.96 925.09 1234.96C925.09 1234.96 1205.46 847.75 1325.62 874.45C1445.78 901.16 1365.67 1468.62 1365.67 1468.62C1365.67 1468.62 1485.83 1181.56 1525.88 1321.75L1565.93 1461.95C1565.93 1461.95 1635.16 1136.37 1734.06 1135.6C1832.96 1134.82 2013.19 1315.07 2013.19 1315.07C2013.19 1315.07 1953.11 707.554 2326.94 707.554C2700.77 707.554 2620.66 1181.56 2620.66 1181.56C2620.66 1181.56 2687.42 1007.98 2794.23 1007.98C2901.03 1007.98 2860.98 1288.37 2860.98 1288.37C2860.98 1288.37 3054.57 1101.44 3101.3 1201.58C3148.02 1301.72 3041.22 1475.3 3041.22 1475.3C3041.22 1475.3 3201.43 1321.75 3228.13 1395.19C3254.83 1468.62 3228.13 1829.13 3228.13 1829.13L40 1851.5C40 1851.5 14.4001 1388.03 117.35 1281.69C150.07 1247.91 244.19 1261.67 284.24 1368.48Z" fill="#FEE1D6" fill-opacity="0.956863"/>
<path opacity="0.5" fill-rule="evenodd" clip-rule="evenodd" d="M110.82 1789.64C110.82 1789.64 93.11 1705.54 159.51 1705.54C220.55 1705.54 216.35 1755.03 215.28 1763.02C217.02 1751.67 232.71 1656.85 270.16 1656.85C310 1656.85 348.14 1717.43 348.14 1717.43C348.14 1717.43 327.7 1648 402.95 1648C478.19 1648 505.09 1749.24 505.09 1749.24C505.09 1749.24 495.9 1705.54 544.59 1709.97C593.27 1714.4 606.55 1785.21 606.55 1785.21C606.55 1785.21 695.18 1710.53 726.11 1725.74L757.04 1740.95C757.04 1740.95 792.45 1674.56 849.99 1674.56C907.53 1674.56 911.96 1754.23 911.96 1754.23C911.96 1754.23 916.38 1696.69 951.79 1696.69C987.2 1696.69 1018.19 1732.1 1018.19 1732.1C1018.19 1732.1 1009.33 1696.69 1053.6 1687.84C1097.86 1678.99 1102.28 1709.97 1102.28 1709.97C1102.28 1709.97 1119.99 1661.28 1168.68 1674.56C1217.36 1687.84 1196.88 1760.99 1196.88 1760.99C1196.88 1760.99 1226.22 1709.97 1261.62 1718.82C1297.03 1727.67 1297.03 1763.08 1297.03 1763.08C1297.03 1763.08 1323.59 1736.52 1345.72 1736.52C1367.85 1736.52 1389.99 1780.79 1389.99 1780.79C1389.99 1780.79 1371.29 1715.81 1425.39 1714.4C1479.5 1712.98 1474.08 1771.93 1474.08 1771.93C1474.08 1771.93 1496.21 1758.66 1531.62 1758.66C1567.03 1758.66 1558.18 1816.2 1558.18 1816.2C1558.18 1816.2 1570.41 1762.22 1602.44 1758.66C1617.61 1756.97 1628.76 1759.14 1636.88 1763.75C1638.05 1763.46 1639.3 1763.23 1640.65 1763.08C1680.48 1758.66 1693.76 1789.64 1693.76 1789.64C1693.76 1789.64 1676.06 1705.54 1742.45 1705.54C1803.49 1705.54 1799.29 1755.03 1798.22 1763.02C1799.96 1751.67 1815.65 1656.85 1853.1 1656.85C1892.94 1656.85 1931.08 1717.43 1931.08 1717.43C1931.08 1717.43 1910.64 1648 1985.89 1648C2061.13 1648 2088.03 1749.24 2088.03 1749.24C2088.03 1749.24 2078.84 1705.54 2127.52 1709.97C2176.21 1714.4 2189.49 1785.21 2189.49 1785.21C2189.49 1785.21 2278.12 1710.53 2309.05 1725.74L2339.98 1740.95C2339.98 1740.95 2375.39 1674.56 2432.93 1674.56C2490.47 1674.56 2494.9 1754.23 2494.9 1754.23C2494.9 1754.23 2499.32 1696.69 2534.73 1696.69C2570.14 1696.69 2601.13 1732.1 2601.13 1732.1C2601.13 1732.1 2592.27 1696.69 2636.54 1687.84C2680.8 1678.99 2685.22 1709.97 2685.22 1709.97C2685.22 1709.97 2702.93 1661.28 2751.62 1674.56C2800.3 1687.84 2779.82 1760.99 2779.82 1760.99C2779.82 1760.99 2809.16 1709.97 2844.57 1718.82C2879.98 1727.67 2879.98 1763.08 2879.98 1763.08C2879.98 1763.08 2906.53 1736.52 2928.67 1736.52C2950.79 1736.52 2972.93 1780.79 2972.93 1780.79C2972.93 1780.79 2954.23 1715.81 3008.33 1714.4C3062.44 1712.98 3057.02 1771.93 3057.02 1771.93C3057.02 1771.93 3079.15 1758.66 3114.56 1758.66C3149.97 1758.66 3141.12 1816.2 3141.12 1816.2C3141.12 1816.2 3153.36 1762.22 3185.38 1758.66C3265.05 1749.8 3234.07 1847.18 3234.07 1847.18H1617.2C1615.63 1855.11 57.71 1848.5 57.71 1848.5C57.71 1848.5 17.87 1767.51 57.71 1763.08C97.54 1758.66 110.82 1789.64 110.82 1789.64Z" fill="#FFCCBA"/>
<path fill-rule="evenodd" clip-rule="evenodd" d="M2970.67 1608.55C3014.27 1549.69 2950 1535.47 2979.82 1480.04C3015.95 1412.88 2964.11 1426.37 2986.44 1358.78C3004.11 1305.3 3034.97 1303 3037.71 1226.77C3040.46 1150.55 3177.74 1146.25 3148.07 1252.78C3118.4 1359.3 3194.73 1333.07 3181.3 1410.47C3163.35 1513.92 3235.39 1472.48 3212.44 1552.1C3192.92 1619.83 3276.16 1733.36 3078.29 1760C2902.2 1751 2927.06 1667.42 2970.67 1608.55Z" fill="#71C9CC"/>
<path fill-rule="evenodd" clip-rule="evenodd" d="M3118.44 1486.11C3115.99 1485.56 3113.55 1487.1 3113 1489.56L3117.45 1490.55C3113 1489.56 3113 1489.56 3113 1489.55V1489.55L3113 1489.55C3113 1489.55 3113 1489.55 3113 1489.55L3112.99 1489.6C3112.98 1489.64 3112.97 1489.71 3112.94 1489.82C3112.89 1490.02 3112.8 1490.35 3112.68 1490.78C3112.44 1491.65 3112.04 1492.97 3111.46 1494.66C3110.3 1498.05 3108.38 1502.96 3105.4 1508.91C3099.44 1520.82 3089.23 1536.88 3072.28 1553.28C3070.47 1555.03 3070.42 1557.91 3072.17 1559.72C3073.92 1561.53 3076.8 1561.58 3078.61 1559.83C3096.39 1542.62 3107.18 1525.69 3113.54 1512.99C3116.72 1506.64 3118.79 1501.36 3120.07 1497.62C3120.71 1495.75 3121.16 1494.27 3121.45 1493.24C3121.59 1492.73 3121.7 1492.32 3121.77 1492.04C3121.81 1491.9 3121.83 1491.78 3121.85 1491.7C3121.86 1491.66 3121.87 1491.63 3121.88 1491.6L3121.88 1491.57L3121.89 1491.56L3121.89 1491.56C3121.89 1491.55 3121.89 1491.55 3117.45 1490.55L3121.89 1491.55C3122.44 1489.1 3120.9 1486.66 3118.44 1486.11Z" fill="#67686B"/>
<path fill-rule="evenodd" clip-rule="evenodd" d="M3151.14 1614.33C3148.81 1613.39 3146.17 1614.52 3145.23 1616.84L3145.22 1616.86C3145.2 1616.9 3145.18 1616.96 3145.13 1617.05C3145.05 1617.24 3144.91 1617.54 3144.7 1617.95C3144.29 1618.77 3143.62 1620.03 3142.61 1621.67C3140.59 1624.95 3137.24 1629.75 3132 1635.6C3121.52 1647.3 3103.45 1663.23 3073.28 1679.55C3071.07 1680.75 3070.24 1683.51 3071.44 1685.72C3072.64 1687.93 3075.4 1688.76 3077.61 1687.56C3108.64 1670.78 3127.56 1654.21 3138.78 1641.68C3144.39 1635.42 3148.07 1630.18 3150.37 1626.44C3151.51 1624.57 3152.32 1623.08 3152.85 1622.03C3153.11 1621.5 3153.3 1621.09 3153.44 1620.79C3153.51 1620.64 3153.56 1620.52 3153.6 1620.43C3153.62 1620.38 3153.63 1620.35 3153.64 1620.32L3153.66 1620.28L3153.67 1620.26L3153.67 1620.26C3153.67 1620.25 3153.67 1620.25 3149.45 1618.55L3153.67 1620.25C3154.61 1617.92 3153.48 1615.27 3151.14 1614.33Z" fill="#67686B"/>
<path fill-rule="evenodd" clip-rule="evenodd" d="M3012.74 1538.06C3010.25 1538.45 3008.56 1540.78 3008.95 1543.26L3013.45 1542.55C3008.95 1543.26 3008.95 1543.26 3008.95 1543.26L3008.95 1543.29L3008.96 1543.33C3008.97 1543.37 3008.97 1543.41 3008.98 1543.47C3009 1543.59 3009.03 1543.76 3009.07 1543.98C3009.15 1544.4 3009.28 1545.02 3009.45 1545.8C3009.8 1547.36 3010.35 1549.61 3011.18 1552.4C3012.84 1557.97 3015.62 1565.76 3020.13 1574.72C3029.16 1592.64 3045.13 1615.29 3072.87 1634.31C3074.94 1635.73 3077.78 1635.2 3079.2 1633.13C3080.62 1631.05 3080.09 1628.22 3078.02 1626.8C3051.77 1608.79 3036.74 1587.43 3028.27 1570.62C3024.03 1562.21 3021.43 1554.93 3019.91 1549.8C3019.14 1547.23 3018.64 1545.2 3018.34 1543.83C3018.19 1543.15 3018.09 1542.63 3018.02 1542.29C3017.99 1542.13 3017.97 1542 3017.96 1541.93C3017.95 1541.89 3017.95 1541.86 3017.94 1541.85L3017.94 1541.85C3017.94 1541.85 3017.94 1541.84 3017.94 1541.84C3017.94 1541.84 3017.94 1541.84 3017.94 1541.84C3017.55 1539.36 3015.22 1537.67 3012.74 1538.06Z" fill="#67686B"/>
<path fill-rule="evenodd" clip-rule="evenodd" d="M2608.4 1374.48C2646.41 1281 2590.06 1215.01 2667.37 1037.94C2744.68 860.866 2849.97 860.241 2865.94 1008.78C2881.91 1157.33 3006.06 1251.64 2948.8 1385.72C2892.53 1517.49 3009.11 1548.35 2971.29 1646.06C2923.21 1770.26 2764.09 1775 2764.09 1775C2590.8 1775 2562.64 1717.79 2549.12 1668.08C2513.64 1537.7 2591.99 1414.83 2608.4 1374.48Z" fill="#FFD26C"/>
<path fill-rule="evenodd" clip-rule="evenodd" d="M2676.57 1215.09C2674.1 1215.57 2672.49 1217.97 2672.98 1220.43L2677.45 1219.55C2672.98 1220.43 2672.98 1220.44 2672.98 1220.44L2672.98 1220.44L2672.98 1220.46L2673 1220.51C2673 1220.55 2673.02 1220.61 2673.03 1220.69C2673.06 1220.84 2673.11 1221.07 2673.17 1221.35C2673.3 1221.93 2673.49 1222.76 2673.76 1223.84C2674.29 1226.01 2675.12 1229.15 2676.33 1233.14C2678.73 1241.13 2682.64 1252.5 2688.66 1266.2C2700.7 1293.59 2721.2 1330.27 2755.07 1367.61C2756.76 1369.48 2759.64 1369.62 2761.51 1367.93C2763.37 1366.24 2763.51 1363.36 2761.82 1361.49C2728.71 1325 2708.71 1289.19 2697 1262.53C2691.14 1249.21 2687.36 1238.18 2685.04 1230.51C2683.89 1226.68 2683.1 1223.69 2682.6 1221.67C2682.35 1220.66 2682.18 1219.89 2682.07 1219.39C2682.01 1219.14 2681.97 1218.95 2681.95 1218.83C2681.93 1218.77 2681.93 1218.73 2681.92 1218.7L2681.91 1218.67C2681.91 1218.67 2681.91 1218.67 2681.91 1218.67M2676.57 1215.09C2679.03 1214.6 2681.43 1216.21 2681.91 1218.67L2676.57 1215.09Z" fill="#67686B"/>
<path fill-rule="evenodd" clip-rule="evenodd" d="M2651.3 1512.15C2648.87 1512.78 2647.41 1515.27 2648.04 1517.7L2652.45 1516.55C2648.04 1517.7 2648.04 1517.7 2648.04 1517.71L2648.04 1517.71L2648.05 1517.73L2648.06 1517.78C2648.07 1517.83 2648.09 1517.89 2648.11 1517.97C2648.16 1518.13 2648.22 1518.35 2648.3 1518.65C2648.47 1519.23 2648.73 1520.07 2649.08 1521.16C2649.79 1523.34 2650.9 1526.5 2652.49 1530.51C2655.69 1538.53 2660.86 1549.94 2668.83 1563.65C2684.76 1591.09 2711.85 1627.77 2756.53 1665.05C2758.46 1666.66 2761.33 1666.4 2762.94 1664.47C2764.55 1662.54 2764.29 1659.67 2762.36 1658.06C2718.56 1621.51 2692.15 1585.68 2676.7 1559.08C2668.98 1545.78 2663.99 1534.78 2660.95 1527.14C2659.43 1523.32 2658.4 1520.35 2657.75 1518.35C2657.42 1517.35 2657.19 1516.59 2657.05 1516.1C2656.97 1515.85 2656.92 1515.67 2656.89 1515.55C2656.88 1515.49 2656.86 1515.45 2656.86 1515.43L2656.85 1515.41L2656.85 1515.4C2656.22 1512.97 2653.73 1511.51 2651.3 1512.15Z" fill="#67686B"/>
<path fill-rule="evenodd" clip-rule="evenodd" d="M2842.93 1369.94C2842.93 1369.94 2842.93 1369.94 2842.93 1369.94V1369.94L2842.93 1369.97C2842.92 1370.01 2842.92 1370.06 2842.91 1370.13C2842.89 1370.27 2842.85 1370.49 2842.8 1370.79C2842.71 1371.38 2842.55 1372.28 2842.33 1373.45C2841.88 1375.8 2841.15 1379.25 2840.03 1383.59C2837.79 1392.29 2834 1404.54 2827.83 1418.7C2815.49 1447.02 2793.65 1482.85 2755.62 1512.99C2753.65 1514.55 2753.32 1517.41 2754.88 1519.38C2756.44 1521.35 2759.3 1521.68 2761.27 1520.12C2800.75 1488.84 2823.4 1451.66 2836.18 1422.34C2842.57 1407.67 2846.51 1394.95 2848.85 1385.86C2850.02 1381.32 2850.79 1377.68 2851.27 1375.16C2851.51 1373.91 2851.68 1372.92 2851.79 1372.25C2851.85 1371.91 2851.89 1371.65 2851.91 1371.47C2851.93 1371.38 2851.94 1371.31 2851.94 1371.26L2851.95 1371.2L2851.96 1371.18L2851.96 1371.17C2851.96 1371.17 2851.96 1371.17 2847.45 1370.55L2851.96 1371.17C2852.3 1368.68 2850.55 1366.38 2848.06 1366.04C2845.57 1365.7 2843.27 1367.45 2842.93 1369.94Z" fill="#67686B"/>
<path fill-rule="evenodd" clip-rule="evenodd" d="M3078.45 1412C3075.93 1412 3073.89 1414.04 3073.89 1416.55V1843.55C3073.89 1846.07 3075.93 1848.11 3078.45 1848.11C3080.96 1848.11 3083 1846.07 3083 1843.55V1416.55C3083 1414.04 3080.96 1412 3078.45 1412Z" fill="#67686B"/>
<path fill-rule="evenodd" clip-rule="evenodd" d="M2761.45 1127C2758.93 1127 2756.89 1129.04 2756.89 1131.55V1837.55C2756.89 1840.07 2758.93 1842.11 2761.45 1842.11C2763.96 1842.11 2766 1840.07 2766 1837.55V1131.55C2766 1129.04 2763.96 1127 2761.45 1127Z" fill="#67686B"/>
<path fill-rule="evenodd" clip-rule="evenodd" d="M3166.6 1848.97C3164.04 1848.61 3161.18 1849.25 3158.62 1848.89H2611C2611.25 1828.06 2623.13 1797.87 2641.32 1787.68C2659.5 1777.5 2683.1 1777.82 2700.99 1788.47C2692.92 1745.74 2687.08 1701.09 2698.84 1659.2C2710.58 1617.32 2744.03 1578.76 2787.23 1573.59C2827.73 1568.76 2867.07 1594.2 2890.39 1627.67C2913.71 1661.13 2924.17 1701.64 2934.18 1741.17C2933.05 1722.47 2942.32 1703.48 2957.75 1692.86C2973.18 1682.23 2994.23 1680.37 3011.29 1688.09C3030.34 1696.72 3043.02 1715.81 3048.89 1735.89C3054.76 1755.98 3054.74 1777.22 3054.68 1798.14C3066.89 1770.48 3102.18 1755.58 3130.5 1766.13C3158.84 1776.7 3175.48 1820.08 3166.6 1848.97Z" fill="#FFA17C"/>
<path fill-rule="evenodd" clip-rule="evenodd" d="M3050.6 1848.98C3049.11 1848.76 3047.45 1849.15 3045.95 1848.93H2727C2727.14 1836.85 2734.08 1819.36 2744.66 1813.46C2755.25 1807.56 2768.98 1807.74 2779.41 1813.92C2774.71 1789.14 2771.31 1763.25 2778.15 1738.97C2785 1714.69 2804.49 1692.34 2829.65 1689.34C2853.23 1686.54 2876.14 1701.29 2889.73 1720.69C2903.31 1740.09 2909.39 1763.56 2915.24 1786.48C2914.58 1775.64 2919.97 1764.64 2928.96 1758.49C2937.95 1752.33 2950.21 1751.23 2960.15 1755.72C2971.24 1760.73 2978.63 1771.79 2982.05 1783.42C2985.45 1795.07 2985.45 1807.39 2985.42 1819.5C2992.52 1803.48 3013.08 1794.84 3029.58 1800.97C3046.08 1807.08 3055.78 1832.23 3050.6 1848.98Z" fill="#FFCC57"/>
<path fill-rule="evenodd" clip-rule="evenodd" d="M1022.23 1827.6H984.831V1218H1022.23V1827.6Z" fill="#FFA17D" fill-opacity="0.956863"/>
<path fill-rule="evenodd" clip-rule="evenodd" d="M151.129 1827.6H113.729V1218H151.129V1827.6Z" fill="#FFA17D" fill-opacity="0.956863"/>
<path fill-rule="evenodd" clip-rule="evenodd" d="M1075.8 1554.99H66.0107V1517.28H1075.8V1554.99Z" fill="#FFA17D" fill-opacity="0.956863"/>
<path fill-rule="evenodd" clip-rule="evenodd" d="M1075.8 1269.81C1075.8 1283.48 1064.72 1294.56 1051.05 1294.56H84.9207C71.2507 1294.56 60.1707 1283.48 60.1707 1269.81C60.1707 1256.15 71.2507 1245.07 84.9207 1245.07H1051.05C1064.72 1245.07 1075.8 1256.15 1075.8 1269.81Z" fill="#FFAD8D"/>
<path fill-rule="evenodd" clip-rule="evenodd" d="M1075.8 1332.27C1075.8 1345.94 1064.72 1357.02 1051.05 1357.02H84.9207C71.2507 1357.02 60.1707 1345.94 60.1707 1332.27C60.1707 1318.6 71.2507 1307.52 84.9207 1307.52H1051.05C1064.72 1307.52 1075.8 1318.6 1075.8 1332.27Z" fill="#FFAD8D"/>
<path fill-rule="evenodd" clip-rule="evenodd" d="M1075.8 1394.72C1075.8 1408.39 1064.72 1419.47 1051.05 1419.47H84.9207C71.2507 1419.47 60.1707 1408.39 60.1707 1394.72C60.1707 1381.06 71.2507 1369.97 84.9207 1369.97H1051.05C1064.72 1369.97 1075.8 1381.06 1075.8 1394.72Z" fill="#FFAD8D"/>
<path d="M3005.5 1843C3007.43 1843 3009 1844.57 3009 1846.5C3009 1848.37 3007.54 1849.9 3005.69 1849.99L3005.5 1850H2131.5C2129.57 1850 2128 1848.43 2128 1846.5C2128 1844.63 2129.46 1843.1 2131.31 1843.01L2131.5 1843H3005.5Z" fill="#090E2B"/>
<path d="M1978.5 1843C1980.43 1843 1982 1844.57 1982 1846.5C1982 1848.37 1980.54 1849.9 1978.69 1849.99L1978.5 1850H1489.5C1487.57 1850 1486 1848.43 1486 1846.5C1486 1844.63 1487.46 1843.1 1489.31 1843.01L1489.5 1843H1978.5Z" fill="#090E2B"/>
<path d="M897.5 1843C899.43 1843 901 1844.57 901 1846.5C901 1848.37 899.54 1849.9 897.69 1849.99L897.5 1850H15.5C13.567 1850 12 1848.43 12 1846.5C12 1844.63 13.464 1843.1 15.308 1843.01L15.5 1843H897.5Z" fill="#090E2B"/>
<path fill-rule="evenodd" clip-rule="evenodd" d="M519.387 1688.35C519.387 1688.35 512.133 1725.08 509.968 1735.03C505.448 1748.71 507.459 1767 515.251 1769.16C523.043 1771.33 535.791 1765.56 535.791 1765.56L561.742 1701.93L519.387 1688.35Z" fill="#CA8F67"/>
<path fill-rule="evenodd" clip-rule="evenodd" d="M509.966 1735.03C509.966 1735.03 488.447 1732.39 479.44 1742.19C473.073 1749.12 474.487 1767.57 476.943 1772.89C479.398 1778.21 481.375 1783.02 478.92 1791.2C476.464 1799.38 466.6 1814.44 470.283 1834.49C473.966 1854.54 484.285 1868.4 490.832 1870.04C499.835 1865.95 535.79 1765.55 535.79 1765.55C535.79 1765.55 516.54 1766.19 511.375 1752.51C507.792 1743.02 509.966 1735.03 509.966 1735.03Z" fill="#090E2B"/>
<path fill-rule="evenodd" clip-rule="evenodd" d="M522.387 1796.43C518.339 1796.69 512.916 1791.99 511.103 1789.16C510.105 1787.6 510 1786.08 511.716 1787.35C511.809 1787.42 519.116 1796.51 525.143 1793.19C525.626 1792.92 526.233 1793.1 526.499 1793.58C527.108 1795.6 523.583 1796.34 522.387 1796.43Z" fill="#A162FF"/>
<path fill-rule="evenodd" clip-rule="evenodd" d="M517.439 1807.08C513.44 1806.82 508.758 1803.68 506.356 1801.09C504.915 1799.53 505.244 1797.25 506.968 1798.91C507.043 1798.98 514.16 1806.39 519.964 1805.19C520.506 1805.08 521.032 1805.43 521.144 1805.97C521.355 1807.35 518.688 1807.17 517.439 1807.08Z" fill="#A162FF"/>
<path fill-rule="evenodd" clip-rule="evenodd" d="M481.498 1857.63C478.129 1852.52 474.412 1841.68 473.614 1829.39C472.958 1819.27 482.657 1795.24 483.995 1784.56C484.864 1777.63 483.708 1772.19 483.419 1761.83C483.19 1753.56 484.059 1742.55 484.42 1738.44C481.697 1739.59 477.381 1740.68 475.658 1742.78C471.131 1748.29 473.669 1767.67 474.957 1773.38C476.662 1780.94 476.844 1786.46 476.382 1791.49C475.601 1800 465.599 1817.46 468.724 1837.61C472.131 1859.57 484.287 1868.4 490.834 1870.04C491.795 1870.12 493.287 1869.2 493.308 1867.55C489.306 1865.47 484.435 1862.08 481.498 1857.63Z" fill="#A162FF"/>
<path fill-rule="evenodd" clip-rule="evenodd" d="M526.421 1420.38C517.534 1415.71 458.802 1447.01 458.802 1447.01C458.802 1447.01 453.074 1454.13 455.894 1463.06C458.713 1471.99 469.651 1477.67 469.651 1477.67L532.84 1462.82C532.84 1462.82 535.307 1425.06 526.421 1420.38Z" fill="#CA8F67"/>
<path fill-rule="evenodd" clip-rule="evenodd" d="M442.278 1438.27C439.073 1438.57 437.35 1436.9 433.522 1445.95C429.694 1454.99 425.524 1471.67 424.327 1474.39C419.348 1485.72 407.866 1498.69 405.425 1509.82C395.651 1554.4 415.264 1561.3 417.787 1559.82C425.695 1555.17 431.619 1540.7 438.003 1533.85C450.306 1520.65 481.209 1479.42 481.905 1474.9C471.341 1471.86 466.257 1464.38 466.257 1457.42C466.257 1450.46 467.303 1441.94 467.303 1441.94C467.303 1441.94 451.372 1437.43 442.278 1438.27Z" fill="#090E2B"/>
<path fill-rule="evenodd" clip-rule="evenodd" d="M459.758 1507.67C459.172 1507.67 458.703 1507.16 458.761 1506.58C459.076 1498.09 446.823 1498.09 447.229 1495.65C447.672 1493.36 461.73 1496.18 460.879 1506.3C460.837 1506.82 460.266 1507.67 459.758 1507.67Z" fill="#A162FF"/>
<path fill-rule="evenodd" clip-rule="evenodd" d="M467.926 1496.58C467.462 1496.58 467.047 1496.25 466.95 1495.78C465.222 1488.43 454.994 1487.46 455.432 1485.06C456.087 1482.93 468.538 1487.38 468.904 1495.37C468.933 1496 468.55 1496.58 467.926 1496.58Z" fill="#A162FF"/>
<path fill-rule="evenodd" clip-rule="evenodd" d="M435.006 1465.24C436.749 1456.13 441.181 1440.52 442.277 1438.27C439.071 1438.57 434.554 1435.3 430.726 1444.35C426.899 1453.39 425.523 1471.67 424.327 1474.39C419.348 1485.72 405.834 1500.53 402.692 1511.49C399.734 1521.81 397.471 1541.58 403.616 1553.81C407.743 1562.03 415.263 1561.3 417.786 1559.82C418.77 1559.24 420.127 1558.23 421.053 1557.38C420.243 1557.77 419.59 1558.05 418.536 1558.36C412.806 1559.99 407.135 1552.16 405.497 1537.97C403.86 1523.79 406.445 1509.66 414.769 1497.57C419.546 1490.62 433.294 1474.18 435.006 1465.24Z" fill="#A162FF"/>
<path fill-rule="evenodd" clip-rule="evenodd" d="M525.46 1216.92L581.064 1383.78C581.064 1383.78 555.986 1546.19 555.986 1560.7C551.151 1572.79 519.415 1652.13 515.789 1689.61C535.129 1700.49 559.306 1712.58 559.306 1712.58C559.306 1712.58 601.615 1635.21 633.043 1550.59C664.473 1465.98 668.036 1459.83 671.945 1425.35C686.411 1297.75 670.297 1289.15 651.648 1216.92H525.46Z" fill="#A162FF"/>
<path d="M643.908 1238.58C644.211 1238.55 644.48 1238.77 644.507 1239.08C650.131 1300.95 637.669 1354.1 598.115 1435.59C593.598 1446.81 589.51 1459.46 585.819 1473.32C580.729 1492.43 576.642 1512.79 573.302 1533.89L573.122 1535.04L572.844 1536.84L572.461 1539.38L572.07 1542.03L571.257 1547.67L569.845 1557.77L568.936 1564.44C568.051 1568.62 566.868 1572.86 565.367 1577.31L565.075 1578.16L564.624 1579.45L564.315 1580.32L563.998 1581.19L563.673 1582.07L563.169 1583.4L562.644 1584.75L562.282 1585.67L561.718 1587.07L561.128 1588.51L560.72 1589.49L560.084 1591L559.416 1592.55L558.478 1594.7L557.734 1596.39L556.686 1598.73L555.525 1601.29L550.628 1612L548.944 1615.71L547.912 1618.01L546.697 1620.75L545.769 1622.87L545.315 1623.91L544.865 1624.96C535.091 1647.71 528.514 1668.43 524.153 1693.36C524.101 1693.66 523.815 1693.86 523.515 1693.81C523.215 1693.76 523.014 1693.47 523.067 1693.17C527.37 1668.57 533.827 1648.04 543.364 1625.66L544.076 1624L544.77 1622.4L545.256 1621.29L546.255 1619.02L547.037 1617.27L548.423 1614.19L549.315 1612.22L555.132 1599.49L556.21 1597.1L556.975 1595.38L557.704 1593.72L558.172 1592.65L558.846 1591.08L559.279 1590.07L559.698 1589.07L560.303 1587.62L560.692 1586.67L561.069 1585.73L561.614 1584.36L561.965 1583.46L562.306 1582.57L562.638 1581.69L563.119 1580.38L563.431 1579.52L563.734 1578.66L564.031 1577.81L564.322 1576.95C565.704 1572.86 566.812 1568.95 567.664 1565.1L567.858 1564.2L569.091 1555.17L570.166 1547.51L570.841 1542.81L571.245 1540.07L571.642 1537.41L571.932 1535.51L572.213 1533.72C575.558 1512.58 579.651 1492.19 584.753 1473.03C588.455 1459.13 592.557 1446.44 597.107 1435.15C636.596 1353.78 649.012 1300.83 643.408 1239.18C643.381 1238.87 643.605 1238.61 643.908 1238.58Z" fill="#0023FF"/>
<path fill-rule="evenodd" clip-rule="evenodd" d="M525.696 1216.92C525.696 1216.92 488.715 1253.59 488.715 1303.83C488.715 1352.47 521.177 1382.06 567.154 1392.7C541.715 1405.11 528.088 1412.83 512.714 1420.23C515.561 1427.64 521.451 1467.56 525.658 1469.79C529.865 1472.02 626.311 1460.82 659.776 1450.25C706.967 1435.35 750.333 1412.3 750.293 1364.86C750.248 1312.14 646.837 1284.84 620.081 1278.75C610.197 1272.16 602.879 1216.92 602.879 1216.92H525.696Z" fill="#A162FF"/>
<path fill-rule="evenodd" clip-rule="evenodd" d="M602.672 1276.15C620.534 1278.39 638.252 1282.11 655.34 1287.81C660.096 1289.67 668.068 1291.05 672.438 1293.84C673.135 1294.28 674.091 1295.18 672.355 1294.58C657.445 1289.38 639.915 1285.02 624.479 1281.65C617.223 1280.06 609.798 1278.63 602.511 1277.19C601.873 1277.08 602.01 1276.06 602.672 1276.15Z" fill="black"/>
<path fill-rule="evenodd" clip-rule="evenodd" d="M567.479 1392.21C589.03 1376.63 621.545 1354.35 648.434 1353.15C648.922 1353.18 648.909 1353.96 648.392 1353.93C633.876 1354.71 618.67 1362.02 606.144 1369.12C599.618 1372.98 593.226 1377.07 586.786 1381.09C580.368 1385.15 573.912 1389.01 567.259 1392.73C567.024 1392.87 567.232 1392.39 567.479 1392.21Z" fill="#090E2B"/>
<path fill-rule="evenodd" clip-rule="evenodd" d="M568.783 1466.39C596.633 1461.4 628.141 1456.39 655.752 1450.42C659.738 1449.57 664.611 1448.48 668.435 1447.11C668.648 1447.02 669.032 1447.35 668.029 1447.86C667.444 1448.16 664.881 1449.1 664.351 1449.31C649.667 1453.88 634.412 1456.51 619.304 1459.22C607.427 1461.3 594.244 1463.21 582.237 1464.85C578.103 1465.36 573.24 1466.21 569.096 1466.66C568.782 1466.71 568.433 1466.44 568.783 1466.39Z" fill="#090E2B"/>
<path fill-rule="evenodd" clip-rule="evenodd" d="M630.772 1241.72C631.248 1251.61 630.839 1262.65 636.1 1271.38C638.139 1273.98 641.636 1274.92 644.681 1275.78C645.039 1275.81 645.006 1276.38 644.64 1276.36C631.679 1276.48 630.631 1261.88 629.991 1252.06C630.042 1251.06 629.204 1239.34 630.772 1241.72Z" fill="#0023FF"/>
<path fill-rule="evenodd" clip-rule="evenodd" d="M538.149 1232.37C538.206 1232.27 538.19 1232.17 538.14 1232.09C541.896 1232.67 545.603 1233.54 549.296 1234.52C556.671 1236.23 564.146 1237.51 571.658 1238.51C570.996 1239.43 570.102 1241.78 569.818 1242.23C568.06 1246.08 566.152 1250.33 564.139 1254.02C554.418 1272.06 542.322 1279.88 522.335 1274.16C525.598 1262.69 530.879 1248.93 538.149 1232.37ZM664.878 1353.67C658.582 1335.82 625.357 1336.2 609.518 1334.95C534.955 1331.01 507.59 1326.47 522.229 1274.53C523.031 1274.83 524.412 1275.44 525.055 1275.63C551.944 1284.47 564.006 1259.29 572.364 1238.61C572.364 1238.61 572.363 1238.61 572.363 1238.61C577.996 1239.35 583.647 1239.94 589.297 1240.42C608.919 1242.03 638.715 1245.73 655.424 1233.89C656.021 1233.43 655.214 1232.57 654.716 1233.04C638.173 1244.82 608.822 1241.22 589.352 1239.71C575.962 1238.61 562.529 1236.96 549.425 1233.98C537.883 1230.42 525.751 1229.72 513.82 1231.09C512.88 1231.88 516.928 1231.54 518.29 1231.5C522.633 1231.29 527.368 1231.13 531.693 1231.43C533.69 1231.52 535.666 1231.73 537.631 1232.02C537.611 1232.04 537.59 1232.06 537.576 1232.09C535.669 1235.91 533.895 1239.79 532.187 1243.7C525.508 1259.38 519.522 1275.66 517.587 1292.69C513.457 1320.68 535.377 1328.27 558.45 1331.95C575.337 1334.59 592.414 1335.32 609.442 1336.3C621.678 1337.04 635.526 1337.28 647.192 1341.18C654.095 1343.63 664.823 1347.93 663.671 1356.82C660.845 1365.22 650.32 1366.42 642.751 1367.84C630.301 1371 618.563 1376.3 606.783 1381.29C575.685 1395.04 544.931 1410.04 514.761 1425.73C514.776 1425.73 514.777 1425.74 514.784 1425.74C514.787 1425.74 514.789 1425.75 514.793 1425.75C514.738 1425.75 514.303 1425.62 514.983 1426.35C515.021 1426.34 515.047 1426.31 515.074 1426.3C515.03 1426.28 514.996 1426.23 515.094 1426.27C515.101 1426.27 515.109 1426.27 515.116 1426.26C515.12 1426.26 515.122 1426.25 515.126 1426.25C515.126 1426.25 515.128 1426.25 515.129 1426.26C545.302 1410.7 576.083 1395.8 607.17 1382.18C618.898 1377.26 630.641 1372.01 642.991 1368.9C651.508 1367.53 665.919 1365.02 664.878 1353.67Z" fill="#0023FF"/>
<path fill-rule="evenodd" clip-rule="evenodd" d="M701.12 768.178C701.12 768.178 725.478 715.944 727.799 710.737C736.983 690.137 730.189 691.661 732.6 679.956C735.316 666.78 731.176 660.053 732.6 659.22C740.691 654.492 742.441 673.259 743.506 669.794C747.08 658.182 753.55 654.406 757.363 650.155C762.424 644.512 771.109 654.161 773.341 656.764C778.417 662.684 775.905 674.421 773.341 684.099C767.845 704.846 757.765 701.816 749.218 718.688C746.074 724.895 738.784 761.987 727.799 799.008C708.92 862.632 682.801 937.472 674.562 937.472C665.405 937.472 637.873 939.075 635.488 937.472C629.824 933.666 701.12 768.178 701.12 768.178Z" fill="#CA8F67"/>
<path fill-rule="evenodd" clip-rule="evenodd" d="M613.438 997.854C610.316 991.804 597.497 978.925 602.305 969.965C607.114 961.006 622.996 967.301 625.356 971.307C638.75 994.049 618.947 1008.53 613.438 997.854Z" fill="#FFB201"/>
<path fill-rule="evenodd" clip-rule="evenodd" d="M462.134 811.575C462.134 811.575 456.323 719.157 452.262 706.316C448.2 693.475 446.764 695.029 435.55 685.677C422.568 674.85 423.142 668.991 425.153 668.228C430.897 670.566 410.952 648.611 426.167 644.906C446.236 640.02 448.421 656.352 458.284 659.189C459.981 659.677 455.538 651.804 459.341 647.926C463.333 643.852 463.581 650.362 465.218 652.973C470.13 660.804 473.749 674.708 473.749 683.325C473.749 694.815 502.286 786.927 502.286 786.927C502.286 786.927 532.216 927.974 527.88 933.021C516.33 946.469 496.78 950.329 491.479 952.868C487.496 954.776 462.134 811.575 462.134 811.575Z" fill="#CA8F67"/>
<path fill-rule="evenodd" clip-rule="evenodd" d="M574.549 937.448C574.549 937.448 573.938 959.217 569.755 970.892C567.407 977.443 555.875 972.962 561.653 986.134C572.201 1010.18 615.608 1041.08 623.81 1033.3C632.01 1025.53 645.091 1021.86 635.194 997.762C633.917 994.651 612.168 983.423 611.159 980.045C604.855 958.952 612.719 937.448 612.719 937.448H574.549Z" fill="#CA8F67"/>
<path fill-rule="evenodd" clip-rule="evenodd" d="M660.967 833.402C672.178 805.524 696.323 774.891 694.129 766.467C691.936 758.042 695.602 755.76 698.71 756.525C704.876 758.042 727.531 768.363 735.097 772.146C742.662 775.929 738.88 780.342 738.88 780.342C738.88 780.342 716.12 844.212 709.703 864.552C694.129 913.908 681.027 950.022 671.956 970.773C661.426 994.863 660.967 1023.51 660.967 1023.51C660.967 1023.51 627.414 1022.22 629.405 1002.9C631.712 980.516 608.773 977.214 608.773 964.877C608.773 951.202 649.756 861.28 660.967 833.402Z" fill="#FFB201"/>
<path fill-rule="evenodd" clip-rule="evenodd" d="M615.255 1018.15C628.709 1016.62 623.409 988.278 623.409 988.278C623.409 988.278 641.493 998.641 653.244 1001.25C653.244 1017.94 679.429 1038.3 677.268 1073.19C675.108 1108.08 661.122 1183.94 673.416 1203.26C685.711 1222.58 682.537 1227.33 677.268 1234.35C671.999 1241.38 636.734 1252.97 605.474 1248.17C589.85 1245.78 546.297 1231.29 529.612 1234.8C521.679 1236.47 510.426 1245.79 510.426 1237.5C510.426 1221.69 528.839 1214.7 533.111 1112.27C534.833 1071 511.668 1036.36 510.79 1024.95C509.912 1013.53 512.546 1011.33 525.718 996.405C538.892 981.476 545.268 937.363 553.213 952.259C561.157 967.155 573.622 969.07 578.409 997.283C578.409 997.283 608.969 1018.86 615.255 1018.15Z" fill="#FFB201"/>
<path fill-rule="evenodd" clip-rule="evenodd" d="M454.883 794.543C454.883 794.543 473.892 776.3 492.961 773.44C512.032 770.579 506.255 776.963 506.255 776.963C506.255 776.963 525.047 904.958 540.304 929.751C555.561 954.542 560.165 964.175 560.165 964.175L513.554 1033.18C513.554 1033.18 479.719 976.65 477.812 939.463C475.904 902.274 473.501 889.309 469.687 875.959C465.873 862.611 456.79 813.614 454.883 794.543Z" fill="#FFB201"/>
<path fill-rule="evenodd" clip-rule="evenodd" d="M615.766 865.133C622.244 854.154 635.151 839.407 657.975 844.519C689.665 851.617 662.111 886.766 663.521 903.65C668.675 965.389 653.232 988.435 631.735 988.435C610.533 988.435 601.033 974.613 612.169 947.296C622.18 922.739 603.839 885.35 615.766 865.133Z" fill="#001386"/>
<path fill-rule="evenodd" clip-rule="evenodd" d="M661.436 894.708C660.034 915.062 666.051 957.952 636.76 965.546C616.219 970.872 569.844 956.998 564.67 922.356C563.765 916.297 554.031 879.67 578.288 858.505C599.308 840.165 655.091 842.095 659.869 851.559C668.76 869.172 662.838 874.355 661.436 894.708Z" fill="#CA8F67"/>
<path fill-rule="evenodd" clip-rule="evenodd" d="M663.115 850.337C664.162 861.56 654.089 867.959 640.231 870.278C618.98 873.835 596.488 869.261 581.862 881.535C577.571 885.136 581.824 899.967 577.045 904.539C573.912 907.536 572.48 901.099 572.319 900.535C570.945 895.737 569.464 899.898 567.519 898.927C566.943 916.971 566.943 927.754 575.708 941.617C586.028 957.938 608.546 998.623 601.476 1029.63C592.414 1069.36 541.012 1078.33 549.726 1021.68C558.439 965.021 540.01 971.02 530.771 939.005C526.302 923.519 524.836 902.1 531.506 874.916C545.017 819.852 588.372 808.145 623.262 813.649C647.911 817.537 661.971 838.071 663.115 850.337Z" fill="#001386"/>
<path fill-rule="evenodd" clip-rule="evenodd" d="M563.928 894.073C560.283 893.801 552.309 894.589 555.632 910.851C557.812 921.516 571.849 923.762 574.806 923.192C580.097 922.172 575.209 914.003 574.806 906.414C574.532 901.286 570.683 894.576 563.928 894.073Z" fill="#CA8F67"/>
<path fill-rule="evenodd" clip-rule="evenodd" d="M607.947 962.469C608.134 962.54 608.44 963.407 608.243 963.444C604.275 964.216 594.22 960.369 588.042 955.061C587.319 954.439 584.613 952.073 585.858 952.388C591.391 956.21 606.102 961.78 607.947 962.469Z" fill="#090E2B"/>
<path fill-rule="evenodd" clip-rule="evenodd" d="M561.347 900.246C559.446 900.346 558.741 902.318 560.636 902.2C563.123 902.045 566.3 904.344 567.774 906.219C565.982 906.434 564.508 906.869 563.14 908.348C562.313 909.243 562.39 910.282 563.32 909.499C565.598 907.58 567.847 907.511 568.512 907.552C568.619 907.64 569.948 910.718 570.157 912.024C571.637 912.419 569.319 899.832 561.347 900.246Z" fill="#090E2B"/>
<path fill-rule="evenodd" clip-rule="evenodd" d="M646.776 935.225C635.282 934.764 627.23 934.44 619.492 934.13C617.087 934.032 614.972 938.238 619.106 943.75C624.964 951.561 640.138 954.273 646.308 944.842C649.452 940.04 649.271 935.326 646.776 935.225Z" fill="white"/>
<path fill-rule="evenodd" clip-rule="evenodd" d="M638.589 912.964C641.561 915.74 649.013 926.892 642.296 928.505C640.909 928.838 634.569 928.999 635.504 927.621C636.249 926.522 640.935 927.17 641.613 925.082C642.502 922.339 639.269 916.968 637.254 913.284C636.908 912.649 638.122 912.419 638.589 912.964Z" fill="#090E2B"/>
<path fill-rule="evenodd" clip-rule="evenodd" d="M652.09 908.378C653.249 907.626 654.194 906.519 654.79 904.264C655.253 902.509 654.279 902.281 653.786 902.792C653.589 902.995 653.377 903.264 653.139 903.563C652.281 904.648 651.102 906.136 649.22 906.39C647.97 906.56 646.112 906.21 644.211 904.881C643.011 904.044 641.951 904.028 642.625 905.696C643.526 907.927 648.711 910.57 652.09 908.378ZM611.354 912.295C617.204 915.415 624.461 912.21 624.3 906.571C624.249 904.759 623.123 904.731 622.482 905.964C620.843 909.124 615.857 912.134 609.968 908.201C609.963 908.197 609.957 908.194 609.952 908.19C609.493 907.884 608.188 907.013 607.682 907.563C606.881 908.432 608.341 910.689 611.354 912.295Z" fill="#090E2B"/>
<path fill-rule="evenodd" clip-rule="evenodd" d="M656.32 886.011C649.707 880.401 638.68 885.111 637.629 891.42C637.22 893.879 640.02 894.373 641.342 892.97C646.219 887.794 652.657 889.046 655.176 889.536C655.698 889.638 656.052 889.707 656.189 889.679C658.422 889.23 657.626 887.119 656.32 886.011ZM598.283 894.75C606.157 888.618 613.94 890.268 622.374 895.263C625.464 896.231 626.185 892.216 623.888 889.704C618.877 884.226 608.438 883.211 600.952 886.764C598.668 887.848 595.85 890.875 595.142 892.563C594.15 894.932 595.454 896.954 598.283 894.75Z" fill="#090E2B"/>
<path fill-rule="evenodd" clip-rule="evenodd" d="M2643.39 1688.36C2643.39 1688.36 2650.64 1725.08 2652.81 1735.04C2657.33 1748.71 2655.32 1767 2647.53 1769.17C2639.74 1771.33 2626.99 1765.56 2626.99 1765.56L2601.04 1701.93L2643.39 1688.36Z" fill="#B75858"/>
<path fill-rule="evenodd" clip-rule="evenodd" d="M2652.81 1735.04C2652.81 1735.04 2674.33 1732.4 2683.33 1742.2C2689.7 1749.12 2688.29 1767.57 2685.83 1772.89C2683.38 1778.21 2681.4 1783.02 2683.85 1791.2C2686.31 1799.39 2696.17 1814.44 2692.49 1834.49C2688.81 1854.54 2678.49 1868.4 2671.94 1870.04C2662.94 1865.95 2626.99 1765.56 2626.99 1765.56C2626.99 1765.56 2646.24 1766.2 2651.4 1752.52C2654.98 1743.02 2652.81 1735.04 2652.81 1735.04Z" fill="#090E2B"/>
<path fill-rule="evenodd" clip-rule="evenodd" d="M2640.39 1796.43C2644.43 1796.69 2649.86 1791.99 2651.67 1789.16C2652.67 1787.6 2652.77 1786.09 2651.06 1787.36C2650.96 1787.43 2643.66 1796.51 2637.63 1793.19C2637.15 1792.93 2636.54 1793.1 2636.27 1793.59C2635.67 1795.6 2639.19 1796.34 2640.39 1796.43Z" fill="#FFB201"/>
<path fill-rule="evenodd" clip-rule="evenodd" d="M2645.34 1807.09C2649.34 1806.82 2654.02 1803.69 2656.42 1801.09C2657.86 1799.53 2657.53 1797.25 2655.81 1798.91C2655.73 1798.99 2648.62 1806.39 2642.81 1805.2C2642.27 1805.08 2641.74 1805.43 2641.63 1805.97C2641.42 1807.35 2644.09 1807.17 2645.34 1807.09Z" fill="#FFB201"/>
<path fill-rule="evenodd" clip-rule="evenodd" d="M2681.28 1857.63C2684.65 1852.52 2688.37 1841.68 2689.16 1829.39C2689.82 1819.27 2680.12 1795.24 2678.78 1784.56C2677.91 1777.63 2679.07 1772.19 2679.36 1761.83C2679.59 1753.56 2678.72 1742.56 2678.36 1738.44C2681.08 1739.59 2685.4 1740.68 2687.12 1742.78C2691.65 1748.29 2689.11 1767.67 2687.82 1773.39C2686.12 1780.95 2685.93 1786.46 2686.4 1791.49C2687.18 1800 2697.18 1817.47 2694.05 1837.61C2690.65 1859.57 2678.49 1868.4 2671.94 1870.04C2670.98 1870.12 2669.49 1869.2 2669.47 1867.55C2673.47 1865.47 2678.34 1862.08 2681.28 1857.63Z" fill="#FFB201"/>
<path fill-rule="evenodd" clip-rule="evenodd" d="M2636.36 1420.4C2645.24 1415.73 2703.97 1447.03 2703.97 1447.03C2703.97 1447.03 2709.7 1454.15 2706.88 1463.08C2704.06 1472.01 2693.12 1477.68 2693.12 1477.68L2629.94 1462.83C2629.94 1462.83 2627.47 1425.07 2636.36 1420.4Z" fill="#B75858"/>
<path fill-rule="evenodd" clip-rule="evenodd" d="M2720.5 1438.29C2723.7 1438.59 2725.42 1436.91 2729.25 1445.96C2733.08 1455.01 2737.25 1471.69 2738.45 1474.41C2743.43 1485.73 2754.91 1498.7 2757.35 1509.84C2767.12 1554.42 2747.51 1561.31 2744.99 1559.83C2737.08 1555.18 2731.15 1540.71 2724.77 1533.86C2712.47 1520.67 2681.57 1479.43 2680.87 1474.91C2691.43 1471.87 2696.52 1464.39 2696.52 1457.43C2696.52 1450.47 2695.47 1441.96 2695.47 1441.96C2695.47 1441.96 2711.4 1437.44 2720.5 1438.29Z" fill="#090E2B"/>
<path fill-rule="evenodd" clip-rule="evenodd" d="M2703.02 1507.68C2703.6 1507.69 2704.07 1507.17 2704.01 1506.59C2703.7 1498.11 2715.95 1498.1 2715.54 1495.66C2715.1 1493.37 2701.04 1496.19 2701.89 1506.31C2701.94 1506.83 2702.51 1507.68 2703.02 1507.68Z" fill="#FFB201"/>
<path fill-rule="evenodd" clip-rule="evenodd" d="M2694.85 1496.59C2695.32 1496.59 2695.73 1496.26 2695.83 1495.79C2697.56 1488.45 2707.78 1487.48 2707.35 1485.08C2706.69 1482.94 2694.24 1487.39 2693.87 1495.39C2693.84 1496.01 2694.23 1496.6 2694.85 1496.59Z" fill="#FFB201"/>
<path fill-rule="evenodd" clip-rule="evenodd" d="M2727.76 1465.25C2726.02 1456.15 2721.59 1440.53 2720.49 1438.29C2723.7 1438.59 2728.22 1435.31 2732.04 1444.36C2735.87 1453.41 2737.25 1471.69 2738.44 1474.41C2743.42 1485.73 2756.94 1500.55 2760.08 1511.51C2763.04 1521.83 2765.3 1541.59 2759.15 1553.82C2755.03 1562.04 2747.51 1561.31 2744.98 1559.83C2744 1559.25 2742.64 1558.24 2741.72 1557.39C2742.53 1557.78 2743.18 1558.07 2744.23 1558.37C2749.96 1560 2755.63 1552.18 2757.27 1537.99C2758.91 1523.8 2756.33 1509.68 2748 1497.58C2743.22 1490.64 2729.48 1474.2 2727.76 1465.25Z" fill="#FFB201"/>
<path fill-rule="evenodd" clip-rule="evenodd" d="M2637.32 1216.95L2581.72 1383.8C2581.72 1383.8 2606.79 1546.21 2606.79 1560.71C2611.63 1572.8 2643.36 1652.14 2646.99 1689.61C2627.65 1700.49 2603.47 1712.58 2603.47 1712.58C2603.47 1712.58 2561.17 1635.22 2529.74 1550.6C2498.31 1465.99 2494.75 1459.84 2490.84 1425.37C2476.37 1297.77 2492.49 1289.17 2511.13 1216.95H2637.32Z" fill="#1D092B"/>
<path d="M2518.87 1238.6C2518.57 1238.57 2518.3 1238.8 2518.27 1239.1C2512.65 1300.97 2525.11 1354.11 2564.66 1435.61C2569.18 1446.82 2573.27 1459.47 2576.96 1473.33C2582.05 1492.45 2586.13 1512.8 2589.47 1533.9L2589.65 1535.05L2589.93 1536.85L2590.31 1539.4L2590.71 1542.04L2591.52 1547.68L2592.93 1557.78L2593.84 1564.45C2594.72 1568.63 2595.91 1572.87 2597.41 1577.32L2597.7 1578.17L2598.15 1579.47L2598.46 1580.33L2598.78 1581.2L2599.1 1582.08L2599.61 1583.41L2600.13 1584.76L2600.49 1585.68L2601.06 1587.08L2601.65 1588.52L2602.06 1589.5L2602.69 1591.01L2603.36 1592.56L2604.3 1594.71L2605.04 1596.4L2606.09 1598.74L2607.25 1601.3L2612.15 1612.01L2613.83 1615.72L2614.86 1618.02L2616.08 1620.76L2617 1622.88L2617.46 1623.92L2617.91 1624.97C2627.68 1647.71 2634.26 1668.44 2638.62 1693.37C2638.67 1693.67 2638.96 1693.87 2639.26 1693.82C2639.56 1693.77 2639.76 1693.48 2639.71 1693.18C2635.4 1668.58 2628.95 1648.05 2619.41 1625.67L2618.7 1624.01L2618 1622.41L2617.52 1621.3L2616.52 1619.03L2615.74 1617.28L2614.35 1614.2L2613.46 1612.23L2607.64 1599.5L2606.56 1597.11L2605.8 1595.39L2605.07 1593.73L2604.6 1592.66L2603.93 1591.09L2603.5 1590.08L2603.08 1589.08L2602.47 1587.63L2602.08 1586.68L2601.71 1585.74L2601.16 1584.37L2600.81 1583.47L2600.47 1582.58L2600.14 1581.7L2599.66 1580.39L2599.34 1579.53L2599.04 1578.67L2598.74 1577.82L2598.45 1576.96C2597.07 1572.87 2595.96 1568.96 2595.11 1565.11L2594.92 1564.21L2593.68 1555.18L2592.61 1547.52L2591.93 1542.83L2591.53 1540.08L2591.13 1537.42L2590.84 1535.52L2590.56 1533.73C2587.22 1512.6 2583.12 1492.2 2578.02 1473.05C2574.32 1459.15 2570.22 1446.45 2565.67 1435.16C2526.18 1353.8 2513.77 1300.85 2519.37 1239.2C2519.4 1238.9 2519.17 1238.63 2518.87 1238.6Z" fill="black"/>
<path fill-rule="evenodd" clip-rule="evenodd" d="M2637.08 1216.95C2637.08 1216.95 2674.06 1253.62 2674.06 1303.85C2674.06 1352.49 2641.6 1382.08 2595.63 1392.72C2621.06 1405.13 2634.69 1412.85 2650.06 1420.25C2647.22 1427.65 2641.33 1467.57 2637.12 1469.81C2632.91 1472.04 2536.47 1460.83 2503.01 1450.26C2455.82 1435.36 2412.45 1412.31 2412.49 1364.88C2412.54 1312.16 2515.95 1284.86 2542.7 1278.77C2552.59 1272.18 2559.9 1216.95 2559.9 1216.95H2637.08Z" fill="#1D092B"/>
<path fill-rule="evenodd" clip-rule="evenodd" d="M2560.1 1276.18C2542.24 1278.41 2524.53 1282.13 2507.44 1287.84C2502.68 1289.69 2494.71 1291.07 2490.34 1293.86C2489.65 1294.3 2488.69 1295.2 2490.42 1294.6C2505.33 1289.4 2522.86 1285.04 2538.3 1281.67C2545.56 1280.08 2552.98 1278.65 2560.27 1277.21C2560.9 1277.11 2560.77 1276.08 2560.1 1276.18Z" fill="black"/>
<path fill-rule="evenodd" clip-rule="evenodd" d="M2595.3 1392.23C2573.75 1376.65 2541.23 1354.37 2514.35 1353.17C2513.86 1353.2 2513.87 1353.98 2514.39 1353.95C2528.9 1354.73 2544.11 1362.04 2556.63 1369.14C2563.16 1372.99 2569.55 1377.09 2575.99 1381.11C2582.41 1385.17 2588.87 1389.03 2595.52 1392.74C2595.75 1392.89 2595.55 1392.41 2595.3 1392.23Z" fill="#090E2B"/>
<path fill-rule="evenodd" clip-rule="evenodd" d="M2593.99 1466.4C2566.15 1461.41 2534.64 1456.41 2507.03 1450.43C2503.04 1449.58 2498.17 1448.49 2494.35 1447.13C2494.13 1447.03 2493.75 1447.37 2494.75 1447.88C2495.34 1448.18 2497.9 1449.11 2498.43 1449.32C2513.11 1453.9 2528.37 1456.53 2543.48 1459.23C2555.35 1461.31 2568.53 1463.22 2580.54 1464.86C2584.68 1465.38 2589.54 1466.23 2593.68 1466.68C2594 1466.72 2594.34 1466.46 2593.99 1466.4Z" fill="#090E2B"/>
<path fill-rule="evenodd" clip-rule="evenodd" d="M2532 1241.74C2531.53 1251.63 2531.94 1262.68 2526.68 1271.4C2524.64 1274 2521.14 1274.94 2518.1 1275.8C2517.74 1275.83 2517.77 1276.4 2518.14 1276.38C2531.1 1276.5 2532.15 1261.9 2532.79 1252.08C2532.74 1251.08 2533.57 1239.36 2532 1241.74Z" fill="black"/>
<path fill-rule="evenodd" clip-rule="evenodd" d="M2624.63 1232.4C2624.57 1232.29 2624.58 1232.19 2624.63 1232.11C2620.88 1232.69 2617.17 1233.56 2613.48 1234.54C2606.1 1236.25 2598.63 1237.53 2591.12 1238.54C2591.78 1239.45 2592.67 1241.8 2592.96 1242.25C2594.72 1246.1 2596.62 1250.36 2598.64 1254.04C2608.36 1272.08 2620.45 1279.9 2640.44 1274.18C2637.18 1262.71 2631.89 1248.96 2624.63 1232.4ZM2497.9 1353.69C2504.2 1335.84 2537.42 1336.22 2553.26 1334.97C2627.82 1331.03 2655.18 1326.49 2640.54 1274.55C2639.74 1274.85 2638.36 1275.46 2637.72 1275.65C2610.83 1284.49 2598.77 1259.31 2590.41 1238.64C2590.41 1238.63 2590.41 1238.63 2590.41 1238.63C2584.78 1239.37 2579.13 1239.96 2573.48 1240.45C2553.86 1242.05 2524.06 1245.75 2507.35 1233.91C2506.76 1233.46 2507.56 1232.59 2508.06 1233.07C2524.6 1244.84 2553.95 1241.24 2573.42 1239.73C2586.81 1238.64 2600.25 1236.99 2613.35 1234C2624.89 1230.45 2637.02 1229.75 2648.95 1231.11C2649.89 1231.9 2645.85 1231.56 2644.48 1231.53C2640.14 1231.31 2635.41 1231.15 2631.08 1231.46C2629.08 1231.54 2627.11 1231.75 2625.14 1232.04C2625.16 1232.06 2625.18 1232.08 2625.2 1232.11C2627.1 1235.94 2628.88 1239.81 2630.59 1243.72C2637.27 1259.4 2643.25 1275.68 2645.19 1292.71C2649.32 1320.7 2627.4 1328.29 2604.32 1331.97C2587.44 1334.61 2570.36 1335.34 2553.33 1336.32C2541.1 1337.06 2527.25 1337.3 2515.59 1341.19C2508.68 1343.65 2497.96 1347.95 2499.11 1356.84C2501.93 1365.24 2512.46 1366.44 2520.03 1367.85C2532.48 1371.02 2544.21 1376.32 2555.99 1381.31C2587.09 1395.06 2617.84 1410.05 2648.01 1425.74C2648 1425.75 2648 1425.75 2647.99 1425.76C2647.99 1425.76 2647.98 1425.76 2647.98 1425.77C2648.04 1425.77 2648.47 1425.64 2647.79 1426.36C2647.75 1426.35 2647.73 1426.33 2647.7 1426.31C2647.74 1426.29 2647.78 1426.25 2647.68 1426.29C2647.67 1426.29 2647.66 1426.28 2647.66 1426.28C2647.65 1426.27 2647.65 1426.27 2647.65 1426.26C2647.65 1426.27 2647.65 1426.27 2647.64 1426.27C2617.47 1410.71 2586.69 1395.82 2555.61 1382.2C2543.88 1377.28 2532.14 1372.03 2519.79 1368.92C2511.27 1367.55 2496.86 1365.04 2497.9 1353.69Z" fill="black"/>
<path fill-rule="evenodd" clip-rule="evenodd" d="M2461.66 768.217C2461.66 768.217 2437.31 715.986 2434.99 710.779C2425.8 690.179 2432.6 691.703 2430.18 679.999C2427.47 666.823 2431.61 660.096 2430.18 659.264C2422.09 654.535 2420.34 673.302 2419.28 669.837C2415.71 658.226 2409.24 654.45 2405.42 650.198C2400.36 644.557 2391.68 654.205 2389.45 656.808C2384.37 662.728 2386.88 674.464 2389.45 684.141C2394.94 704.888 2405.02 701.858 2413.57 718.73C2416.71 724.936 2424 762.027 2434.99 799.047C2453.86 862.668 2479.98 937.506 2488.22 937.506C2497.38 937.506 2524.91 939.109 2527.29 937.506C2532.96 933.699 2461.66 768.217 2461.66 768.217Z" fill="#FF8282"/>
<path fill-rule="evenodd" clip-rule="evenodd" d="M2549.34 997.885C2552.46 991.836 2565.28 978.957 2560.47 969.997C2555.66 961.039 2539.78 967.333 2537.42 971.339C2524.03 994.08 2543.83 1008.56 2549.34 997.885Z" fill="#FF0057"/>
<path fill-rule="evenodd" clip-rule="evenodd" d="M2700.64 811.613C2700.64 811.613 2706.45 719.198 2710.51 706.357C2714.57 693.517 2716.01 695.071 2727.22 685.719C2740.21 674.892 2739.63 669.034 2737.62 668.271C2731.88 670.609 2751.82 648.654 2736.61 644.95C2716.54 640.064 2714.35 656.396 2704.49 659.233C2702.79 659.72 2707.24 651.847 2703.43 647.969C2699.44 643.896 2699.19 650.406 2697.56 653.017C2692.65 660.848 2689.03 674.751 2689.03 683.367C2689.03 694.857 2660.49 786.966 2660.49 786.966C2660.49 786.966 2630.56 928.008 2634.9 933.055C2646.45 946.502 2666 950.362 2671.3 952.901C2675.28 954.809 2700.64 811.613 2700.64 811.613Z" fill="#FF8282"/>
<path fill-rule="evenodd" clip-rule="evenodd" d="M2588.23 937.481C2588.23 937.481 2588.84 959.25 2593.02 970.924C2595.37 977.475 2606.9 972.994 2601.12 986.166C2590.58 1010.21 2547.17 1041.11 2538.97 1033.33C2530.77 1025.56 2517.69 1021.89 2527.59 997.793C2528.86 994.682 2550.61 983.454 2551.62 980.076C2557.92 958.985 2550.06 937.481 2550.06 937.481H2588.23Z" fill="#FF8282"/>
<path fill-rule="evenodd" clip-rule="evenodd" d="M2501.81 833.439C2490.6 805.562 2466.46 774.93 2468.65 766.507C2470.84 758.082 2467.18 755.8 2464.07 756.565C2457.9 758.082 2435.25 768.403 2427.69 772.185C2420.12 775.968 2423.9 780.381 2423.9 780.381C2423.9 780.381 2446.66 844.249 2453.08 864.588C2468.65 913.942 2481.75 950.056 2490.82 970.806C2501.35 994.895 2501.81 1023.54 2501.81 1023.54C2501.81 1023.54 2535.36 1022.25 2533.37 1002.94C2531.07 980.548 2554 977.246 2554 964.909C2554 951.235 2513.02 861.316 2501.81 833.439Z" fill="#FF0057"/>
<path fill-rule="evenodd" clip-rule="evenodd" d="M2547.52 1018.18C2534.07 1016.65 2539.37 988.31 2539.37 988.31C2539.37 988.31 2521.29 998.673 2509.53 1001.29C2509.53 1017.97 2483.35 1038.33 2485.51 1073.22C2487.67 1108.11 2501.66 1183.97 2489.36 1203.29C2477.07 1222.61 2480.24 1227.35 2485.51 1234.38C2490.78 1241.4 2526.04 1252.99 2557.3 1248.2C2572.93 1245.8 2616.48 1231.31 2633.16 1234.82C2641.09 1236.49 2652.35 1245.82 2652.35 1237.52C2652.35 1221.72 2633.93 1214.72 2629.66 1112.3C2627.94 1071.03 2651.11 1036.39 2651.98 1024.98C2652.86 1013.56 2650.23 1011.37 2637.06 996.438C2623.88 981.509 2617.51 937.398 2609.56 952.293C2601.62 967.188 2589.15 969.103 2584.37 997.316C2584.37 997.316 2553.81 1018.89 2547.52 1018.18Z" fill="#FF0057"/>
<path fill-rule="evenodd" clip-rule="evenodd" d="M2707.89 794.581C2707.89 794.581 2688.89 776.339 2669.82 773.479C2650.75 770.618 2656.52 777.002 2656.52 777.002C2656.52 777.002 2637.73 904.993 2622.48 929.784C2607.22 954.575 2602.62 964.208 2602.62 964.208L2649.23 1033.21C2649.23 1033.21 2683.06 976.682 2684.97 939.496C2686.87 902.308 2689.28 889.344 2693.09 875.995C2696.9 862.647 2705.99 813.652 2707.89 794.581Z" fill="#FF0057"/>
<path fill-rule="evenodd" clip-rule="evenodd" d="M2622.39 845.92C2622.39 845.92 2638.25 806.423 2602.21 793.532C2566.17 780.642 2537.79 787.435 2534.16 817.831C2528.33 866.586 2604.26 891.095 2622.39 845.92Z" fill="#1D092B"/>
<path fill-rule="evenodd" clip-rule="evenodd" d="M2566.56 937.678C2634.92 937.678 2690.24 926.071 2690.24 879.725C2690.24 833.379 2651.12 808.225 2577.83 797.45C2504.54 786.675 2451.96 783.925 2451.96 845.152C2451.96 891.499 2498.2 937.678 2566.56 937.678Z" fill="#1D092B"/>
<path fill-rule="evenodd" clip-rule="evenodd" d="M2752.23 947.411C2722.65 928.372 2686.67 939.232 2667.53 932.425C2636.41 921.362 2640.61 886.51 2611.29 873.51C2603.33 848.372 2580.91 835.817 2547.82 835.817C2495.89 835.817 2494.44 877.506 2493.17 884.532C2488.49 910.347 2498.21 960.64 2488.39 977.926C2471.9 1006.95 2479.52 1025.89 2488.12 1032.81C2497.39 1040.28 2524.35 1033.45 2530.2 1028.6C2541.37 1019.35 2552.63 1015.72 2552.63 985.045C2558.46 976.095 2558.8 973.446 2557.49 962.581C2555.9 949.509 2554.41 937.684 2582.55 932.425C2580.26 955.027 2576.5 970.59 2587.02 982.032C2597.54 993.474 2608.1 993.474 2621.07 997.788C2648.32 1006.85 2657.45 1083.58 2740.6 1051.46C2785.18 1034.8 2781.8 966.451 2752.23 947.411Z" fill="#A162FF"/>
<path fill-rule="evenodd" clip-rule="evenodd" d="M2503.01 946.789C2497.12 935.105 2494.8 916.612 2501.4 889.54C2502.92 883.316 2503.61 877.893 2504.19 873.287C2506.14 857.858 2506.93 851.62 2533.93 855.313C2554.18 858.083 2585.69 870.727 2591.23 892.908C2591.23 892.908 2591.33 894.131 2591.43 896.161C2599.36 887.353 2611.29 896.678 2611.29 904.201C2611.29 921.001 2597.56 928.253 2589.28 926.305C2589.03 927.153 2588.76 927.961 2588.45 928.717C2588.19 929.365 2587.93 930.05 2587.65 930.768C2585.34 936.74 2582.18 944.934 2574.39 952.046C2566.12 959.609 2551.4 968.3 2527.98 967.476C2515.83 967.049 2509.95 960.544 2503.01 946.789Z" fill="#FF8282"/>
<path fill-rule="evenodd" clip-rule="evenodd" d="M2592.97 905.881C2595.09 901.639 2600.18 899.011 2604.57 901.979C2605.57 902.65 2604.23 903.11 2603.81 903.063C2598.59 902.38 2596.51 903.807 2594.8 906.776C2596.44 907.179 2598.08 908.639 2598.29 910.287C2598.41 911.299 2598.06 914.295 2597.29 913.35C2596.76 912.697 2597.93 908.241 2594.04 908.648C2593.99 908.661 2593.93 908.664 2593.88 908.669C2593.69 909.109 2592.23 910.02 2591.6 909.256C2591.22 908.79 2592.01 907.821 2592.97 905.881Z" fill="#1D092B"/>
<path fill-rule="evenodd" clip-rule="evenodd" d="M2538.37 835.888C2559.01 837.382 2588.5 859.452 2593.25 875.631C2594.05 878.372 2593.31 892.628 2591.56 895.849C2589.22 900.137 2589.48 909.917 2582.52 911.051C2570.24 913.049 2582.85 894.795 2580.99 890.026C2573.97 872.042 2551.71 883.465 2538.37 879.394C2520.1 873.819 2513.33 869.856 2512.86 869.146C2510.49 878.248 2497.71 895.673 2493.28 899.07C2491.84 900.174 2493.78 880.398 2498.4 864.397C2501.2 854.714 2518.74 834.468 2538.37 835.888Z" fill="#A162FF"/>
<path fill-rule="evenodd" clip-rule="evenodd" d="M2595.17 947.845C2603.72 947.845 2610.68 940.885 2610.68 932.33C2610.68 927.81 2608.73 923.457 2605.3 920.504C2604.73 921.08 2604.06 921.719 2603.56 922.148C2606.5 924.68 2608.48 928.452 2608.48 932.33C2608.48 939.669 2602.51 945.639 2595.17 945.639C2587.83 945.639 2581.86 939.669 2581.86 932.33C2581.86 924.993 2587.83 919.023 2595.17 919.023C2595.78 919.023 2596.27 918.528 2596.27 917.92C2596.27 917.31 2595.78 916.816 2595.17 916.816C2586.61 916.816 2579.65 923.776 2579.65 932.33C2579.65 940.885 2586.61 947.845 2595.17 947.845Z" fill="white"/>
<path fill-rule="evenodd" clip-rule="evenodd" d="M2562.33 961.478C2565.34 959.683 2571.47 956.35 2572.69 954.431C2573.32 953.431 2571.06 954.749 2569.89 955.631C2568.33 956.806 2561.9 960.27 2553.95 964.007C2553.26 964.33 2548.84 966.189 2548.73 966.437C2548.63 966.67 2549.07 967.073 2549.6 967.004C2553.11 966.536 2559.01 963.457 2562.33 961.478Z" fill="#1D092B"/>
<path fill-rule="evenodd" clip-rule="evenodd" d="M2566.48 894.564C2567.05 888.577 2551.34 881.308 2542.74 883.294C2539.77 883.964 2533.83 886.523 2537.2 890.062C2538.13 890.883 2539.34 890.742 2540.41 890.458C2552.43 886.829 2566.08 898.738 2566.48 894.564Z" fill="#090E2B"/>
<path fill-rule="evenodd" clip-rule="evenodd" d="M2507.97 885.245C2505.65 886.631 2502.83 890.636 2505.55 890.303C2508.26 889.97 2514.04 888.479 2518.18 889.621C2519.6 889.804 2520.73 890.349 2522.13 890.343C2525.35 890.57 2526.6 886.593 2524.09 884.589C2521.27 882.325 2512.64 882.147 2507.97 885.245Z" fill="#090E2B"/>
<path fill-rule="evenodd" clip-rule="evenodd" d="M2521.84 924.494C2522.55 928.112 2527 928.463 2529.89 927.644C2532.25 926.977 2532.86 925.606 2532.06 925.167C2530.76 924.451 2526.61 926.443 2525.07 924.541C2522.34 921.15 2530.73 908.679 2528.06 910.682C2524.54 913.331 2521.36 922.08 2521.84 924.494Z" fill="#090E2B"/>
<path fill-rule="evenodd" clip-rule="evenodd" d="M2515.75 936.717C2516.27 937.199 2517.41 939.083 2518.62 940.331C2521.36 943.139 2526.18 944.225 2529.11 943.954C2534.63 943.445 2537.34 940.166 2538.87 939.351C2540.4 938.536 2537.85 937.014 2535.78 936.981C2533.71 936.947 2532.27 937.398 2528.17 938.671C2525.53 939.492 2519.98 937.365 2518.47 936.231C2515.58 934.066 2514.49 935.541 2515.75 936.717Z" fill="#090E2B"/>
<path fill-rule="evenodd" clip-rule="evenodd" d="M2538.79 905.207C2538.34 910.83 2545.42 914.409 2551.42 911.6C2554.51 910.154 2556.09 907.976 2555.34 907.067C2554.85 906.484 2553.48 907.312 2553.02 907.584C2546.93 911.204 2542.11 907.937 2540.64 904.696C2540.07 903.431 2538.94 903.4 2538.79 905.207Z" fill="#090E2B"/>
<path fill-rule="evenodd" clip-rule="evenodd" d="M2507.73 903.514C2508.2 905.797 2509.09 906.951 2510.21 907.763C2513.47 910.129 2518.78 907.761 2519.8 905.58C2520.56 903.95 2519.5 903.91 2518.26 904.683C2516.29 905.911 2514.42 906.163 2513.18 905.928C2510.8 905.479 2509.66 903.083 2508.81 902.096C2508.34 901.56 2507.35 901.737 2507.73 903.514Z" fill="#090E2B"/>
</svg>
