<svg width="3240" height="1883" viewBox="0 0 3240 1883" fill="none" xmlns="http://www.w3.org/2000/svg">
<path fill-rule="evenodd" clip-rule="evenodd" d="M428.037 1035C428.037 1033.9 427.142 1033 426.037 1033H329.374L329.256 1033.01C328.206 1033.07 327.373 1033.94 327.373 1035L327.377 1035.13C327.437 1036.17 328.308 1037.01 329.374 1037.01H368.499V1076.75H257.001L256.883 1076.75C255.833 1076.81 255 1077.68 255 1078.75C255 1079.86 255.896 1080.76 257.001 1080.76H310.536V1120.5H279.646H279.528C278.478 1120.56 277.645 1121.43 277.645 1122.5L277.649 1122.62C277.709 1123.67 278.58 1124.51 279.646 1124.51H368.499V1164.24L279.646 1164.24H279.528C278.478 1164.3 277.645 1165.18 277.645 1166.25C277.645 1167.35 278.541 1168.25 279.646 1168.25L310.537 1168.25L310.537 1210L310.54 1210.12C310.601 1211.16 311.472 1212 312.538 1212H370.5L370.618 1211.99C371.668 1211.93 372.501 1211.06 372.501 1210L372.498 1209.87C372.436 1208.83 371.565 1207.99 370.5 1207.99H314.538V1168.25H483.999L484.117 1168.25C485.167 1168.19 486 1167.31 486 1166.25L485.997 1166.13C485.936 1165.08 485.065 1164.24 483.999 1164.24H372.501V1124.51H483.999L484.117 1124.5C485.167 1124.44 486 1123.57 486 1122.5C486 1121.39 485.104 1120.5 483.999 1120.5H428.037V1080.76H483.999H484.117C485.167 1080.7 486 1079.82 486 1078.75L485.997 1078.64C485.936 1077.58 485.065 1076.75 483.999 1076.75H372.501V1037.01H426.037H426.154C427.205 1036.94 428.037 1036.07 428.037 1035ZM314.537 1080.76H424.036V1120.5H314.537V1080.76Z" fill="black" fill-opacity="0.08"/>
<path opacity="0.5" fill-rule="evenodd" clip-rule="evenodd" d="M718.84 497.591H474.785V842.887H718.84V497.591ZM474.785 871.396V1187.63H718.84V871.396H474.785ZM746.98 1187.63H991.035V871.396H746.98V1187.63ZM991.035 842.887V497.591H746.98V842.887H991.035Z" fill="#F0F1FF"/>
<path opacity="0.5" fill-rule="evenodd" clip-rule="evenodd" d="M617.719 615.622H486.586C486.586 615.622 496.196 576.237 530.111 576.237C555.24 576.237 568.278 592.129 573.356 600.365C583.268 596.489 604.609 591.782 617.719 615.622Z" fill="white"/>
<path opacity="0.5" fill-rule="evenodd" clip-rule="evenodd" d="M814.485 1025.08C817.852 1025.08 821.005 1026 823.741 1027.57C828.971 1018.46 838.616 1012.32 849.684 1012.32C860.021 1012.32 869.135 1017.66 874.551 1025.79C877.413 1015.99 886.268 1008.85 896.76 1008.85C908.666 1008.85 918.466 1018.06 919.785 1029.9C920.744 1029.73 921.718 1029.63 922.721 1029.63C929.982 1029.63 936.276 1033.84 939.439 1040H796.113C798.075 1031.46 805.545 1025.08 814.485 1025.08Z" fill="#EDF2FF"/>
<path opacity="0.5" fill-rule="evenodd" clip-rule="evenodd" d="M438.094 467.838H1027.41V1222H438.094V467.838ZM1022.74 1217.33V472.509H442.766V1217.33H1022.74Z" fill="black" fill-opacity="0.08"/>
<path fill-rule="evenodd" clip-rule="evenodd" d="M1717.55 756.001C1717.53 756 1717.52 756 1717.5 756H1676.37L1676.25 756.003C1675.21 756.064 1674.37 756.937 1674.37 758.005L1674.38 758.122C1674.44 759.175 1675.31 760.01 1676.37 760.01H1715.5V799.747L1604 799.747L1603.88 799.751C1602.83 799.811 1602 800.684 1602 801.752C1602 802.859 1602.89 803.757 1604 803.757H1657.54V843.496H1626.65L1626.53 843.499C1625.48 843.56 1624.65 844.433 1624.65 845.501V845.618C1624.71 846.671 1625.58 847.506 1626.65 847.506L1659.5 847.505C1659.51 847.506 1659.52 847.506 1659.54 847.506H1715.5V887.241L1626.65 887.242L1626.53 887.245C1625.48 887.306 1624.65 888.179 1624.65 889.247C1624.65 890.353 1625.54 891.251 1626.65 891.251H1657.54V932.995L1657.54 933.113C1657.6 934.165 1658.48 935 1659.54 935H1717.5L1717.62 934.997C1718.67 934.935 1719.5 934.062 1719.5 932.995V932.877C1719.44 931.825 1718.57 930.99 1717.5 930.99L1661.54 930.99V891.252L1773.04 891.253L1773.06 891.252H1831L1831.12 891.249C1832.17 891.187 1833 890.315 1833 889.247V889.129C1832.94 888.077 1832.07 887.242 1831 887.242L1719.5 887.242V847.506H1773.04L1831 847.506L1831.12 847.503C1832.17 847.441 1833 846.569 1833 845.501C1833 844.394 1832.11 843.496 1831 843.496H1775.04V803.758H1831L1831.12 803.754C1832.17 803.693 1833 802.82 1833 801.753V801.635C1832.94 800.583 1832.07 799.748 1831 799.748L1719.5 799.747V760.01L1773.04 760.01L1773.16 760.007C1774.21 759.946 1775.04 759.073 1775.04 758.006C1775.04 756.898 1774.14 756.001 1773.04 756.001H1717.55ZM1771.04 803.758V843.495H1661.54V803.758H1771.04Z" fill="black" fill-opacity="0.08"/>
<path d="M1138.95 492.001V496.681L1085.68 496.681V535.773L1170.45 535.774V540.454L1141.29 540.454V579.547L1197 579.548V584.228L1085.68 584.228V623.319L1150.76 623.319V628H1081V627.999L1025 627.999V623.319L1081 623.318V584.227L1025 584.228V579.547L1136.62 579.546V540.454L1025.29 540.455V540.453L1025 540.454V535.773H1081V496.681H1042.16V492L1138.95 492.001Z" fill="black" fill-opacity="0.08"/>
<path fill-rule="evenodd" clip-rule="evenodd" d="M690.807 1534.26C690.417 1532.57 688.911 1531.31 687.107 1531.3H687.077L540.105 1530.74L540.093 1530.74C538.098 1530.73 536.292 1532.1 535.827 1534.13L465.614 1876.29C465.311 1877.62 466.129 1878.95 467.456 1879.27C468.795 1879.59 470.141 1878.77 470.465 1877.43L543.568 1539.51L684.06 1538.97L756.717 1877.43C757.036 1878.76 758.368 1879.58 759.702 1879.28C761.043 1878.97 761.879 1877.63 761.569 1876.29L690.807 1534.26Z" fill="#090E2B"/>
<path fill-rule="evenodd" clip-rule="evenodd" d="M639.198 1534.26C638.807 1532.57 637.302 1531.31 635.498 1531.3H635.467L488.496 1530.74L488.483 1530.74C486.489 1530.73 484.682 1532.1 484.218 1534.13L414.005 1876.29C413.701 1877.62 414.52 1878.95 415.847 1879.27C417.185 1879.59 418.532 1878.77 418.856 1877.43L491.959 1539.51L632.45 1538.97L705.107 1877.43C705.427 1878.76 706.759 1879.58 708.093 1879.28C709.434 1878.97 710.269 1877.63 709.96 1876.29L639.198 1534.26Z" fill="#090E2B"/>
<path fill-rule="evenodd" clip-rule="evenodd" d="M451.237 1345.32C458.586 1381.72 499.984 1495.36 522.32 1508.14C544.655 1520.93 675.093 1518.44 690.394 1519.71C705.695 1520.99 722.271 1529.93 719.72 1546.53C717.171 1563.14 710.795 1558.03 666.168 1558.03C621.54 1558.03 516.985 1558.77 516.985 1558.77C516.985 1558.77 462.841 1562.13 440.555 1507.91C420.144 1458.26 402.086 1366.63 399.535 1350.02C396.987 1333.42 398.829 1313.06 411.462 1308.92C421.027 1305.8 443.888 1308.92 451.237 1345.32Z" fill="#FF5E1F"/>
<path fill-rule="evenodd" clip-rule="evenodd" d="M96.8612 1610.85C70.9761 1558.28 45.8526 1539.16 37.8801 1533.02C45.2396 1547.76 103.368 1715.54 111.41 1759.47C84.4239 1706.29 70.5098 1694.81 65.4782 1689.63C51.8593 1675.63 34.8133 1665.68 25 1660.77C29.2964 1666.73 79.5843 1727.1 97.3701 1779.91L111.476 1805.09H182.006C182.006 1805.09 189.366 1780.64 201.018 1769.83C212.671 1759.03 256.583 1704.96 263.329 1673.02C247.052 1691.87 195.289 1759.03 186.081 1769.83C208.774 1705.6 212.181 1699.67 231.574 1664.05C250.968 1628.42 291.175 1576.27 293.014 1575.04C272.161 1586.09 210.851 1624.73 181.776 1701.27C169.626 1733.25 165.818 1753.62 165.818 1753.62C165.818 1753.62 178.949 1689.69 178.335 1627.05C177.721 1564.4 182.006 1423.9 182.006 1423.9C182.006 1423.9 154.051 1472.96 143.692 1552.5C139.861 1581.91 136.629 1702.73 137.855 1731.95C137.855 1731.95 121.993 1661.89 96.8612 1610.85Z" fill="#009BA0"/>
<path fill-rule="evenodd" clip-rule="evenodd" d="M186.735 1879.34H105.48C93.5375 1879.34 83.8555 1862.83 83.8555 1850.85V1769.78H210.619V1848.58C210.619 1861.76 199.871 1879.34 186.735 1879.34Z" fill="#FFB201"/>
<path d="M1151.34 1875.72C1153.09 1875.72 1154.51 1877.14 1154.51 1878.89C1154.51 1880.58 1153.19 1881.97 1151.52 1882.05L1151.34 1882.06H46.6925C44.9423 1882.06 43.5234 1880.64 43.5234 1878.89C43.5234 1877.19 44.849 1875.81 46.5187 1875.73L46.6925 1875.72H1151.34Z" fill="#090E2B"/>
<path d="M3235.35 1876C3237.91 1876 3240 1877.35 3240 1879C3240 1880.6 3238.06 1881.91 3235.6 1881.99L3235.35 1882H2163.65C2161.09 1882 2159 1880.65 2159 1879C2159 1877.4 2160.94 1876.09 2163.4 1876.01L2163.65 1876H3235.35Z" fill="#090E2B"/>
<path fill-rule="evenodd" clip-rule="evenodd" d="M666.518 1735.42C666.518 1735.42 657.231 1801.02 653.441 1829.05C649.618 1857.32 717.616 1829.8 717.616 1829.8C717.616 1829.8 705.357 1812.33 705.172 1807.54C704.987 1802.76 725.919 1746.74 725.919 1746.74L666.518 1735.42Z" fill="#FF8282"/>
<path fill-rule="evenodd" clip-rule="evenodd" d="M802.717 1373.69C836.094 1388.94 869.827 1427.46 840.341 1499.66C810.856 1571.86 741.471 1746.62 730.565 1754.48C719.66 1762.34 662.145 1746.74 662.145 1746.74C662.145 1746.74 668.436 1673.34 680.933 1601.18C690.084 1548.33 709.38 1509.8 709.38 1509.8C709.38 1509.8 554.175 1531.95 515.641 1505.95C465.064 1471.84 502.51 1379.9 531.579 1368.52C568.95 1353.89 739.172 1344.65 802.717 1373.69Z" fill="#231F20"/>
<path fill-rule="evenodd" clip-rule="evenodd" d="M800.968 1860.42C796.091 1845.31 760.727 1835.34 735.191 1827.79C726.596 1825.24 714.586 1812.69 709.011 1812.84C700.895 1813.06 708.849 1829.95 681.682 1828.48C674.489 1828.09 673.976 1820.52 658.347 1818.79C655.808 1818.51 651.925 1818.02 648.572 1824.06C646.703 1827.42 639.052 1857.8 646.564 1870.19C699.158 1871.55 753.258 1870.21 799.986 1869.77C804.549 1869.73 802.215 1864.28 800.968 1860.42Z" fill="#1D092B"/>
<path fill-rule="evenodd" clip-rule="evenodd" d="M887.77 1746.74C887.77 1746.74 897.332 1796.09 903.729 1804.12C910.128 1812.15 943.327 1821.18 944.817 1826.14C946.306 1831.1 874.053 1842.71 874.053 1842.71L829.848 1750.99L887.77 1746.74Z" fill="#FF8282"/>
<path fill-rule="evenodd" clip-rule="evenodd" d="M1010.13 1857.7C1005.25 1842.6 969.887 1832.62 944.352 1825.07C935.756 1822.53 923.746 1809.97 918.171 1810.12C910.055 1810.34 918.009 1827.23 890.842 1825.76C883.65 1825.37 883.137 1817.8 867.508 1816.08C864.968 1815.8 861.085 1815.3 857.732 1821.34C855.864 1824.7 848.212 1855.09 855.724 1867.47C908.318 1868.83 962.418 1867.49 1009.15 1867.05C1013.71 1867.01 1011.37 1861.56 1010.13 1857.7Z" fill="#1D092B"/>
<path fill-rule="evenodd" clip-rule="evenodd" d="M949.103 1835.86C952.441 1829.14 953.901 1827.97 952.478 1826.91C949.074 1824.38 931.778 1832.2 930.419 1836.85C929.4 1840.34 940.916 1830.24 950.113 1828.74C946.345 1832.18 942.831 1842.73 946.539 1840.63C964.606 1830.38 967.455 1832.76 967.478 1832.38C967.585 1830.57 960.748 1829.1 949.103 1835.86Z" fill="#1D092B"/>
<path fill-rule="evenodd" clip-rule="evenodd" d="M457.822 1443.41C468.655 1499.51 518.636 1519.66 562.006 1517.98C628.255 1515.43 695.787 1486 718.615 1476.17C716.604 1490.64 727.356 1572.91 745.305 1610.98C763.254 1649.06 821.707 1763.6 821.707 1763.6C821.707 1763.6 887.662 1763.98 890.483 1747.98C892.338 1737.44 830.42 1443.27 809.936 1392.34C798.175 1363.09 760.107 1350.47 681.808 1343.81C603.166 1337.12 488.521 1349.45 488.521 1349.45C488.521 1349.45 446.989 1387.31 457.822 1443.41Z" fill="#1D092B"/>
<path fill-rule="evenodd" clip-rule="evenodd" d="M739.942 1839.48C743.281 1832.76 744.741 1831.59 743.317 1830.53C739.913 1828 722.618 1835.82 721.258 1840.47C720.24 1843.96 731.756 1833.87 740.953 1832.36C737.184 1835.8 733.67 1846.35 737.379 1844.25C755.446 1834 758.295 1836.38 758.318 1836C758.425 1834.19 751.587 1832.72 739.942 1839.48Z" fill="#1D092B"/>
<path fill-rule="evenodd" clip-rule="evenodd" d="M789.858 1875.66L663.262 1877.9C654.792 1878.24 642.123 1875.32 640.898 1868.29C639.983 1863.03 642.018 1851.58 642.44 1850.82C645.389 1845.52 670.52 1849.99 677.841 1867.91C724.031 1871.37 802.694 1867.99 802.694 1867.99C802.694 1867.99 803.875 1874.94 789.858 1875.66Z" fill="#FFB201"/>
<path fill-rule="evenodd" clip-rule="evenodd" d="M998.916 1872.4L872.32 1874.63C863.852 1874.97 851.182 1872.06 849.956 1865.02C849.042 1859.77 851.077 1848.32 851.499 1847.56C854.448 1842.25 879.578 1846.73 886.899 1864.65C933.09 1868.11 1011.75 1864.72 1011.75 1864.72C1011.75 1864.72 1012.93 1871.68 998.916 1872.4Z" fill="#FFB201"/>
<path fill-rule="evenodd" clip-rule="evenodd" d="M611.637 1082.56C624.221 1089.74 643.423 1104.66 654.843 1139.53C664.443 1168.83 686.4 1211.15 687.11 1215.4C698.457 1219.65 743.833 1242.31 743.833 1242.31C743.833 1242.31 712.561 1292.85 709.985 1292.85C707.408 1292.85 692.155 1292.06 677.383 1290.9C629.155 1287.1 626.681 1254.02 624.289 1240.52C616.548 1196.85 615.249 1087.25 611.637 1082.56Z" fill="#FF0057"/>
<path fill-rule="evenodd" clip-rule="evenodd" d="M537.098 1014.58C537.098 1014.58 547.556 1066.52 540.525 1071.92C537.015 1074.61 521.996 1078.58 521.996 1078.58C521.996 1078.58 558.979 1108.06 581.587 1108.82C604.194 1109.58 619.301 1095.8 616.798 1090.81C613.052 1083.34 586.567 1076.67 585.578 1070.02C584.45 1062.43 584.944 1029.24 584.944 1029.24L537.098 1014.58Z" fill="#FF8282"/>
<path fill-rule="evenodd" clip-rule="evenodd" d="M466.93 1101C465.859 1110.56 455.387 1229.54 469.529 1247.37C486.464 1268.71 461.567 1337.11 450.79 1354.52C432.042 1384.8 410.911 1439.23 479.723 1394.79C542.198 1354.44 625.871 1350.05 642.23 1345.21C647.792 1343.57 643.972 1338.42 643.611 1334.87C639.414 1293.6 649.582 1207.46 649.663 1178.4C649.715 1159.71 629.002 1092.53 612.704 1082.9C609.456 1080.99 593.436 1074.16 593.436 1076.83C593.436 1089.94 592.388 1108.54 586.159 1108.54C570.294 1108.54 529.251 1079.71 522.892 1076.83C508.313 1079.78 468.153 1090.08 466.93 1101Z" fill="#FF0057"/>
<path fill-rule="evenodd" clip-rule="evenodd" d="M630.385 1121.11C639.14 1137.98 648.556 1155.76 649.416 1174.92C650.504 1199.08 647.741 1226.7 646.897 1250.92C646.648 1257.25 646.417 1263.57 646.404 1269.9C646.415 1270.27 645.784 1270.3 645.788 1269.9C645.186 1240.44 648.859 1204.5 647.519 1175C646.663 1156.14 637.386 1137.88 629.764 1120.71C629.633 1120.46 630.249 1120.85 630.385 1121.11Z" fill="#090E2B"/>
<path fill-rule="evenodd" clip-rule="evenodd" d="M715.19 1256.49L606.868 1265.67C605.02 1265.82 599.213 1268.25 599.013 1270.09C599.013 1270.09 598.155 1274.85 603.155 1274.85H715.19V1256.49Z" fill="#FFE098"/>
<path fill-rule="evenodd" clip-rule="evenodd" d="M862.831 1274.85H693.238L740.031 1150.44C742.872 1143.42 748.886 1136.39 758.376 1136.39L900.163 1136.5C915.403 1136.39 917.315 1142.05 914.038 1150.97C904.599 1176.66 880.321 1248.59 871.975 1268.74C870.441 1272.44 866.834 1274.85 862.831 1274.85Z" fill="#FFE098"/>
<path fill-rule="evenodd" clip-rule="evenodd" d="M899.414 1135.56C860.265 1135.47 805.945 1135.39 766.697 1135.29C753.019 1134.44 744.529 1136.76 738.862 1150.28C726.22 1184 711.594 1223.36 699.337 1257.34L612.383 1265.2C620.638 1264.54 699.811 1258.83 700.041 1258.1C713.965 1223.34 728.598 1182.56 742.504 1147.92C748.195 1137.42 756.058 1137.08 766.697 1137.51L796.19 1137.5C815.486 1137.59 866.044 1137.31 884.673 1137.45C891.373 1138.23 912.489 1134.51 914.327 1143.1C914.667 1151.26 909.671 1159.41 907.291 1167.23C905.141 1174.29 897.579 1195.11 897.579 1195.11C889.844 1216.95 881.151 1243.2 872.926 1264.64C869.832 1274.43 865.727 1274.53 856.528 1274.29C851.875 1274.33 839.757 1274.84 834.971 1274.88C834.395 1274.89 833.818 1275.28 834.408 1275.3C842.878 1275.19 855.616 1275.64 863.961 1275.37C869.542 1275.05 872.623 1269.89 874.121 1265.11C883.012 1242.16 891.008 1218.87 899.172 1195.66C902.335 1186.07 910.363 1162.97 913.926 1153.93C919.639 1139.44 912.915 1135.12 899.414 1135.56Z" fill="#090E2B"/>
<path fill-rule="evenodd" clip-rule="evenodd" d="M587.001 1266.99C586.67 1267.02 586.475 1267.03 586.465 1267.04L587.001 1266.99Z" fill="black"/>
<path fill-rule="evenodd" clip-rule="evenodd" d="M779.145 1274.52H809.334C820.041 1274.71 814.44 1252.79 826.138 1254.92C836.124 1256.74 835.673 1262.61 834.636 1274.43C836.658 1271.9 840.501 1271.06 841.816 1271.92C843.697 1273.15 841.592 1273.52 838.416 1278.61C834.745 1284.5 824.308 1290.01 811.868 1291.06C808.124 1291.37 786.613 1294.66 786.613 1294.66L779.145 1274.52Z" fill="#FF8282"/>
<path fill-rule="evenodd" clip-rule="evenodd" d="M603.019 1263.64C603.019 1263.64 611.41 1257.66 618.606 1258.51C628.207 1259.63 628.972 1255.3 631.428 1259.08C631.967 1259.91 630.273 1262.57 625.826 1263.56C619.825 1264.89 622.34 1268.6 622.34 1268.6C622.34 1268.6 643.186 1273.58 646.117 1274.1C647.736 1274.39 648.172 1279 635.932 1282.64C629.548 1284.54 620.424 1284.59 609.67 1284.95C606.678 1285.05 572.274 1295.57 572.274 1295.57L570.154 1278.4L569.078 1260.57L603.019 1263.64Z" fill="#FF8282"/>
<path fill-rule="evenodd" clip-rule="evenodd" d="M710.328 1292.87C710.328 1292.87 796.716 1296.36 802.097 1295.4C807.479 1294.43 796.574 1274.72 796.574 1274.72H718.519L710.328 1292.87Z" fill="#FF0057"/>
<path fill-rule="evenodd" clip-rule="evenodd" d="M810.99 1207.66H810.977C807.116 1207.66 805.42 1206.03 804.752 1205.06C804.256 1204.34 804.437 1203.35 805.158 1202.86C805.878 1202.36 806.866 1202.54 807.361 1203.26C807.896 1204.04 809.215 1204.49 810.977 1204.49H810.989C813.697 1204.49 815.585 1203.46 816.472 1202.86C817.194 1202.36 818.179 1202.54 818.674 1203.27C819.169 1203.99 818.986 1204.98 818.265 1205.47C816.215 1206.88 813.63 1207.66 810.99 1207.66Z" fill="#090E2B"/>
<path fill-rule="evenodd" clip-rule="evenodd" d="M800.076 1210.18C797.927 1215.8 791.66 1220.35 786.081 1220.35C780.501 1220.35 777.721 1215.8 779.872 1210.18C782.021 1204.57 788.287 1200.01 793.867 1200.01C799.447 1200.01 802.227 1204.57 800.076 1210.18Z" fill="#FF00A4"/>
<path fill-rule="evenodd" clip-rule="evenodd" d="M839.796 1210.18C837.645 1215.8 831.379 1220.35 825.799 1220.35C820.22 1220.35 817.44 1215.8 819.591 1210.18C821.741 1204.57 828.006 1200.01 833.586 1200.01C839.166 1200.01 841.946 1204.57 839.796 1210.18Z" fill="#FF00A4"/>
<path fill-rule="evenodd" clip-rule="evenodd" d="M803.52 1196.72C802.954 1198.2 801.305 1199.4 799.837 1199.4C798.369 1199.4 797.637 1198.2 798.203 1196.72C798.769 1195.25 800.418 1194.05 801.886 1194.05C803.353 1194.05 804.086 1195.25 803.52 1196.72Z" fill="#090E2B"/>
<path fill-rule="evenodd" clip-rule="evenodd" d="M831.543 1196.72C830.977 1198.2 829.329 1199.4 827.861 1199.4C826.392 1199.4 825.661 1198.2 826.227 1196.72C826.792 1195.25 828.44 1194.05 829.909 1194.05C831.377 1194.05 832.108 1195.25 831.543 1196.72Z" fill="#090E2B"/>
<path fill-rule="evenodd" clip-rule="evenodd" d="M522.012 1185.14C514.324 1205.43 471.628 1250.73 471.628 1250.73C471.628 1250.73 571.507 1261.1 586.262 1261.1C586.604 1266.29 582.26 1305.7 582.26 1305.7C538.792 1311.87 400.801 1329.7 389.874 1293.19C367.106 1217.12 456.443 1113.32 467.914 1099.29C483.981 1079.62 532.292 1158.01 522.012 1185.14Z" fill="#FF0057"/>
<path fill-rule="evenodd" clip-rule="evenodd" d="M586.025 1260.61C547.674 1258.79 512.733 1252.42 474.294 1249.03C487.834 1234.52 500.992 1219.58 512.287 1203.25C516.16 1197.49 519.677 1191.76 521.981 1185.17C522.052 1184.96 522.604 1183.25 522.393 1183.17C513.419 1201.48 498.676 1219.04 484.721 1234.28C480.034 1239.34 475.258 1244.35 470.391 1249.22C469.586 1249.97 468.479 1251.33 471.268 1251.52C500.74 1253.48 530.253 1257.16 559.662 1259.91C569.517 1260.63 574.682 1261.09 584.596 1261.12C586.19 1261.13 586.627 1260.6 586.025 1260.61Z" fill="#090E2B"/>
<path fill-rule="evenodd" clip-rule="evenodd" d="M583.517 1291.94C583.048 1291.94 579.552 1305.72 578.477 1305.86C542.129 1310.88 502.984 1316.11 466.153 1314.97C465.462 1314.9 466.11 1315.56 466.868 1315.64C493.919 1318.58 552.687 1312.32 561.526 1310.61C578.004 1307.41 579.416 1307.66 580.122 1306.55C580.122 1306.55 583.986 1291.94 583.517 1291.94Z" fill="#090E2B"/>
<path fill-rule="evenodd" clip-rule="evenodd" d="M505.024 924.132C505.024 924.132 485.5 875.504 529.872 859.633C574.244 843.763 609.187 852.126 613.66 889.55C620.833 949.575 527.353 979.75 505.024 924.132Z" fill="#1D092B"/>
<path fill-rule="evenodd" clip-rule="evenodd" d="M573.767 1037.1C489.604 1037.1 421.492 1022.81 421.492 965.752C421.492 908.691 469.664 877.721 559.895 864.456C650.126 851.19 714.859 847.804 714.859 923.186C714.859 980.248 657.932 1037.1 573.767 1037.1Z" fill="#1D092B"/>
<path fill-rule="evenodd" clip-rule="evenodd" d="M345.176 1049.09C381.588 1025.64 425.885 1039.02 449.456 1030.64C487.764 1017.01 482.596 974.105 518.689 958.099C528.492 927.15 556.094 911.693 596.838 911.693C660.776 911.693 662.556 963.02 664.124 971.669C669.887 1003.45 657.917 1065.37 670.009 1086.65C690.307 1122.39 680.926 1145.71 670.341 1154.23C658.93 1163.42 625.731 1155.01 618.528 1149.04C604.782 1137.65 590.913 1133.18 590.913 1095.42C583.736 1084.4 583.313 1081.14 584.934 1067.76C586.884 1051.67 588.718 1037.11 554.079 1030.64C556.895 1058.46 561.521 1077.62 548.573 1091.71C535.625 1105.8 522.625 1105.8 506.658 1111.11C473.106 1122.27 461.861 1216.73 359.494 1177.18C304.609 1156.68 308.765 1072.53 345.176 1049.09Z" fill="#A162FF"/>
<path fill-rule="evenodd" clip-rule="evenodd" d="M651.993 1048.32C659.252 1033.93 662.109 1011.17 653.976 977.835C652.108 970.173 651.262 963.495 650.544 957.825C648.139 938.829 647.167 931.149 613.927 935.696C589.004 939.106 550.21 954.673 543.383 981.982C543.383 981.982 543.261 983.488 543.141 985.987C533.373 975.143 518.688 986.623 518.688 995.886C518.688 1016.57 535.59 1025.5 545.784 1023.1C546.092 1024.14 546.43 1025.14 546.804 1026.07C547.122 1026.87 547.448 1027.71 547.79 1028.59C550.632 1035.95 554.53 1046.04 564.112 1054.79C574.3 1064.1 592.42 1074.8 621.258 1073.79C636.209 1073.26 643.449 1065.25 651.993 1048.32Z" fill="#FF8282"/>
<path fill-rule="evenodd" clip-rule="evenodd" d="M541.247 997.954C538.646 992.732 532.379 989.496 526.966 993.15C525.741 993.977 527.393 994.543 527.91 994.485C534.339 993.643 536.892 995.401 539.004 999.056C536.984 999.552 534.966 1001.35 534.708 1003.38C534.55 1004.62 534.981 1008.31 535.932 1007.15C536.589 1006.35 535.141 1000.86 539.93 1001.36C540.002 1001.38 540.067 1001.38 540.135 1001.39C540.361 1001.93 542.163 1003.05 542.937 1002.11C543.412 1001.54 542.435 1000.34 541.247 997.954Z" fill="#A162FF"/>
<path fill-rule="evenodd" clip-rule="evenodd" d="M608.476 911.781C583.062 913.62 546.755 940.792 540.911 960.712C539.922 964.086 540.829 981.637 542.99 985.603C545.867 990.883 545.552 1002.92 554.123 1004.32C569.232 1006.78 553.705 984.306 555.998 978.434C564.639 956.293 592.049 970.356 608.476 965.344C630.97 958.481 639.302 953.601 639.88 952.727C642.797 963.933 658.534 985.386 663.984 989.568C665.757 990.927 663.368 966.58 657.679 946.88C654.237 934.959 632.636 910.032 608.476 911.781Z" fill="#A162FF"/>
<path fill-rule="evenodd" clip-rule="evenodd" d="M538.539 1049.62C528.007 1049.62 519.438 1041.05 519.438 1030.52C519.438 1024.95 521.848 1019.59 526.07 1015.96C526.764 1016.67 527.594 1017.45 528.212 1017.98C524.591 1021.1 522.154 1025.74 522.154 1030.52C522.154 1039.55 529.504 1046.9 538.539 1046.9C547.573 1046.9 554.924 1039.55 554.924 1030.52C554.924 1021.48 547.573 1014.13 538.539 1014.13C537.789 1014.13 537.181 1013.53 537.181 1012.78C537.181 1012.03 537.789 1011.42 538.539 1011.42C549.071 1011.42 557.64 1019.99 557.64 1030.52C557.64 1041.05 549.071 1049.62 538.539 1049.62Z" fill="white"/>
<path fill-rule="evenodd" clip-rule="evenodd" d="M578.978 1066.4C575.272 1064.19 567.724 1060.09 566.222 1057.73C565.439 1056.5 568.224 1058.12 569.665 1059.21C571.582 1060.65 579.506 1064.92 589.284 1069.52C590.132 1069.92 595.576 1072.2 595.711 1072.51C595.838 1072.8 595.292 1073.29 594.648 1073.21C590.32 1072.63 583.064 1068.84 578.978 1066.4Z" fill="#A162FF"/>
<path fill-rule="evenodd" clip-rule="evenodd" d="M570.052 972.737C571.66 965.509 592.823 962.975 602.136 968.572C605.355 970.485 611.335 975.741 606.041 978.603C604.643 979.211 603.285 978.587 602.136 977.846C589.443 969.025 568.931 977.776 570.052 972.737Z" fill="#090E2B"/>
<path fill-rule="evenodd" clip-rule="evenodd" d="M587.224 985.804C582.436 987.162 578.332 991.01 577.95 994.199C577.72 996.126 585.28 1000.75 592.572 1001.11C602.164 1001.58 606.999 996.387 606.982 994.726C606.336 989.701 600.55 982.024 587.224 985.804Z" fill="white"/>
<path fill-rule="evenodd" clip-rule="evenodd" d="M602.059 988.664C594.686 983.092 583.266 986.723 577.948 994.2C577.643 994.587 577.731 993.612 577.942 993.168C580.508 987.783 585.138 985.241 590.506 984.133C593.735 983.466 596.747 983.411 599.897 984.822C601.115 985.366 603.266 987.025 604.928 988.901C606.225 990.363 607.317 992.871 605.817 991.984C604.642 991.29 603.037 989.404 602.059 988.664Z" fill="#090E2B"/>
<path fill-rule="evenodd" clip-rule="evenodd" d="M592.477 998.178C596.576 998.178 599.899 995.146 599.899 991.406C599.899 987.666 596.576 984.634 592.477 984.634C588.378 984.634 585.055 987.666 585.055 991.406C585.055 995.146 588.378 998.178 592.477 998.178Z" fill="#090E2B"/>
<path fill-rule="evenodd" clip-rule="evenodd" d="M645.553 971.544C648.59 972.891 652.633 977.362 649.267 977.362C645.902 977.362 638.612 976.407 633.725 978.424C632.019 978.86 630.723 979.695 629.009 979.899C625.109 980.659 622.989 975.987 625.747 973.162C628.863 969.972 639.382 968.459 645.553 971.544Z" fill="#090E2B"/>
<path fill-rule="evenodd" clip-rule="evenodd" d="M642.111 1000.86C646.974 999.725 650.611 995.315 650.2 992.02C649.398 987.654 640.99 984.866 636.281 987.251C631.617 989.611 628.699 994.885 629.076 996.968C629.62 998.409 637.14 1002.01 642.111 1000.86Z" fill="white"/>
<path fill-rule="evenodd" clip-rule="evenodd" d="M638.09 998.476C641.294 998.476 643.891 995.983 643.891 992.908C643.891 989.832 642.061 986.925 638.09 987.339C634.904 987.671 632.289 989.832 632.289 992.908C632.289 995.983 634.887 998.476 638.09 998.476Z" fill="#090E2B"/>
<path fill-rule="evenodd" clip-rule="evenodd" d="M629.251 993.977C631.088 987.119 639.383 983.593 645.943 986.84C646.867 987.321 648.366 988.403 649.489 989.708C650.522 990.913 650.387 991.544 649.965 991.419C649.266 991.21 647.788 989.884 646.586 989.313C640.511 986.431 634.19 988.049 629.562 994.811C629.335 995.162 629.119 994.373 629.251 993.977Z" fill="#090E2B"/>
<path fill-rule="evenodd" clip-rule="evenodd" d="M632.256 1036.73C624.496 1037.64 630.784 1046.26 626.764 1047.41C616.472 1050.34 605.297 1046.78 603.493 1037.64C602.427 1032.24 605.607 1032.9 608.147 1033.12C610.686 1033.35 623.229 1033.81 629.966 1033.81C636.499 1033.81 633.216 1036.62 632.256 1036.73Z" fill="#090E2B"/>
<path fill-rule="evenodd" clip-rule="evenodd" d="M622.969 1007.02C623.321 1007.02 625.66 1011.03 626.518 1012.43C629.251 1016.91 632.263 1021.93 627.817 1024.81C625.663 1026.21 618.891 1024.04 618.891 1022.4C618.891 1019.9 625.071 1024.29 626.525 1021.75C627.378 1020.46 624.185 1013.9 622.969 1010.01C622.291 1007.84 622.617 1007.02 622.969 1007.02Z" fill="#090E2B"/>
<path opacity="0.5" fill-rule="evenodd" clip-rule="evenodd" d="M2528.8 1350.94H3138.92V1613.02H3133.49V1387.35C3133.49 1386.42 3132.73 1385.66 3131.8 1385.66H3100.36C3099.43 1385.66 3098.68 1386.42 3098.68 1387.35V1613.02H3094.81V1449.48C3094.81 1448.54 3094.05 1447.79 3093.13 1447.79H3071.02C3070.1 1447.79 3069.34 1448.54 3069.34 1449.48V1613.02H3064.56V1387.35C3064.56 1386.42 3063.81 1385.66 3062.88 1385.66H3031.44C3030.5 1385.66 3029.75 1386.42 3029.75 1387.35V1613.02H3025.88V1449.48C3025.88 1448.54 3025.13 1447.79 3024.2 1447.79H3002.1C3001.17 1447.79 3000.41 1448.54 3000.41 1449.48V1613.02H2995.64V1387.35C2995.64 1386.42 2994.88 1385.66 2993.96 1385.66H2962.52C2961.58 1385.66 2960.84 1386.42 2960.84 1387.35V1613.02H2956.97V1449.48C2956.97 1448.54 2956.21 1447.79 2955.28 1447.79H2933.18C2932.24 1447.79 2931.49 1448.54 2931.49 1449.48V1613.02H2913.49V1611.37C2914.27 1610.52 2914.75 1609.4 2914.75 1608.17V1588.52C2914.75 1587.27 2914.27 1586.16 2913.49 1585.31V1579.39H2881.7V1574.38C2882.48 1573.54 2882.97 1572.42 2882.97 1571.18V1551.53C2882.97 1550.29 2882.48 1549.17 2881.7 1548.33V1542.4H2866.96V1537.11C2867.74 1536.27 2868.22 1535.15 2868.22 1533.91V1514.25C2868.22 1513.02 2867.74 1511.9 2866.96 1511.06V1505.12H2907.24V1499.19C2908.02 1498.36 2908.51 1497.23 2908.51 1496V1476.34C2908.51 1475.1 2908.02 1473.98 2907.24 1473.14V1467.21H2842.99H2717.24H2715.69C2713.21 1467.21 2711.2 1469.22 2711.2 1471.7V1473.25V1476.34V1496V1499.08V1500.64C2711.2 1503.12 2713.21 1505.12 2715.69 1505.12H2676.96H2675.41C2672.93 1505.12 2670.93 1507.13 2670.93 1509.61V1511.17V1514.25V1533.91V1537V1538.55C2670.93 1541.03 2672.93 1543.03 2675.41 1543.03H2676.96H2687.88C2686.56 1543.82 2685.67 1545.24 2685.67 1546.88V1548.44V1551.53V1571.18V1574.27V1575.83C2685.67 1578.3 2687.68 1580.31 2690.15 1580.31H2691.71H2719.24C2718.16 1581.13 2717.45 1582.42 2717.45 1583.88V1585.42V1588.52V1608.17V1611.25V1612.82C2717.45 1612.89 2717.47 1612.95 2717.48 1613.02H2604.35V1387.35C2604.35 1386.42 2603.59 1385.66 2602.66 1385.66H2571.22C2570.29 1385.66 2569.54 1386.42 2569.54 1387.35V1613.02H2565.68V1449.48C2565.68 1448.54 2564.92 1447.79 2563.99 1447.79H2541.89C2540.95 1447.79 2540.2 1448.54 2540.2 1449.48V1613.02H2528.8V1350.94ZM2528.8 1051.42H3138.92V1318.18H3135.76V1091.5C3135.76 1090.57 3135 1089.81 3134.08 1089.81H3102.64C3101.71 1089.81 3100.96 1090.57 3100.96 1091.5V1318.18H3095.99V1091.5C3095.99 1090.57 3095.23 1089.81 3094.31 1089.81H3062.87C3061.94 1089.81 3061.19 1090.57 3061.19 1091.5V1318.18H3056.22V1146.39C3056.22 1145.45 3055.47 1144.7 3054.54 1144.7H3031.35C3030.41 1144.7 3029.67 1145.45 3029.67 1146.39V1318.18H3008.04V1314.62C3008.7 1313.81 3009.12 1312.78 3009.12 1311.64V1296.25C3009.12 1295.11 3008.7 1294.08 3008.04 1293.26V1287.75H3019.92V1282.25C3020.59 1281.43 3021 1280.4 3021 1279.26V1263.87C3021 1262.74 3020.59 1261.71 3019.92 1260.9V1255.38H2964.41H2858.56H2857.02C2854.54 1255.38 2852.54 1257.39 2852.54 1259.87V1261.42V1263.87V1279.26V1281.72V1283.27C2852.54 1285.75 2854.54 1287.75 2857.02 1287.75H2846.68H2845.13C2842.66 1287.75 2840.65 1289.76 2840.65 1292.24V1293.8V1296.25V1311.64V1314.09V1315.64C2840.65 1316.58 2840.94 1317.46 2841.44 1318.18H2815.85C2816.01 1317.72 2816.1 1317.23 2816.1 1316.72V1297.07C2816.1 1295.83 2815.62 1294.71 2814.84 1293.87V1287.94H2825.55V1282.01C2826.33 1281.17 2826.82 1280.05 2826.82 1278.8V1259.16C2826.82 1257.91 2826.33 1256.8 2825.55 1255.95V1250.02H2784.32V1244.1C2785.1 1243.25 2785.58 1242.14 2785.58 1240.89V1221.24C2785.58 1220 2785.1 1218.88 2784.32 1218.04V1212.11H2720.07H2594.32H2592.77C2590.29 1212.11 2588.29 1214.12 2588.29 1216.6V1218.15V1221.24V1240.89V1243.99V1245.54C2588.29 1248.02 2590.29 1250.02 2592.77 1250.02H2594.32H2634C2631.53 1250.02 2629.52 1252.03 2629.52 1254.51V1256.06V1259.16V1278.8V1281.89V1283.45C2629.52 1285.93 2631.53 1287.94 2634 1287.94H2624.84H2623.29C2620.81 1287.94 2618.81 1289.95 2618.81 1292.43V1293.98V1297.07V1316.72V1318.18H2528.8V1051.42ZM2528.8 1028.02H3138.92V756.569H2528.8V1028.02ZM2528.8 358.762H3138.92V728.49H3135.76V500.884C3135.76 499.953 3135 499.199 3134.08 499.199H3102.64C3101.71 499.199 3100.96 499.953 3100.96 500.884V728.49H3097.09V500.884C3097.09 499.953 3096.33 499.199 3095.4 499.199H3063.97C3063.03 499.199 3062.28 499.953 3062.28 500.884V728.49H3058.41V500.884C3058.41 499.953 3057.66 499.199 3056.73 499.199H3025.29C3024.36 499.199 3023.61 499.953 3023.61 500.884V728.49H3019.74V563.01C3019.74 562.078 3018.98 561.326 3018.06 561.326H2995.96C2995.02 561.326 2994.27 562.078 2994.27 563.01V728.49H2991.44V563.01C2991.44 562.078 2990.68 561.326 2989.75 561.326H2967.65C2966.72 561.326 2965.96 562.078 2965.96 563.01V728.49H2898.76L2919.57 707.665C2920.68 706.552 2920.75 704.665 2919.74 703.453L2779.61 537.225C2778.59 536.013 2776.86 535.931 2775.74 537.044L2754.14 558.657C2753.02 559.77 2752.95 561.656 2753.97 562.867L2893.59 728.49H2729.63V727.231C2730.41 726.384 2730.89 725.268 2730.89 724.026V704.376C2730.89 703.136 2730.41 702.018 2729.63 701.174V695.245H2740.35V689.316C2741.13 688.472 2741.61 687.353 2741.61 686.114V666.46C2741.61 665.221 2741.13 664.103 2740.35 663.259V657.329H2732.23V651.401C2733.02 650.557 2733.51 649.438 2733.51 648.199V628.549C2733.51 627.31 2733.02 626.19 2732.23 625.347V619.418H2767.25V613.489C2768.03 612.645 2768.51 611.526 2768.51 610.287V590.636C2768.51 589.395 2768.03 588.276 2767.25 587.432V581.503H2703H2577.25H2575.69C2573.22 581.503 2571.21 583.512 2571.21 585.991V587.543V590.636V610.287V613.377V614.933C2571.21 617.408 2573.22 619.418 2575.69 619.418H2542.24H2540.68C2538.21 619.418 2536.2 621.425 2536.2 623.902V625.458V628.549V648.199V651.293V652.845C2536.2 655.324 2538.21 657.329 2540.68 657.329H2542.24H2548.8C2546.32 657.329 2544.31 659.339 2544.31 661.815V663.37V666.46V686.114V689.204V690.756C2544.31 693.235 2546.32 695.245 2548.8 695.245H2539.63H2538.08C2535.6 695.245 2533.6 697.254 2533.6 699.73V701.285V704.376V724.026V727.117V728.49H2528.8V358.762ZM2503.05 1821.54L2503 1875.38L3169 1882V326H2503.02L2503.05 1821.54Z" fill="#C7D2F2"/>
<path fill-rule="evenodd" clip-rule="evenodd" d="M2636.18 1738H2643.91C2643.91 1738 2642.48 1692.56 2673.76 1646.28C2705.03 1600.01 2729.06 1599.16 2729.06 1599.16C2729.06 1599.16 2702.48 1600.08 2666.87 1646.28C2644.12 1675.8 2636.78 1726.6 2636.18 1738Z" fill="#090E2B"/>
<path fill-rule="evenodd" clip-rule="evenodd" d="M2588.3 1718.99L2581.09 1717.05C2581.09 1717.05 2596.04 1632.62 2561.03 1572.09C2526.03 1511.55 2374.56 1444.21 2374.56 1444.21C2380.34 1442.35 2523.68 1500.4 2568.07 1572.09C2593.31 1612.86 2595.58 1695.38 2588.3 1718.99Z" fill="#090E2B"/>
<path fill-rule="evenodd" clip-rule="evenodd" d="M2695.45 1618.19C2695.45 1618.19 2654.64 1570.58 2692.94 1540.34C2692.94 1540.34 2720.91 1523.4 2743.72 1524.78C2743.72 1524.78 2711.4 1578.97 2721.86 1584.36C2732.31 1589.75 2753.52 1521.38 2753.52 1521.38C2753.52 1521.38 2817.17 1515.2 2837.65 1525.05C2837.65 1525.05 2783.23 1569.58 2794.69 1572.23C2806.15 1574.89 2864.93 1531.17 2864.93 1531.17C2864.93 1531.17 2924.18 1541.26 2921.02 1577.4C2917.86 1613.54 2897.45 1624.7 2888.48 1623.74C2879.5 1622.78 2827.01 1602.74 2825.87 1610.1C2824.73 1617.45 2856.32 1641.47 2878.45 1642.6C2878.45 1642.6 2836.68 1688.66 2808.92 1675.37C2781.16 1662.07 2778.79 1641 2761.48 1633.1C2744.18 1625.19 2729.4 1625.21 2736.55 1633.27C2743.69 1641.33 2775.01 1649.17 2784.91 1666.67C2794.8 1684.18 2803.68 1695.99 2774.96 1691.66C2746.24 1687.34 2699.55 1666.33 2697.5 1642.26L2695.45 1618.19Z" fill="#017C7F"/>
<path fill-rule="evenodd" clip-rule="evenodd" d="M2622.57 1725.72H2629.52C2629.52 1725.72 2616.48 1643.27 2636.19 1572.37C2655.9 1501.47 2685.75 1476.74 2685.75 1476.74C2685.75 1476.74 2651.55 1493.45 2626.87 1584.7C2618.41 1615.98 2616.41 1705.77 2622.57 1725.72Z" fill="#090E2B"/>
<path fill-rule="evenodd" clip-rule="evenodd" d="M2552.76 1558.32C2552.76 1558.32 2617.68 1521.96 2587.38 1472.62C2587.38 1472.62 2563.15 1442.32 2537.18 1434.53C2537.18 1434.53 2551.03 1508.11 2537.18 1509.84C2523.33 1511.57 2527.66 1426.74 2527.66 1426.74C2527.66 1426.74 2459.27 1393.85 2432.44 1396.44C2432.44 1396.44 2474.85 1468.29 2461 1466.56C2447.15 1464.83 2399.54 1392.11 2399.54 1392.11C2399.54 1392.11 2329.43 1379.13 2318.17 1420.68C2306.92 1462.23 2325.1 1483.01 2335.48 1485.6C2345.87 1488.2 2412.53 1487.33 2410.79 1495.99C2409.06 1504.64 2364.05 1518.5 2338.95 1510.71C2338.95 1510.71 2366.65 1579.09 2403 1575.63C2439.36 1572.17 2450.61 1549.66 2473.12 1547.93C2495.63 1546.2 2512.07 1552.26 2500.82 1558.32C2489.57 1564.38 2451.48 1560.3 2433.3 1575.76C2415.12 1591.21 2400.41 1600.73 2434.17 1607.66C2467.93 1614.58 2528.52 1610.25 2540.64 1584.29L2552.76 1558.32Z" fill="#009BA0"/>
<path fill-rule="evenodd" clip-rule="evenodd" d="M2656.05 1508.17C2656.05 1508.17 2570.47 1460.25 2610.4 1395.21C2610.4 1395.21 2642.35 1355.27 2676.59 1345C2676.59 1345 2658.33 1441.99 2676.59 1444.27C2694.84 1446.56 2689.14 1334.73 2689.14 1334.73C2689.14 1334.73 2761.03 1300.37 2817.63 1293.64C2817.63 1293.64 2756.83 1386.09 2788.71 1386.09C2820.59 1386.09 2858.02 1289.09 2858.02 1289.09C2858.02 1289.09 2960.9 1277.97 2965.28 1326.75C2969.66 1375.52 2956.15 1408.9 2942.46 1412.33C2928.76 1415.75 2840.9 1414.61 2843.18 1426.02C2845.47 1437.43 2904.8 1455.69 2937.89 1445.42C2937.89 1445.42 2901.38 1535.56 2853.45 1531C2805.53 1526.43 2790.69 1496.76 2761.03 1494.48C2731.36 1492.2 2709.68 1500.19 2724.51 1508.17C2739.34 1516.16 2789.55 1510.79 2813.51 1531.16C2837.48 1551.53 2856.88 1564.09 2812.38 1573.22C2767.87 1582.34 2688 1576.64 2672.02 1542.41L2656.05 1508.17Z" fill="#009BA0"/>
<path fill-rule="evenodd" clip-rule="evenodd" d="M2512.82 1715.68H2767.83L2755.72 1818.6C2752.06 1849.7 2725.71 1873.13 2694.4 1873.13H2582.26C2550.04 1873.13 2523.23 1848.34 2520.71 1816.21L2512.82 1715.68Z" fill="#FFB201"/>
</svg>
