<svg width="670" height="625" viewBox="0 0 670 625" fill="none" xmlns="http://www.w3.org/2000/svg">
<path fill-rule="evenodd" clip-rule="evenodd" d="M494.086 21.5689C416.981 -31.5822 315.371 16.8789 267.133 129.81L267.098 129.893C264.827 135.212 260.971 139.309 255.884 141.744C231.295 153.515 207.528 169.259 185.681 188.931C84.3121 280.203 62.6331 421.382 137.258 504.26C211.882 587.139 354.553 580.336 455.921 489.063C507.929 442.236 538.96 382.271 546.771 323.784C547.085 321.431 547.658 319.201 548.494 317.14C593.868 205.295 570.022 73.9147 494.086 21.5689Z" fill="#F4EDFF" fill-opacity="0.5"/>
<path d="M253.208 412.787C254.262 412.787 255.126 413.603 255.203 414.638L255.208 414.787V428.484C255.208 429.589 254.313 430.484 253.208 430.484C252.154 430.484 251.29 429.668 251.213 428.633L251.208 428.484V414.787C251.208 413.683 252.103 412.787 253.208 412.787Z" fill="black"/>
<path fill-rule="evenodd" clip-rule="evenodd" d="M168.352 464.68H433.62V427.106H168.352V464.68Z" fill="black"/>
<path fill-rule="evenodd" clip-rule="evenodd" d="M398.648 232.281H557.711V194.706H398.648V232.281Z" fill="black"/>
<path d="M501.04 147.477C501.801 147.477 502.441 148.046 502.53 148.802C503.293 155.313 503.126 162.084 501.656 169.148C498.855 182.609 492.407 193.025 484.233 201.393C483.654 201.985 482.704 201.996 482.112 201.418C481.519 200.839 481.508 199.889 482.087 199.296C489.895 191.304 496.051 181.36 498.719 168.537C500.007 162.349 500.244 156.393 499.707 150.646L499.69 150.477H425.909L425.893 150.645C425.378 156.137 425.573 161.828 426.718 167.731L426.88 168.537C429.549 181.36 435.704 191.304 443.513 199.296C444.092 199.889 444.081 200.839 443.488 201.418C442.895 201.996 441.946 201.985 441.367 201.393C433.192 193.025 426.745 182.609 423.943 169.148C422.473 162.082 422.306 155.306 423.071 148.801C423.154 148.093 423.722 147.548 424.42 147.483L424.561 147.477H501.04Z" fill="black"/>
<path d="M416.397 97.039C418.57 94.2639 421.721 94.6799 424.737 96.9329C435.237 104.776 443.207 118.355 449.313 135.708C450.752 139.812 452.039 144.118 453.154 148.621C453.353 149.425 452.862 150.239 452.058 150.438C451.254 150.637 450.441 150.146 450.241 149.342C449.15 144.931 447.89 140.716 446.483 136.702C440.558 119.863 432.857 106.742 422.942 99.3364C421.06 97.9311 419.654 97.7455 418.761 98.8872C418.289 99.4904 417.995 100.313 417.747 101.606C416.835 106.373 417.304 111.626 418.957 117.2C420.799 123.417 423.628 129.567 428.057 137.581C430.013 141.117 432.056 144.58 434.349 148.175C434.795 148.873 434.59 149.801 433.891 150.246C433.193 150.692 432.265 150.487 431.82 149.788C429.491 146.138 427.416 142.621 425.432 139.032L424.602 137.518C420.547 130.054 417.877 124.114 416.08 118.053C414.301 112.05 413.789 106.326 414.8 101.041C415.131 99.3199 415.566 98.1032 416.397 97.039Z" fill="black"/>
<path d="M453.029 85.6022C455.453 82.2764 458.265 80.7075 461.331 81.9401C464.682 83.2861 466.424 86.6914 467.246 91.6929C467.42 92.7517 467.549 93.8577 467.654 95.1002L467.701 95.6843L467.861 98.0184C468.875 112.975 468.459 127.956 466.847 149.096C466.784 149.922 466.063 150.541 465.237 150.478C464.411 150.415 463.792 149.694 463.855 148.868L464.098 145.601C465.471 126.653 465.805 112.75 464.919 98.9997L464.777 96.8444C464.739 96.283 464.704 95.8143 464.665 95.3532C464.566 94.1832 464.446 93.1522 464.286 92.1795C463.617 88.1147 462.315 85.5683 460.213 84.7237C457.46 83.6173 454.125 88.1928 452.002 94.2191C449.579 101.099 448.577 108.751 448.583 118.108L448.593 119.672C448.634 123.307 448.79 126.665 449.148 132.304L449.395 136.107C449.449 136.934 448.822 137.648 447.996 137.702C447.169 137.756 446.455 137.129 446.401 136.303L446.054 130.894C445.742 125.798 445.612 122.611 445.586 118.985C445.515 108.919 446.545 100.685 449.172 93.2224C450.094 90.6057 451.449 87.7703 453.029 85.6022Z" fill="black"/>
<path d="M496.672 123.022C499.27 122.707 501.362 123.684 502.274 126.154C502.736 127.39 502.766 128.679 502.528 130.347C502.135 132.998 501.319 135.634 500.011 138.822C498.414 142.703 496.525 146.382 494.362 149.786C493.918 150.485 492.991 150.692 492.292 150.247C491.593 149.803 491.386 148.876 491.83 148.177C493.896 144.924 495.706 141.402 497.236 137.682C498.459 134.701 499.208 132.28 499.559 129.915C499.731 128.709 499.712 127.867 499.462 127.199C499.083 126.174 498.366 125.839 497.032 126C495.787 126.151 494.253 126.76 492.8 127.586C489.914 129.236 487.269 131.278 484.984 133.626C484.406 134.22 483.457 134.233 482.863 133.655C482.269 133.077 482.256 132.128 482.834 131.534C485.316 128.984 488.184 126.77 491.314 124.98C493.085 123.973 494.957 123.229 496.672 123.022Z" fill="black"/>
<path d="M481.264 98.0698C483.563 96.3645 485.876 95.9621 487.843 97.5918C489.542 98.9974 490.003 100.93 490.213 104.45C490.726 113.056 489.069 121.677 485.331 133.057C484.829 134.553 484.327 136.026 483.824 137.475L481.091 145.203L481.003 145.436C480.718 146.214 479.856 146.613 479.078 146.328C478.3 146.043 477.901 145.181 478.186 144.403L478.312 144.071L480.491 137.919C481.157 136.024 481.822 134.085 482.483 132.113C486.111 121.069 487.705 112.78 487.218 104.629C487.061 101.993 486.718 100.555 485.93 99.9027C485.259 99.3467 484.37 99.5013 483.052 100.479C481.933 101.31 480.952 102.374 479.591 104.069C477.757 106.345 476.196 108.928 474.403 112.489L474.117 113.059C472.013 117.287 470.044 121.818 467.973 127.106C467.671 127.877 466.801 128.257 466.029 127.955C465.258 127.653 464.878 126.783 465.18 126.012C467.281 120.647 469.283 116.038 471.431 111.724C473.434 107.688 475.162 104.783 477.254 102.189C478.769 100.302 479.875 99.1007 481.264 98.0698Z" fill="black"/>
<path d="M432.494 161.472C432.89 161.259 433.357 161.235 433.769 161.401L433.92 161.472L440.611 165.087L447.298 161.472C447.693 161.259 448.161 161.235 448.573 161.401L448.724 161.472L455.412 165.086L462.099 161.472C462.494 161.259 462.962 161.235 463.374 161.401L463.526 161.473L470.209 165.086L476.894 161.473C477.289 161.259 477.757 161.235 478.169 161.401L478.321 161.473L485.002 165.086L491.684 161.473C492.08 161.259 492.548 161.235 492.96 161.401L493.111 161.473L500.509 165.473C501.238 165.867 501.51 166.777 501.116 167.505C500.745 168.191 499.917 168.472 499.213 168.174L499.083 168.111L492.398 164.497L485.717 168.111C485.321 168.325 484.853 168.349 484.441 168.183L484.289 168.111L477.606 164.497L470.922 168.111C470.527 168.325 470.059 168.349 469.647 168.183L469.496 168.111L462.811 164.497L456.126 168.112C455.731 168.325 455.263 168.349 454.851 168.183L454.7 168.112L448.011 164.496L441.324 168.112C440.929 168.325 440.461 168.349 440.05 168.183L439.898 168.112L433.207 164.497L426.516 168.112C425.83 168.482 424.984 168.263 424.558 167.629L424.483 167.505C424.113 166.819 424.332 165.972 424.966 165.547L425.09 165.472L432.494 161.472Z" fill="black"/>
<path d="M435.519 175.238C435.952 174.977 436.484 174.953 436.935 175.167L437.068 175.238L442.928 178.77L448.785 175.238C449.218 174.977 449.751 174.953 450.202 175.167L450.335 175.238L456.185 178.769L462.04 175.238C462.473 174.977 463.005 174.953 463.457 175.167L463.59 175.238L469.441 178.77L475.294 175.238C475.728 174.977 476.26 174.953 476.712 175.167L476.845 175.238L482.696 178.77L488.546 175.238C488.98 174.977 489.513 174.953 489.964 175.167L490.097 175.239L496.718 179.239C497.427 179.667 497.655 180.589 497.226 181.298C496.823 181.965 495.983 182.206 495.294 181.875L495.167 181.806L489.321 178.274L483.472 181.807C483.038 182.068 482.506 182.092 482.054 181.878L481.921 181.807L476.069 178.274L470.217 181.807C469.783 182.068 469.251 182.092 468.799 181.878L468.666 181.807L462.814 178.274L456.96 181.807C456.527 182.068 455.994 182.092 455.543 181.878L455.41 181.807L449.559 178.274L443.703 181.807C443.27 182.068 442.738 182.092 442.287 181.878L442.154 181.807L436.293 178.273L430.432 181.807C429.764 182.21 428.908 182.031 428.453 181.417L428.373 181.297C427.97 180.629 428.149 179.773 428.763 179.318L428.883 179.238L435.519 175.238Z" fill="black"/>
<path fill-rule="evenodd" clip-rule="evenodd" d="M132.187 150.702C132.187 165.061 120.546 176.702 106.187 176.702C91.8285 176.702 80.1875 165.061 80.1875 150.702C80.1875 136.343 91.8285 124.702 106.187 124.702C120.546 124.702 132.187 136.343 132.187 150.702Z" fill="black"/>
<path fill-rule="evenodd" clip-rule="evenodd" d="M58.2609 111.546C58.2609 118.796 52.3839 124.674 45.1329 124.674C37.8829 124.674 32.0049 118.796 32.0049 111.546C32.0049 104.296 37.8829 98.418 45.1329 98.418C52.3839 98.418 58.2609 104.296 58.2609 111.546Z" fill="black"/>
<path fill-rule="evenodd" clip-rule="evenodd" d="M182.213 98.2833C182.213 105.533 176.335 111.411 169.085 111.411C161.834 111.411 155.956 105.533 155.956 98.2833C155.956 91.0333 161.834 85.1553 169.085 85.1553C176.335 85.1553 182.213 91.0333 182.213 98.2833Z" fill="black"/>
<path fill-rule="evenodd" clip-rule="evenodd" d="M80.1593 227.366C80.1593 234.616 74.2813 240.494 67.0313 240.494C59.7803 240.494 53.9033 234.616 53.9033 227.366C53.9033 220.116 59.7803 214.238 67.0313 214.238C74.2813 214.238 80.1593 220.116 80.1593 227.366Z" fill="black"/>
<path fill-rule="evenodd" clip-rule="evenodd" d="M176.741 190.161C176.741 197.411 170.864 203.289 163.613 203.289C156.363 203.289 150.485 197.411 150.485 190.161C150.485 182.911 156.363 177.033 163.613 177.033C170.864 177.033 176.741 182.911 176.741 190.161Z" fill="black"/>
<path d="M43.4495 110.466C44.016 109.583 45.1609 109.295 46.0711 109.78L46.2128 109.863L107.267 149.019C108.087 149.545 108.403 150.579 108.036 151.466L107.968 151.612L68.8122 228.276C68.3098 229.26 67.105 229.65 66.1213 229.147C65.1845 228.669 64.786 227.553 65.1842 226.598L65.2499 226.456L103.58 151.407L44.0534 113.23C43.1701 112.663 42.8819 111.518 43.3666 110.608L43.4495 110.466Z" fill="black"/>
<path d="M167.805 96.7469C168.654 96.0397 169.915 96.1543 170.622 97.0028C171.294 97.8089 171.224 98.9874 170.488 99.7095L170.366 99.8196L109.496 150.548L164.746 188.513C165.611 189.107 165.863 190.261 165.349 191.155L165.262 191.294C164.668 192.159 163.514 192.41 162.62 191.897L162.481 191.81L105.056 152.351C104.009 151.631 103.898 150.145 104.786 149.276L104.908 149.166L167.805 96.7469Z" fill="black"/>
<path d="M529.117 312.277C499.406 312.277 472.468 328.159 457.899 353.405C457.631 353.869 457.631 354.441 457.9 354.905C472.492 380.144 499.416 396.015 529.117 396.015C558.822 396.015 585.762 380.141 600.351 354.905C600.619 354.441 600.619 353.868 600.351 353.404C585.761 328.151 558.837 312.277 529.117 312.277ZM529.976 315.282C557.7 315.578 582.801 330.204 596.896 353.456L597.314 354.153L596.896 354.852C582.656 378.326 557.168 393.015 529.117 393.015L528.259 393.011C500.552 392.715 475.451 378.09 461.355 354.852L460.936 354.153L461.354 353.455C475.575 329.972 501.061 315.277 529.117 315.277L529.976 315.282Z" fill="black"/>
<path fill-rule="evenodd" clip-rule="evenodd" d="M529.125 329.776C542.584 329.776 553.495 340.687 553.495 354.146C553.495 367.605 542.584 378.516 529.125 378.516C515.666 378.516 504.755 367.605 504.755 354.146C504.755 340.687 515.666 329.776 529.125 329.776ZM541.063 342.257C537.412 342.257 534.453 345.216 534.453 348.866C534.453 352.516 537.412 355.475 541.063 355.475C544.713 355.475 547.672 352.516 547.672 348.866C547.672 345.216 544.713 342.257 541.063 342.257Z" fill="black"/>
<path d="M649.352 352.646C650.18 352.646 650.852 353.318 650.852 354.146C650.852 354.926 650.257 355.567 649.496 355.64L649.352 355.646H631.85C631.021 355.646 630.35 354.975 630.35 354.146C630.35 353.367 630.944 352.726 631.705 352.653L631.85 352.646H649.352Z" fill="black"/>
<path d="M624.746 313.027C625.16 312.309 626.078 312.063 626.795 312.478C627.47 312.867 627.728 313.703 627.411 314.398L627.344 314.527L618.593 329.684C618.179 330.401 617.262 330.647 616.544 330.233C615.869 329.843 615.611 329.007 615.929 328.312L615.995 328.184L624.746 313.027Z" fill="black"/>
<path d="M616.544 378.06C617.219 377.67 618.072 377.865 618.515 378.487L618.593 378.609L627.344 393.766C627.758 394.483 627.513 395.4 626.795 395.815C626.12 396.205 625.268 396.01 624.824 395.387L624.746 395.266L615.995 380.109C615.581 379.391 615.827 378.474 616.544 378.06Z" fill="black"/>
<path d="M507.6 17.9307C520.394 17.9307 530.789 28.1976 530.996 40.9417L530.999 41.3287V171.898C530.999 172.726 530.328 173.398 529.499 173.398C528.719 173.398 528.079 172.803 528.006 172.042L527.999 171.898V41.3287C527.999 30.1791 519.054 21.1192 507.948 20.9336L507.6 20.9307H249.89C238.741 20.9307 229.681 29.8761 229.495 40.9809L229.492 41.3287V124.165C229.492 124.993 228.821 125.665 227.992 125.665C227.212 125.665 226.572 125.07 226.499 124.309L226.492 124.165V41.3287C226.492 28.5358 236.76 18.1404 249.503 17.9338L249.89 17.9307H507.6Z" fill="black"/>
<path d="M398.135 47.9307C398.964 47.9307 399.635 48.6022 399.635 49.4307C399.635 50.2104 399.041 50.8511 398.28 50.9238L398.135 50.9307H359.356C358.528 50.9307 357.856 50.2591 357.856 49.4307C357.856 48.651 358.451 48.0102 359.212 47.9375L359.356 47.9307H398.135Z" fill="black"/>
<path d="M529.499 418.139C530.279 418.139 530.92 418.734 530.992 419.494L530.999 419.639V599.585C530.999 612.378 520.732 622.773 507.988 622.98L507.601 622.983H249.891C237.098 622.983 226.702 612.715 226.495 599.972L226.492 599.585V500.759C226.492 499.93 227.164 499.259 227.992 499.259C228.772 499.259 229.413 499.854 229.485 500.614L229.492 500.759V599.585C229.492 610.734 238.438 619.794 249.543 619.98L249.891 619.983H507.601C518.751 619.983 527.811 611.038 527.996 599.932L527.999 599.585V419.639C527.999 418.81 528.671 418.139 529.499 418.139Z" fill="black"/>
<path d="M398.135 589.986C398.964 589.986 399.635 590.658 399.635 591.486C399.635 592.266 399.041 592.907 398.28 592.979L398.135 592.986H359.356C358.528 592.986 357.856 592.315 357.856 591.486C357.856 590.707 358.451 590.066 359.212 589.993L359.356 589.986H398.135Z" fill="black"/>
<path d="M529.125 250.762C529.905 250.762 530.545 251.357 530.618 252.117L530.625 252.262V294.074C530.625 294.902 529.953 295.574 529.125 295.574C528.345 295.574 527.705 294.979 527.632 294.218L527.625 294.074V252.262C527.625 251.433 528.297 250.762 529.125 250.762Z" fill="black"/>
<path fill-rule="evenodd" clip-rule="evenodd" d="M606.371 547.683C617.025 557.309 617.86 573.749 608.234 584.405C598.608 595.06 582.168 595.895 571.513 586.269C560.857 576.643 560.022 560.202 569.648 549.546C579.274 538.891 595.716 538.057 606.371 547.683Z" fill="black"/>
<path fill-rule="evenodd" clip-rule="evenodd" d="M603.977 487.264C609.357 492.124 609.778 500.425 604.917 505.806C600.057 511.186 591.756 511.607 586.375 506.746C580.996 501.886 580.575 493.584 585.435 488.204C590.295 482.825 598.596 482.404 603.977 487.264Z" fill="black"/>
<path fill-rule="evenodd" clip-rule="evenodd" d="M665.517 541.074C670.897 545.934 671.319 554.236 666.458 559.616C661.598 564.996 653.296 565.418 647.916 560.557C642.536 555.697 642.115 547.395 646.975 542.015C651.835 536.636 660.137 536.214 665.517 541.074Z" fill="black"/>
<path d="M595.205 495.004L595.355 495.012C596.405 495.106 597.193 495.995 597.177 497.033L597.169 497.182L591.181 564.387L656.253 548.871C657.279 548.626 658.308 549.22 658.623 550.208L658.663 550.352C658.907 551.378 658.314 552.407 657.325 552.722L657.181 552.762L589.406 568.922C588.125 569.227 586.918 568.235 586.942 566.943L586.95 566.799L593.185 496.827C593.278 495.777 594.168 494.989 595.205 495.004Z" fill="black"/>
<path fill-rule="evenodd" clip-rule="evenodd" d="M221.453 221.414C212.868 229.411 213.675 243.736 222.208 251.473C234.574 262.685 257.655 254.442 260.669 238.081C260.765 237.553 260.839 237.02 260.888 236.485C261.693 227.58 255.917 219.272 257.21 210.411C257.621 207.592 259.42 205.202 261.111 202.909C264.892 197.786 270.163 190.585 268.932 183.824C268.264 180.145 265.645 177.144 262.899 174.607C259.308 171.289 250.446 164.478 255.946 158.921C256.78 158.079 257.947 157.47 259.098 157.205C260.049 156.986 261.095 157.05 261.932 157.549C264.683 159.189 265.389 162.482 269.173 162.592C271.108 162.648 273.047 161.723 274.221 160.183C276.015 157.83 275.877 154.526 275.14 151.66C274.731 150.07 274.161 148.418 274.563 146.826C275.192 144.342 278.022 142.985 280.584 143.024C283.146 143.064 285.561 144.128 288.011 144.881C294.823 146.976 302.574 146.589 308.668 142.892C311.89 140.938 314.724 137.773 314.901 134.01C315.052 130.802 313.25 127.806 311.061 125.457C305.414 119.397 297.091 116.443 288.862 115.491C280.764 114.555 272.406 115.382 264.824 118.377C257.243 121.373 250.475 126.592 246.071 133.452C242.359 139.232 240.466 146.022 240.1 152.851C239.728 159.816 241.392 166.371 242.587 173.152C243.557 178.664 241.375 184.885 237.461 188.799C234.486 191.773 230.92 194.095 227.866 196.989C224.663 200.024 222.059 203.936 221.817 208.461C221.647 211.643 223.1 213.356 224.145 216.111C224.992 218.343 223.066 219.938 221.596 221.282C221.548 221.326 221.5 221.37 221.453 221.414Z" fill="black"/>
<path d="M309.321 140.784C310.13 140.604 310.931 141.114 311.11 141.923C312.859 149.792 313.341 157.089 312.961 163.94C312.299 176.498 310.214 185.535 303.689 195.03C301.652 197.991 299.62 200.232 297.635 201.869C296.265 202.999 295.188 203.651 294.057 204.181C290.012 206.043 285.626 206.373 281.128 205.554C278.158 205.014 275.691 204.118 273.402 203.021C272.655 202.663 272.339 201.767 272.697 201.02C273.056 200.273 273.951 199.958 274.698 200.316C276.767 201.307 279 202.118 281.665 202.603C285.599 203.319 289.372 203.035 292.794 201.46C293.702 201.035 294.568 200.51 295.727 199.555C297.492 198.099 299.335 196.065 301.217 193.33C307.354 184.401 309.329 175.835 309.965 163.778C310.331 157.183 309.867 150.158 308.182 142.574C308.002 141.765 308.512 140.964 309.321 140.784Z" fill="black"/>
<path d="M284.485 202.967C285.303 202.84 286.07 203.401 286.197 204.22C287.234 210.91 286.332 217.573 282.527 223.479C281.539 225.017 280.483 226.396 278.934 227.928C276.641 230.197 273.903 232.071 270.663 233.368C267.425 234.655 264.137 235.194 260.903 235.128C260.075 235.111 259.417 234.426 259.434 233.598C259.451 232.769 260.136 232.112 260.964 232.129C263.813 232.187 266.706 231.713 269.551 230.582C272.396 229.443 274.803 227.795 276.824 225.795C278.193 224.441 279.124 223.226 280.005 221.856C283.362 216.644 284.166 210.704 283.232 204.679C283.105 203.861 283.666 203.094 284.485 202.967Z" fill="black"/>
<path d="M222.408 212.108C223.173 211.789 224.051 212.152 224.369 212.917C224.687 213.682 224.325 214.56 223.56 214.878C219.373 216.618 215.192 218.506 211.043 220.543C207.583 222.242 204.208 224.023 200.924 225.87C197.388 227.858 195.305 231.018 194.696 234.846C194.08 238.746 193.695 242.715 193.515 246.857L193.453 248.409C193.194 255.731 193.463 261.478 194.595 274.868L195.541 285.739C197.072 303.785 199.881 321.278 203.796 338.191C203.983 338.998 203.48 339.804 202.673 339.991C201.866 340.178 201.06 339.675 200.874 338.868C197.068 322.428 194.299 305.443 192.722 287.941L191.602 275.077C190.382 260.647 190.157 254.998 190.517 246.727C190.703 242.475 191.098 238.393 191.733 234.377C192.482 229.667 195.093 225.706 199.453 223.255C202.785 221.381 206.209 219.575 209.721 217.85C213.927 215.785 218.165 213.872 222.408 212.108Z" fill="black"/>
<path d="M283.428 204.878C283.699 204.095 284.553 203.68 285.336 203.951L286.991 204.515C287.658 204.739 288.35 204.968 289.138 205.225L295.452 207.277C297.498 207.953 298.981 208.468 301.014 209.203L302.909 209.894C310.696 212.752 313.113 213.953 316.767 216.747C323.365 221.805 326.473 227.58 329.717 237.541C333.761 249.907 337.799 263.197 341.715 276.801L343.203 282.009C345.029 288.436 346.618 294.19 347.994 299.288L349.097 303.405L350.565 305.3C353.327 308.845 356.151 312.362 359.045 315.854L360.789 317.947C365.249 323.275 369.834 328.499 374.584 333.684C375.144 334.295 375.102 335.244 374.491 335.804C373.881 336.363 372.932 336.322 372.372 335.711C367.592 330.493 362.977 325.236 358.49 319.874C354.373 314.966 350.395 310.011 346.537 305C346.416 304.842 346.327 304.662 346.276 304.47L345.503 301.575C343.84 295.381 341.848 288.166 339.482 279.896C335.589 266.291 331.568 252.967 327.537 240.536L326.865 238.472C323.794 229.043 320.928 223.717 314.943 219.129L314.371 218.698C311.307 216.425 308.937 215.3 301.831 212.694L298.788 211.592C296.77 210.873 295.13 210.321 292.373 209.425L287.812 207.948C286.536 207.53 285.495 207.18 284.356 206.786C283.573 206.516 283.158 205.661 283.428 204.878Z" fill="black"/>
<path d="M187.442 336.234C191.869 335.252 196.698 335.546 202.105 336.92C206.002 337.911 209.827 339.319 214.969 341.545L217.76 342.774L222.035 344.685C222.971 345.1 223.755 345.441 224.5 345.758L224.778 345.875C246.725 355.137 268 363.15 288.973 369.974C289.761 370.23 290.191 371.077 289.935 371.865C289.679 372.652 288.832 373.083 288.044 372.827C267.74 366.22 247.159 358.506 225.968 349.63L223.041 348.397C222.56 348.191 222.058 347.974 221.509 347.732L215.589 345.092L213.798 344.307C208.782 342.136 205.081 340.772 201.366 339.828C196.38 338.56 192.007 338.294 188.092 339.163C182.302 340.448 177.838 344.505 176.502 349.919C174.144 359.465 179.244 369.147 189.908 380.1C195.032 385.363 201.357 390.594 209.816 396.803L211.586 398.095C212.593 398.825 213.64 399.577 214.77 400.384L222.327 405.73C223.004 406.208 223.165 407.144 222.687 407.821C222.237 408.458 221.381 408.638 220.718 408.258L220.609 408.19C220.36 408.014 216.057 404.978 214.798 404.085L213.026 402.825C211.701 401.879 210.489 401.007 209.321 400.157L208.822 399.794C199.849 393.244 193.178 387.759 187.759 382.193C176.43 370.557 170.904 360.068 173.589 349.2C175.21 342.637 180.578 337.758 187.442 336.234Z" fill="black"/>
<path fill-rule="evenodd" clip-rule="evenodd" d="M194.291 431.267C187.781 426.388 186.273 415.895 192.204 409.928C195.46 406.652 200.986 405.835 205.402 405.621C210.871 405.357 216.599 407.076 222.067 406.747C227.65 406.412 232.75 403.89 238.321 403.487C241.187 403.28 244.183 403.476 246.727 404.814C248.791 405.901 250.42 407.668 251.787 409.561C252.588 410.67 254.464 413.461 253.208 414.787C252.71 415.312 251.867 416.304 251.153 416.186C247.67 415.61 244.244 414.965 240.624 414.233C237.185 413.538 233.71 413.006 230.189 412.774C225.571 412.47 219.554 412.648 216.924 417.118C214.048 422.009 217.073 427.538 221.524 430.163" fill="black"/>
<path d="M227.924 279.237C228.752 279.199 229.453 279.84 229.491 280.667L231.134 316.811L291.768 347.958C292.329 348.246 292.645 348.851 292.572 349.467L292.548 349.61L289.975 361.497C289.817 362.227 289.15 362.722 288.418 362.677L288.28 362.662L239.438 355.105C238.619 354.978 238.058 354.212 238.185 353.393C238.304 352.623 238.99 352.08 239.753 352.125L239.897 352.14L287.342 359.481L289.372 350.101L228.99 319.083C228.511 318.837 228.201 318.354 228.177 317.817L226.494 280.804C226.456 279.976 227.096 279.275 227.924 279.237Z" fill="black"/>
<path d="M289.606 349.025C289.745 348.257 290.445 347.733 291.207 347.797L291.35 347.816L308.791 350.979C308.954 351.009 309.111 351.065 309.255 351.146L309.395 351.235L324.955 362.349C325.629 362.83 325.785 363.767 325.304 364.441C324.851 365.076 323.994 365.251 323.333 364.868L323.211 364.79L307.924 353.87L290.815 350.768C290.047 350.629 289.523 349.929 289.587 349.168L289.606 349.025Z" fill="black"/>
<path d="M287.043 360.862C287.208 360.1 287.925 359.599 288.684 359.689L288.826 359.713L306.573 363.551C306.856 363.612 307.114 363.754 307.318 363.957L307.415 364.064L316.313 374.881C316.839 375.521 316.747 376.466 316.107 376.992C315.507 377.486 314.639 377.436 314.099 376.9L313.996 376.787L305.428 366.373L288.192 362.645C287.43 362.48 286.929 361.763 287.019 361.005L287.043 360.862Z" fill="black"/>
<path d="M427.706 319.507C428.962 319.177 429.994 320.48 429.44 321.61L429.377 321.726L408.084 357.451C407.66 358.162 406.739 358.396 406.027 357.971C405.357 357.572 405.112 356.733 405.439 356.043L405.507 355.915L424.92 323.343L345.236 344.336L314.102 392.895C313.78 393.397 313.195 393.657 312.614 393.569L312.469 393.54L263.665 381.127C262.257 380.768 262.148 378.845 263.434 378.298L263.572 378.246L306.002 364.479C306.79 364.223 307.636 364.655 307.892 365.443C308.133 366.185 307.765 366.978 307.063 367.282L306.928 367.333L269.433 379.498L312.16 390.365L343.025 342.225C343.199 341.954 343.455 341.747 343.753 341.633L343.906 341.584L427.706 319.507Z" fill="black"/>
<path d="M393.459 371.53C394.263 371.334 395.075 371.828 395.271 372.633C395.456 373.39 395.029 374.153 394.308 374.404L394.169 374.445L314.537 393.846L254.057 414.509C253.319 414.761 252.52 414.405 252.205 413.709L252.152 413.575C251.9 412.837 252.256 412.038 252.952 411.723L253.087 411.67L313.622 390.988L313.752 390.95L393.459 371.53Z" fill="black"/>
<path d="M312.24 274.807C312.24 273.042 314.719 272.754 315.178 274.374L315.213 274.521L323.861 319.069L351.591 340.156C352.212 340.628 352.362 341.49 351.959 342.139L351.877 342.258C351.405 342.879 350.544 343.029 349.894 342.626L349.775 342.544L321.589 321.11C321.338 320.919 321.154 320.654 321.063 320.355L321.025 320.202L315.24 290.407V319.687L325.515 352.604C325.747 353.349 325.37 354.138 324.666 354.434L324.53 354.483C323.786 354.715 322.997 354.339 322.701 353.634L322.651 353.498L312.308 320.363C312.278 320.267 312.258 320.168 312.248 320.067L312.24 319.916V274.807Z" fill="black"/>
<path d="M371.898 376.814L372.043 376.816L373.221 376.892C386.231 377.807 394.155 380.906 400.61 389.061C403.361 392.534 405.282 396.009 406.172 400.798C407.379 407.299 405.797 413.658 402.275 419.634C401.013 421.774 399.572 423.738 398.048 425.505C397.045 426.667 396.171 427.558 395.468 428.209C394.86 428.771 393.911 428.734 393.348 428.126C392.785 427.518 392.822 426.569 393.431 426.006L393.788 425.668C394.35 425.124 395.02 424.421 395.777 423.544C397.19 421.907 398.526 420.086 399.69 418.111C402.874 412.709 404.282 407.051 403.222 401.345C402.44 397.135 400.733 394.048 398.258 390.923C392.245 383.327 384.81 380.576 371.866 379.811C371.039 379.762 370.408 379.052 370.457 378.225C370.503 377.447 371.134 376.842 371.898 376.814Z" fill="black"/>
<path d="M401.664 353.792C394.985 353.792 389.57 359.207 389.57 365.886C389.57 372.565 394.985 377.979 401.664 377.979C408.344 377.979 413.757 372.565 413.757 365.886C413.757 359.206 408.344 353.792 401.664 353.792ZM401.664 356.792C406.687 356.792 410.757 360.863 410.757 365.886C410.757 370.909 406.687 374.979 401.664 374.979C396.641 374.979 392.57 370.908 392.57 365.886C392.57 360.863 396.642 356.792 401.664 356.792Z" fill="black"/>
<path d="M264.035 378.173C264.815 378.173 265.456 378.768 265.528 379.528L265.535 379.673L265.535 385.861L303.476 394.695C304.236 394.872 304.725 395.596 304.623 396.354L304.597 396.496C304.42 397.255 303.696 397.745 302.938 397.643L302.796 397.617L263.695 388.514C263.061 388.366 262.6 387.829 262.541 387.191L262.535 387.053V379.673C262.535 378.844 263.207 378.173 264.035 378.173Z" fill="black"/>
<path d="M394.631 374.132C395.008 373.395 395.912 373.102 396.649 373.479C397.344 373.834 397.644 374.655 397.363 375.365L397.303 375.497L394.93 380.143C394.76 380.475 394.474 380.73 394.13 380.862L393.979 380.911L387.771 382.557C386.97 382.769 386.149 382.292 385.936 381.491C385.736 380.738 386.147 379.966 386.864 379.701L387.002 379.657L392.562 378.183L394.631 374.132Z" fill="black"/>
<path fill-rule="evenodd" clip-rule="evenodd" d="M285.195 204.726C283.614 204.775 281.406 204.7 278.874 204.141C276.089 203.526 273.958 202.558 272.553 201.795C272.819 204.056 273.494 207.25 275.296 210.784C277.485 215.08 280.414 218.063 282.458 219.839C283.392 218.275 284.467 216.063 285.083 213.296C285.876 209.726 285.578 206.703 285.195 204.726Z" fill="black"/>
<path d="M123.492 444.4H53.9062C53.0778 444.4 52.4062 445.072 52.4062 445.9V461.793C52.4062 462.622 53.0778 463.293 53.9062 463.293H123.492C124.321 463.293 124.992 462.622 124.992 461.793V445.9C124.992 445.072 124.321 444.4 123.492 444.4ZM121.992 447.4V460.293H55.4055V447.4H121.992Z" fill="black"/>
<path d="M118.538 460.3C119.316 460.247 119.996 460.798 120.12 461.551L120.137 461.695L125.206 536.225L126.387 553.485L131.086 622.515C131.142 623.336 130.528 624.039 129.725 624.111L129.589 624.117H47.8103C46.9875 624.117 46.3276 623.457 46.3105 622.651L46.3137 622.515L51.0128 553.485L52.1937 536.225L57.2627 461.695C57.319 460.869 58.0345 460.244 58.8611 460.3C59.639 460.353 60.2379 460.99 60.2588 461.754L60.2558 461.899L55.1868 536.429L54.0058 553.689L49.4156 621.117H127.984L123.394 553.689L122.213 536.429L117.144 461.899C117.088 461.072 117.712 460.357 118.538 460.3Z" fill="black"/>
<path d="M38.6685 380.868L39.0315 381.112L39.6998 381.569C40.0196 381.79 40.3223 382.005 40.6292 382.229C42.239 383.404 43.7545 384.681 45.3643 386.265L46.2344 387.13C51.9102 392.834 55.1138 397.353 56.8107 403.934C57.8705 408.044 57.799 410.75 56.9263 415.451L56.6551 416.88C55.9748 420.514 55.9228 422.696 56.728 425.639C58.2529 431.21 62.3115 435.899 68.4793 439.898C69.1744 440.349 69.3725 441.278 68.9218 441.973C68.4711 442.668 67.5422 442.866 66.8471 442.416C60.1147 438.05 55.5811 432.812 53.8344 426.431C52.9273 423.116 52.9465 420.587 53.6154 416.826L53.8834 415.398C54.7699 410.774 54.8691 408.419 53.9057 404.684C52.2989 398.451 49.1179 394.168 43.2601 388.403C41.7579 386.925 40.3547 385.743 38.8608 384.653C38.4771 384.373 38.0982 384.106 37.6754 383.817L35.27 382.207C33.0394 380.688 31.6465 379.427 30.2277 377.442C29.961 377.069 29.6985 376.674 29.4388 376.256C25.5578 370.004 23.9583 362.499 27.3262 358.593C29.5678 355.993 33.3796 355.403 38.1615 356.129C39.7915 356.376 41.4451 356.768 43.0571 357.252C44.1028 357.566 44.9715 357.869 45.578 358.104C61.3335 364.208 73.7505 383.766 72.8041 401.802C72.6706 404.341 72.3445 406.348 71.6908 409.177L71.0908 411.717C71.0288 411.986 70.9741 412.231 70.9228 412.469C70.1908 415.865 70.1079 418.4 70.8414 421.795C72.2881 428.493 76.1137 434.094 81.5984 439.037C82.2138 439.591 82.2631 440.54 81.7085 441.155C81.1539 441.771 80.2054 441.82 79.59 441.265C73.6782 435.937 69.5082 429.833 67.909 422.429C67.117 418.762 67.1669 415.906 67.8785 412.372L68.0456 411.583L68.6365 409.062C69.343 406.082 69.6771 404.138 69.8083 401.644C70.6872 384.893 59.031 366.533 44.4932 360.901L44.0974 360.752C43.5933 360.568 42.9454 360.35 42.1948 360.125C40.7089 359.679 39.189 359.319 37.7114 359.095C33.8542 358.51 30.975 358.955 29.5983 360.551C27.3891 363.114 28.7365 369.437 31.9876 374.674C32.2134 375.038 32.4398 375.378 32.6683 375.697C33.7808 377.254 34.854 378.26 36.6004 379.481L37.4237 380.04C37.9777 380.41 38.7432 380.918 38.6685 380.868Z" fill="black"/>
<path d="M72.0786 276.961C76.1652 270.054 86.5779 268.417 93.5756 273.082C99.8273 277.249 103.164 285.343 102.671 293.684C102.284 300.236 99.9448 306.581 95.6216 314.282L93.8969 317.296C89.0024 325.83 87.3513 330.45 88.312 335.687C88.7275 337.953 89.4954 339.73 91.4815 343.427L92.29 344.928C92.5412 345.398 92.7384 345.774 92.9384 346.166C97.2047 354.518 99.295 363.967 98.9506 373.341C98.733 379.263 97.879 383.952 95.531 393.583L94.1802 399.096C93.8265 400.563 93.5633 401.701 93.2925 402.93C90.699 414.701 91.37 425.532 94.983 439.847C95.1857 440.65 94.6989 441.466 93.8957 441.668C93.0924 441.871 92.2769 441.384 92.0742 440.581C88.4248 426.122 87.6839 414.984 90.2159 402.965L90.3627 402.284C90.6575 400.946 90.9424 399.72 91.3391 398.08L92.8798 391.787C94.9797 383.082 95.7529 378.667 95.9526 373.231C96.2697 364.601 94.4027 355.898 90.581 348.156L90.2669 347.53C90.1393 347.281 90.0122 347.036 89.8691 346.765L88.4056 344.034C86.5855 340.591 85.8165 338.71 85.3612 336.229C84.2693 330.276 85.9265 325.312 90.7365 316.784L92.6505 313.441C96.999 305.813 99.3108 299.689 99.6762 293.507C100.11 286.161 97.2012 279.104 91.9116 275.578C86.2732 271.82 77.8202 273.149 74.6607 278.489C73.1288 281.079 72.7185 284.473 73.3108 288.224L73.3808 288.642C73.73 290.621 74.1844 292.229 75.2574 295.476L76.1738 298.246C76.3202 298.698 76.4408 299.081 76.5709 299.506C79.1528 307.94 79.8261 316.281 78.2306 323.884L78.1108 324.431C77.5344 326.951 76.6973 329.079 74.8708 333.032L73.8846 335.156C71.6557 340.008 70.7933 342.566 70.5625 345.673C70.2343 350.083 71.44 353.671 75.0416 360.617L76.7469 363.878C77.4295 365.196 77.8015 365.956 78.2671 366.968C78.5668 367.62 78.8374 368.244 79.0827 368.852C83.0993 378.81 85.1789 386.998 85.3612 395.367C85.5099 402.214 84.5778 408.94 82.5584 415.118C82.301 415.905 81.454 416.335 80.6666 416.078C79.8791 415.82 79.4495 414.973 79.7068 414.186C81.618 408.339 82.5035 401.95 82.362 395.433C82.1887 387.482 80.193 379.625 76.3005 369.974C76.1306 369.553 75.9464 369.121 75.7467 368.674L75.5416 368.222C75.0736 367.205 74.6997 366.444 73.961 365.022L72.3652 361.973C68.6003 354.711 67.2463 350.757 67.5487 345.777L67.5707 345.451C67.8431 341.784 68.8345 338.922 71.3594 333.468L72.3178 331.404C74.0555 327.621 74.7895 325.675 75.2946 323.268C76.7353 316.402 76.1794 308.811 73.9073 301.068L73.6031 300.062C73.5208 299.798 73.4382 299.537 73.3449 299.248L72.1558 295.647C71.2147 292.76 70.778 291.156 70.4264 289.164C69.6209 284.599 70.0795 280.341 72.0786 276.961Z" fill="black"/>
<path d="M138.989 330.065C144.501 326.403 152.049 326.411 156.536 330.591C161.671 335.376 162.047 344.275 158.961 352.233C155.392 361.438 150.087 370.341 143.217 379.019L142.16 380.338C139.979 383.031 137.987 385.327 134.216 389.542L130.443 393.756C127.183 397.413 125.317 399.582 123.303 402.084L120.658 405.404L120.389 405.748C115.479 412.017 112.593 416.625 110.883 421.617C108.737 427.883 108.895 434.047 111.791 440.546C112.128 441.303 111.788 442.19 111.031 442.527C110.275 442.864 109.388 442.524 109.051 441.767C105.837 434.557 105.66 427.61 108.045 420.645C109.778 415.587 112.563 411 117.122 405.064L118.387 403.439L120.967 400.202C123.144 397.497 125.14 395.188 128.825 391.064L133.223 386.15C136.378 382.607 138.166 380.519 140.21 377.977C147.222 369.262 152.599 360.343 156.164 351.148C158.856 344.208 158.532 336.551 154.491 332.786C151.101 329.627 145.078 329.621 140.649 332.564C136.729 335.168 133.878 339.61 131.89 345.538C130.549 349.536 129.754 353.192 128.69 359.739L127.839 365.09C126.26 374.822 125.093 379.522 122.561 384.987L122.278 385.589C120.381 389.559 118.258 392.737 113.788 398.701L111.928 401.174C110.096 403.619 109.08 405.024 107.986 406.646L107.843 406.859C100.749 417.439 98.6713 427.596 103.746 435.516C104.193 436.213 103.99 437.141 103.292 437.588C102.594 438.035 101.667 437.832 101.22 437.134C95.4211 428.084 97.6098 416.927 105.072 405.608L105.645 404.752C106.668 403.244 107.648 401.887 109.281 399.704L111.375 396.918C115.952 390.813 117.978 387.743 119.839 383.726L120.114 383.123C122.448 377.912 123.536 373.129 125.161 362.84L125.645 359.777C126.747 352.931 127.56 349.088 128.933 344.922L129.046 344.584C131.227 338.08 134.425 333.097 138.989 330.065Z" fill="black"/>
<path d="M0.948049 302.32C19.2553 295.069 37.7873 298.239 44.4419 309.272C47.6063 314.519 48.4088 321.897 46.3149 328.069L46.2194 328.338C47.8431 330.085 49.2536 332.135 50.4736 334.437L50.715 334.901C52.5205 338.432 53.5927 341.823 54.2879 345.056C54.462 345.866 53.9466 346.664 53.1367 346.838C52.3268 347.012 51.529 346.497 51.3549 345.687C50.7099 342.687 49.7104 339.526 48.044 336.267C47.1398 334.499 46.1236 332.901 44.99 331.501L44.8554 331.339L44.7897 331.458C44.5297 331.909 44.3031 332.283 44.0081 332.728L43.8221 333.004C43.236 333.863 42.5825 334.699 41.8536 335.487C39.2634 338.289 36.2389 339.969 32.7845 339.872C28.6694 339.757 24.5599 337.426 23.3899 333.466C22.2405 329.575 24.2885 325.224 27.7027 323.103C28.715 322.473 29.8157 322.079 30.985 321.897C33.1163 321.565 35.2609 321.928 37.6026 322.761L38.096 322.941C38.3663 323.043 38.6509 323.156 39.0537 323.319C40.6423 323.96 42.1089 324.803 43.4597 325.828L43.7854 326.082L43.8089 325.999C45.1393 321.04 44.4403 315.311 42.0594 311.139L41.873 310.821C36.0957 301.243 19.138 298.342 2.05275 305.109C1.28254 305.414 0.410856 305.037 0.105801 304.267C-0.199254 303.497 0.177833 302.625 0.948049 302.32ZM36.7492 325.642L36.5979 325.587C34.6836 324.907 32.9923 324.621 31.4461 324.861C30.6648 324.983 29.9463 325.24 29.286 325.651C26.9482 327.103 25.5291 330.118 26.2669 332.616C27.0127 335.14 29.9231 336.791 32.8686 336.873C35.315 336.942 37.5931 335.676 39.6509 333.451C40.2726 332.778 40.8366 332.057 41.3439 331.313C41.6853 330.813 41.9136 330.44 42.1911 329.959C42.3194 329.737 42.4422 329.51 42.5594 329.281L42.6664 329.062L42.5648 328.971C41.2723 327.845 39.859 326.934 38.3192 326.263L37.9316 326.101L37.1924 325.808C37.0381 325.748 36.8973 325.695 36.7492 325.642Z" fill="black"/>
<path d="M145.135 299.651C145.94 299.455 146.751 299.949 146.947 300.754C147.142 301.559 146.649 302.37 145.844 302.566C144.447 302.906 142.969 303.336 141.153 303.993C138.482 304.959 135.764 306.19 133.079 307.726C125.821 311.88 119.818 317.648 115.779 325.32C111.578 333.299 110.401 341.283 110.933 348.971C110.99 349.798 110.366 350.514 109.54 350.571C108.713 350.628 107.997 350.005 107.94 349.178C107.373 340.98 108.629 332.461 113.125 323.922C117.45 315.707 123.865 309.543 131.589 305.123C134.432 303.496 137.306 302.194 140.132 301.172C142.061 300.474 143.64 300.015 145.135 299.651Z" fill="black"/>
<path fill-rule="evenodd" clip-rule="evenodd" d="M124.889 553.586H52.5088L53.6898 533.748H123.709L124.889 553.586Z" fill="black"/>
<path fill-rule="evenodd" clip-rule="evenodd" d="M75.3452 519.573C75.3452 522.605 72.8872 525.062 69.8562 525.062C66.8242 525.062 64.3662 522.605 64.3662 519.573C64.3662 516.542 66.8242 514.084 69.8562 514.084C72.8872 514.084 75.3452 516.542 75.3452 519.573Z" fill="black"/>
<path fill-rule="evenodd" clip-rule="evenodd" d="M94.189 519.573C94.189 522.605 91.731 525.062 88.7 525.062C85.668 525.062 83.21 522.605 83.21 519.573C83.21 516.542 85.668 514.084 88.7 514.084C91.731 514.084 94.189 516.542 94.189 519.573Z" fill="black"/>
<path fill-rule="evenodd" clip-rule="evenodd" d="M113.033 519.573C113.033 522.605 110.575 525.062 107.544 525.062C104.512 525.062 102.054 522.605 102.054 519.573C102.054 516.542 104.512 514.084 107.544 514.084C110.575 514.084 113.033 516.542 113.033 519.573Z" fill="black"/>
<path fill-rule="evenodd" clip-rule="evenodd" d="M75.3452 603.478C75.3452 606.51 72.8872 608.967 69.8562 608.967C66.8242 608.967 64.3662 606.51 64.3662 603.478C64.3662 600.447 66.8242 597.989 69.8562 597.989C72.8872 597.989 75.3452 600.447 75.3452 603.478Z" fill="black"/>
<path fill-rule="evenodd" clip-rule="evenodd" d="M94.189 603.478C94.189 606.51 91.731 608.967 88.7 608.967C85.668 608.967 83.21 606.51 83.21 603.478C83.21 600.447 85.668 597.989 88.7 597.989C91.731 597.989 94.189 600.447 94.189 603.478Z" fill="black"/>
<path fill-rule="evenodd" clip-rule="evenodd" d="M113.033 603.478C113.033 606.51 110.575 608.967 107.544 608.967C104.512 608.967 102.054 606.51 102.054 603.478C102.054 600.447 104.512 597.989 107.544 597.989C110.575 597.989 113.033 600.447 113.033 603.478Z" fill="black"/>
<path d="M58.0429 577.789C58.4352 577.58 58.8974 577.556 59.3053 577.719L59.4554 577.789L66.2426 581.412L73.0265 577.789C73.419 577.58 73.8814 577.556 74.2895 577.719L74.4397 577.789L81.2236 581.411L88.0054 577.789C88.398 577.58 88.8606 577.556 89.2688 577.719L89.419 577.789L96.1986 581.411L102.979 577.789C103.372 577.58 103.835 577.556 104.243 577.719L104.393 577.789L111.172 581.411L117.949 577.789C118.342 577.58 118.804 577.556 119.213 577.719L119.363 577.789L126.851 581.789C127.582 582.18 127.858 583.088 127.467 583.819C127.1 584.507 126.273 584.792 125.568 584.497L125.437 584.435L118.656 580.813L111.879 584.435C111.487 584.645 111.024 584.668 110.616 584.505L110.465 584.435L103.686 580.813L96.906 584.435C96.5134 584.645 96.0508 584.668 95.6426 584.505L95.4923 584.435L88.7116 580.813L81.9309 584.435C81.5384 584.645 81.076 584.668 80.6679 584.505L80.5176 584.435L73.7336 580.812L66.9509 584.435C66.5585 584.645 66.0961 584.668 65.6881 584.505L65.5379 584.436L58.7486 580.812L51.9615 584.436C51.2737 584.803 50.4283 584.58 50.006 583.943L49.9319 583.819C49.5647 583.131 49.7878 582.285 50.4246 581.863L50.5489 581.789L58.0429 577.789Z" fill="black"/>
<path d="M62.7467 488.872C63.193 488.588 63.7517 488.562 64.2184 488.794L64.3555 488.872L69.8465 492.36L75.3332 488.872C75.7799 488.588 76.3392 488.562 76.8062 488.795L76.9434 488.872L82.4235 492.36L87.9091 488.872C88.3558 488.588 88.9151 488.562 89.3821 488.795L89.5193 488.872L95.0005 492.36L100.485 488.872C100.932 488.588 101.491 488.562 101.958 488.795L102.095 488.872L107.576 492.36L113.057 488.872C113.503 488.588 114.063 488.562 114.531 488.795L114.668 488.872L120.95 492.872C121.649 493.317 121.854 494.245 121.409 494.943C120.991 495.601 120.145 495.822 119.464 495.475L119.338 495.403L113.86 491.916L108.382 495.403C107.936 495.687 107.376 495.713 106.909 495.481L106.772 495.403L101.289 491.915L95.8061 495.403C95.3595 495.687 94.8001 495.713 94.333 495.481L94.1959 495.403L88.7135 491.915L83.229 495.403C82.7824 495.687 82.223 495.713 81.7559 495.481L81.6188 495.403L76.1375 491.915L70.6519 495.404C70.2056 495.687 69.6467 495.713 69.1798 495.481L69.0427 495.404L63.5505 491.914L58.0594 495.404C57.4013 495.822 56.5415 495.663 56.0722 495.06L55.989 494.942C55.5709 494.284 55.7294 493.424 56.3324 492.955L56.4507 492.872L62.7467 488.872Z" fill="black"/>
</svg>
