<svg width="692" height="676" viewBox="0 0 692 676" fill="none" xmlns="http://www.w3.org/2000/svg">
<path fill-rule="evenodd" clip-rule="evenodd" d="M307.451 88.9594L304.75 90.2885C260.57 112.143 212.754 141.147 185.067 188.633C157.33 236.227 149.721 302.303 145.319 363.025L145.053 366.736C140.636 428.574 139.198 484.33 155.218 520.614C171.18 556.871 204.599 573.656 245.578 573.155C286.556 572.654 335.145 554.758 376.649 510.748C418.211 466.765 452.688 396.667 478.16 325.305C503.632 253.942 520.105 181.452 511.204 133.28C502.192 85.19 467.814 61.5554 430.331 57.0164C392.907 52.5049 352.32 67.0617 307.451 88.9594Z" fill="#F4EDFF" fill-opacity="0.5"/>
<path fill-rule="evenodd" clip-rule="evenodd" d="M320.111 131.228C321.435 130.84 322.869 130.708 324.354 130.889C328.821 131.431 332.539 134.923 333.315 139.356C333.945 142.953 332.73 146.292 330.46 148.584C329.52 149.533 329.272 150.964 329.882 152.152C333.042 158.316 337.864 166.226 342.88 177.622C357.529 210.901 367.433 246.589 407.875 255.874C442.93 263.923 466.143 230.434 449.746 199.424C435.778 173.009 405.91 166.884 387.106 145.909C369.975 126.798 367.517 97.331 342.955 83.976C335.866 80.122 327.573 78.77 319.793 80.912C301.528 85.939 298.908 105.391 307.473 119.584C310.643 124.837 314.124 128.408 316.809 130.535C317.739 131.271 318.971 131.562 320.111 131.228Z" fill="black"/>
<path d="M307.07 102.425C306.409 101.925 305.469 102.056 304.969 102.717L303.553 104.571L300.712 108.248C297.023 113.053 295.148 115.725 293.209 119.084C290.05 124.551 287.616 130.617 285.905 137.121C285.595 138.298 285.309 139.496 285.044 140.719C283.231 149.085 283.42 154.615 287.434 158.445C290.774 161.634 297.034 164.046 305.45 165.9C309.775 166.853 314.399 167.594 319.021 168.15L320.378 168.307C321.262 168.407 322.106 168.494 322.901 168.57L324.52 168.715L325.199 168.769C326.025 168.827 326.742 168.204 326.8 167.377C326.858 166.551 326.235 165.834 325.409 165.776L324.535 165.706C324.297 165.686 324.039 165.663 323.762 165.638L322.593 165.526C321.589 165.425 320.513 165.307 319.379 165.171C314.847 164.626 310.315 163.9 306.096 162.97L305.03 162.73C297.661 161.022 292.201 158.848 289.505 156.275C286.54 153.445 286.378 148.726 287.976 141.354C288.232 140.174 288.508 139.018 288.806 137.884C290.451 131.63 292.786 125.813 295.807 120.584L296.125 120.038C297.933 116.97 299.805 114.344 303.423 109.644L306.11 106.167C306.458 105.714 306.764 105.314 307.064 104.92L307.362 104.526C307.862 103.865 307.731 102.924 307.07 102.425Z" fill="black"/>
<path d="M311.036 164.929C310.885 164.114 310.103 163.576 309.288 163.726C308.522 163.868 308 164.57 308.067 165.331L308.086 165.474L313.132 192.758C313.283 193.573 314.065 194.111 314.88 193.96C315.647 193.819 316.169 193.117 316.102 192.356L316.082 192.213L311.036 164.929Z" fill="black"/>
<path d="M209.206 87.6434C208.707 87.0159 207.812 86.8967 207.17 87.3476L207.053 87.4388L191.846 100.514C191.301 100.982 191.17 101.764 191.513 102.38L191.593 102.509L238.2 169.384C238.264 169.475 238.337 169.558 238.418 169.632L238.546 169.737L304.528 217.956C305.197 218.445 306.135 218.299 306.624 217.63C307.084 217.001 306.982 216.132 306.411 215.625L306.298 215.534L240.52 167.464L194.83 101.904L207.827 90.7291L251.284 145.46C251.416 145.626 251.581 145.761 251.768 145.858L251.912 145.924L296.703 163.477C297.474 163.779 298.344 163.399 298.647 162.628C298.931 161.902 298.611 161.088 297.929 160.743L297.797 160.684L253.382 143.277L209.206 87.6434Z" fill="black"/>
<path d="M194.229 55.255C193.864 54.278 192.65 53.9738 191.869 54.6223L191.765 54.7167L189.167 57.3029C187.009 59.4518 186.136 62.567 186.847 65.5123L186.924 65.8063L188.83 72.6488L187.593 73.7613C183.006 77.8847 182.204 84.756 185.672 89.817L185.859 90.0817L193.622 100.801C194.108 101.472 195.045 101.622 195.716 101.136C196.348 100.678 196.518 99.8207 196.131 99.162L196.051 99.041L188.289 88.3221C185.564 84.5596 186.051 79.3786 189.387 76.1886L189.599 75.9918L191.527 74.2568C191.915 73.9076 192.091 73.3846 192 72.8772L191.969 72.7394L189.813 65.0011C189.283 63.0982 189.778 61.0613 191.106 59.6143L191.284 59.4289L192.233 58.4848L204.386 91.0276C204.659 91.758 205.441 92.1502 206.179 91.9521L206.316 91.908C207.047 91.6352 207.439 90.8538 207.241 90.1158L207.197 89.978L194.229 55.255Z" fill="black"/>
<path d="M341.664 187.337C336.334 185.872 332.359 185.411 327.221 186.356L326.703 186.461C326.083 186.593 325.4 186.765 324.575 187.01C322.972 187.487 321.317 188.112 319.66 188.913C315.231 191.051 311.445 194.093 308.725 198.209L308.437 198.655C308.305 198.865 308.088 199.237 307.815 199.752C307.366 200.598 306.919 201.546 306.502 202.579C305.797 204.322 305.25 206.129 304.92 207.961L304.831 208.487C303.528 216.755 304.965 234.414 308.322 258.383C309.384 265.968 310.583 273.761 311.846 281.461L312.392 284.755C312.656 286.34 312.916 287.873 313.168 289.346L314.052 294.432L314.347 296.094L228.426 304.481C227.762 304.545 227.22 305.041 227.098 305.697C226.098 311.031 226.198 316.808 228.339 323.073C230.629 329.733 234.387 334.549 238.757 338.207C238.983 338.396 239.26 338.514 239.553 338.547L248.838 339.594C262.448 341.141 276.113 342.745 291.022 344.569L325.527 348.865C332.469 349.714 336.951 350.214 340.525 350.524L342.114 350.654C349.899 351.249 353.598 350.845 357.326 349.087L357.641 348.936C367.152 344.247 371.945 333.763 373.366 317.303L373.476 315.949C374.337 304.613 373.894 294.318 371.863 269.521L370.63 254.598C370.454 252.4 370.305 250.459 370.162 248.51L370.071 247.253C369.568 240.255 369.231 234.152 369.051 228.406C369.025 227.578 368.333 226.927 367.505 226.953C366.677 226.979 366.027 227.671 366.053 228.499L366.119 230.444C366.299 235.34 366.59 240.522 366.996 246.303L367.232 249.567C367.45 252.505 367.689 255.506 368.017 259.469L368.926 270.413C370.897 294.56 371.321 304.694 370.484 315.721L370.427 316.457C369.147 332.323 364.771 342.076 356.318 346.244L356.047 346.374C352.871 347.871 349.632 348.224 342.305 347.66L340.782 347.535C338.205 347.311 335.137 346.986 330.981 346.498L295.486 342.095L287.347 341.099C273.314 339.394 260.317 337.875 247.32 336.403L240.342 335.616L240.311 335.59C236.607 332.4 233.412 328.259 231.377 322.665L231.177 322.1C229.42 316.961 229.171 312.175 229.804 307.722L229.859 307.354L316.258 298.922C317.131 298.837 317.745 298.024 317.588 297.16L317.047 294.142L316.423 290.572C316.079 288.585 315.72 286.475 315.351 284.261C313.891 275.522 312.503 266.607 311.293 257.967L310.877 254.955C307.802 232.376 306.558 215.754 307.872 208.494C308.163 206.878 308.652 205.265 309.283 203.703C309.597 202.926 309.929 202.203 310.264 201.545L310.465 201.158C310.702 200.711 310.882 200.402 310.976 200.253C313.385 196.431 316.85 193.6 320.964 191.614C322.469 190.888 323.974 190.318 325.43 189.886C326.385 189.602 327.116 189.431 327.774 189.305C332.367 188.46 335.936 188.874 340.874 190.231C343.379 190.91 345.822 191.845 348.181 193.005C348.925 193.37 349.824 193.064 350.189 192.32C350.554 191.577 350.248 190.678 349.504 190.312C346.976 189.07 344.355 188.066 341.664 187.337Z" fill="black"/>
<path d="M200.224 294.395C199.455 293.668 198.21 293.95 197.812 294.901L197.765 295.029L196.234 299.822C194.828 304.231 195.98 309.046 199.204 312.338L199.438 312.57L203.62 316.622C204.972 317.933 206.044 319.5 206.773 321.23L206.935 321.633C209.066 327.161 214.108 331.02 219.979 331.647L220.224 331.669L235.774 334.961C236.537 335.122 237.287 334.673 237.516 333.944L237.552 333.804C237.714 333.041 237.264 332.291 236.535 332.062L236.395 332.026L220.762 328.718L220.578 328.69C215.813 328.287 211.681 325.258 209.855 320.856L209.734 320.554C208.906 318.402 207.646 316.442 206.034 314.793L205.707 314.468L201.525 310.416C199.018 307.987 198.056 304.382 199 301.038L199.092 300.735L199.897 298.213L209.199 307.01C209.381 307.182 209.603 307.305 209.843 307.37L209.99 307.401L227.773 310.28C228.591 310.412 229.361 309.857 229.493 309.039C229.618 308.269 229.133 307.542 228.394 307.348L228.252 307.318L210.927 304.513L200.224 294.395Z" fill="black"/>
<path d="M438.358 251.768C438.069 250.991 437.205 250.597 436.429 250.886C435.698 251.158 435.305 251.939 435.503 252.677L435.547 252.815L476.366 362.381C480.144 372.52 474.724 383.785 464.463 387.077C443.814 393.7 421.977 397.191 400.467 395.707C372.571 393.782 347.84 383.575 327.613 363.343L326.805 362.524L326.805 347.329C326.805 346.55 326.21 345.909 325.449 345.836L325.305 345.829C324.525 345.829 323.884 346.424 323.811 347.185L323.805 347.329V363.136C323.805 363.527 323.957 363.901 324.228 364.181C345.224 385.806 371.093 396.687 400.261 398.7C422.195 400.213 444.396 396.664 465.38 389.934C477.156 386.156 483.425 373.332 479.305 361.686L479.177 361.334L438.358 251.768Z" fill="black"/>
<path d="M472.866 384.637C472.652 383.836 471.83 383.361 471.029 383.575C470.229 383.788 469.753 384.611 469.967 385.411C473.561 398.862 473.494 412.624 468.068 425.697C461.594 441.309 449.057 451.973 432.59 458.582C426.634 460.973 420.522 462.675 414.532 463.802C412.325 464.217 410.252 464.53 408.35 464.755L407.242 464.879C406.432 464.963 405.745 465.02 405.19 465.056C395.979 465.645 388.458 464.518 375.24 460.895C347.479 453.284 318.551 441.811 287.503 424.485C286.495 423.922 285.255 424.662 285.273 425.817L285.537 442.039C285.79 456.25 286.104 470.772 286.58 490.548L288.272 558.793C288.801 580.712 289.135 596.196 289.402 611.677L289.607 624.333L264.649 637.74L264.419 636.294C261.612 618.693 258.791 602.155 255.61 584.433L252.919 569.655C250.1 554.319 246.015 532.294 245.812 531.187L244.577 524.421C241.459 507.244 239.037 493.139 236.683 478.231C236.554 477.413 235.786 476.854 234.967 476.983C234.149 477.112 233.591 477.88 233.72 478.699L234.265 482.132C236.637 496.964 239.125 511.287 242.358 528.979L251.952 581.053L252.016 581.406C255.675 601.66 258.84 620.201 262.017 640.297C262.178 641.318 263.299 641.873 264.209 641.384L291.829 626.545C292.283 626.301 292.577 625.845 292.616 625.34L292.62 625.201L292.356 608.973C292.046 591.538 291.643 573.637 290.963 546.13L289.409 483.328C288.958 464.188 288.665 449.991 288.422 435.3L288.312 428.362L288.922 428.699C318.625 444.999 346.427 455.999 373.155 463.432L374.447 463.788L375.925 464.189C388.539 467.575 396.136 468.641 405.381 468.05L406.05 468.002C408.36 467.824 411.437 467.436 415.087 466.75C421.258 465.59 427.557 463.835 433.707 461.367C450.864 454.48 464.02 443.289 470.839 426.847C476.547 413.095 476.617 398.677 472.866 384.637Z" fill="black"/>
<path d="M253.273 337.151C252.56 336.835 251.733 337.118 251.358 337.784L251.293 337.913L165.097 532.023C164.792 532.711 165.045 533.51 165.671 533.902L165.792 533.971L192.148 547.272C192.796 547.599 193.578 547.413 194.012 546.849L194.095 546.731L305.479 369.394L325.779 362.601C326.519 362.354 326.938 361.586 326.765 360.842L326.726 360.703C326.478 359.963 325.711 359.545 324.966 359.717L324.827 359.756L304.018 366.719C303.736 366.814 303.49 366.989 303.309 367.223L303.224 367.344L192.281 543.978L168.419 531.935L254.035 339.131C254.352 338.418 254.068 337.591 253.402 337.216L253.273 337.151Z" fill="black"/>
<path d="M211.467 261.459C211.117 260.945 210.492 260.705 209.896 260.84L209.759 260.878L184.322 269.234C183.435 269.525 183.037 270.539 183.457 271.348L183.527 271.468L201.712 299.87C202.158 300.567 203.086 300.771 203.784 300.324C204.44 299.904 204.659 299.057 204.31 298.377L204.238 298.252L187.098 271.479L209.623 264.079L237.924 305.645C238.363 306.29 239.215 306.484 239.885 306.116L240.008 306.041C240.653 305.602 240.847 304.75 240.479 304.08L240.404 303.957L211.467 261.459Z" fill="black"/>
<path fill-rule="evenodd" clip-rule="evenodd" d="M291.12 623.445L292.278 648.351L237.689 674.358L237.224 670.511C236.186 661.936 240.115 653.516 247.352 648.802L263.498 638.285L291.12 623.445Z" fill="black"/>
<path d="M292.619 623.375L293.777 648.282C293.805 648.885 293.468 649.446 292.923 649.705L238.334 675.712C237.409 676.153 236.323 675.556 236.2 674.538L235.735 670.691C234.628 661.549 238.817 652.572 246.534 647.545L262.68 637.028L262.788 636.964L290.41 622.124C291.383 621.601 292.567 622.273 292.619 623.375ZM289.733 625.893L264.265 639.576L248.171 650.059L247.836 650.282C241.292 654.723 237.76 662.458 238.713 670.331L238.929 672.106L290.734 647.425L289.733 625.893Z" fill="black"/>
<path fill-rule="evenodd" clip-rule="evenodd" d="M193.399 546.403L183.377 561.831L127.868 535.226C132.858 527.325 142.706 524.007 151.46 527.278L167.044 533.102L193.399 546.403Z" fill="black"/>
<path d="M167.569 531.697L167.72 531.763L194.075 545.064C194.872 545.466 195.143 546.471 194.657 547.22L184.635 562.648C184.224 563.28 183.408 563.509 182.729 563.184L127.22 536.579C126.41 536.191 126.121 535.184 126.6 534.425C131.969 525.923 142.566 522.353 151.985 525.873L167.569 531.697ZM130.109 534.636L182.838 559.909L191.231 546.988L166.442 534.478L150.935 528.683C143.433 525.88 135.061 528.314 130.207 534.507L130.109 534.636Z" fill="black"/>
<path d="M243.311 362.481C243.119 361.725 242.384 361.252 241.629 361.369L241.487 361.399L230.314 364.25C216.126 367.871 207.298 381.97 210.177 396.274L210.267 396.707L215.279 419.723C215.456 420.533 216.255 421.046 217.064 420.87C217.826 420.704 218.326 419.986 218.235 419.227L218.211 419.085L213.199 396.069C210.424 383.325 218.133 370.67 230.675 367.258L231.056 367.157L242.229 364.305C243.032 364.1 243.516 363.284 243.311 362.481Z" fill="black"/>
<path d="M438.83 327.533C438.007 327.439 437.263 328.03 437.169 328.853C436.426 335.341 434.226 341.852 429.529 347.963C425.346 353.405 420.02 357.262 413.998 359.809C409.999 361.501 406.473 362.349 403.223 362.776C402.402 362.884 401.824 363.638 401.932 364.459C402.04 365.281 402.793 365.859 403.615 365.751C407.11 365.291 410.887 364.383 415.167 362.572C421.641 359.834 427.387 355.672 431.907 349.792C436.981 343.191 439.35 336.179 440.149 329.194C440.244 328.371 439.653 327.628 438.83 327.533Z" fill="black"/>
<path d="M423.689 293.916C423.439 293.126 422.597 292.688 421.807 292.937C421.017 293.186 420.578 294.029 420.827 294.819C422.791 301.046 423.433 307.889 421.631 315.384C420.026 322.057 416.732 327.748 412.27 332.527C409.306 335.701 406.431 337.911 403.637 339.625C402.931 340.058 402.709 340.982 403.142 341.688C403.576 342.394 404.499 342.615 405.205 342.182C408.211 340.338 411.291 337.971 414.463 334.575C419.26 329.437 422.814 323.296 424.547 316.085C426.494 307.991 425.803 300.62 423.689 293.916Z" fill="black"/>
<path fill-rule="evenodd" clip-rule="evenodd" d="M505.155 497.341H315.46V465.771H505.155V497.341Z" fill="black"/>
<path d="M659.667 290.244L647.606 285.315C648.669 282.147 649.577 278.921 650.331 275.639C651.082 272.356 651.63 269.028 651.974 265.655L658.361 269.925C658.796 270.24 659.124 270.601 659.345 271.007C659.566 271.414 659.675 271.865 659.672 272.363L659.667 290.244ZM642.702 284.75H623.202C621.74 280.814 620.561 276.51 619.668 271.836C618.774 267.163 618.327 262.296 618.327 257.235C618.327 249.877 619.448 243.103 621.691 236.912C623.933 230.72 627.687 224.74 632.952 218.972C638.217 224.747 641.971 230.728 644.213 236.916C646.456 243.104 647.577 249.879 647.577 257.24C647.577 262.304 647.13 267.171 646.236 271.841C645.343 276.511 644.165 280.814 642.702 284.75ZM632.952 257.937C635.009 257.937 636.742 257.232 638.149 255.822C639.559 254.414 640.265 252.682 640.265 250.625C640.265 248.568 639.559 246.835 638.149 245.428C636.738 244.021 635.006 243.316 632.952 243.312C630.898 243.309 629.166 244.014 627.755 245.428C626.345 246.835 625.64 248.568 625.64 250.625C625.64 252.682 626.345 254.414 627.755 255.822C629.166 257.229 630.898 257.934 632.952 257.937ZM606.237 290.244V272.46C606.237 271.96 606.344 271.492 606.559 271.056C606.78 270.617 607.11 270.24 607.548 269.925L613.93 265.655C614.274 269.028 614.902 272.684 615.812 276.623C616.722 280.562 617.55 283.491 618.298 285.408L606.237 290.244ZM632.952 212.537C626.221 218.51 621.289 225.241 618.156 232.729C615.02 240.217 613.452 248.558 613.452 257.752C613.452 258.126 613.436 258.516 613.403 258.922C613.371 259.328 613.387 259.751 613.452 260.19L604.994 265.889C603.863 266.594 602.974 267.536 602.327 268.716C601.681 269.896 601.357 271.144 601.357 272.46V297.405L620.735 289.625H645.261L664.547 297.405V272.367C664.547 271.054 664.238 269.806 663.621 268.623C663.006 267.444 662.134 266.501 661.003 265.796L652.452 260.092V257.752C652.452 248.555 650.884 240.214 647.748 232.729C644.615 225.241 639.683 218.51 632.952 212.537Z" fill="black"/>
<path fill-rule="evenodd" clip-rule="evenodd" d="M571.083 263.721C571.083 267.612 574.237 270.766 578.128 270.766C582.019 270.766 585.173 267.612 585.173 263.721C585.173 259.83 582.019 256.676 578.128 256.676C574.237 256.676 571.083 259.83 571.083 263.721Z" fill="white"/>
<path fill-rule="evenodd" clip-rule="evenodd" d="M548.825 263.721C548.825 267.612 551.978 270.766 555.87 270.766C559.761 270.766 562.914 267.612 562.914 263.721C562.914 259.83 559.761 256.676 555.87 256.676C551.978 256.676 548.825 259.83 548.825 263.721Z" fill="white"/>
<path fill-rule="evenodd" clip-rule="evenodd" d="M526.566 263.721C526.566 267.612 529.72 270.766 533.611 270.766C537.502 270.766 540.656 267.612 540.656 263.721C540.656 259.83 537.502 256.676 533.611 256.676C529.72 256.676 526.566 259.83 526.566 263.721Z" fill="white"/>
<path d="M65.9209 98.4375H84.6709C85.9653 98.4375 87.0146 99.4868 87.0146 100.781V119.531C87.0146 120.826 85.9653 121.875 84.6709 121.875H65.9209C64.6265 121.875 63.5771 120.826 63.5771 119.531V100.781C63.5771 99.4868 64.6265 98.4375 65.9209 98.4375Z" fill="black"/>
<path d="M89.3584 79.6875H103.421C104.715 79.6875 105.765 80.7368 105.765 82.0312V96.0938C105.765 97.3882 104.715 98.4375 103.421 98.4375H89.3584C88.064 98.4375 87.0146 97.3882 87.0146 96.0938V82.0312C87.0146 80.7368 88.064 79.6875 89.3584 79.6875Z" fill="black"/>
<path d="M47.1709 121.875H61.2334C62.5278 121.875 63.5771 122.924 63.5771 124.219V138.281C63.5771 139.576 62.5278 140.625 61.2334 140.625H47.1709C45.8765 140.625 44.8271 139.576 44.8271 138.281V124.219C44.8271 122.924 45.8765 121.875 47.1709 121.875Z" fill="black"/>
<path d="M47.1709 79.6875H56.5459C57.8403 79.6875 58.8896 80.7368 58.8896 82.0312V91.4062C58.8896 92.7007 57.8403 93.75 56.5459 93.75H47.1709C45.8765 93.75 44.8271 92.7007 44.8271 91.4062V82.0312C44.8271 80.7368 45.8765 79.6875 47.1709 79.6875Z" fill="black"/>
<path d="M94.0459 126.562H103.421C104.715 126.562 105.765 127.612 105.765 128.906V138.281C105.765 139.576 104.715 140.625 103.421 140.625H94.0459C92.7515 140.625 91.7021 139.576 91.7021 138.281V128.906C91.7021 127.612 92.7515 126.562 94.0459 126.562Z" fill="black"/>
<path d="M65.9209 28.125H84.6709C85.9653 28.125 87.0146 29.1743 87.0146 30.4688V49.2188C87.0146 50.5132 85.9653 51.5625 84.6709 51.5625H65.9209C64.6265 51.5625 63.5771 50.5132 63.5771 49.2188V30.4688C63.5771 29.1743 64.6265 28.125 65.9209 28.125Z" fill="black"/>
<path d="M54.2021 14.0625H96.3896C98.9785 14.0625 101.077 16.1612 101.077 18.75V60.9375C101.077 63.5263 98.9785 65.625 96.3896 65.625H54.2021C51.6133 65.625 49.5146 63.5263 49.5146 60.9375V18.75C49.5146 16.1612 51.6133 14.0625 54.2021 14.0625Z" stroke="black" stroke-width="3.125" stroke-linecap="round" stroke-linejoin="round"/>
<path d="M136.233 28.125H154.983C156.278 28.125 157.327 29.1743 157.327 30.4688V49.2188C157.327 50.5132 156.278 51.5625 154.983 51.5625H136.233C134.939 51.5625 133.89 50.5132 133.89 49.2188V30.4688C133.89 29.1743 134.939 28.125 136.233 28.125Z" fill="black"/>
<path d="M124.515 14.0625H166.702C169.291 14.0625 171.39 16.1612 171.39 18.75V60.9375C171.39 63.5263 169.291 65.625 166.702 65.625H124.515C121.926 65.625 119.827 63.5263 119.827 60.9375V18.75C119.827 16.1612 121.926 14.0625 124.515 14.0625Z" stroke="black" stroke-width="3.125" stroke-linecap="round" stroke-linejoin="round"/>
<path d="M136.233 98.4375H154.983C156.278 98.4375 157.327 99.4868 157.327 100.781V119.531C157.327 120.826 156.278 121.875 154.983 121.875H136.233C134.939 121.875 133.89 120.826 133.89 119.531V100.781C133.89 99.4868 134.939 98.4375 136.233 98.4375Z" fill="black"/>
<path d="M124.515 84.375H166.702C169.291 84.375 171.39 86.4737 171.39 89.0625V131.25C171.39 133.839 169.291 135.938 166.702 135.938H124.515C121.926 135.938 119.827 133.839 119.827 131.25V89.0625C119.827 86.4737 121.926 84.375 124.515 84.375Z" stroke="black" stroke-width="3.125" stroke-linecap="round" stroke-linejoin="round"/>
<path fill-rule="evenodd" clip-rule="evenodd" d="M179.322 230.767C179.322 240.61 187.301 248.589 197.144 248.589C206.987 248.589 214.967 240.61 214.967 230.767C214.967 220.924 206.987 212.945 197.144 212.945C187.301 212.945 179.322 220.924 179.322 230.767Z" fill="black"/>
<path fill-rule="evenodd" clip-rule="evenodd" d="M186.616 226.962C186.616 230.675 189.627 233.686 193.34 233.686C197.053 233.686 200.062 230.675 200.062 226.962C200.062 223.249 197.053 220.238 193.34 220.238C189.627 220.238 186.616 223.249 186.616 226.962Z" fill="white"/>
<path fill-rule="evenodd" clip-rule="evenodd" d="M60.8387 408.93L90.5078 438.599L120.177 408.93L90.5078 379.26L60.8387 408.93Z" fill="black"/>
<path d="M91.5684 378.199L121.237 407.869C121.823 408.455 121.823 409.405 121.237 409.99L91.5684 439.659C90.9826 440.245 90.0329 440.245 89.4471 439.659L59.7781 409.99C59.1923 409.405 59.1923 408.455 59.7781 407.869L89.4471 378.199C90.0329 377.613 90.9826 377.613 91.5684 378.199ZM90.508 381.381L62.96 408.929L90.508 436.478L118.057 408.929L90.508 381.381Z" fill="black"/>
<path fill-rule="evenodd" clip-rule="evenodd" d="M31.1688 408.93L60.8388 438.599L90.5078 408.93L60.8388 379.26L31.1688 408.93Z" fill="white"/>
<path d="M61.8995 378.199L91.5685 407.869C92.1543 408.455 92.1543 409.405 91.5685 409.99L61.8995 439.659C61.3137 440.245 60.3639 440.245 59.7781 439.659L30.1082 409.99C29.5224 409.405 29.5224 408.455 30.1082 407.869L59.7781 378.199C60.3639 377.613 61.3137 377.613 61.8995 378.199ZM60.8389 381.381L33.2909 408.929L60.8389 436.478L88.3879 408.929L60.8389 381.381Z" fill="black"/>
<path fill-rule="evenodd" clip-rule="evenodd" d="M1.49982 408.93L31.1688 438.599L60.8389 408.93L31.1688 379.26L1.49982 408.93Z" fill="white"/>
<path d="M32.2295 378.199L61.8995 407.869C62.4853 408.455 62.4853 409.405 61.8995 409.99L32.2295 439.659C31.6437 440.245 30.694 440.245 30.1082 439.659L0.439251 409.99C-0.146529 409.405 -0.14658 408.455 0.43919 407.869L30.1082 378.199C30.694 377.613 31.6437 377.613 32.2295 378.199ZM31.1699 381.381L3.62089 408.929L31.1699 436.478L58.7179 408.929L31.1699 381.381Z" fill="black"/>
<path fill-rule="evenodd" clip-rule="evenodd" d="M172.67 271.024C172.67 277.15 177.636 282.116 183.762 282.116C189.888 282.116 194.854 277.15 194.854 271.024C194.854 264.898 189.888 259.932 183.762 259.932C177.636 259.932 172.67 264.898 172.67 271.024Z" fill="black"/>
<path fill-rule="evenodd" clip-rule="evenodd" d="M176.322 268.92C176.322 270.576 177.665 271.919 179.321 271.919C180.978 271.919 182.321 270.576 182.321 268.92C182.321 267.263 180.978 265.92 179.321 265.92C177.665 265.92 176.322 267.263 176.322 268.92Z" fill="white"/>
<path fill-rule="evenodd" clip-rule="evenodd" d="M224.979 249.993C224.979 253.91 228.154 257.086 232.072 257.086C235.989 257.086 239.164 253.91 239.164 249.993C239.164 246.076 235.989 242.9 232.072 242.9C228.154 242.9 224.979 246.076 224.979 249.993Z" fill="black"/>
<path fill-rule="evenodd" clip-rule="evenodd" d="M233.083 248.219C233.083 249.199 233.878 249.993 234.858 249.993C235.838 249.993 236.633 249.199 236.633 248.219C236.633 247.239 235.838 246.445 234.858 246.445C233.878 246.445 233.083 247.239 233.083 248.219Z" fill="white"/>
<path d="M647.885 325.997C647.307 325.403 646.358 325.39 645.764 325.968C645.17 326.546 645.157 327.495 645.735 328.089C669.84 352.863 682.498 387.984 677.692 420.014C675.152 436.934 666.947 452.547 655.249 464.305L655.156 464.397L655.127 464.186C653.828 455.272 651.188 446.607 647.106 438.415L646.54 437.301C636.238 417.378 618.697 402.101 598.57 396.377C587.271 393.165 574.452 393.765 564.169 398.17C552.664 403.098 545.222 412.269 543.822 424.722C541.75 443.154 549.817 460.603 564.916 473.012C579.358 484.881 598.534 490.627 616.084 487.97C629.483 485.941 641.898 479.909 652.232 471.168L652.82 470.664L652.901 471.846C654.638 499.74 643.473 529.571 622.544 554.26L621.641 555.315C590.656 591.168 540.863 608.128 490.806 601.654C451.865 596.618 414.913 576.672 388.136 546.657C387.585 546.039 386.637 545.985 386.018 546.537C385.4 547.088 385.346 548.036 385.898 548.655C413.148 579.2 450.754 599.499 490.422 604.63C541.439 611.228 592.238 593.925 623.911 557.277C646.564 531.064 658.409 498.925 655.704 469.072L655.613 468.139L655.918 467.852C668.599 455.723 677.582 439.332 680.5 421.472L680.658 420.46C685.61 387.462 672.619 351.418 647.885 325.997ZM565.35 400.928C574.983 396.801 587.096 396.234 597.75 399.263C617.045 404.75 633.939 419.464 643.876 438.679C648.321 447.276 651.097 456.445 652.33 465.901L652.462 466.972L651.78 467.588C641.805 476.466 629.688 482.67 616.573 484.855L615.634 485.004C598.951 487.529 580.624 482.038 566.82 470.694C552.469 458.9 544.851 442.422 546.804 425.057C548.077 413.728 554.796 405.448 565.35 400.928Z" fill="black"/>
<path d="M212.287 274.091C212.034 273.354 211.263 272.941 210.52 273.12L210.381 273.16L198.892 277.11C198.109 277.379 197.692 278.233 197.961 279.016C198.215 279.754 198.986 280.166 199.729 279.988L199.867 279.947L211.356 275.997C212.14 275.728 212.557 274.874 212.287 274.091Z" fill="black"/>
<path d="M218.032 282.058C217.779 281.32 217.008 280.908 216.265 281.086L216.126 281.127L204.637 285.078C203.854 285.347 203.437 286.201 203.706 286.984C203.96 287.721 204.731 288.134 205.474 287.955L205.613 287.915L217.102 283.964C217.885 283.694 218.302 282.841 218.032 282.058Z" fill="black"/>
<path d="M52.402 546.445C50.6197 542.426 50.1547 537.946 51.0737 533.646C51.9927 529.346 54.2486 525.447 57.5183 522.508C60.788 519.568 64.9039 517.738 69.2769 517.28C73.6498 516.822 78.0556 517.76 81.8634 519.958C85.6712 522.156 88.6859 525.503 90.4758 529.519C92.2658 533.535 92.7392 538.015 91.8283 542.316C90.9174 546.618 88.669 550.521 85.4049 553.467C82.1407 556.412 78.0282 558.25 73.6562 558.716C71.2182 555.25 68.0543 552.356 64.3844 550.237C60.7145 548.118 56.627 546.824 52.4062 546.445M66.6478 587.779C64.8634 583.933 63.939 579.744 63.939 575.504C63.939 571.264 64.8634 567.075 66.6478 563.229C64.0581 559.675 60.4105 557.033 56.2272 555.679C52.044 554.325 47.5397 554.329 43.359 555.691C39.1783 557.053 35.5357 559.702 32.9526 563.26C30.3695 566.818 28.9784 571.103 28.9784 575.5C28.9784 579.896 30.3695 584.181 32.9526 587.739C35.5357 591.297 39.1783 593.947 43.359 595.308C47.5397 596.67 52.044 596.674 56.2272 595.32C60.4105 593.966 64.0581 591.324 66.6478 587.77M95.3145 554.77C92.877 558.237 89.7132 561.132 86.0433 563.252C82.3734 565.371 78.2856 566.666 74.0645 567.045C72.2829 571.065 71.8188 575.546 72.7387 579.845C73.6585 584.145 75.9152 588.043 79.1856 590.982C82.456 593.921 86.5724 595.75 90.9455 596.207C95.3187 596.664 99.7243 595.726 103.532 593.527C107.339 591.327 110.353 587.98 112.142 583.963C113.931 579.947 114.403 575.467 113.491 571.166C112.579 566.864 110.33 562.962 107.065 560.017C103.8 557.072 99.6868 555.235 95.3145 554.77Z" fill="black"/>
<path d="M70.806 265.365L67.2439 278.02C67.1048 278.542 66.8059 279.007 66.389 279.35C65.9721 279.694 65.4583 279.898 64.9195 279.934C64.3807 279.97 63.8441 279.837 63.385 279.553C62.9259 279.268 62.5673 278.848 62.3595 278.349L58.0212 267.289L46.0061 267.384C45.5092 267.413 45.0158 267.287 44.5932 267.024C44.1706 266.761 43.8394 266.374 43.6447 265.917C43.4501 265.459 43.4015 264.952 43.5057 264.465C43.6098 263.979 43.8616 263.536 44.2267 263.198L51.2029 256.219L47.0619 244.909C46.9211 244.452 46.9076 243.965 47.0229 243.501C47.1382 243.037 47.3778 242.613 47.7161 242.274C48.0543 241.936 48.4784 241.696 48.9426 241.581C49.4069 241.466 49.8938 241.479 50.351 241.62L61.6688 245.754L68.6483 238.779C68.9866 238.412 69.4302 238.159 69.9181 238.054C70.406 237.949 70.9144 237.998 71.3735 238.194C71.8326 238.389 72.2199 238.722 72.4822 239.147C72.7445 239.571 72.869 240.066 72.8386 240.564L72.7433 252.578L83.8045 256.929C84.3042 257.136 84.7263 257.495 85.0115 257.955C85.2967 258.414 85.4305 258.951 85.3942 259.491C85.3579 260.031 85.1532 260.545 84.8091 260.962C84.4649 261.38 83.9985 261.678 83.4756 261.817L70.806 265.365ZM70.806 265.365L117.452 312" stroke="black" stroke-width="3.125" stroke-linecap="round" stroke-linejoin="round"/>
</svg>
