<svg width="3200" height="1956" viewBox="0 0 3200 1956" fill="none" xmlns="http://www.w3.org/2000/svg">
<path fill-rule="evenodd" clip-rule="evenodd" d="M2939.77 929.712C2939.77 928.052 2941.11 926.712 2942.77 926.712H3087.72L3087.9 926.722C3089.47 926.812 3090.72 928.112 3090.72 929.712L3090.71 929.892C3090.62 931.462 3089.32 932.712 3087.72 932.712H3029.05V992.172H3196.25L3196.43 992.182C3198 992.272 3199.25 993.572 3199.25 995.172C3199.25 996.832 3197.91 998.172 3196.25 998.172H3115.97V1057.64H3162.29H3162.47C3164.04 1057.73 3165.29 1059.04 3165.29 1060.64L3165.29 1060.81C3165.2 1062.39 3163.89 1063.64 3162.29 1063.64H3029.05V1123.09L3162.29 1123.1H3162.47C3164.04 1123.19 3165.29 1124.5 3165.29 1126.1C3165.29 1127.75 3163.95 1129.1 3162.29 1129.1L3115.97 1129.09L3115.97 1191.56L3115.96 1191.74C3115.87 1193.31 3114.56 1194.56 3112.97 1194.56H3026.05L3025.87 1194.55C3024.3 1194.46 3023.05 1193.16 3023.05 1191.56L3023.05 1191.38C3023.14 1189.81 3024.45 1188.56 3026.05 1188.56H3109.97V1129.1H2855.85L2855.67 1129.09C2854.09 1129 2852.85 1127.69 2852.85 1126.1L2852.85 1125.92C2852.94 1124.35 2854.25 1123.1 2855.85 1123.1H3023.05V1063.64H2855.85L2855.67 1063.63C2854.09 1063.54 2852.85 1062.23 2852.85 1060.64C2852.85 1058.98 2854.19 1057.64 2855.85 1057.64H2939.77V998.172H2855.85H2855.67C2854.09 998.082 2852.85 996.772 2852.85 995.172L2852.85 995.002C2852.94 993.422 2854.25 992.172 2855.85 992.172H3023.05V932.712H2942.77H2942.59C2941.01 932.612 2939.77 931.312 2939.77 929.712ZM3109.97 998.172H2945.76V1057.64H3109.97V998.172Z" fill="black" fill-opacity="0.08"/>
<path opacity="0.5" fill-rule="evenodd" clip-rule="evenodd" d="M2504.25 123.863H2869.93V641.239H2504.25V123.863ZM2869.93 683.955V1157.78H2504.25V683.955H2869.93ZM2462.09 1157.78H2096.41V683.955H2462.09V1157.78ZM2096.41 641.239V123.863H2462.09V641.239H2096.41Z" fill="#F0F1FF"/>
<path opacity="0.5" fill-rule="evenodd" clip-rule="evenodd" d="M2655.77 300.715H2852.25C2852.25 300.715 2837.85 241.703 2787.03 241.703C2749.38 241.703 2729.85 265.515 2722.24 277.855C2707.39 272.047 2675.41 264.995 2655.77 300.715Z" fill="white"/>
<path opacity="0.5" fill-rule="evenodd" clip-rule="evenodd" d="M2360.94 914.232C2355.9 914.232 2351.18 915.602 2347.08 917.962C2339.24 904.302 2324.79 895.106 2308.2 895.106C2292.72 895.106 2279.06 903.112 2270.94 915.292C2266.66 900.612 2253.39 889.91 2237.67 889.91C2219.83 889.91 2205.14 903.702 2203.17 921.442C2201.73 921.202 2200.27 921.052 2198.77 921.052C2187.89 921.052 2178.46 927.352 2173.72 936.582H2388.47C2385.53 923.782 2374.34 914.232 2360.94 914.232Z" fill="#EDF2FF"/>
<path opacity="0.5" fill-rule="evenodd" clip-rule="evenodd" d="M2924.91 79.2832H2041.91V1209.28H2924.91V79.2832ZM2048.91 1202.28V86.2822H2917.91V1202.28H2048.91Z" fill="black" fill-opacity="0.08"/>
<path fill-rule="evenodd" clip-rule="evenodd" d="M1007.98 510.713C1008 510.712 1008.02 510.712 1008.05 510.712H1069.72L1069.9 510.717C1071.47 510.808 1072.72 512.114 1072.72 513.712L1072.71 513.888C1072.62 515.463 1071.32 516.712 1069.72 516.712H1011.05V576.173L1178.25 576.174L1178.43 576.179C1180 576.27 1181.25 577.576 1181.25 579.174C1181.25 580.831 1179.91 582.174 1178.25 582.174H1097.97V641.638H1144.29L1144.47 641.643C1146.04 641.734 1147.29 643.04 1147.29 644.638V644.814C1147.2 646.389 1145.89 647.638 1144.29 647.638L1095.03 647.637C1095.01 647.638 1094.99 647.638 1094.97 647.638H1011.05V707.097L1144.29 707.098L1144.47 707.103C1146.04 707.194 1147.29 708.5 1147.29 710.098C1147.29 711.754 1145.95 713.098 1144.29 713.098H1097.97V775.562L1097.96 775.738C1097.87 777.313 1096.56 778.562 1094.97 778.562H1008.05L1007.87 778.557C1006.3 778.465 1005.05 777.159 1005.05 775.562V775.385C1005.14 773.811 1006.45 772.562 1008.05 772.562L1091.97 772.561V713.099L924.77 713.1L924.73 713.099H837.85L837.67 713.094C836.09 713.002 834.85 711.696 834.85 710.099V709.922C834.94 708.348 836.25 707.099 837.85 707.099L1005.05 707.098V647.638H924.76L837.85 647.639L837.67 647.634C836.09 647.542 834.85 646.236 834.85 644.639C834.85 642.982 836.19 641.639 837.85 641.639H921.76V582.175H837.85L837.67 582.17C836.09 582.078 834.85 580.772 834.85 579.175V578.999C834.94 577.424 836.25 576.175 837.85 576.175L1005.05 576.174V516.712L924.77 516.713L924.59 516.708C923.01 516.616 921.77 515.31 921.77 513.713C921.77 512.056 923.11 510.713 924.77 510.713H1007.98ZM927.76 582.175V641.637H1091.97V582.175H927.76Z" fill="black" fill-opacity="0.08"/>
<path d="M1874.77 115.213V122.213L1954.55 122.212V180.674L1827.6 180.675V187.675L1871.27 187.674V246.138L1787.85 246.139V253.139L1954.55 253.138V311.598L1857.09 311.599V318.599H1961.55V318.597L2045.41 318.598V311.598L1961.55 311.597V253.137L2045.41 253.138V246.138L1878.26 246.137V187.675L2044.97 187.676V187.673L2045.41 187.674V180.674H1961.55V122.212H2019.72V115.212L1874.77 115.213Z" fill="black" fill-opacity="0.08"/>
<path fill-rule="evenodd" clip-rule="evenodd" d="M2749.47 1731.69L2769.25 1950.78L2749.74 1951.71L2677.25 1710.92L2748.81 1700.71L2749.47 1731.69Z" fill="#FF7B4D"/>
<path fill-rule="evenodd" clip-rule="evenodd" d="M1580.25 1710.92L1507.76 1951.71L1488.25 1950.78L1508.03 1731.69L1508.69 1700.71L1580.25 1710.92Z" fill="#FF7B4D"/>
<path fill-rule="evenodd" clip-rule="evenodd" d="M2623.47 1728.69L2643.25 1947.77L2623.74 1948.71L2551.25 1707.92L2622.8 1697.71L2623.47 1728.69Z" fill="#FF7B4D"/>
<path fill-rule="evenodd" clip-rule="evenodd" d="M1656.03 1728.69L1636.25 1947.77L1655.76 1948.71L1728.25 1707.92L1656.69 1697.71L1656.03 1728.69Z" fill="#FF7B4D"/>
<path fill-rule="evenodd" clip-rule="evenodd" d="M2871.03 1369.39C2871.03 1369.39 3113 1054.42 2901.65 955.782C2751.99 885.929 1824.57 773.414 1355.04 982.772C1355.04 982.772 1166.12 1078.33 1385.57 1328.54L1508.06 1645.14L2723.02 1665.56L2871.03 1369.39Z" fill="#FFB4A3"/>
<path fill-rule="evenodd" clip-rule="evenodd" d="M2747.44 978.232C2794.96 990.902 2832.04 1004.9 2855.53 1019.67L2855.73 1019.79L2855.94 1019.88H2855.94H2855.94L2855.95 1019.89L2856 1019.91C2856.05 1019.93 2856.14 1019.97 2856.25 1020.03C2856.48 1020.13 2856.83 1020.3 2857.28 1020.53C2858.2 1020.99 2859.55 1021.71 2861.23 1022.71C2864.59 1024.72 2869.3 1027.85 2874.56 1032.34C2885.08 1041.31 2897.83 1055.68 2906.66 1077.25C2924.26 1120.3 2926.53 1192.88 2862.13 1309.96L2867.38 1312.85C2932.29 1194.86 2930.74 1120.31 2912.21 1074.98C2902.96 1052.37 2889.56 1037.25 2878.45 1027.77C2872.9 1023.04 2867.91 1019.71 2864.3 1017.56C2862.49 1016.48 2861.02 1015.7 2859.99 1015.18C2859.48 1014.92 2859.07 1014.72 2858.79 1014.59C2858.7 1014.55 2858.61 1014.51 2858.55 1014.48C2834.27 999.262 2796.55 985.122 2748.98 972.432C2701.23 959.702 2643.33 948.392 2578.68 938.962C2449.37 920.102 2292.86 908.752 2136.17 908.752C1979.48 908.752 1822.98 920.102 1693.67 938.962C1629.01 948.392 1571.11 959.702 1523.36 972.432C1475.79 985.122 1438.08 999.262 1413.8 1014.48C1413.73 1014.51 1413.65 1014.55 1413.55 1014.59C1413.27 1014.72 1412.87 1014.92 1412.35 1015.18C1411.33 1015.7 1409.86 1016.48 1408.05 1017.56C1404.43 1019.71 1399.45 1023.04 1393.89 1027.77C1382.78 1037.25 1369.38 1052.37 1360.14 1074.98C1341.6 1120.31 1340.06 1194.86 1404.96 1312.85L1410.22 1309.96C1345.82 1192.88 1348.09 1120.3 1365.69 1077.25C1374.51 1055.68 1387.26 1041.31 1397.79 1032.34C1403.05 1027.85 1407.75 1024.72 1411.12 1022.71C1412.8 1021.71 1414.15 1020.99 1415.06 1020.53C1415.52 1020.3 1415.87 1020.13 1416.09 1020.03C1416.21 1019.97 1416.29 1019.93 1416.34 1019.91L1416.4 1019.89V1019.88" fill="#FF7B4D"/>
<path fill-rule="evenodd" clip-rule="evenodd" d="M1533.27 1486.61L2707.71 1477.05L2707.67 1472.05L1533.23 1481.61L1533.27 1486.61Z" fill="#FF7B4D"/>
<path fill-rule="evenodd" clip-rule="evenodd" d="M1683.98 1178.71C1783.79 1178.71 1801.26 1391.16 1793.7 1465.82C1793.7 1465.82 1792.94 1498.68 1779.26 1491.77C1765.58 1484.86 1601.87 1528.17 1559.81 1524.63C1559.81 1524.63 1417.89 1348.46 1447.56 1263.25C1470.46 1217.87 1640.03 1178.71 1683.98 1178.71Z" fill="#FFB201"/>
<path fill-rule="evenodd" clip-rule="evenodd" d="M1547.06 1479.18C1561.35 1520.96 1598.84 1551.95 1643 1551.95H2605.7C2649.85 1551.95 2687.34 1520.96 2701.63 1479.18C2737.12 1375.44 2809.13 1255.09 2935.55 1318.25C2935.55 1318.25 3000.18 1367.64 2927.94 1436.02C2873.86 1487.22 2858.68 1540.54 2851.12 1613.53C2845.57 1667.05 2809.26 1712.59 2758.26 1729.86C2753.64 1731.42 2750.27 1732.35 2748.79 1732.35H1499.65C1498.3 1732.35 1495.44 1731.6 1491.51 1730.31C1439.97 1713.36 1403.17 1667.55 1397.58 1613.62C1390.02 1540.59 1374.86 1487.24 1320.75 1436.02C1248.51 1367.64 1313.15 1318.25 1313.15 1318.25C1439.57 1255.09 1511.57 1375.44 1547.06 1479.18Z" fill="#FF916B"/>
<path fill-rule="evenodd" clip-rule="evenodd" d="M1343.41 1389.1C1343.41 1408.82 1359.42 1424.82 1379.16 1424.82C1398.9 1424.82 1414.91 1408.82 1414.91 1389.1C1414.91 1369.37 1398.9 1353.38 1379.16 1353.38C1359.42 1353.38 1343.41 1369.37 1343.41 1389.1Z" fill="#FF7B4D"/>
<path fill-rule="evenodd" clip-rule="evenodd" d="M2824.73 1389.1C2824.73 1408.82 2840.74 1424.82 2860.48 1424.82C2880.23 1424.82 2896.23 1408.82 2896.23 1389.1C2896.23 1369.37 2880.23 1353.38 2860.48 1353.38C2840.74 1353.38 2824.73 1369.37 2824.73 1389.1Z" fill="#FF7B4D"/>
<path fill-rule="evenodd" clip-rule="evenodd" d="M665.613 1775.76H655.603C655.603 1775.76 657.449 1716.88 616.929 1656.92C576.408 1596.96 545.275 1595.87 545.275 1595.87C545.275 1595.87 579.715 1597.06 625.854 1656.92C655.336 1695.17 664.837 1760.98 665.613 1775.76Z" fill="#090E2B"/>
<path fill-rule="evenodd" clip-rule="evenodd" d="M727.659 1751.12L737.003 1748.61C737.003 1748.61 717.629 1639.22 762.985 1560.79C808.342 1482.36 1004.59 1395.11 1004.59 1395.11C997.102 1392.7 811.379 1467.91 753.871 1560.79C721.166 1613.62 718.226 1720.54 727.659 1751.12Z" fill="#090E2B"/>
<path fill-rule="evenodd" clip-rule="evenodd" d="M588.818 1620.53C588.818 1620.53 641.697 1558.84 592.077 1519.66C592.077 1519.66 555.837 1497.71 526.281 1499.49C526.281 1499.49 568.159 1569.72 554.611 1576.7C541.065 1583.68 513.59 1495.09 513.59 1495.09C513.59 1495.09 431.112 1487.09 404.58 1499.85C404.58 1499.85 475.087 1557.55 460.241 1560.98C445.389 1564.42 369.233 1507.78 369.233 1507.78C369.233 1507.78 292.469 1520.85 296.561 1567.68C300.655 1614.5 327.103 1628.97 338.729 1627.72C350.357 1626.48 418.361 1600.51 419.841 1610.04C421.322 1619.57 380.385 1650.69 351.722 1652.15C351.722 1652.15 405.842 1711.84 441.809 1694.61C477.777 1677.39 480.849 1650.08 503.27 1639.84C525.691 1629.6 544.831 1629.62 535.572 1640.07C526.317 1650.51 485.741 1660.67 472.917 1683.35C460.094 1706.03 448.589 1721.32 485.803 1715.72C523.017 1710.12 583.507 1682.89 586.164 1651.71L588.818 1620.53Z" fill="#017C7F"/>
<path fill-rule="evenodd" clip-rule="evenodd" d="M683.256 1759.84H674.251C674.251 1759.84 691.149 1653.03 665.613 1561.16C640.076 1469.29 601.393 1437.26 601.393 1437.26C601.393 1437.26 645.707 1458.9 677.681 1577.14C688.638 1617.66 691.229 1733.99 683.256 1759.84Z" fill="#090E2B"/>
<path fill-rule="evenodd" clip-rule="evenodd" d="M773.705 1542.95C773.705 1542.95 689.585 1495.84 728.841 1431.91C728.841 1431.91 760.245 1392.66 793.891 1382.57C793.891 1382.57 775.949 1477.9 793.891 1480.14C811.838 1482.39 806.229 1372.47 806.229 1372.47C806.229 1372.47 894.833 1329.85 929.601 1333.21C929.601 1333.21 874.646 1426.31 892.589 1424.06C910.536 1421.82 972.223 1327.61 972.223 1327.61C972.223 1327.61 1063.07 1310.78 1077.65 1364.62C1092.23 1418.46 1068.68 1445.37 1055.22 1448.74C1041.76 1452.1 955.399 1450.98 957.643 1462.2C959.885 1473.41 1018.21 1491.36 1050.73 1481.26C1050.73 1481.26 1014.84 1569.87 967.735 1565.38C920.63 1560.9 906.05 1531.73 876.888 1529.49C847.728 1527.25 826.418 1535.1 840.998 1542.95C855.578 1550.8 904.927 1545.52 928.481 1565.55C952.034 1585.57 971.1 1597.91 927.357 1606.88C883.617 1615.85 805.109 1610.24 789.405 1576.6L773.705 1542.95Z" fill="#009BA0"/>
<path fill-rule="evenodd" clip-rule="evenodd" d="M639.877 1477.98C639.877 1477.98 750.76 1415.89 699.016 1331.62C699.016 1331.62 657.62 1279.87 613.266 1266.56C613.266 1266.56 636.92 1392.23 613.266 1395.19C589.612 1398.15 597.004 1253.26 597.004 1253.26C597.004 1253.26 503.86 1208.74 430.516 1200.02C430.516 1200.02 509.293 1319.81 467.992 1319.81C426.69 1319.81 378.193 1194.12 378.193 1194.12C378.193 1194.12 244.896 1179.72 239.221 1242.91C233.547 1306.1 251.046 1349.36 268.789 1353.8C286.528 1358.23 400.369 1356.75 397.412 1371.53C394.456 1386.32 317.576 1409.97 274.703 1396.67C274.703 1396.67 322.014 1513.46 384.109 1507.55C446.202 1501.64 465.424 1463.2 503.86 1460.24C542.3 1457.29 570.39 1467.63 551.171 1477.98C531.952 1488.33 466.9 1481.37 435.853 1507.77C404.804 1534.16 379.672 1550.43 437.329 1562.25C494.989 1574.08 598.482 1566.69 619.18 1522.34L639.877 1477.98Z" fill="#009BA0"/>
<path fill-rule="evenodd" clip-rule="evenodd" d="M825.449 1746.84H495.049L510.737 1880.19C515.477 1920.48 549.622 1950.84 590.189 1950.84H735.478C777.235 1950.84 811.968 1918.73 815.233 1877.1L825.449 1746.84Z" fill="#FFB201"/>
<path d="M18.75 1947.71C16.82 1947.71 15.25 1949.28 15.25 1951.21C15.25 1953.08 16.7101 1954.61 18.5601 1954.7L18.75 1954.71H2988.75C2990.68 1954.71 2992.25 1953.14 2992.25 1951.21C2992.25 1949.34 2990.79 1947.81 2988.94 1947.72L2988.75 1947.71H18.75Z" fill="#090E2B"/>
<path fill-rule="evenodd" clip-rule="evenodd" d="M2279.33 1797.67C2279.33 1797.67 2289.59 1870.12 2293.77 1901.07C2298 1932.29 2222.9 1901.9 2222.9 1901.9C2222.9 1901.9 2236.44 1882.61 2236.64 1877.32C2236.84 1872.04 2213.73 1810.17 2213.73 1810.17L2279.33 1797.67Z" fill="#FF8282"/>
<path fill-rule="evenodd" clip-rule="evenodd" d="M2128.91 1398.17C2092.05 1415.01 2054.79 1457.55 2087.36 1537.29C2119.92 1617.03 2196.55 1810.04 2208.6 1818.72C2220.64 1827.4 2284.16 1810.17 2284.16 1810.17C2284.16 1810.17 2277.21 1729.11 2263.41 1649.41C2253.3 1591.05 2231.99 1548.49 2231.99 1548.49C2231.99 1548.49 2403.4 1572.95 2445.96 1544.24C2501.82 1506.56 2460.46 1405.03 2428.36 1392.45C2387.09 1376.29 2199.09 1366.09 2128.91 1398.17Z" fill="#090E2B"/>
<path fill-rule="evenodd" clip-rule="evenodd" d="M2130.84 1935.72C2136.23 1919.03 2175.28 1908.02 2203.49 1899.68C2212.98 1896.87 2226.24 1883 2232.4 1883.17C2241.36 1883.41 2232.58 1902.06 2262.58 1900.44C2270.53 1900.01 2271.09 1891.65 2288.35 1889.75C2291.16 1889.44 2295.45 1888.89 2299.15 1895.56C2301.21 1899.28 2309.66 1932.83 2301.37 1946.51C2243.28 1948.01 2183.53 1946.53 2131.93 1946.05C2126.89 1946 2129.46 1939.98 2130.84 1935.72Z" fill="#090E2B"/>
<path fill-rule="evenodd" clip-rule="evenodd" d="M2034.97 1810.17C2034.97 1810.17 2024.41 1864.68 2017.35 1873.54C2010.28 1882.41 1973.62 1892.39 1971.97 1897.86C1970.33 1903.34 2050.12 1916.17 2050.12 1916.17L2098.95 1814.86L2034.97 1810.17Z" fill="#FF8282"/>
<path fill-rule="evenodd" clip-rule="evenodd" d="M1899.84 1932.72C1905.23 1916.04 1944.28 1905.02 1972.49 1896.68C1981.98 1893.87 1995.24 1880 2001.4 1880.17C2010.36 1880.41 2001.58 1899.06 2031.58 1897.44C2039.53 1897.01 2040.09 1888.65 2057.35 1886.75C2060.16 1886.44 2064.45 1885.89 2068.15 1892.56C2070.21 1896.28 2078.66 1929.83 2070.37 1943.51C2012.28 1945.01 1952.53 1943.53 1900.93 1943.05C1895.89 1943 1898.46 1936.98 1899.84 1932.72Z" fill="#090E2B"/>
<path fill-rule="evenodd" clip-rule="evenodd" d="M1967.24 1908.6C1963.55 1901.17 1961.94 1899.88 1963.51 1898.71C1967.27 1895.91 1986.37 1904.55 1987.88 1909.69C1989 1913.54 1976.28 1902.4 1966.12 1900.73C1970.29 1904.53 1974.17 1916.19 1970.07 1913.86C1950.12 1902.55 1946.97 1905.17 1946.95 1904.75C1946.83 1902.75 1954.38 1901.13 1967.24 1908.6Z" fill="#FFB201"/>
<path fill-rule="evenodd" clip-rule="evenodd" d="M2509.82 1475.17C2497.85 1537.12 2442.65 1559.38 2394.75 1557.53C2321.59 1554.7 2247 1522.21 2221.79 1511.35C2224.01 1527.33 2212.14 1618.19 2192.32 1660.24C2172.49 1702.29 2107.94 1828.79 2107.94 1828.79C2107.94 1828.79 2035.09 1829.22 2031.98 1811.53C2029.93 1799.9 2098.31 1475.02 2120.94 1418.76C2133.93 1386.46 2175.97 1372.52 2262.44 1365.17C2349.3 1357.78 2475.91 1371.39 2475.91 1371.39C2475.91 1371.39 2521.78 1413.21 2509.82 1475.17Z" fill="#1D092B"/>
<path fill-rule="evenodd" clip-rule="evenodd" d="M2198.24 1912.6C2194.55 1905.17 2192.94 1903.88 2194.51 1902.71C2198.27 1899.91 2217.37 1908.55 2218.88 1913.69C2220 1917.54 2207.28 1906.39 2197.12 1904.73C2201.29 1908.53 2205.17 1920.18 2201.07 1917.86C2181.12 1906.55 2177.97 1909.17 2177.95 1908.75C2177.83 1906.75 2185.38 1905.13 2198.24 1912.6Z" fill="#FFB201"/>
<path fill-rule="evenodd" clip-rule="evenodd" d="M2143.11 1952.56L2282.93 1955.02C2292.28 1955.4 2306.28 1952.18 2307.63 1944.41C2308.64 1938.6 2306.39 1925.96 2305.93 1925.12C2302.67 1919.26 2274.91 1924.2 2266.83 1943.99C2215.81 1947.82 2128.94 1944.08 2128.94 1944.08C2128.94 1944.08 2127.63 1951.76 2143.11 1952.56Z" fill="#090E2B"/>
<path fill-rule="evenodd" clip-rule="evenodd" d="M1912.22 1948.95L2052.04 1951.42C2061.39 1951.79 2075.38 1948.57 2076.74 1940.8C2077.75 1935 2075.5 1922.36 2075.03 1921.51C2071.78 1915.65 2044.02 1920.6 2035.94 1940.39C1984.92 1944.21 1898.05 1940.47 1898.05 1940.47C1898.05 1940.47 1896.74 1948.15 1912.22 1948.95Z" fill="#090E2B"/>
<path fill-rule="evenodd" clip-rule="evenodd" d="M2263.46 1245.82C2263.46 1245.82 2241.84 1293.79 2229.51 1302.47C2220.43 1308.87 2102.18 1297.28 2083.82 1293.91C2040.18 1285.91 2033.06 1295.15 2032.44 1296.91C2030.57 1302.27 2044.83 1299.63 2044.83 1299.63C2044.83 1299.63 2021.83 1307.93 2010.23 1316.26C1998.64 1324.59 2008.91 1329.98 2014.47 1330.7C2049.68 1335.25 2056.05 1320.4 2082.76 1320.4C2108.37 1320.4 2229.51 1381.83 2270.71 1351.55C2313.54 1320.06 2321.95 1253.48 2321.95 1253.48L2263.46 1245.82Z" fill="#FF8282"/>
<path fill-rule="evenodd" clip-rule="evenodd" d="M2362.29 1082.91C2357.1 1092.93 2326.44 1106.63 2326.44 1106.63L2320.95 1136.04L2434.79 1147.71C2447.96 1144.8 2484.92 1117.47 2476.79 1106.63C2468.65 1095.8 2432.96 1089.2 2427.72 1080.75C2417.65 1064.53 2415.82 1031.54 2416.09 1019.08C2416.09 1015.99 2362.08 1028.1 2362.08 1028.1C2362.08 1028.1 2368.82 1070.33 2362.29 1082.91Z" fill="#FF8282"/>
<path fill-rule="evenodd" clip-rule="evenodd" d="M2314.07 1112.67C2310.65 1115.43 2287.04 1125.38 2279.71 1160.93C2277.07 1173.72 2260.01 1221.61 2244.95 1260.35C2259.14 1285.12 2278.91 1300.22 2299.83 1306.88L2337.95 1220.92C2337.95 1220.92 2315.26 1123.59 2314.07 1112.67Z" fill="#FF2E63"/>
<path fill-rule="evenodd" clip-rule="evenodd" d="M2366.81 1124.28C2352.41 1122.73 2340.64 1098.13 2340.19 1097.58C2339.73 1097.03 2308.69 1113.6 2298.96 1122.97C2289.18 1297.14 2296.18 1296.17 2299.27 1313.1C2300.7 1320.94 2308.68 1341.5 2302.9 1364.62C2302.09 1367.87 2331.33 1372.39 2363.21 1382.44C2417.87 1399.67 2489.08 1422.55 2493.44 1406.6C2496.02 1397.14 2491.9 1388.13 2487.96 1382.44C2483.44 1375.9 2451.3 1317.19 2476.62 1254.58C2491.14 1236.25 2525.77 1218.87 2532.54 1167.66C2535.86 1142.52 2517.83 1125.05 2511.55 1119.85C2490.58 1102.49 2457.4 1092.23 2455.17 1092.67C2441.73 1095.33 2395.3 1127.37 2366.81 1124.28Z" fill="#FF2E63"/>
<path fill-rule="evenodd" clip-rule="evenodd" d="M2303.39 1153.86C2298.77 1167.72 2292.26 1181.25 2288.54 1195.39C2286.11 1204.9 2285.64 1215.05 2286.11 1224.82C2287.07 1245.99 2290.81 1267.06 2294.97 1287.8C2297.09 1298.36 2298.28 1304.77 2298.95 1306.44C2299.87 1308.69 2299.6 1302.36 2297.04 1287.43C2294.48 1270.46 2291.3 1251.33 2289.66 1234.37C2288.42 1221.66 2288.63 1207.7 2291.41 1195.17C2293.94 1184.12 2297.88 1174.3 2301.26 1163.45C2301.46 1161.93 2305.37 1152.45 2303.39 1153.86Z" fill="#090E2B"/>
<path fill-rule="evenodd" clip-rule="evenodd" d="M2474.03 1275.14C2474.03 1275.14 2478.73 1319.61 2475.62 1324.23C2389.12 1389.92 2355.71 1438.93 2341.65 1447.78C2324.99 1458.27 2303.23 1458.67 2296.08 1465.67C2290.51 1471.12 2284.5 1473.68 2284.43 1474.5C2283.92 1480.19 2298.48 1475.97 2298.48 1475.97C2298.48 1475.97 2292.01 1489.8 2282.82 1500.76C2273.63 1511.72 2289.33 1511.94 2294.9 1511.4C2321.99 1508.78 2336.69 1478.56 2351.14 1468.61C2387.65 1443.48 2527.17 1385.49 2548.21 1356.22C2569.25 1326.94 2548.21 1232.12 2548.21 1232.12L2474.03 1275.14Z" fill="#FF8282"/>
<path fill-rule="evenodd" clip-rule="evenodd" d="M2563.95 1273C2552.83 1293.57 2497.89 1295.87 2472.01 1295.87C2472.01 1295.87 2470.44 1282.26 2465.36 1263.21C2458.97 1239.18 2527.94 1139.7 2527.94 1139.7C2542.41 1168.58 2554.8 1217.19 2563.95 1273Z" fill="#FF2E63"/>
<path fill-rule="evenodd" clip-rule="evenodd" d="M2468.94 1282.62C2468.98 1281.94 2468.8 1279.21 2468.68 1278.44C2464.83 1253.03 2462.49 1244.64 2457.97 1219.23C2457.97 1219.23 2450.69 1177.47 2448.95 1178.78C2452.01 1206.16 2468.64 1287.82 2468.94 1282.62Z" fill="#090E2B"/>
<path fill-rule="evenodd" clip-rule="evenodd" d="M2457.69 901.664C2457.69 901.664 2479.25 847.958 2430.25 830.431C2381.24 812.903 2342.65 822.139 2337.71 863.47C2329.79 929.764 2433.03 963.09 2457.69 901.664Z" fill="#1D092B"/>
<path fill-rule="evenodd" clip-rule="evenodd" d="M2381.77 1026.43C2474.72 1026.43 2549.95 1010.65 2549.95 947.63C2549.95 884.611 2496.74 850.407 2397.09 835.756C2297.44 821.105 2225.95 817.366 2225.95 900.62C2225.95 963.64 2288.82 1026.43 2381.77 1026.43Z" fill="#1D092B"/>
<path fill-rule="evenodd" clip-rule="evenodd" d="M2634.23 1039.67C2594.01 1013.78 2545.09 1028.54 2519.06 1019.29C2476.75 1004.25 2482.46 956.856 2442.6 939.179C2431.77 904.998 2401.28 887.927 2356.29 887.927C2285.67 887.927 2283.71 944.613 2281.97 954.166C2275.61 989.268 2288.83 1057.65 2275.48 1081.16C2253.06 1120.62 2263.42 1146.38 2275.11 1155.79C2287.71 1165.94 2324.38 1156.65 2332.33 1150.06C2347.51 1137.48 2362.83 1132.54 2362.83 1090.84C2370.76 1078.67 2371.22 1075.07 2369.43 1060.29C2367.28 1042.52 2365.25 1026.44 2403.51 1019.29C2400.4 1050.02 2395.29 1071.18 2409.59 1086.74C2423.89 1102.3 2438.25 1102.3 2455.88 1108.17C2492.94 1120.49 2505.36 1224.82 2618.42 1181.14C2679.03 1158.5 2674.44 1065.55 2634.23 1039.67Z" fill="#A162FF"/>
<path fill-rule="evenodd" clip-rule="evenodd" d="M2295.57 1038.96C2287.55 1023.07 2284.4 997.923 2293.38 961.111C2295.44 952.649 2296.38 945.274 2297.17 939.012C2299.82 918.032 2300.9 909.55 2337.61 914.572C2365.13 918.338 2407.98 935.531 2415.52 965.691C2415.52 965.691 2415.65 967.354 2415.79 970.114C2426.57 958.138 2442.79 970.817 2442.79 981.047C2442.79 1003.89 2424.13 1013.75 2412.87 1011.1C2412.53 1012.26 2412.15 1013.35 2411.74 1014.38C2411.39 1015.26 2411.03 1016.2 2410.65 1017.17C2407.51 1025.29 2403.21 1036.43 2392.63 1046.1C2381.37 1056.39 2361.36 1068.21 2329.51 1067.09C2313 1066.5 2305 1057.66 2295.57 1038.96Z" fill="#FF8282"/>
<path fill-rule="evenodd" clip-rule="evenodd" d="M2417.68 983.195C2420.56 977.427 2427.48 973.853 2433.46 977.889C2434.81 978.802 2432.99 979.427 2432.41 979.363C2425.31 978.434 2422.49 980.375 2420.16 984.412C2422.39 984.959 2424.62 986.944 2424.91 989.186C2425.08 990.562 2424.6 994.635 2423.55 993.35C2422.83 992.462 2424.43 986.404 2419.14 986.957C2419.06 986.975 2418.99 986.979 2418.91 986.986C2418.66 987.584 2416.67 988.822 2415.82 987.784C2415.29 987.15 2416.37 985.832 2417.68 983.195Z" fill="#090E2B"/>
<path fill-rule="evenodd" clip-rule="evenodd" d="M2343.43 888.023C2371.5 890.054 2411.6 920.063 2418.05 942.063C2419.15 945.79 2418.15 965.174 2415.76 969.554C2412.58 975.385 2412.93 988.682 2403.46 990.224C2386.78 992.941 2403.92 968.121 2401.39 961.636C2391.85 937.183 2361.58 952.715 2343.43 947.179C2318.59 939.599 2309.39 934.21 2308.75 933.245C2305.53 945.621 2288.15 969.314 2282.13 973.933C2280.17 975.434 2282.81 948.544 2289.09 926.787C2292.9 913.621 2316.75 886.092 2343.43 888.023Z" fill="#A162FF"/>
<path fill-rule="evenodd" clip-rule="evenodd" d="M2420.67 1040.26C2432.31 1040.26 2441.77 1030.79 2441.77 1019.16C2441.77 1013.01 2439.11 1007.09 2434.44 1003.08C2433.68 1003.86 2432.76 1004.73 2432.08 1005.31C2436.08 1008.76 2438.77 1013.89 2438.77 1019.16C2438.77 1029.14 2430.65 1037.26 2420.67 1037.26C2410.7 1037.26 2402.58 1029.14 2402.58 1019.16C2402.58 1009.18 2410.7 1001.07 2420.67 1001.07C2421.5 1001.07 2422.17 1000.39 2422.17 999.565C2422.17 998.736 2421.5 998.065 2420.67 998.065C2409.04 998.065 2399.58 1007.53 2399.58 1019.16C2399.58 1030.79 2409.04 1040.26 2420.67 1040.26Z" fill="white"/>
<path fill-rule="evenodd" clip-rule="evenodd" d="M2376.01 1058.79C2380.1 1056.35 2388.44 1051.82 2390.1 1049.21C2390.96 1047.85 2387.89 1049.64 2386.3 1050.84C2384.18 1052.44 2375.43 1057.15 2364.63 1062.23C2363.69 1062.67 2357.68 1065.2 2357.53 1065.54C2357.39 1065.85 2357.99 1066.4 2358.71 1066.31C2363.49 1065.67 2371.5 1061.48 2376.01 1058.79Z" fill="#090E2B"/>
<path fill-rule="evenodd" clip-rule="evenodd" d="M2385.87 955.345C2384.09 947.362 2360.72 944.564 2350.44 950.745C2346.88 952.858 2340.28 958.663 2346.12 961.823C2347.67 962.495 2349.17 961.806 2350.44 960.987C2364.45 951.245 2387.11 960.909 2385.87 955.345Z" fill="#090E2B"/>
<path fill-rule="evenodd" clip-rule="evenodd" d="M2366.9 969.776C2372.19 971.276 2376.73 975.526 2377.15 979.048C2377.4 981.176 2369.05 986.285 2361 986.682C2350.4 987.203 2345.06 981.464 2345.08 979.63C2345.8 974.08 2352.19 965.602 2366.9 969.776Z" fill="white"/>
<path fill-rule="evenodd" clip-rule="evenodd" d="M2350.52 972.934C2358.66 966.78 2371.27 970.79 2377.15 979.048C2377.49 979.476 2377.39 978.399 2377.15 977.908C2374.32 971.961 2369.21 969.154 2363.28 967.93C2359.71 967.193 2356.39 967.133 2352.91 968.691C2351.56 969.292 2349.19 971.124 2347.35 973.196C2345.92 974.811 2344.71 977.58 2346.37 976.601C2347.67 975.834 2349.44 973.751 2350.52 972.934Z" fill="#090E2B"/>
<path fill-rule="evenodd" clip-rule="evenodd" d="M2361.1 983.441C2356.58 983.441 2352.91 980.093 2352.91 975.962C2352.91 971.832 2356.58 968.483 2361.1 968.483C2365.63 968.483 2369.3 971.832 2369.3 975.962C2369.3 980.093 2365.63 983.441 2361.1 983.441Z" fill="#090E2B"/>
<path fill-rule="evenodd" clip-rule="evenodd" d="M2302.49 954.027C2299.13 955.515 2294.67 960.453 2298.38 960.453C2302.1 960.453 2310.15 959.399 2315.55 961.626C2317.43 962.108 2318.86 963.03 2320.76 963.255C2325.07 964.094 2327.41 958.934 2324.36 955.815C2320.92 952.291 2309.3 950.62 2302.49 954.027Z" fill="#090E2B"/>
<path fill-rule="evenodd" clip-rule="evenodd" d="M2306.29 986.4C2300.92 985.151 2296.9 980.281 2297.35 976.642C2298.24 971.82 2307.52 968.741 2312.72 971.374C2317.88 973.981 2321.1 979.806 2320.68 982.106C2320.08 983.698 2311.78 987.677 2306.29 986.4Z" fill="white"/>
<path fill-rule="evenodd" clip-rule="evenodd" d="M2310.73 983.772C2307.19 983.772 2304.32 981.018 2304.32 977.622C2304.32 974.225 2306.34 971.015 2310.73 971.472C2314.25 971.838 2317.14 974.225 2317.14 977.622C2317.14 981.018 2314.27 983.772 2310.73 983.772Z" fill="#090E2B"/>
<path fill-rule="evenodd" clip-rule="evenodd" d="M2320.49 978.803C2318.46 971.229 2309.3 967.334 2302.06 970.92C2301.04 971.452 2299.38 972.646 2298.14 974.088C2297 975.418 2297.15 976.115 2297.61 975.977C2298.39 975.747 2300.02 974.282 2301.35 973.652C2308.06 970.469 2315.04 972.255 2320.15 979.724C2320.4 980.111 2320.64 979.24 2320.49 978.803Z" fill="#090E2B"/>
<path fill-rule="evenodd" clip-rule="evenodd" d="M2317.17 1026.02C2325.74 1027.02 2318.8 1036.55 2323.24 1037.81C2334.6 1041.05 2346.95 1037.12 2348.94 1027.02C2350.11 1021.06 2346.6 1021.78 2343.8 1022.03C2340.99 1022.28 2327.14 1022.79 2319.7 1022.79C2312.49 1022.79 2316.11 1025.9 2317.17 1026.02Z" fill="#090E2B"/>
<path fill-rule="evenodd" clip-rule="evenodd" d="M2327.43 993.213C2327.04 993.213 2324.46 997.635 2323.51 999.188C2320.49 1004.13 2317.16 1009.67 2322.08 1012.85C2324.45 1014.4 2331.93 1012.01 2331.93 1010.19C2331.93 1007.43 2325.11 1012.28 2323.5 1009.48C2322.56 1008.05 2326.09 1000.81 2327.43 996.514C2328.18 994.117 2327.82 993.213 2327.43 993.213Z" fill="#090E2B"/>
</svg>
