<svg width="50" height="50" viewBox="0 0 50 50" fill="none" xmlns="http://www.w3.org/2000/svg">
<path d="M22.9163 27.083V22.9163H27.083V27.083H22.9163ZM18.7497 31.2497V27.083H22.9163V31.2497H18.7497ZM27.083 31.2497V27.083H31.2497V31.2497H27.083ZM31.2497 27.083V22.9163H35.4163V27.083H31.2497ZM14.583 27.083V22.9163H18.7497V27.083H14.583ZM11.6997 41.6663C10.7663 41.6663 9.9719 41.3386 9.31634 40.683C8.66079 40.0275 8.33301 39.2337 8.33301 38.3018V11.6976C8.33301 10.767 8.66079 9.97329 9.31634 9.31634C9.9719 8.66079 10.7663 8.33301 11.6997 8.33301H38.3018C39.2323 8.33301 40.0261 8.66079 40.683 9.31634C41.3386 9.9719 41.6663 10.7663 41.6663 11.6997V38.3018C41.6663 39.2323 41.3386 40.0261 40.683 40.683C40.0275 41.3386 39.2337 41.6663 38.3018 41.6663H11.6997ZM14.583 39.583H18.7497V35.4163H14.583V39.583ZM22.9163 39.583H27.083V35.4163H22.9163V39.583ZM10.4163 35.4163H14.583V31.2497H18.7497V35.4163H22.9163V31.2497H27.083V35.4163H31.2497V31.2497H35.4163V35.4163H39.583V31.2497H35.4163V27.083H39.583V11.6997C39.583 11.3788 39.4497 11.0844 39.183 10.8163C38.9163 10.5483 38.6219 10.415 38.2997 10.4163H11.6997C11.3788 10.4163 11.0844 10.5497 10.8163 10.8163C10.5483 11.083 10.415 11.3775 10.4163 11.6997V27.083H14.583V31.2497H10.4163V35.4163ZM11.6997 39.583H10.4163V10.4163H11.6997C11.3788 10.4163 11.0844 10.5497 10.8163 10.8163C10.5483 11.083 10.415 11.3775 10.4163 11.6997V38.3018C10.4163 38.6212 10.5497 38.915 10.8163 39.183C11.083 39.4511 11.3768 39.5844 11.6976 39.583M31.2497 35.4163V39.583H35.4163V35.4163H31.2497Z" fill="black"/>
</svg>
