<svg width="412" height="606" viewBox="0 0 412 606" fill="none" xmlns="http://www.w3.org/2000/svg">
<path d="M85.208 395.786C86.2624 395.786 87.1262 396.602 87.2025 397.637L87.208 397.786V411.483C87.208 412.588 86.3126 413.483 85.208 413.483C84.1536 413.483 83.2898 412.667 83.2135 411.632L83.208 411.483V397.786C83.208 396.682 84.1034 395.786 85.208 395.786Z" fill="black"/>
<path fill-rule="evenodd" clip-rule="evenodd" d="M0.351562 447.679H265.62V410.105H0.351562V447.679Z" fill="black"/>
<path fill-rule="evenodd" clip-rule="evenodd" d="M230.648 215.28H389.711V177.705H230.648V215.28Z" fill="black"/>
<path d="M357.666 375.499C356.696 375.499 355.856 375.181 355.145 374.545C354.431 373.909 353.988 373.116 353.816 372.166L352.72 363.449C351.389 363.046 349.95 362.416 348.403 361.557C346.859 360.696 345.543 359.774 344.457 358.791L336.478 362.224C335.598 362.613 334.703 362.655 333.795 362.349C332.886 362.043 332.186 361.467 331.695 360.62L327.199 352.874C326.707 352.027 326.563 351.141 326.766 350.216C326.968 349.291 327.452 348.532 328.216 347.941L335.182 342.732C335.057 341.977 334.956 341.2 334.878 340.403C334.795 339.603 334.753 338.827 334.753 338.074C334.753 337.374 334.795 336.638 334.878 335.866C334.956 335.093 335.057 334.224 335.182 333.257L328.216 328.049C327.452 327.457 326.982 326.687 326.807 325.737C326.632 324.787 326.789 323.887 327.278 323.037L331.695 315.537C332.186 314.739 332.886 314.175 333.795 313.845C334.703 313.514 335.598 313.543 336.478 313.932L344.378 317.282C345.623 316.246 346.97 315.312 348.42 314.478C349.864 313.645 351.271 313 352.641 312.545L353.82 303.828C353.989 302.878 354.431 302.085 355.145 301.449C355.859 300.813 356.699 300.496 357.666 300.499H366.332C367.302 300.499 368.142 300.817 368.853 301.453C369.567 302.089 370.01 302.882 370.182 303.832L371.278 312.632C372.875 313.193 374.286 313.837 375.511 314.562C376.736 315.287 377.999 316.195 379.299 317.287L387.599 313.937C388.482 313.548 389.378 313.518 390.286 313.849C391.195 314.18 391.893 314.743 392.382 315.541L396.799 323.12C397.291 323.97 397.435 324.856 397.232 325.778C397.029 326.7 396.546 327.46 395.782 328.057L388.499 333.499C388.727 334.36 388.854 335.15 388.882 335.87C388.91 336.589 388.924 337.298 388.924 337.995C388.924 338.642 388.896 339.324 388.841 340.041C388.788 340.76 388.666 341.63 388.474 342.649L395.516 347.941C396.279 348.532 396.777 349.291 397.007 350.216C397.238 351.141 397.107 352.027 396.616 352.874L392.174 360.537C391.685 361.387 390.973 361.963 390.036 362.266C389.1 362.571 388.192 362.53 387.311 362.141L379.299 358.707C378.002 359.799 376.696 360.734 375.382 361.512C374.068 362.289 372.7 362.907 371.278 363.366L370.178 372.162C370.009 373.112 369.567 373.905 368.853 374.541C368.139 375.177 367.299 375.496 366.332 375.499H357.666ZM357.832 371.332H365.982L367.52 360.049C369.62 359.493 371.509 358.731 373.186 357.762C374.87 356.792 376.581 355.464 378.32 353.778L388.716 358.207L392.857 351.124L383.736 344.274C384.084 343.088 384.314 341.996 384.428 340.999C384.539 340.005 384.595 339.005 384.595 337.999C384.595 336.943 384.539 335.943 384.428 334.999C384.317 334.055 384.086 333.017 383.736 331.887L393.016 324.874L388.874 317.791L378.241 322.249C376.979 320.863 375.323 319.564 373.27 318.353C371.214 317.145 369.27 316.343 367.436 315.949L366.166 304.666H357.857L356.557 315.87C354.457 316.317 352.527 317.039 350.766 318.037C349.007 319.031 347.257 320.399 345.516 322.141L335.124 317.791L330.982 324.874L340.02 331.624C339.673 332.557 339.429 333.571 339.291 334.666C339.152 335.76 339.082 336.899 339.082 338.082C339.082 339.138 339.152 340.187 339.291 341.228C339.429 342.27 339.646 343.284 339.941 344.27L330.982 351.124L335.124 358.207L345.436 353.832C347.073 355.482 348.77 356.806 350.528 357.803C352.289 358.8 354.273 359.577 356.478 360.132L357.832 371.332ZM361.886 348.416C364.792 348.416 367.254 347.406 369.274 345.387C371.293 343.367 372.303 340.905 372.303 337.999C372.303 335.093 371.293 332.631 369.274 330.612C367.254 328.592 364.792 327.582 361.886 327.582C358.964 327.582 356.498 328.592 354.486 330.612C352.475 332.631 351.47 335.093 351.47 337.999C351.47 340.905 352.475 343.367 354.486 345.387C356.498 347.406 358.964 348.416 361.886 348.416Z" fill="black"/>
<path d="M339.6 0.929688C352.394 0.929688 362.789 11.1966 362.996 23.9408L362.999 24.3277V154.897C362.999 155.725 362.328 156.397 361.499 156.397C360.719 156.397 360.079 155.802 360.006 155.041L359.999 154.897V24.3277C359.999 13.1781 351.054 4.11821 339.948 3.93259L339.6 3.92969H81.8902C70.7414 3.92969 61.6807 12.8751 61.4951 23.98L61.4922 24.3277V107.164C61.4922 107.992 60.8206 108.664 59.9922 108.664C59.2125 108.664 58.5717 108.069 58.4991 107.308L58.4922 107.164V24.3277C58.4922 11.5348 68.76 1.13945 81.5033 0.932822L81.8902 0.929688H339.6Z" fill="black"/>
<path d="M230.135 30.9297C230.964 30.9297 231.635 31.6013 231.635 32.4297C231.635 33.2094 231.041 33.8501 230.28 33.9228L230.135 33.9297H191.356C190.528 33.9297 189.856 33.2581 189.856 32.4297C189.856 31.65 190.451 31.0092 191.212 30.9366L191.356 30.9297H230.135Z" fill="black"/>
<path d="M361.499 401.138C362.279 401.138 362.919 401.733 362.992 402.493L362.999 402.638V582.584C362.999 595.377 352.732 605.772 339.988 605.979L339.601 605.982H81.8909C69.0976 605.982 58.7017 595.714 58.4951 582.971L58.4919 582.584V483.758C58.4919 482.929 59.1635 482.258 59.9919 482.258C60.7716 482.258 61.4124 482.853 61.4851 483.613L61.4919 483.758V582.584C61.4919 593.733 70.4378 602.793 81.5432 602.979L81.8909 602.982H339.601C350.75 602.982 359.81 594.037 359.996 582.931L359.999 582.584V402.638C359.999 401.809 360.671 401.138 361.499 401.138Z" fill="black"/>
<path d="M230.135 572.985C230.964 572.985 231.635 573.657 231.635 574.485C231.635 575.265 231.041 575.906 230.28 575.978L230.135 575.985H191.356C190.528 575.985 189.856 575.314 189.856 574.485C189.856 573.706 190.451 573.065 191.212 572.992L191.356 572.985H230.135Z" fill="black"/>
<path d="M361.125 233.761C361.905 233.761 362.545 234.356 362.618 235.116L362.625 235.261V277.073C362.625 277.901 361.953 278.573 361.125 278.573C360.345 278.573 359.705 277.978 359.632 277.217L359.625 277.073V235.261C359.625 234.432 360.297 233.761 361.125 233.761Z" fill="black"/>
<path fill-rule="evenodd" clip-rule="evenodd" d="M53.4521 204.413C44.8671 212.41 45.6741 226.735 54.2071 234.472C66.5731 245.684 89.6541 237.441 92.6681 221.08C92.7641 220.552 92.8381 220.019 92.8871 219.484C93.6921 210.579 87.9161 202.271 89.2091 193.41C89.6201 190.591 91.4191 188.201 93.1101 185.908C96.8911 180.785 102.162 173.584 100.931 166.823C100.263 163.144 97.6441 160.143 94.8981 157.606C91.3071 154.288 82.4451 147.477 87.9451 141.92C88.7791 141.078 89.9461 140.469 91.0971 140.204C92.0481 139.985 93.0941 140.049 93.9311 140.548C96.6821 142.188 97.3881 145.481 101.172 145.591C103.107 145.647 105.046 144.722 106.22 143.182C108.014 140.829 107.876 137.525 107.139 134.659C106.73 133.069 106.16 131.417 106.562 129.825C107.191 127.341 110.021 125.984 112.583 126.023C115.145 126.063 117.56 127.127 120.01 127.88C126.822 129.975 134.573 129.588 140.667 125.891C143.889 123.937 146.723 120.772 146.9 117.009C147.051 113.801 145.249 110.805 143.06 108.456C137.413 102.396 129.09 99.4425 120.861 98.4905C112.763 97.5545 104.405 98.3815 96.8231 101.376C89.2421 104.372 82.4741 109.591 78.0701 116.451C74.3581 122.231 72.4651 129.021 72.0991 135.85C71.7271 142.815 73.3911 149.37 74.5861 156.151C75.5561 161.663 73.3741 167.884 69.4601 171.798C66.4851 174.772 62.9191 177.094 59.8651 179.988C56.6621 183.023 54.0581 186.935 53.8161 191.46C53.6461 194.642 55.0991 196.355 56.1441 199.11C56.9911 201.342 55.0651 202.937 53.5951 204.281C53.5471 204.325 53.4991 204.369 53.4521 204.413Z" fill="black"/>
<path d="M141.32 123.783C142.129 123.603 142.93 124.113 143.11 124.922C144.858 132.791 145.341 140.088 144.96 146.939C144.298 159.497 142.214 168.534 135.688 178.029C133.651 180.99 131.619 183.231 129.635 184.868C128.265 185.998 127.188 186.65 126.057 187.18C122.011 189.042 117.625 189.372 113.127 188.553C110.157 188.013 107.69 187.117 105.401 186.02C104.654 185.662 104.339 184.766 104.697 184.019C105.055 183.272 105.951 182.957 106.698 183.315C108.766 184.306 110.999 185.117 113.664 185.602C117.598 186.318 121.371 186.034 124.793 184.459C125.701 184.034 126.567 183.509 127.726 182.554C129.491 181.098 131.334 179.064 133.216 176.329C139.353 167.4 141.329 158.834 141.965 146.777C142.331 140.182 141.866 133.157 140.181 125.573C140.001 124.764 140.511 123.963 141.32 123.783Z" fill="black"/>
<path d="M116.485 185.966C117.304 185.839 118.07 186.4 118.197 187.219C119.234 193.909 118.332 200.572 114.528 206.478C113.54 208.016 112.483 209.395 110.935 210.927C108.642 213.196 105.903 215.07 102.663 216.367C99.4256 217.654 96.1369 218.193 92.9032 218.127C92.0749 218.11 91.4172 217.425 91.4342 216.597C91.4511 215.769 92.1363 215.111 92.9646 215.128C95.8135 215.186 98.7061 214.712 101.551 213.581C104.396 212.442 106.804 210.794 108.825 208.794C110.194 207.44 111.125 206.225 112.005 204.855C115.362 199.643 116.166 193.703 115.233 187.678C115.106 186.86 115.666 186.093 116.485 185.966Z" fill="black"/>
<path d="M54.4081 195.107C55.1731 194.789 56.051 195.151 56.369 195.916C56.687 196.681 56.3247 197.559 55.5598 197.877C51.3731 199.617 47.1921 201.505 43.0431 203.542C39.5825 205.241 36.2079 207.022 32.924 208.869C29.388 210.857 27.3052 214.017 26.6956 217.846C26.08 221.745 25.6949 225.714 25.5145 229.856L25.4531 231.408C25.1942 238.731 25.4625 244.477 26.5954 257.867L27.5406 268.738C29.0724 286.784 31.8815 304.277 35.7963 321.19C35.9831 321.997 35.4803 322.803 34.6732 322.99C33.8661 323.177 33.0604 322.674 32.8736 321.867C29.0682 305.427 26.2992 288.442 24.7218 270.94L23.6024 258.076C22.3819 243.647 22.1571 237.997 22.5173 229.726C22.7025 225.474 23.0985 221.392 23.7326 217.376C24.4825 212.666 27.0934 208.705 31.4534 206.254C34.7848 204.38 38.209 202.574 41.7209 200.849C45.927 198.784 50.1648 196.871 54.4081 195.107Z" fill="black"/>
<path d="M115.428 187.877C115.699 187.095 116.553 186.679 117.336 186.95L118.991 187.514C119.657 187.738 120.349 187.967 121.138 188.224L127.451 190.276C129.498 190.952 130.981 191.467 133.013 192.202L134.909 192.893C142.695 195.751 145.112 196.952 148.766 199.746C155.365 204.804 158.473 210.579 161.716 220.54C165.76 232.906 169.798 246.196 173.714 259.8L175.203 265.008C177.028 271.435 178.617 277.189 179.993 282.287L181.096 286.404L182.564 288.299C185.326 291.844 188.15 295.361 191.044 298.853L192.789 300.946C197.248 306.274 201.833 311.498 206.584 316.683C207.143 317.294 207.102 318.243 206.491 318.803C205.88 319.362 204.931 319.321 204.372 318.71C199.592 313.492 194.977 308.235 190.489 302.873C186.373 297.965 182.395 293.01 178.537 287.999C178.416 287.841 178.327 287.661 178.276 287.469L177.503 284.574C175.839 278.38 173.847 271.165 171.481 262.895C167.589 249.29 163.568 235.966 159.536 223.535L158.864 221.471C155.794 212.042 152.928 206.716 146.943 202.128L146.371 201.697C143.306 199.424 140.936 198.299 133.83 195.693L130.788 194.591C128.77 193.872 127.13 193.32 124.372 192.424L119.812 190.947C118.536 190.529 117.495 190.179 116.356 189.785C115.573 189.515 115.157 188.66 115.428 187.877Z" fill="black"/>
<path d="M19.4419 319.233C23.8691 318.251 28.6987 318.545 34.1056 319.919C38.0018 320.91 41.8274 322.318 46.9695 324.544L49.7607 325.773L54.0354 327.684C54.9715 328.099 55.7555 328.44 56.5003 328.757L56.778 328.874C78.7252 338.136 100 346.149 120.973 352.973C121.761 353.229 122.192 354.076 121.935 354.864C121.679 355.651 120.832 356.082 120.045 355.826C99.7401 349.219 79.1591 341.505 57.9687 332.629L55.0416 331.396C54.56 331.19 54.0584 330.973 53.5089 330.731L47.5895 328.091L45.7986 327.307C40.7827 325.135 37.0816 323.771 33.3664 322.827C28.3799 321.559 24.0076 321.293 20.0919 322.162C14.3027 323.447 9.83871 327.504 8.50207 332.918C6.14381 342.464 11.2444 352.146 21.9086 363.099C27.0321 368.362 33.3577 373.593 41.8163 379.802L43.5867 381.094C44.5937 381.824 45.64 382.576 46.7703 383.383L54.3274 388.729C55.004 389.207 55.165 390.143 54.6869 390.82C54.237 391.457 53.3814 391.637 52.7182 391.257L52.6094 391.189C52.3598 391.013 48.0573 387.977 46.7987 387.084L45.0263 385.824C43.7009 384.878 42.4896 384.006 41.3209 383.156L40.8225 382.793C31.8491 376.243 25.1783 370.758 19.7591 365.192C8.43051 353.556 2.90462 343.067 5.58958 332.199C7.20991 325.636 12.5781 320.757 19.4419 319.233Z" fill="black"/>
<path fill-rule="evenodd" clip-rule="evenodd" d="M26.291 414.266C19.781 409.387 18.273 398.894 24.204 392.927C27.46 389.651 32.986 388.834 37.402 388.62C42.871 388.356 48.599 390.075 54.067 389.746C59.65 389.411 64.75 386.889 70.321 386.486C73.187 386.279 76.183 386.475 78.727 387.813C80.791 388.9 82.42 390.667 83.787 392.56C84.588 393.669 86.464 396.46 85.208 397.786C84.71 398.311 83.867 399.303 83.153 399.185C79.67 398.609 76.244 397.964 72.624 397.232C69.185 396.537 65.71 396.005 62.189 395.773C57.571 395.469 51.554 395.647 48.924 400.117C46.048 405.008 49.073 410.537 53.524 413.162" fill="black"/>
<path d="M59.9237 262.236C60.7513 262.198 61.4527 262.839 61.4904 263.666L63.1335 299.81L123.767 330.957C124.328 331.245 124.644 331.85 124.572 332.466L124.548 332.609L121.975 344.496C121.817 345.226 121.149 345.721 120.417 345.676L120.28 345.661L71.4376 338.104C70.6189 337.977 70.0579 337.211 70.1846 336.392C70.3038 335.622 70.9897 335.079 71.7525 335.124L71.8963 335.139L119.341 342.48L121.371 333.1L60.9896 302.082C60.5112 301.836 60.2009 301.353 60.1765 300.816L58.4935 263.803C58.4558 262.975 59.0961 262.274 59.9237 262.236Z" fill="black"/>
<path d="M121.606 332.024C121.745 331.256 122.445 330.732 123.206 330.796L123.349 330.815L140.79 333.978C140.954 334.008 141.111 334.064 141.255 334.145L141.395 334.234L156.955 345.348C157.629 345.829 157.785 346.766 157.303 347.44C156.85 348.075 155.994 348.25 155.333 347.867L155.211 347.789L139.923 336.869L122.814 333.767C122.047 333.628 121.523 332.928 121.587 332.167L121.606 332.024Z" fill="black"/>
<path d="M119.043 343.861C119.207 343.099 119.924 342.598 120.683 342.688L120.826 342.712L138.573 346.55C138.856 346.611 139.114 346.753 139.317 346.956L139.414 347.063L148.312 357.88C148.838 358.52 148.746 359.465 148.107 359.991C147.507 360.485 146.638 360.435 146.099 359.899L145.995 359.786L137.427 349.372L120.192 345.644C119.429 345.479 118.929 344.762 119.019 344.004L119.043 343.861Z" fill="black"/>
<path d="M259.706 302.506C260.961 302.176 261.993 303.479 261.439 304.609L261.376 304.725L240.083 340.45C239.659 341.161 238.738 341.395 238.027 340.97C237.357 340.571 237.111 339.732 237.438 339.042L237.506 338.914L256.919 306.342L177.235 327.335L146.101 375.895C145.78 376.397 145.194 376.656 144.614 376.568L144.469 376.539L95.665 364.126C94.2562 363.767 94.1474 361.844 95.4337 361.297L95.5718 361.245L138.002 347.478C138.79 347.222 139.636 347.654 139.891 348.442C140.132 349.184 139.764 349.977 139.063 350.281L138.928 350.332L101.432 362.497L144.159 373.364L175.025 325.224C175.199 324.953 175.455 324.746 175.753 324.632L175.906 324.583L259.706 302.506Z" fill="black"/>
<path d="M225.458 354.529C226.263 354.333 227.074 354.827 227.271 355.632C227.455 356.389 227.029 357.152 226.307 357.403L226.168 357.444L146.537 376.845L86.0562 397.508C85.3183 397.76 84.5197 397.404 84.205 396.708L84.1518 396.574C83.8997 395.836 84.2555 395.037 84.9518 394.722L85.0862 394.669L145.621 373.987L145.751 373.949L225.458 354.529Z" fill="black"/>
<path d="M144.24 257.806C144.24 256.041 146.718 255.753 147.177 257.373L147.212 257.52L155.86 302.068L183.591 323.155C184.212 323.627 184.362 324.489 183.959 325.138L183.877 325.257C183.405 325.878 182.544 326.028 181.894 325.625L181.775 325.543L153.589 304.109C153.338 303.918 153.154 303.653 153.062 303.354L153.024 303.201L147.24 273.406V302.686L157.515 335.603C157.747 336.348 157.37 337.137 156.666 337.433L156.53 337.482C155.786 337.714 154.997 337.338 154.701 336.633L154.651 336.497L144.308 303.362C144.278 303.266 144.258 303.167 144.248 303.066L144.24 302.915V257.806Z" fill="black"/>
<path d="M203.898 359.813L204.043 359.815L205.221 359.891C218.231 360.806 226.155 363.905 232.61 372.06C235.361 375.533 237.282 379.008 238.172 383.797C239.379 390.298 237.797 396.657 234.275 402.633C233.013 404.773 231.572 406.738 230.048 408.504C229.045 409.666 228.171 410.558 227.468 411.208C226.86 411.77 225.911 411.733 225.348 411.125C224.785 410.517 224.822 409.568 225.431 409.005L225.788 408.667C226.35 408.123 227.02 407.42 227.777 406.543C229.19 404.906 230.526 403.085 231.69 401.11C234.874 395.708 236.282 390.05 235.222 384.344C234.44 380.134 232.733 377.047 230.258 373.922C224.245 366.326 216.81 363.575 203.866 362.81C203.039 362.761 202.408 362.051 202.457 361.224C202.503 360.446 203.134 359.841 203.898 359.813Z" fill="black"/>
<path d="M233.664 336.791C226.984 336.791 221.57 342.206 221.57 348.885C221.57 355.564 226.984 360.978 233.664 360.978C240.343 360.978 245.757 355.564 245.757 348.885C245.757 342.205 240.343 336.791 233.664 336.791ZM233.664 339.791C238.686 339.791 242.757 343.862 242.757 348.885C242.757 353.908 238.686 357.978 233.664 357.978C228.641 357.978 224.57 353.907 224.57 348.885C224.57 343.862 228.641 339.791 233.664 339.791Z" fill="black"/>
<path d="M96.0352 361.172C96.8149 361.172 97.4556 361.767 97.5283 362.527L97.5352 362.672L97.5345 368.86L135.476 377.694C136.236 377.871 136.725 378.595 136.623 379.353L136.597 379.495C136.42 380.254 135.696 380.744 134.938 380.642L134.796 380.616L95.695 371.513C95.0611 371.365 94.6001 370.828 94.5415 370.19L94.5352 370.052V362.672C94.5352 361.843 95.2067 361.172 96.0352 361.172Z" fill="black"/>
<path d="M226.631 357.132C227.008 356.394 227.911 356.101 228.649 356.478C229.343 356.833 229.643 357.654 229.362 358.364L229.302 358.496L226.929 363.142C226.76 363.474 226.474 363.729 226.129 363.861L225.978 363.91L219.77 365.556C218.969 365.768 218.148 365.291 217.936 364.49C217.736 363.737 218.147 362.965 218.863 362.7L219.001 362.656L224.561 361.182L226.631 357.132Z" fill="black"/>
<path fill-rule="evenodd" clip-rule="evenodd" d="M117.194 187.725C115.613 187.774 113.405 187.699 110.873 187.14C108.088 186.525 105.957 185.557 104.552 184.794C104.818 187.055 105.493 190.249 107.295 193.783C109.484 198.079 112.413 201.062 114.457 202.838C115.391 201.274 116.466 199.062 117.082 196.295C117.875 192.725 117.577 189.702 117.194 187.725Z" fill="black"/>
<path d="M283.187 114.374L287.499 118.687L296.124 110.062M283.187 134.499L287.499 138.812L296.124 130.187M283.187 154.624L287.499 158.937L296.124 150.312M306.187 134.499H337.812M306.187 154.624H337.812M306.187 114.374H337.812" stroke="black" stroke-width="4.16667" stroke-linecap="round" stroke-linejoin="round"/>
</svg>
