<svg width="551" height="676" viewBox="0 0 551 676" fill="none" xmlns="http://www.w3.org/2000/svg">
<path fill-rule="evenodd" clip-rule="evenodd" d="M285.112 131.228C286.436 130.84 287.87 130.708 289.355 130.889C293.822 131.431 297.54 134.923 298.316 139.356C298.946 142.953 297.731 146.292 295.461 148.584C294.521 149.533 294.273 150.964 294.883 152.152C298.043 158.316 302.865 166.226 307.881 177.622C322.53 210.901 332.434 246.589 372.876 255.874C407.931 263.923 431.144 230.434 414.747 199.424C400.779 173.009 370.911 166.884 352.107 145.909C334.976 126.798 332.518 97.331 307.956 83.976C300.867 80.122 292.574 78.77 284.794 80.912C266.529 85.939 263.909 105.391 272.474 119.584C275.644 124.837 279.125 128.408 281.81 130.535C282.74 131.271 283.972 131.562 285.112 131.228Z" fill="black"/>
<path d="M272.071 102.425C271.41 101.925 270.47 102.056 269.97 102.717L268.554 104.571L265.713 108.248C262.024 113.053 260.149 115.725 258.21 119.084C255.051 124.551 252.617 130.617 250.906 137.121C250.596 138.298 250.31 139.496 250.045 140.719C248.232 149.085 248.421 154.615 252.435 158.445C255.775 161.634 262.035 164.046 270.451 165.9C274.776 166.853 279.4 167.594 284.022 168.15L285.379 168.307C286.263 168.407 287.107 168.494 287.902 168.57L289.521 168.715L290.2 168.769C291.026 168.827 291.743 168.204 291.801 167.377C291.859 166.551 291.236 165.834 290.41 165.776L289.536 165.706C289.298 165.686 289.04 165.663 288.763 165.638L287.594 165.526C286.59 165.425 285.514 165.307 284.38 165.171C279.848 164.626 275.316 163.9 271.097 162.97L270.031 162.73C262.662 161.022 257.202 158.848 254.506 156.275C251.541 153.445 251.379 148.726 252.976 141.354C253.233 140.174 253.509 139.018 253.807 137.884C255.452 131.63 257.787 125.813 260.808 120.584L261.126 120.038C262.934 116.97 264.806 114.344 268.424 109.644L271.111 106.167C271.459 105.714 271.765 105.314 272.065 104.92L272.363 104.526C272.863 103.865 272.732 102.924 272.071 102.425Z" fill="black"/>
<path d="M276.037 164.929C275.886 164.114 275.104 163.576 274.289 163.726C273.523 163.868 273.001 164.57 273.068 165.331L273.087 165.474L278.133 192.758C278.284 193.573 279.066 194.111 279.881 193.96C280.648 193.819 281.169 193.117 281.103 192.356L281.083 192.213L276.037 164.929Z" fill="black"/>
<path d="M174.207 87.6434C173.708 87.0159 172.813 86.8967 172.171 87.3476L172.054 87.4388L156.847 100.514C156.302 100.982 156.171 101.764 156.514 102.38L156.594 102.509L203.201 169.384C203.265 169.475 203.338 169.558 203.419 169.632L203.547 169.737L269.529 217.956C270.198 218.445 271.136 218.299 271.625 217.63C272.085 217.001 271.983 216.132 271.412 215.625L271.299 215.534L205.521 167.464L159.831 101.904L172.828 90.7291L216.285 145.46C216.417 145.626 216.582 145.761 216.769 145.858L216.913 145.924L261.704 163.477C262.475 163.779 263.345 163.399 263.648 162.628C263.932 161.902 263.612 161.088 262.93 160.743L262.798 160.684L218.383 143.277L174.207 87.6434Z" fill="black"/>
<path d="M159.23 55.255C158.865 54.278 157.651 53.9738 156.87 54.6223L156.766 54.7167L154.168 57.3029C152.01 59.4518 151.137 62.567 151.848 65.5123L151.925 65.8063L153.831 72.6488L152.594 73.7613C148.007 77.8847 147.205 84.756 150.673 89.817L150.86 90.0817L158.623 100.801C159.109 101.472 160.046 101.622 160.717 101.136C161.349 100.678 161.519 99.8207 161.132 99.162L161.052 99.041L153.289 88.3221C150.565 84.5596 151.052 79.3786 154.388 76.1886L154.6 75.9918L156.528 74.2568C156.916 73.9076 157.092 73.3846 157.001 72.8772L156.97 72.7394L154.814 65.0011C154.284 63.0982 154.779 61.0613 156.107 59.6143L156.285 59.4289L157.234 58.4848L169.387 91.0276C169.66 91.758 170.442 92.1502 171.18 91.9521L171.317 91.908C172.048 91.6352 172.44 90.8538 172.242 90.1158L172.198 89.978L159.23 55.255Z" fill="black"/>
<path d="M306.665 187.337C301.335 185.872 297.36 185.411 292.222 186.356L291.704 186.461C291.084 186.593 290.401 186.765 289.576 187.01C287.973 187.487 286.318 188.112 284.661 188.913C280.232 191.051 276.446 194.093 273.726 198.209L273.438 198.655C273.306 198.865 273.089 199.237 272.816 199.752C272.367 200.598 271.92 201.546 271.503 202.579C270.798 204.322 270.251 206.129 269.921 207.961L269.832 208.487C268.529 216.755 269.966 234.414 273.323 258.383C274.385 265.968 275.584 273.761 276.847 281.461L277.393 284.755C277.657 286.34 277.917 287.873 278.169 289.346L279.053 294.432L279.348 296.094L193.427 304.481C192.763 304.545 192.221 305.041 192.099 305.697C191.099 311.031 191.199 316.808 193.34 323.073C195.63 329.733 199.388 334.549 203.758 338.207C203.984 338.396 204.261 338.514 204.554 338.547L213.839 339.594C227.449 341.141 241.114 342.745 256.023 344.569L290.528 348.865C297.47 349.714 301.952 350.214 305.526 350.524L307.115 350.654C314.9 351.249 318.599 350.845 322.327 349.087L322.642 348.936C332.153 344.247 336.946 333.763 338.367 317.303L338.477 315.949C339.338 304.613 338.895 294.318 336.864 269.521L335.631 254.598C335.455 252.4 335.306 250.459 335.163 248.51L335.072 247.253C334.569 240.255 334.232 234.152 334.052 228.406C334.026 227.578 333.334 226.927 332.506 226.953C331.678 226.979 331.028 227.671 331.054 228.499L331.12 230.444C331.3 235.34 331.591 240.522 331.997 246.303L332.233 249.567C332.451 252.505 332.69 255.506 333.018 259.469L333.927 270.413C335.898 294.56 336.322 304.694 335.485 315.721L335.428 316.457C334.148 332.323 329.772 342.076 321.319 346.244L321.048 346.374C317.872 347.871 314.632 348.224 307.306 347.66L305.783 347.535C303.206 347.311 300.138 346.986 295.982 346.498L260.487 342.095L252.348 341.099C238.315 339.394 225.318 337.875 212.321 336.403L205.343 335.616L205.312 335.59C201.608 332.4 198.412 328.259 196.378 322.665L196.178 322.1C194.421 316.961 194.172 312.175 194.805 307.722L194.86 307.354L281.259 298.922C282.132 298.837 282.746 298.024 282.589 297.16L282.048 294.142L281.424 290.572C281.08 288.585 280.721 286.475 280.352 284.261C278.892 275.522 277.504 266.607 276.294 257.967L275.878 254.955C272.803 232.376 271.559 215.754 272.873 208.494C273.164 206.878 273.653 205.265 274.284 203.703C274.598 202.926 274.93 202.203 275.265 201.545L275.466 201.158C275.703 200.711 275.883 200.402 275.977 200.253C278.386 196.431 281.851 193.6 285.965 191.614C287.47 190.888 288.975 190.318 290.431 189.886C291.386 189.602 292.117 189.431 292.775 189.305C297.368 188.46 300.937 188.874 305.875 190.231C308.38 190.91 310.823 191.845 313.182 193.005C313.926 193.37 314.825 193.064 315.19 192.32C315.555 191.577 315.249 190.678 314.505 190.312C311.977 189.07 309.356 188.066 306.665 187.337Z" fill="black"/>
<path d="M165.225 294.395C164.456 293.668 163.211 293.95 162.813 294.901L162.766 295.029L161.235 299.822C159.829 304.231 160.981 309.046 164.205 312.338L164.439 312.57L168.621 316.622C169.973 317.933 171.045 319.5 171.774 321.23L171.936 321.633C174.067 327.161 179.109 331.02 184.98 331.647L185.225 331.669L200.775 334.961C201.538 335.122 202.288 334.673 202.517 333.944L202.553 333.804C202.715 333.041 202.265 332.291 201.536 332.062L201.396 332.026L185.763 328.718L185.579 328.69C180.814 328.287 176.682 325.258 174.856 320.856L174.735 320.554C173.907 318.402 172.647 316.442 171.035 314.793L170.708 314.468L166.526 310.416C164.019 307.987 163.057 304.382 164.001 301.038L164.093 300.735L164.898 298.213L174.2 307.01C174.382 307.182 174.604 307.305 174.844 307.37L174.991 307.401L192.774 310.28C193.592 310.412 194.362 309.857 194.494 309.039C194.619 308.269 194.134 307.542 193.395 307.348L193.253 307.318L175.928 304.513L165.225 294.395Z" fill="black"/>
<path d="M403.359 251.768C403.07 250.991 402.206 250.597 401.43 250.886C400.699 251.158 400.306 251.939 400.504 252.677L400.548 252.815L441.367 362.381C445.145 372.52 439.725 383.785 429.464 387.077C408.815 393.7 386.978 397.191 365.468 395.707C337.572 393.782 312.841 383.575 292.614 363.343L291.806 362.524L291.805 347.329C291.805 346.55 291.211 345.909 290.45 345.836L290.305 345.829C289.526 345.829 288.885 346.424 288.812 347.185L288.805 347.329V363.136C288.805 363.527 288.958 363.901 289.229 364.181C310.225 385.806 336.094 396.687 365.261 398.7C387.196 400.213 409.397 396.664 430.381 389.934C442.157 386.156 448.426 373.332 444.306 361.686L444.178 361.334L403.359 251.768Z" fill="black"/>
<path d="M437.867 384.637C437.653 383.836 436.831 383.361 436.03 383.575C435.23 383.788 434.754 384.611 434.968 385.411C438.562 398.862 438.495 412.624 433.069 425.697C426.595 441.309 414.058 451.973 397.591 458.582C391.635 460.973 385.523 462.675 379.533 463.802C377.326 464.217 375.253 464.53 373.351 464.755L372.243 464.879C371.433 464.963 370.746 465.02 370.191 465.056C360.98 465.645 353.459 464.518 340.241 460.895C312.48 453.284 283.552 441.811 252.504 424.485C251.496 423.922 250.256 424.662 250.274 425.817L250.538 442.039C250.791 456.25 251.105 470.772 251.581 490.548L253.273 558.793C253.802 580.712 254.136 596.196 254.403 611.677L254.608 624.333L229.65 637.74L229.42 636.294C226.613 618.693 223.792 602.155 220.611 584.433L217.92 569.655C215.101 554.319 211.016 532.294 210.813 531.187L209.578 524.421C206.46 507.244 204.038 493.139 201.684 478.231C201.555 477.413 200.787 476.854 199.968 476.983C199.15 477.112 198.592 477.88 198.721 478.699L199.266 482.132C201.638 496.964 204.126 511.287 207.359 528.979L216.953 581.053L217.017 581.406C220.676 601.66 223.841 620.201 227.018 640.297C227.179 641.318 228.3 641.873 229.21 641.384L256.83 626.545C257.284 626.301 257.577 625.845 257.617 625.34L257.621 625.201L257.357 608.973C257.047 591.538 256.644 573.637 255.964 546.13L254.41 483.328C253.959 464.188 253.666 449.991 253.423 435.3L253.313 428.362L253.923 428.699C283.626 444.999 311.428 455.999 338.155 463.432L339.448 463.788L340.926 464.189C353.54 467.575 361.137 468.641 370.382 468.05L371.051 468.002C373.361 467.824 376.437 467.436 380.088 466.75C386.259 465.59 392.558 463.835 398.708 461.367C415.865 454.48 429.021 443.289 435.84 426.847C441.548 413.095 441.618 398.677 437.867 384.637Z" fill="black"/>
<path d="M218.274 337.151C217.561 336.835 216.734 337.118 216.359 337.784L216.294 337.913L130.098 532.023C129.793 532.711 130.046 533.51 130.672 533.902L130.793 533.971L157.149 547.272C157.797 547.599 158.579 547.413 159.013 546.849L159.095 546.731L270.48 369.394L290.78 362.601C291.52 362.354 291.939 361.586 291.766 360.842L291.727 360.703C291.479 359.963 290.712 359.545 289.967 359.717L289.828 359.756L269.019 366.719C268.737 366.814 268.491 366.989 268.31 367.223L268.225 367.344L157.282 543.978L133.42 531.935L219.036 339.131C219.353 338.418 219.069 337.591 218.403 337.216L218.274 337.151Z" fill="black"/>
<path d="M176.468 261.459C176.118 260.945 175.493 260.705 174.897 260.84L174.76 260.878L149.323 269.234C148.436 269.525 148.038 270.539 148.458 271.348L148.528 271.468L166.713 299.87C167.159 300.567 168.087 300.771 168.785 300.324C169.441 299.904 169.66 299.057 169.311 298.377L169.239 298.252L152.099 271.479L174.624 264.079L202.925 305.645C203.364 306.29 204.216 306.484 204.886 306.116L205.009 306.041C205.654 305.602 205.848 304.75 205.48 304.08L205.405 303.957L176.468 261.459Z" fill="black"/>
<path fill-rule="evenodd" clip-rule="evenodd" d="M256.121 623.445L257.279 648.351L202.69 674.358L202.225 670.511C201.187 661.936 205.116 653.516 212.353 648.802L228.499 638.285L256.121 623.445Z" fill="black"/>
<path d="M257.62 623.375L258.778 648.282C258.806 648.885 258.469 649.446 257.924 649.705L203.335 675.712C202.41 676.153 201.324 675.556 201.201 674.538L200.736 670.691C199.629 661.549 203.818 652.572 211.535 647.545L227.681 637.028L227.789 636.964L255.411 622.124C256.384 621.601 257.568 622.273 257.62 623.375ZM254.734 625.893L229.266 639.576L213.172 650.059L212.837 650.282C206.293 654.723 202.761 662.458 203.714 670.331L203.93 672.106L255.735 647.425L254.734 625.893Z" fill="black"/>
<path fill-rule="evenodd" clip-rule="evenodd" d="M158.4 546.403L148.378 561.831L92.8694 535.226C97.8594 527.325 107.707 524.007 116.461 527.278L132.045 533.102L158.4 546.403Z" fill="black"/>
<path d="M132.57 531.697L132.721 531.763L159.076 545.064C159.873 545.466 160.144 546.471 159.658 547.22L149.636 562.648C149.225 563.28 148.409 563.509 147.73 563.184L92.2207 536.579C91.4114 536.191 91.1216 535.184 91.6008 534.425C96.9702 525.923 107.567 522.353 116.986 525.873L132.57 531.697ZM95.1096 534.636L147.839 559.909L156.232 546.988L131.443 534.478L115.936 528.683C108.434 525.88 100.062 528.314 95.2083 534.507L95.1096 534.636Z" fill="black"/>
<path d="M208.312 362.481C208.12 361.725 207.385 361.252 206.63 361.369L206.488 361.399L195.315 364.25C181.127 367.871 172.299 381.97 175.178 396.274L175.268 396.707L180.28 419.723C180.457 420.533 181.256 421.046 182.065 420.87C182.827 420.704 183.327 419.986 183.236 419.227L183.212 419.085L178.2 396.069C175.425 383.325 183.134 370.67 195.675 367.258L196.057 367.157L207.23 364.305C208.033 364.1 208.517 363.284 208.312 362.481Z" fill="black"/>
<path d="M403.831 327.533C403.008 327.439 402.264 328.03 402.17 328.853C401.427 335.341 399.227 341.852 394.53 347.963C390.347 353.405 385.021 357.262 378.999 359.809C375 361.501 371.474 362.349 368.224 362.776C367.403 362.884 366.825 363.638 366.933 364.459C367.041 365.281 367.794 365.859 368.616 365.751C372.111 365.291 375.888 364.383 380.168 362.572C386.642 359.834 392.388 355.672 396.908 349.792C401.982 343.191 404.351 336.179 405.15 329.194C405.245 328.371 404.654 327.628 403.831 327.533Z" fill="black"/>
<path d="M388.69 293.916C388.44 293.126 387.598 292.688 386.808 292.937C386.018 293.186 385.579 294.029 385.828 294.819C387.792 301.046 388.434 307.889 386.632 315.384C385.027 322.057 381.733 327.748 377.271 332.527C374.307 335.701 371.432 337.911 368.638 339.625C367.932 340.058 367.71 340.982 368.143 341.688C368.577 342.394 369.5 342.615 370.206 342.182C373.212 340.338 376.292 337.971 379.464 334.575C384.261 329.437 387.815 323.296 389.548 316.085C391.495 307.991 390.804 300.62 388.69 293.916Z" fill="black"/>
<path fill-rule="evenodd" clip-rule="evenodd" d="M470.156 497.341H280.461V465.771H470.156V497.341Z" fill="black"/>
<path fill-rule="evenodd" clip-rule="evenodd" d="M536.084 263.721C536.084 267.612 539.238 270.766 543.129 270.766C547.02 270.766 550.174 267.612 550.174 263.721C550.174 259.83 547.02 256.676 543.129 256.676C539.238 256.676 536.084 259.83 536.084 263.721Z" fill="white"/>
<path fill-rule="evenodd" clip-rule="evenodd" d="M513.826 263.721C513.826 267.612 516.979 270.766 520.871 270.766C524.762 270.766 527.915 267.612 527.915 263.721C527.915 259.83 524.762 256.676 520.871 256.676C516.979 256.676 513.826 259.83 513.826 263.721Z" fill="white"/>
<path fill-rule="evenodd" clip-rule="evenodd" d="M491.567 263.721C491.567 267.612 494.721 270.766 498.612 270.766C502.503 270.766 505.657 267.612 505.657 263.721C505.657 259.83 502.503 256.676 498.612 256.676C494.721 256.676 491.567 259.83 491.567 263.721Z" fill="white"/>
<path d="M30.9219 98.4375H49.6719C50.9663 98.4375 52.0156 99.4868 52.0156 100.781V119.531C52.0156 120.826 50.9663 121.875 49.6719 121.875H30.9219C29.6275 121.875 28.5781 120.826 28.5781 119.531V100.781C28.5781 99.4868 29.6275 98.4375 30.9219 98.4375Z" fill="black"/>
<path d="M54.3594 79.6875H68.4219C69.7163 79.6875 70.7656 80.7368 70.7656 82.0312V96.0938C70.7656 97.3882 69.7163 98.4375 68.4219 98.4375H54.3594C53.065 98.4375 52.0156 97.3882 52.0156 96.0938V82.0312C52.0156 80.7368 53.065 79.6875 54.3594 79.6875Z" fill="black"/>
<path d="M12.1719 121.875H26.2344C27.5288 121.875 28.5781 122.924 28.5781 124.219V138.281C28.5781 139.576 27.5288 140.625 26.2344 140.625H12.1719C10.8775 140.625 9.82812 139.576 9.82812 138.281V124.219C9.82812 122.924 10.8775 121.875 12.1719 121.875Z" fill="black"/>
<path d="M12.1719 79.6875H21.5469C22.8413 79.6875 23.8906 80.7368 23.8906 82.0312V91.4062C23.8906 92.7007 22.8413 93.75 21.5469 93.75H12.1719C10.8775 93.75 9.82812 92.7007 9.82812 91.4062V82.0312C9.82812 80.7368 10.8775 79.6875 12.1719 79.6875Z" fill="black"/>
<path d="M59.0469 126.562H68.4219C69.7163 126.562 70.7656 127.612 70.7656 128.906V138.281C70.7656 139.576 69.7163 140.625 68.4219 140.625H59.0469C57.7525 140.625 56.7031 139.576 56.7031 138.281V128.906C56.7031 127.612 57.7525 126.562 59.0469 126.562Z" fill="black"/>
<path d="M30.9219 28.125H49.6719C50.9663 28.125 52.0156 29.1743 52.0156 30.4688V49.2188C52.0156 50.5132 50.9663 51.5625 49.6719 51.5625H30.9219C29.6275 51.5625 28.5781 50.5132 28.5781 49.2188V30.4688C28.5781 29.1743 29.6275 28.125 30.9219 28.125Z" fill="black"/>
<path d="M19.2031 14.0625H61.3906C63.9795 14.0625 66.0781 16.1612 66.0781 18.75V60.9375C66.0781 63.5263 63.9795 65.625 61.3906 65.625H19.2031C16.6143 65.625 14.5156 63.5263 14.5156 60.9375V18.75C14.5156 16.1612 16.6143 14.0625 19.2031 14.0625Z" stroke="black" stroke-width="3.125" stroke-linecap="round" stroke-linejoin="round"/>
<path d="M101.234 28.125H119.984C121.279 28.125 122.328 29.1743 122.328 30.4688V49.2188C122.328 50.5132 121.279 51.5625 119.984 51.5625H101.234C99.94 51.5625 98.8906 50.5132 98.8906 49.2188V30.4688C98.8906 29.1743 99.94 28.125 101.234 28.125Z" fill="black"/>
<path d="M89.5156 14.0625H131.703C134.292 14.0625 136.391 16.1612 136.391 18.75V60.9375C136.391 63.5263 134.292 65.625 131.703 65.625H89.5156C86.9268 65.625 84.8281 63.5263 84.8281 60.9375V18.75C84.8281 16.1612 86.9268 14.0625 89.5156 14.0625Z" stroke="black" stroke-width="3.125" stroke-linecap="round" stroke-linejoin="round"/>
<path d="M101.234 98.4375H119.984C121.279 98.4375 122.328 99.4868 122.328 100.781V119.531C122.328 120.826 121.279 121.875 119.984 121.875H101.234C99.94 121.875 98.8906 120.826 98.8906 119.531V100.781C98.8906 99.4868 99.94 98.4375 101.234 98.4375Z" fill="black"/>
<path d="M89.5156 84.375H131.703C134.292 84.375 136.391 86.4737 136.391 89.0625V131.25C136.391 133.839 134.292 135.938 131.703 135.938H89.5156C86.9268 135.938 84.8281 133.839 84.8281 131.25V89.0625C84.8281 86.4737 86.9268 84.375 89.5156 84.375Z" stroke="black" stroke-width="3.125" stroke-linecap="round" stroke-linejoin="round"/>
<path fill-rule="evenodd" clip-rule="evenodd" d="M144.323 230.767C144.323 240.61 152.302 248.589 162.145 248.589C171.988 248.589 179.968 240.61 179.968 230.767C179.968 220.924 171.988 212.945 162.145 212.945C152.302 212.945 144.323 220.924 144.323 230.767Z" fill="black"/>
<path fill-rule="evenodd" clip-rule="evenodd" d="M151.616 226.962C151.616 230.675 154.627 233.686 158.34 233.686C162.053 233.686 165.063 230.675 165.063 226.962C165.063 223.249 162.053 220.238 158.34 220.238C154.627 220.238 151.616 223.249 151.616 226.962Z" fill="white"/>
<path fill-rule="evenodd" clip-rule="evenodd" d="M137.671 271.024C137.671 277.15 142.636 282.116 148.762 282.116C154.888 282.116 159.854 277.15 159.854 271.024C159.854 264.898 154.888 259.932 148.762 259.932C142.636 259.932 137.671 264.898 137.671 271.024Z" fill="black"/>
<path fill-rule="evenodd" clip-rule="evenodd" d="M141.323 268.92C141.323 270.576 142.666 271.919 144.322 271.919C145.979 271.919 147.322 270.576 147.322 268.92C147.322 267.263 145.979 265.92 144.322 265.92C142.666 265.92 141.323 267.263 141.323 268.92Z" fill="white"/>
<path fill-rule="evenodd" clip-rule="evenodd" d="M189.98 249.993C189.98 253.91 193.155 257.086 197.073 257.086C200.99 257.086 204.165 253.91 204.165 249.993C204.165 246.076 200.99 242.9 197.073 242.9C193.155 242.9 189.98 246.076 189.98 249.993Z" fill="black"/>
<path fill-rule="evenodd" clip-rule="evenodd" d="M198.084 248.219C198.084 249.199 198.879 249.993 199.859 249.993C200.839 249.993 201.634 249.199 201.634 248.219C201.634 247.239 200.839 246.445 199.859 246.445C198.879 246.445 198.084 247.239 198.084 248.219Z" fill="white"/>
<path d="M177.288 274.091C177.035 273.354 176.264 272.941 175.521 273.12L175.382 273.16L163.893 277.11C163.11 277.379 162.693 278.233 162.962 279.016C163.216 279.754 163.987 280.166 164.73 279.988L164.868 279.947L176.357 275.997C177.141 275.728 177.558 274.874 177.288 274.091Z" fill="black"/>
<path d="M183.033 282.058C182.78 281.32 182.009 280.908 181.266 281.086L181.127 281.127L169.638 285.078C168.855 285.347 168.438 286.201 168.707 286.984C168.961 287.721 169.732 288.134 170.475 287.955L170.614 287.915L182.103 283.964C182.886 283.694 183.303 282.841 183.033 282.058Z" fill="black"/>
</svg>
