<svg width="50" height="50" viewBox="0 0 50 50" fill="none" xmlns="http://www.w3.org/2000/svg">
<path d="M40.8438 32.8125H34.5938C34.1623 32.8125 33.8125 33.1623 33.8125 33.5938V39.8438C33.8125 40.2752 34.1623 40.625 34.5938 40.625H40.8438C41.2752 40.625 41.625 40.2752 41.625 39.8438V33.5938C41.625 33.1623 41.2752 32.8125 40.8438 32.8125Z" fill="#FC4700"/>
<path d="M32.8625 26H27.8375C27.375 26 27 26.375 27 26.8375V31.8625C27 32.325 27.375 32.7 27.8375 32.7H32.8625C33.325 32.7 33.7 32.325 33.7 31.8625V26.8375C33.7 26.375 33.325 26 32.8625 26Z" fill="#FC4700"/>
<path d="M47.8625 41H42.8375C42.375 41 42 41.375 42 41.8375V46.8625C42 47.325 42.375 47.7 42.8375 47.7H47.8625C48.325 47.7 48.7 47.325 48.7 46.8625V41.8375C48.7 41.375 48.325 41 47.8625 41Z" fill="#FC4700"/>
<path d="M47.75 26H43.95C43.4253 26 43 26.4253 43 26.95V30.75C43 31.2747 43.4253 31.7 43.95 31.7H47.75C48.2747 31.7 48.7 31.2747 48.7 30.75V26.95C48.7 26.4253 48.2747 26 47.75 26Z" fill="#FC4700"/>
<path d="M31.75 42H27.95C27.4253 42 27 42.4253 27 42.95V46.75C27 47.2747 27.4253 47.7 27.95 47.7H31.75C32.2747 47.7 32.7 47.2747 32.7 46.75V42.95C32.7 42.4253 32.2747 42 31.75 42Z" fill="#FC4700"/>
<path d="M40.8438 9.375H34.5938C34.1623 9.375 33.8125 9.72478 33.8125 10.1562V16.4062C33.8125 16.8377 34.1623 17.1875 34.5938 17.1875H40.8438C41.2752 17.1875 41.625 16.8377 41.625 16.4062V10.1562C41.625 9.72478 41.2752 9.375 40.8438 9.375Z" fill="#FC4700"/>
<path d="M44.75 4.6875H30.6875C29.8246 4.6875 29.125 5.38706 29.125 6.25V20.3125C29.125 21.1754 29.8246 21.875 30.6875 21.875H44.75C45.6129 21.875 46.3125 21.1754 46.3125 20.3125V6.25C46.3125 5.38706 45.6129 4.6875 44.75 4.6875Z" stroke="#FC4700" stroke-width="5" stroke-linecap="round" stroke-linejoin="round"/>
<path d="M16.4062 9.375H10.1562C9.72478 9.375 9.375 9.72478 9.375 10.1562V16.4062C9.375 16.8377 9.72478 17.1875 10.1562 17.1875H16.4062C16.8377 17.1875 17.1875 16.8377 17.1875 16.4062V10.1562C17.1875 9.72478 16.8377 9.375 16.4062 9.375Z" fill="#FC4700"/>
<path d="M20.3125 4.6875H6.25C5.38706 4.6875 4.6875 5.38706 4.6875 6.25V20.3125C4.6875 21.1754 5.38706 21.875 6.25 21.875H20.3125C21.1754 21.875 21.875 21.1754 21.875 20.3125V6.25C21.875 5.38706 21.1754 4.6875 20.3125 4.6875Z" stroke="#FC4700" stroke-width="5" stroke-linecap="round" stroke-linejoin="round"/>
<path d="M16.4062 33.8125H10.1562C9.72478 33.8125 9.375 34.1623 9.375 34.5938V40.8438C9.375 41.2752 9.72478 41.625 10.1562 41.625H16.4062C16.8377 41.625 17.1875 41.2752 17.1875 40.8438V34.5938C17.1875 34.1623 16.8377 33.8125 16.4062 33.8125Z" fill="#FC4700"/>
<path d="M20.3125 29.125H6.25C5.38706 29.125 4.6875 29.8246 4.6875 30.6875V44.75C4.6875 45.6129 5.38706 46.3125 6.25 46.3125H20.3125C21.1754 46.3125 21.875 45.6129 21.875 44.75V30.6875C21.875 29.8246 21.1754 29.125 20.3125 29.125Z" stroke="#FC4700" stroke-width="5" stroke-linecap="round" stroke-linejoin="round"/>
</svg>
