<svg width="412" height="606" viewBox="0 0 412 606" fill="none" xmlns="http://www.w3.org/2000/svg">
<path d="M84.8564 394.856C85.9108 394.856 86.7746 395.672 86.851 396.707L86.8564 396.856V410.553C86.8564 411.658 85.961 412.553 84.8564 412.553C83.8021 412.553 82.9383 411.738 82.8619 410.703L82.8564 410.553V396.856C82.8564 395.752 83.7519 394.856 84.8564 394.856Z" fill="white"/>
<path fill-rule="evenodd" clip-rule="evenodd" d="M0 446.75H265.268V409.176H0V446.75Z" fill="white"/>
<path fill-rule="evenodd" clip-rule="evenodd" d="M230.297 214.35H389.36V176.775H230.297V214.35Z" fill="white"/>
<path d="M357.314 374.569C356.345 374.569 355.504 374.251 354.793 373.615C354.079 372.979 353.636 372.186 353.464 371.236L352.368 362.519C351.038 362.117 349.599 361.486 348.052 360.628C346.507 359.767 345.192 358.844 344.106 357.861L336.127 361.294C335.246 361.683 334.352 361.725 333.443 361.419C332.535 361.114 331.835 360.537 331.343 359.69L326.847 351.944C326.356 351.097 326.211 350.211 326.414 349.286C326.617 348.361 327.1 347.603 327.864 347.011L334.831 341.803C334.706 341.047 334.604 340.271 334.527 339.474C334.443 338.674 334.402 337.897 334.402 337.144C334.402 336.444 334.443 335.708 334.527 334.936C334.604 334.164 334.706 333.294 334.831 332.328L327.864 327.119C327.1 326.528 326.631 325.757 326.456 324.807C326.281 323.857 326.438 322.957 326.927 322.107L331.343 314.607C331.835 313.81 332.535 313.246 333.443 312.915C334.352 312.585 335.246 312.614 336.127 313.003L344.027 316.353C345.271 315.317 346.618 314.382 348.068 313.549C349.513 312.715 350.92 312.071 352.289 311.615L353.468 302.899C353.638 301.949 354.079 301.155 354.793 300.519C355.507 299.883 356.347 299.567 357.314 299.569H365.981C366.95 299.569 367.79 299.887 368.502 300.524C369.215 301.16 369.658 301.953 369.831 302.903L370.927 311.703C372.524 312.264 373.935 312.907 375.16 313.632C376.385 314.357 377.647 315.265 378.947 316.357L387.247 313.007C388.131 312.618 389.027 312.589 389.935 312.919C390.843 313.25 391.542 313.814 392.031 314.611L396.447 322.19C396.939 323.04 397.083 323.926 396.881 324.849C396.678 325.771 396.195 326.53 395.431 327.128L388.147 332.569C388.375 333.43 388.503 334.221 388.531 334.94C388.558 335.66 388.572 336.368 388.572 337.065C388.572 337.712 388.545 338.394 388.489 339.111C388.436 339.83 388.314 340.7 388.122 341.719L395.164 347.011C395.928 347.603 396.425 348.361 396.656 349.286C396.886 350.211 396.756 351.097 396.264 351.944L391.822 359.607C391.333 360.457 390.621 361.033 389.685 361.336C388.749 361.642 387.84 361.6 386.96 361.211L378.947 357.778C377.65 358.869 376.345 359.804 375.031 360.582C373.717 361.36 372.349 361.978 370.927 362.436L369.827 371.232C369.657 372.182 369.215 372.975 368.502 373.611C367.788 374.247 366.947 374.567 365.981 374.569H357.314ZM357.481 370.403H365.631L367.168 359.119C369.268 358.564 371.157 357.801 372.835 356.832C374.518 355.862 376.229 354.535 377.968 352.849L388.364 357.278L392.506 350.194L383.385 343.344C383.732 342.158 383.963 341.067 384.077 340.069C384.188 339.075 384.243 338.075 384.243 337.069C384.243 336.014 384.188 335.014 384.077 334.069C383.965 333.125 383.735 332.087 383.385 330.957L392.664 323.944L388.522 316.861L377.889 321.319C376.628 319.933 374.971 318.635 372.918 317.424C370.863 316.215 368.918 315.414 367.085 315.019L365.814 303.736H357.506L356.206 314.94C354.106 315.387 352.175 316.11 350.414 317.107C348.656 318.101 346.906 319.469 345.164 321.211L334.772 316.861L330.631 323.944L339.668 330.694C339.321 331.628 339.078 332.642 338.939 333.736C338.8 334.83 338.731 335.969 338.731 337.153C338.731 338.208 338.8 339.257 338.939 340.299C339.078 341.34 339.295 342.354 339.589 343.34L330.631 350.194L334.772 357.278L345.085 352.903C346.721 354.553 348.418 355.876 350.177 356.874C351.938 357.871 353.921 358.647 356.127 359.203L357.481 370.403ZM361.535 347.486C364.44 347.486 366.903 346.476 368.922 344.457C370.942 342.437 371.952 339.975 371.952 337.069C371.952 334.164 370.942 331.701 368.922 329.682C366.903 327.662 364.44 326.653 361.535 326.653C358.613 326.653 356.146 327.662 354.135 329.682C352.124 331.701 351.118 334.164 351.118 337.069C351.118 339.975 352.124 342.437 354.135 344.457C356.146 346.476 358.613 347.486 361.535 347.486Z" fill="white"/>
<path d="M339.249 0C352.043 0 362.438 10.2669 362.645 23.0111L362.648 23.398V153.967C362.648 154.795 361.976 155.467 361.148 155.467C360.368 155.467 359.727 154.872 359.654 154.111L359.648 153.967V23.398C359.648 12.2484 350.702 3.18852 339.596 3.0029L339.249 3H81.5386C70.3898 3 61.3292 11.9454 61.1435 23.0503L61.1406 23.398V106.234C61.1406 107.062 60.4691 107.734 59.6406 107.734C58.8609 107.734 58.2202 107.139 58.1475 106.378L58.1406 106.234V23.398C58.1406 10.6051 68.4084 0.209763 81.1517 0.00313473L81.5386 0H339.249Z" fill="white"/>
<path d="M229.784 30C230.612 30 231.284 30.6716 231.284 31.5C231.284 32.2797 230.689 32.9204 229.928 32.9931L229.784 33H191.005C190.176 33 189.505 32.3284 189.505 31.5C189.505 30.7203 190.1 30.0796 190.86 30.0069L191.005 30H229.784Z" fill="white"/>
<path d="M361.147 400.208C361.927 400.208 362.568 400.803 362.641 401.564L362.647 401.708V581.654C362.647 594.447 352.38 604.842 339.636 605.049L339.249 605.052H81.5394C68.746 605.052 58.3501 594.785 58.1435 582.041L58.1404 581.654V482.828C58.1404 482 58.812 481.328 59.6404 481.328C60.4201 481.328 61.0608 481.923 61.1335 482.684L61.1404 482.828V581.654C61.1404 592.803 70.0862 601.863 81.1916 602.049L81.5394 602.052H339.249C350.399 602.052 359.459 593.107 359.644 582.002L359.647 581.654V401.708C359.647 400.88 360.319 400.208 361.147 400.208Z" fill="white"/>
<path d="M229.784 572.056C230.612 572.056 231.284 572.727 231.284 573.556C231.284 574.335 230.689 574.976 229.928 575.049L229.784 575.056H191.005C190.176 575.056 189.505 574.384 189.505 573.556C189.505 572.776 190.1 572.135 190.86 572.062L191.005 572.056H229.784Z" fill="white"/>
<path d="M360.773 232.831C361.553 232.831 362.194 233.426 362.267 234.187L362.273 234.331V276.143C362.273 276.971 361.602 277.643 360.773 277.643C359.994 277.643 359.353 277.048 359.28 276.288L359.273 276.143V234.331C359.273 233.503 359.945 232.831 360.773 232.831Z" fill="white"/>
<path fill-rule="evenodd" clip-rule="evenodd" d="M53.1005 203.484C44.5155 211.481 45.3225 225.806 53.8555 233.543C66.2215 244.755 89.3025 236.512 92.3165 220.151C92.4125 219.623 92.4865 219.09 92.5355 218.555C93.3405 209.65 87.5645 201.342 88.8575 192.481C89.2685 189.662 91.0675 187.272 92.7585 184.979C96.5395 179.856 101.811 172.655 100.58 165.894C99.9115 162.215 97.2925 159.214 94.5465 156.677C90.9555 153.359 82.0935 146.548 87.5935 140.991C88.4275 140.149 89.5945 139.54 90.7455 139.275C91.6965 139.056 92.7425 139.12 93.5795 139.619C96.3305 141.259 97.0365 144.552 100.821 144.662C102.756 144.718 104.695 143.793 105.869 142.253C107.663 139.9 107.524 136.596 106.787 133.73C106.378 132.14 105.809 130.488 106.211 128.896C106.84 126.412 109.669 125.055 112.231 125.094C114.793 125.134 117.209 126.198 119.659 126.951C126.471 129.046 134.221 128.659 140.315 124.962C143.537 123.008 146.372 119.843 146.549 116.08C146.7 112.872 144.898 109.876 142.709 107.527C137.062 101.467 128.738 98.5128 120.509 97.5608C112.411 96.6248 104.054 97.4518 96.4715 100.447C88.8905 103.443 82.1225 108.662 77.7185 115.522C74.0065 121.302 72.1135 128.092 71.7475 134.921C71.3755 141.886 73.0395 148.441 74.2345 155.222C75.2045 160.734 73.0225 166.955 69.1085 170.869C66.1335 173.843 62.5675 176.165 59.5135 179.059C56.3105 182.094 53.7065 186.006 53.4645 190.531C53.2945 193.713 54.7475 195.426 55.7925 198.181C56.6395 200.413 54.7135 202.008 53.2435 203.352C53.1955 203.396 53.1475 203.44 53.1005 203.484Z" fill="white"/>
<path d="M140.969 122.853C141.777 122.674 142.579 123.184 142.758 123.992C144.506 131.861 144.989 139.158 144.609 146.01C143.946 158.568 141.862 167.605 135.337 177.099C133.299 180.061 131.268 182.301 129.283 183.938C127.913 185.068 126.836 185.721 125.705 186.25C121.66 188.112 117.273 188.442 112.775 187.624C109.806 187.083 107.338 186.187 105.05 185.09C104.302 184.732 103.987 183.836 104.345 183.089C104.703 182.342 105.599 182.027 106.346 182.385C108.415 183.376 110.647 184.187 113.313 184.672C117.247 185.388 121.02 185.104 124.442 183.529C125.35 183.104 126.215 182.58 127.374 181.624C129.139 180.168 130.983 178.135 132.865 175.399C139.001 166.47 140.977 157.904 141.613 145.848C141.979 139.253 141.514 132.227 139.83 124.643C139.65 123.834 140.16 123.033 140.969 122.853Z" fill="white"/>
<path d="M116.133 185.036C116.952 184.91 117.719 185.47 117.846 186.289C118.883 192.979 117.981 199.643 114.176 205.549C113.188 207.086 112.132 208.465 110.583 209.997C108.29 212.266 105.552 214.141 102.311 215.438C99.074 216.724 95.7853 217.264 92.5516 217.197C91.7233 217.18 91.0656 216.495 91.0826 215.667C91.0996 214.839 91.7847 214.181 92.613 214.198C95.4619 214.256 98.3545 213.782 101.2 212.651C104.045 211.512 106.452 209.864 108.473 207.865C109.842 206.51 110.773 205.295 111.653 203.925C115.011 198.713 115.815 192.773 114.881 186.749C114.754 185.93 115.315 185.163 116.133 185.036Z" fill="white"/>
<path d="M54.0566 194.177C54.8215 193.859 55.6994 194.221 56.0175 194.986C56.3355 195.751 55.9732 196.629 55.2082 196.947C51.0216 198.688 46.8405 200.576 42.6916 202.612C39.231 204.312 35.8563 206.092 32.5724 207.94C29.0365 209.927 26.9537 213.087 26.344 216.916C25.7284 220.815 25.3434 224.784 25.1629 228.926L25.1015 230.478C24.8427 237.801 25.111 243.547 26.2439 256.937L27.189 267.808C28.7209 285.854 31.5299 303.348 35.4448 320.261C35.6316 321.068 35.1287 321.873 34.3217 322.06C33.5146 322.247 32.7088 321.744 32.522 320.937C28.7166 304.497 25.9477 287.512 24.3702 270.01L23.2508 257.146C22.0303 242.717 21.8055 237.068 22.1658 228.796C22.351 224.544 22.7469 220.463 23.381 216.446C24.1309 211.737 26.7418 207.775 31.1019 205.325C34.4333 203.45 37.8575 201.644 41.3694 199.919C45.5754 197.855 49.8132 195.941 54.0566 194.177Z" fill="white"/>
<path d="M115.076 186.948C115.347 186.165 116.201 185.75 116.984 186.02L118.639 186.584C119.306 186.808 119.998 187.037 120.786 187.294L127.1 189.346C129.146 190.022 130.629 190.538 132.662 191.272L134.557 191.963C142.344 194.821 144.761 196.023 148.415 198.816C155.013 203.875 158.121 209.65 161.365 219.611C165.409 231.977 169.447 245.266 173.362 258.87L174.851 264.078C176.677 270.505 178.266 276.259 179.642 281.357L180.745 285.474L182.213 287.369C184.975 290.914 187.799 294.431 190.693 297.923L192.437 300.016C196.897 305.344 201.482 310.568 206.232 315.754C206.792 316.364 206.75 317.313 206.139 317.873C205.528 318.433 204.58 318.391 204.02 317.78C199.24 312.563 194.625 307.305 190.138 301.943C186.021 297.035 182.043 292.081 178.185 287.069C178.064 286.911 177.975 286.731 177.924 286.539L177.151 283.644C175.488 277.45 173.496 270.236 171.13 261.966C167.237 248.36 163.216 235.036 159.185 222.605L158.513 220.541C155.442 211.112 152.576 205.786 146.591 201.199L146.019 200.767C142.955 198.494 140.585 197.369 133.479 194.763L130.436 193.661C128.418 192.942 126.778 192.39 124.02 191.495L119.46 190.017C118.184 189.599 117.143 189.249 116.004 188.856C115.221 188.585 114.806 187.731 115.076 186.948Z" fill="white"/>
<path d="M19.0903 318.303C23.5175 317.321 28.3472 317.615 33.754 318.99C37.6503 319.98 41.4758 321.389 46.618 323.615L49.4091 324.844L53.6839 326.755C54.6199 327.169 55.4039 327.511 56.1488 327.827L56.4265 327.945C78.3737 337.206 99.6487 345.219 120.621 352.043C121.409 352.3 121.84 353.146 121.584 353.934C121.327 354.722 120.481 355.152 119.693 354.896C99.3885 348.289 78.8075 340.575 57.6171 331.7L54.69 330.467C54.2084 330.261 53.7069 330.043 53.1574 329.801L47.2379 327.161L45.447 326.377C40.4311 324.205 36.73 322.842 33.0148 321.897C28.0283 320.629 23.6561 320.363 19.7403 321.232C13.9512 322.517 9.48715 326.574 8.15051 331.988C5.79225 341.534 10.8929 351.216 21.557 362.169C26.6806 367.432 33.0062 372.664 41.4648 378.873L43.2352 380.164C44.2421 380.895 45.2885 381.647 46.4187 382.453L53.9759 387.8C54.6524 388.278 54.8134 389.214 54.3354 389.89C53.8854 390.527 53.0298 390.707 52.3666 390.328L52.2578 390.259C52.0082 390.083 47.7057 387.047 46.4471 386.155L44.6747 384.894C43.3494 383.948 42.138 383.077 40.9694 382.226L40.4709 381.863C31.4976 375.313 24.8267 369.828 19.4075 364.262C8.07894 352.626 2.55306 342.137 5.23802 331.269C6.85834 324.706 12.2266 319.827 19.0903 318.303Z" fill="white"/>
<path fill-rule="evenodd" clip-rule="evenodd" d="M25.9394 413.337C19.4294 408.458 17.9214 397.965 23.8524 391.998C27.1084 388.722 32.6344 387.905 37.0504 387.691C42.5194 387.427 48.2474 389.146 53.7154 388.817C59.2984 388.482 64.3984 385.96 69.9694 385.557C72.8354 385.35 75.8314 385.546 78.3754 386.884C80.4394 387.971 82.0684 389.738 83.4354 391.631C84.2364 392.74 86.1124 395.531 84.8564 396.857C84.3584 397.382 83.5154 398.374 82.8014 398.256C79.3184 397.68 75.8924 397.035 72.2724 396.303C68.8334 395.608 65.3584 395.076 61.8374 394.844C57.2194 394.54 51.2024 394.718 48.5724 399.188C45.6964 404.079 48.7214 409.608 53.1724 412.233" fill="white"/>
<path d="M59.5722 261.306C60.3997 261.269 61.1012 261.909 61.1389 262.736L62.7819 298.88L123.416 330.027C123.977 330.316 124.293 330.92 124.22 331.537L124.196 331.679L121.623 343.566C121.465 344.296 120.798 344.791 120.066 344.746L119.928 344.731L71.0861 337.174C70.2674 337.047 69.7064 336.281 69.833 335.462C69.9523 334.692 70.6381 334.15 71.401 334.194L71.5448 334.209L118.99 341.55L121.02 332.17L60.638 301.152C60.1596 300.906 59.8494 300.423 59.8249 299.886L58.142 262.873C58.1043 262.045 58.7446 261.344 59.5722 261.306Z" fill="white"/>
<path d="M121.254 331.094C121.393 330.327 122.093 329.802 122.855 329.867L122.998 329.886L140.439 333.049C140.602 333.078 140.759 333.135 140.903 333.215L141.043 333.304L156.603 344.418C157.277 344.899 157.433 345.836 156.952 346.51C156.499 347.145 155.642 347.321 154.981 346.938L154.859 346.859L139.572 335.94L122.463 332.837C121.695 332.698 121.171 331.999 121.235 331.237L121.254 331.094Z" fill="white"/>
<path d="M118.691 342.931C118.856 342.169 119.573 341.669 120.331 341.758L120.474 341.782L138.221 345.62C138.504 345.681 138.762 345.823 138.966 346.027L139.062 346.133L147.96 356.95C148.487 357.59 148.395 358.535 147.755 359.062C147.155 359.555 146.287 359.505 145.747 358.97L145.644 358.856L137.076 348.442L119.84 344.714C119.078 344.55 118.577 343.833 118.667 343.074L118.691 342.931Z" fill="white"/>
<path d="M259.354 301.577C260.61 301.246 261.642 302.549 261.088 303.679L261.025 303.795L239.732 339.52C239.308 340.232 238.387 340.465 237.675 340.041C237.005 339.642 236.76 338.802 237.087 338.112L237.155 337.984L256.568 305.412L176.884 326.405L145.75 374.965C145.428 375.467 144.843 375.727 144.262 375.638L144.117 375.609L95.3134 363.196C93.9046 362.838 93.7958 360.914 95.0822 360.367L95.2202 360.315L137.65 346.548C138.438 346.293 139.284 346.724 139.54 347.512C139.781 348.254 139.412 349.047 138.711 349.351L138.576 349.402L101.081 361.567L143.808 372.434L174.673 324.295C174.847 324.023 175.103 323.817 175.401 323.703L175.554 323.654L259.354 301.577Z" fill="white"/>
<path d="M225.107 353.6C225.911 353.404 226.723 353.897 226.919 354.702C227.104 355.459 226.677 356.223 225.955 356.473L225.817 356.514L146.185 375.915L85.7046 396.578C84.9668 396.831 84.1681 396.475 83.8534 395.778L83.8002 395.644C83.5481 394.906 83.9039 394.107 84.6002 393.793L84.7347 393.74L145.27 373.058L145.4 373.02L225.107 353.6Z" fill="white"/>
<path d="M143.888 256.877C143.888 255.112 146.367 254.823 146.826 256.443L146.861 256.591L155.509 301.138L183.239 322.226C183.86 322.698 184.01 323.559 183.607 324.208L183.525 324.328C183.053 324.948 182.192 325.098 181.543 324.696L181.423 324.614L153.237 303.18C152.986 302.988 152.802 302.724 152.711 302.424L152.673 302.271L146.888 272.476V301.756L157.163 334.674C157.396 335.418 157.019 336.207 156.314 336.503L156.178 336.552C155.434 336.785 154.645 336.408 154.349 335.703L154.3 335.568L143.957 302.433C143.926 302.336 143.906 302.237 143.896 302.137L143.888 301.986V256.877Z" fill="white"/>
<path d="M203.547 358.884L203.691 358.885L204.87 358.962C217.879 359.877 225.804 362.975 232.258 371.13C235.01 374.603 236.931 378.078 237.82 382.867C239.028 389.369 237.446 395.727 233.923 401.703C232.662 403.843 231.221 405.808 229.696 407.574C228.693 408.736 227.819 409.628 227.116 410.278C226.508 410.841 225.559 410.804 224.996 410.195C224.434 409.587 224.471 408.638 225.079 408.076L225.437 407.737C225.998 407.193 226.669 406.49 227.425 405.614C228.838 403.977 230.174 402.155 231.339 400.18C234.523 394.778 235.93 389.12 234.871 383.415C234.089 379.205 232.382 376.117 229.906 372.993C223.894 365.396 216.458 362.645 203.514 361.88C202.687 361.831 202.056 361.121 202.105 360.294C202.151 359.516 202.783 358.911 203.547 358.884Z" fill="white"/>
<path d="M233.312 335.861C226.633 335.861 221.218 341.276 221.218 347.955C221.218 354.635 226.633 360.048 233.312 360.048C239.992 360.048 245.405 354.635 245.405 347.955C245.405 341.276 239.992 335.861 233.312 335.861ZM233.312 338.861C238.335 338.861 242.405 342.933 242.405 347.955C242.405 352.978 238.335 357.048 233.312 357.048C228.289 357.048 224.218 352.978 224.218 347.955C224.218 342.933 228.29 338.861 233.312 338.861Z" fill="white"/>
<path d="M95.6836 360.242C96.4633 360.242 97.104 360.837 97.1767 361.598L97.1836 361.742L97.183 367.931L135.125 376.764C135.884 376.941 136.373 377.666 136.272 378.423L136.246 378.565C136.069 379.325 135.344 379.814 134.587 379.712L134.444 379.686L95.3435 370.583C94.7095 370.436 94.2486 369.898 94.1899 369.26L94.1836 369.122V361.742C94.1836 360.914 94.8552 360.242 95.6836 360.242Z" fill="white"/>
<path d="M226.279 356.202C226.656 355.464 227.56 355.171 228.297 355.548C228.992 355.903 229.292 356.724 229.01 357.435L228.951 357.566L226.578 362.212C226.408 362.544 226.122 362.8 225.778 362.931L225.626 362.98L219.418 364.626C218.618 364.838 217.796 364.361 217.584 363.561C217.384 362.807 217.795 362.035 218.512 361.77L218.65 361.726L224.21 360.252L226.279 356.202Z" fill="white"/>
<path fill-rule="evenodd" clip-rule="evenodd" d="M116.843 186.795C115.262 186.844 113.054 186.769 110.522 186.21C107.737 185.595 105.606 184.627 104.201 183.864C104.467 186.125 105.142 189.319 106.944 192.853C109.133 197.149 112.062 200.132 114.106 201.908C115.04 200.344 116.115 198.132 116.731 195.365C117.524 191.795 117.226 188.772 116.843 186.795Z" fill="white"/>
<path d="M282.835 113.444L287.147 117.757L295.772 109.132M282.835 133.569L287.147 137.882L295.772 129.257M282.835 153.694L287.147 158.007L295.772 149.382M305.835 133.569H337.46M305.835 153.694H337.46M305.835 113.444H337.46" stroke="white" stroke-width="4.16667" stroke-linecap="round" stroke-linejoin="round"/>
</svg>
