<svg width="935" height="667" viewBox="0 0 935 667" fill="none" xmlns="http://www.w3.org/2000/svg">
<path fill-rule="evenodd" clip-rule="evenodd" d="M778.27 163.189C771.477 160.949 764.063 160.203 756.435 160.981C747.83 161.858 741.736 165.165 733.598 168.015C726.64 170.452 716.613 170.271 710.428 174.656C707.428 176.783 702.596 181.406 702.292 189.912C702.088 195.632 704.804 202.005 709.603 204.762C720.27 210.891 732.682 200.665 737.724 191.833C746.598 197.634 751.637 206.45 749.822 217.101C748.966 222.118 747.304 227.02 747.113 232.105C746.78 240.983 751.326 249.891 758.709 254.831C760.78 256.215 763.089 257.34 764.713 259.23C767.281 262.217 767.614 266.45 768.099 270.359C769.034 277.892 771.084 285.572 775.451 291.882C779.8 298.17 787.851 300.891 791.571 307.57C794.951 313.639 793.444 321.253 794.944 327.832C796.615 335.162 798.926 342.349 802.819 348.827C807.367 356.394 814.168 362.827 822.493 365.771C832.185 369.198 842.791 367.181 850.272 360.115C854.043 356.551 856.939 351.995 858.2 346.962C859.79 340.614 858.726 333.835 856.393 327.72C850.082 311.177 827.815 298.429 819.709 282.866C809.917 264.063 813.811 242.298 813.697 222.032C813.624 208.922 810.037 194.562 803.271 183.294C797.261 173.287 788.466 166.553 778.27 163.189Z" fill="black"/>
<path d="M716.029 205.533C716.851 205.641 717.429 206.395 717.32 207.216C715.958 217.546 715.941 226.865 716.855 235.543L716.968 236.565C717.951 245.088 719.578 249.432 722.942 252.788C725.296 255.133 728.173 256.698 731.379 257.63C733.529 258.255 735.285 258.489 737.288 258.592C743.862 258.966 750 256.555 755.554 252.182C756.205 251.669 757.148 251.781 757.661 252.432C758.173 253.083 758.061 254.026 757.41 254.539C751.326 259.329 744.508 262.008 737.126 261.588C734.919 261.474 732.955 261.212 730.542 260.51C726.882 259.446 723.564 257.642 720.824 254.912C716.744 250.842 714.908 245.681 713.871 235.857C712.934 226.954 712.952 217.401 714.346 206.824C714.448 206.051 715.122 205.493 715.885 205.521L716.029 205.533Z" fill="black"/>
<path d="M738.904 258.638C739.717 258.479 740.506 259.009 740.665 259.822C741.466 263.919 742.132 268.113 742.653 272.41C744.196 285.169 744.284 297.506 743.217 309.523C743.187 309.852 743.05 310.162 742.827 310.405C735.059 318.854 727.494 327.749 720.175 337.104C715.893 342.579 711.424 348.926 706.573 356.32L705.582 357.837C703.428 361.148 701.218 364.63 698.76 368.572L690.809 381.439C690.373 382.144 689.449 382.361 688.744 381.925C688.04 381.489 687.822 380.565 688.258 379.861L695.641 367.906L696.78 366.079C699.211 362.19 701.408 358.739 703.567 355.434L704.065 354.674C708.958 347.216 713.473 340.804 717.812 335.256C724.69 326.465 731.783 318.077 739.057 310.082L740.271 308.753L740.336 307.99C741.235 296.997 741.146 285.731 739.832 274.113L739.674 272.77C739.162 268.547 738.508 264.424 737.72 260.398C737.561 259.585 738.091 258.797 738.904 258.638Z" fill="black"/>
<path d="M818.228 361.906C819.053 361.832 819.783 362.44 819.857 363.265C821.296 379.191 823.938 395.715 828.16 412.831C832.347 429.828 837.661 445.694 844.302 461.931L845.019 463.673C847.98 470.824 850.559 476.644 854.706 485.617L861.065 499.325C864.107 505.938 865.64 509.478 867.212 513.504L867.738 514.872C873.101 529.058 873.517 538.221 868.114 545.801C862.53 553.635 851.887 557.804 837.985 559.237C833.017 559.749 827.911 559.874 822.877 559.707C819.567 559.597 816.866 559.388 814.688 559.151C810.759 558.717 807.619 558.062 804.197 557.02L803.509 556.807C801.749 556.25 794.706 553.75 792.795 553.116C787.589 551.39 782.129 549.854 775.207 548.262L773.667 547.911C763.15 545.535 758.066 544.853 748.549 544.108L747.158 544.001C743.301 543.708 741.547 543.392 739.549 542.458C738.497 541.967 737.463 541.313 736.337 540.431C731.845 536.911 729.145 532.353 727.621 526.15L727.496 525.629C726.419 520.982 726.005 516.443 725.649 506.913L725.423 500.423C724.792 483.002 724.022 473.842 721.618 460.586L721.497 459.92C718.516 443.633 714.086 429.308 708.663 415.996C708.351 415.229 708.719 414.353 709.487 414.041C710.254 413.728 711.129 414.097 711.442 414.864C716.937 428.355 721.426 442.872 724.448 459.379L724.691 460.722C726.991 473.569 727.769 482.727 728.388 499.427L728.666 507.296C729.01 516.287 729.416 520.628 730.419 524.952C731.773 530.793 734.15 534.905 738.187 538.069C739.143 538.818 739.987 539.352 740.819 539.741L741.156 539.891C742.616 540.515 744.121 540.762 747.385 541.009L749.432 541.168C758.9 541.924 764.139 542.661 775.105 545.161L775.88 545.338C782.309 546.817 787.51 548.251 792.41 549.833L793.739 550.268C795.699 550.918 802.714 553.41 804.413 553.947C807.925 555.057 811.027 555.728 815.015 556.169L815.829 556.254C817.788 556.448 820.152 556.616 822.976 556.71C827.883 556.873 832.856 556.751 837.678 556.254C850.803 554.901 860.71 551.019 865.671 544.059C870.409 537.413 869.961 529.045 864.729 515.4L863.933 513.367C862.212 509.052 860.33 504.846 856.226 496.01L851.978 486.866C847.818 477.863 845.226 472.014 842.247 464.82C835.216 447.841 829.622 431.31 825.247 413.549C820.987 396.278 818.322 379.606 816.869 363.535C816.795 362.71 817.403 361.981 818.228 361.906Z" fill="black"/>
<path d="M737.171 537.325C737.577 538.047 737.321 538.961 736.599 539.367L702.62 558.496C661.308 581.806 652.497 587.28 638.324 598.699C637.514 599.35 636.673 599.997 635.783 600.656L635.019 601.216C634.245 601.778 633.429 602.354 632.503 602.994L628.388 605.808L627.41 606.486C620.395 611.392 616.838 614.909 614.175 620.347L613.995 620.721C613.603 621.536 613.246 622.336 612.838 623.372C611.455 626.868 610.454 630.735 610.118 634.842C609.668 640.361 610.495 645.729 612.898 650.765C615.357 655.925 618.925 659.791 623.06 662.756L623.549 663.1H800.352V608.2C800.352 607.42 800.947 606.78 801.708 606.707L801.852 606.7C802.632 606.7 803.273 607.295 803.346 608.056L803.352 608.2V664.6C803.352 665.38 802.758 666.021 801.997 666.093L801.852 666.1H623.083C622.784 666.1 622.492 666.011 622.244 665.843C617.336 662.529 613.078 658.117 610.19 652.056C607.545 646.513 606.638 640.619 607.128 634.598C607.491 630.168 608.564 626.021 610.048 622.271C610.43 621.299 610.773 620.516 611.133 619.753L611.288 619.427C614.304 613.073 618.285 609.159 626.18 603.687L630.331 600.848C631.751 599.871 632.897 599.059 633.998 598.245C634.857 597.609 635.666 596.987 636.442 596.362L638.174 594.975C651.567 584.325 661.374 578.325 701.138 555.888L735.128 536.753C735.85 536.347 736.765 536.603 737.171 537.325Z" fill="black"/>
<path d="M849.707 554.77C849.907 553.966 850.721 553.476 851.525 553.676C852.329 553.876 852.819 554.689 852.619 555.493C848.609 571.63 841.127 585.594 829.161 595.978L828.361 596.661C828.206 596.788 828.015 596.938 827.608 597.255C825.33 598.949 821.905 600.888 817.646 602.946L817.152 603.194C816.853 603.341 816.508 603.505 815.973 603.758L814.505 604.441C812.76 605.243 810.899 606.062 808.921 606.904L806.322 608C805.289 608.431 804.203 608.873 802.953 609.375L802.407 609.594C798.263 611.243 794.071 612.807 790.737 613.971L788.739 614.643C788.464 614.733 788.232 614.807 788.028 614.87L787.908 614.907C769.357 620.526 751.821 623.346 734.778 624.318C733.951 624.365 733.242 623.733 733.195 622.906C733.147 622.079 733.78 621.37 734.607 621.323C751.016 620.387 767.888 617.715 785.7 612.437L787.037 612.036C787.576 611.873 788.354 611.614 789.759 611.135L790.952 610.714C793.814 609.696 797.191 608.43 800.571 607.095L801.295 606.808C802.765 606.22 804 605.718 805.169 605.23L806.035 604.867C808.926 603.658 811.572 602.499 813.978 601.38L815.422 600.698C815.774 600.53 816.022 600.407 816.31 600.26L817.326 599.764C820.982 597.955 823.894 596.279 825.79 594.869L826.434 594.361C826.509 594.3 826.57 594.249 826.643 594.187C838.413 584.203 845.774 570.599 849.707 554.77Z" fill="black"/>
<path d="M635.223 508.075C635.234 506.868 636.595 506.169 637.584 506.862C650.059 515.606 663.166 523.901 676.969 531.673C688.868 538.381 700.852 544.452 712.925 549.955C713.679 550.299 714.011 551.188 713.668 551.942C713.324 552.696 712.434 553.028 711.681 552.685C699.531 547.147 687.471 541.038 675.497 534.287C662.995 527.248 651.061 519.782 639.647 511.945L638.189 510.938L638.181 511.636C638.052 521.05 637.766 530.437 637.317 539.827L637.141 543.348C636.093 563.494 634.329 583.318 631.901 602.795C631.799 603.618 631.049 604.201 630.227 604.098C629.405 603.996 628.822 603.246 628.924 602.424C631.344 583.018 633.1 563.266 634.145 543.192C634.756 531.496 635.109 519.81 635.223 508.075Z" fill="black"/>
<path d="M598.047 464.959C606.457 449.035 625.779 443.462 646.34 447.924C673.651 453.836 700.792 463.546 726.212 476.452C726.951 476.827 727.246 477.73 726.871 478.469C726.496 479.207 725.593 479.502 724.854 479.127C699.662 466.336 672.764 456.713 645.705 450.856C626.321 446.649 608.376 451.825 600.699 466.36C597.299 472.795 595.637 480.186 594.737 490.561C593.036 510.071 592.341 528.13 592.757 545.295L593.177 560.947C593.336 567.297 593.42 571.676 593.483 576.812L593.516 579.908C593.584 587.563 593.542 594.595 593.372 601.375L593.345 602.38L628.543 602.381C629.323 602.381 629.964 602.975 630.036 603.736L630.043 603.881C630.043 604.66 629.448 605.301 628.688 605.374L628.543 605.381H591.803C590.957 605.381 590.278 604.681 590.304 603.836C590.543 595.836 590.599 587.54 590.5 578.314L590.407 571.63C590.338 567.563 590.242 563.359 590.087 557.49L589.804 547.094C589.293 529.294 589.981 510.569 591.749 490.301L591.881 488.855C592.842 478.861 594.586 471.51 598.047 464.959Z" fill="black"/>
<path d="M592.405 603.221C592.74 602.535 593.549 602.202 594.279 602.475C595.009 602.749 595.4 603.531 595.202 604.268L595.158 604.403L583.784 634.75C583.66 635.093 583.415 635.378 583.098 635.553L582.958 635.621L541.969 653.001C537.902 654.726 535.201 658.607 534.969 662.977L534.964 663.1H630.413C631.193 663.1 631.833 663.695 631.906 664.456L631.913 664.6C631.913 665.38 631.318 666.021 630.557 666.093L630.413 666.1H533.453C532.673 666.1 532.032 665.505 531.96 664.745L531.953 664.6V663.59C531.953 657.88 535.301 652.717 540.49 650.374L540.797 650.239L581.191 633.112L585.528 621.571L592.349 603.351L592.405 603.221Z" fill="black"/>
<path d="M581.368 632.667C581.591 631.869 582.418 631.402 583.216 631.625C586.662 632.587 590.268 633.269 594.002 633.616C598.951 634.077 603.763 633.916 608.406 633.236C609.225 633.116 609.987 633.683 610.107 634.502C610.227 635.322 609.66 636.084 608.841 636.204C603.968 636.918 598.918 637.087 593.724 636.603C589.806 636.239 586.025 635.524 582.41 634.515C581.612 634.292 581.146 633.465 581.368 632.667Z" fill="black"/>
<path d="M805.404 605.362C805.894 604.694 806.833 604.55 807.501 605.04C811.858 608.237 816.12 611.521 820.553 615.081L821.889 616.157C824.979 618.657 828.076 621.224 831.773 624.339L840.688 631.873C862.428 650.237 865.922 652.973 879.777 662.922C880.961 663.772 880.36 665.641 878.902 665.641L873.169 665.654C869.547 665.673 866.939 665.717 864.142 665.794L859.265 665.942C855.828 666.04 852.854 666.085 848.022 666.097L844.993 666.101C840.668 666.101 837.705 663.852 834.119 659.095L833.696 658.527C833.251 657.92 832.35 656.679 832.147 656.403C827.132 649.626 820.002 645.028 809.854 641.303L808.698 640.888C808.41 640.787 808.115 640.686 807.778 640.573L804.12 639.364C803.002 638.989 802.173 638.693 801.31 638.358C800.538 638.059 800.154 637.19 800.454 636.417C800.753 635.645 801.622 635.262 802.395 635.561L802.84 635.731C803.659 636.04 804.513 636.336 805.714 636.733L808.746 637.733C809.298 637.918 809.744 638.074 810.229 638.248C821.011 642.119 828.724 646.955 834.231 654.183L834.8 654.948C835.192 655.485 835.881 656.435 836.191 656.855L836.265 656.956C839.45 661.251 841.802 663.101 844.993 663.101L849.882 663.09C853.864 663.071 856.551 663.022 859.733 662.927L863.531 662.81C866.3 662.73 868.82 662.683 872.199 662.66L874.265 662.648L870.757 660.093C862.209 653.814 856.554 649.195 840.11 635.312L830.462 627.157C826.71 623.991 823.59 621.4 820.514 618.905L820.002 618.49C815.12 614.54 810.479 610.946 805.726 607.459C805.058 606.969 804.914 606.03 805.404 605.362Z" fill="black"/>
<path d="M849.744 663.1C850.572 663.1 851.244 663.772 851.244 664.6C851.244 665.38 850.649 666.021 849.888 666.093L849.744 666.1H801.853C801.024 666.1 800.353 665.429 800.353 664.6C800.353 663.821 800.948 663.18 801.708 663.107L801.853 663.1H849.744Z" fill="black"/>
<path d="M705.329 371.719C706.013 371.251 706.946 371.426 707.414 372.11C711.353 377.869 714.975 384.035 718.213 390.668C721.291 396.969 723.636 402.748 725.634 408.818C725.893 409.605 725.465 410.453 724.678 410.712C723.891 410.97 723.043 410.542 722.784 409.755C720.829 403.814 718.536 398.163 715.517 391.985C712.345 385.486 708.797 379.446 704.938 373.803C704.47 373.12 704.645 372.186 705.329 371.719Z" fill="black"/>
<path d="M518.758 294.176C515.82 289.979 520.914 284.548 525.16 287.493C525.334 287.612 525.496 287.741 525.641 287.877C532.545 294.286 538.381 301.837 542.843 310.132L543.46 311.296C544.719 313.708 545.847 316.111 547.492 319.825L549.788 325.053C555.036 336.928 558.094 342.326 563.262 347.624L563.526 347.894C568.861 353.288 575.314 357.731 585.366 363.376L587.379 364.497C589.059 365.424 595.517 368.928 597.037 369.767L598.197 370.409C598.759 370.722 599.298 371.024 599.819 371.319L604.472 373.977C606.157 374.928 607.877 375.874 610.48 377.282L620.703 382.788C631.345 388.543 637.466 392.136 644.22 396.771C647.707 399.165 652.189 399.491 655.95 397.635L656.262 397.475L730.577 358.591C731.311 358.207 732.218 358.491 732.602 359.225C732.963 359.916 732.733 360.759 732.093 361.176L731.968 361.25L657.661 400.129C652.856 402.683 647.025 402.335 642.522 399.244L641.331 398.433C635.132 394.248 629.19 390.789 619.264 385.42L607.929 379.312C605.56 378.025 603.948 377.132 602.242 376.162L598.849 374.218C598.01 373.74 597.127 373.245 596.171 372.715L592.095 370.487C589.731 369.2 586.955 367.689 585.93 367.124L584.549 366.357C573.896 360.41 567.087 355.761 561.393 350.003L560.844 349.44C555.516 343.903 552.35 338.274 547.047 326.272L544.956 321.508C543.024 317.133 541.82 314.584 540.353 311.838L540.201 311.553C536.044 303.824 530.649 296.764 524.281 290.716L523.596 290.071C523.559 290.037 523.515 290.003 523.458 289.963C522.016 288.963 520.158 290.944 521.215 292.455L521.529 292.896C521.672 293.095 521.825 293.304 522.001 293.54L523.323 295.301C525.144 297.746 526.009 299.118 526.775 300.968L527.055 301.657C528.872 306.244 529.784 310.705 530.744 318.364L531.245 322.509C532.954 336.453 534.772 342.565 540.329 348.786L540.573 349.057C543.932 352.748 547.434 355.461 554.111 359.842L558.117 362.444L558.922 362.973C563.062 365.714 566.912 368.627 572.588 373.199L577.426 377.118C593.702 390.3 609.373 403.189 624.578 415.908L629.37 419.923C634.922 424.585 640.344 429.171 645.659 433.702C648.911 436.474 653.402 437.236 657.362 435.708L657.673 435.582L736.315 402.579C737.079 402.259 737.958 402.618 738.279 403.382C738.58 404.101 738.28 404.922 737.607 405.283L737.476 405.346L658.834 438.349C653.755 440.48 647.91 439.564 643.713 435.985C636.886 430.166 629.883 424.256 622.653 418.209C608.411 406.295 593.757 394.231 578.58 381.916L570.713 375.541C565.103 371.022 561.315 368.156 557.267 365.475L552.438 362.332C545.573 357.827 541.924 354.999 538.354 351.076C534.739 347.103 532.345 342.502 530.764 336.96L530.52 336.08C529.631 332.783 529.113 329.715 528.43 324.22L527.839 319.308C526.859 311.357 525.968 306.962 524.139 302.447L524.004 302.117C523.384 300.62 522.651 299.436 521.108 297.351L519.531 295.246C519.237 294.849 519.001 294.522 518.758 294.176Z" fill="black"/>
<path d="M775.822 293.562C776.442 293.013 777.39 293.07 777.939 293.69C778.489 294.31 778.432 295.258 777.812 295.807C773.905 299.271 768.515 302.725 762.062 305.864L761.352 306.203C756.07 308.679 751.64 309.658 742.582 310.608C741.758 310.694 741.02 310.096 740.934 309.272C740.848 308.448 741.446 307.71 742.269 307.624L743.96 307.44C751.759 306.558 755.668 305.596 760.417 303.326L760.75 303.166C766.972 300.14 772.136 296.83 775.822 293.562Z" fill="black"/>
<path fill-rule="evenodd" clip-rule="evenodd" d="M623.083 664.6H533.453V663.59C533.453 658.37 536.573 653.66 541.383 651.62L582.373 634.24C582.503 633.879 582.653 633.49 582.813 633.07C586.073 633.98 589.783 634.73 593.863 635.11C599.343 635.62 604.323 635.35 608.623 634.72C608.213 639.749 608.763 645.579 611.543 651.41C614.883 658.419 620.093 662.579 623.083 664.6Z" fill="black"/>
<path fill-rule="evenodd" clip-rule="evenodd" d="M878.903 664.14C858.744 664.14 864.143 664.6 844.994 664.6C839.454 664.6 836.263 659.45 833.353 655.51C827.433 647.51 818.914 642.959 809.723 639.66C807.133 638.73 804.433 637.959 801.853 636.959V608.2C803.403 607.579 805.004 606.93 806.614 606.249C831.803 624.73 848.013 641.959 878.903 664.14Z" fill="black"/>
<path d="M933.409 663C934.288 663 935 663.672 935 664.5C935 665.28 934.369 665.921 933.563 665.993L933.409 666H51.5913C50.7125 666 50 665.329 50 664.5C50 663.721 50.6311 663.08 51.4381 663.007L51.5913 663H933.409Z" fill="black"/>
<path fill-rule="evenodd" clip-rule="evenodd" d="M739.192 260.11C741.77 260.006 745.624 259.637 749.617 257.617C753.145 255.832 757.197 252.144 759.213 250.704C759.213 253.974 757.427 260.13 753.853 264.54C749.068 270.445 743.107 272.31 741.406 272.767C740.578 267.572 741.074 270.341 740.514 267.226C739.992 264.316 739.974 263.645 739.192 260.11Z" fill="black"/>
<path fill-rule="evenodd" clip-rule="evenodd" d="M757.997 249.741L758.341 249.483C759.334 248.774 760.713 249.484 760.713 250.704C760.713 254.899 758.437 261.266 755.018 265.484C751.027 270.409 746.284 273.009 741.795 274.216C740.935 274.447 740.064 273.882 739.924 273.003C739.738 271.833 739.605 270.985 739.513 270.372L739.374 269.429L738.859 266.473L738.481 264.213C738.349 263.44 738.215 262.728 738.035 261.866L737.727 260.434C737.525 259.522 738.197 258.649 739.131 258.611C742.773 258.464 745.83 257.852 748.939 256.278C749.573 255.958 750.261 255.552 751.003 255.064C751.817 254.528 752.681 253.905 753.641 253.171C753.919 252.958 754.573 252.439 755.313 251.853C756.278 251.087 757.388 250.207 757.997 249.741ZM757.149 254.504L757.236 254.156L755.755 255.327L755.036 255.878C754.19 256.516 753.407 257.074 752.651 257.571C751.82 258.117 751.037 258.579 750.294 258.955C747.357 260.441 744.49 261.172 741.308 261.473L741.022 261.497L741.151 262.141C741.256 262.675 741.347 263.177 741.438 263.704L741.901 266.458L742.285 268.62L742.615 270.811L742.862 270.721C743.637 270.428 744.456 270.064 745.317 269.614L745.751 269.381C748.316 267.975 750.678 266.074 752.687 263.595C754.741 261.061 756.346 257.574 757.149 254.504Z" fill="black"/>
<path d="M427.922 352.406H360.797C356.163 352.406 352.406 356.163 352.406 360.797V427.922C352.406 432.556 356.163 436.312 360.797 436.312H427.922C432.556 436.312 436.312 432.556 436.312 427.922V360.797C436.312 356.163 432.556 352.406 427.922 352.406Z" fill="black"/>
<path d="M344.016 285.281H293.672C289.038 285.281 285.281 289.038 285.281 293.672V344.016C285.281 348.65 289.038 352.406 293.672 352.406H344.016C348.65 352.406 352.406 348.65 352.406 344.016V293.672C352.406 289.038 348.65 285.281 344.016 285.281Z" fill="black"/>
<path d="M495.047 436.312H444.703C440.069 436.312 436.312 440.069 436.312 444.703V495.047C436.312 499.681 440.069 503.438 444.703 503.438H495.047C499.681 503.438 503.438 499.681 503.438 495.047V444.703C503.438 440.069 499.681 436.312 495.047 436.312Z" fill="black"/>
<path d="M495.047 285.281H461.484C456.85 285.281 453.094 289.038 453.094 293.672V327.234C453.094 331.868 456.85 335.625 461.484 335.625H495.047C499.681 335.625 503.438 331.868 503.438 327.234V293.672C503.438 289.038 499.681 285.281 495.047 285.281Z" fill="black"/>
<path d="M327.234 453.094H293.672C289.038 453.094 285.281 456.85 285.281 461.484V495.047C285.281 499.681 289.038 503.438 293.672 503.438H327.234C331.868 503.438 335.625 499.681 335.625 495.047V461.484C335.625 456.85 331.868 453.094 327.234 453.094Z" fill="black"/>
<path d="M427.922 100.688H360.797C356.163 100.688 352.406 104.444 352.406 109.078V176.203C352.406 180.837 356.163 184.594 360.797 184.594H427.922C432.556 184.594 436.312 180.837 436.312 176.203V109.078C436.312 104.444 432.556 100.688 427.922 100.688Z" fill="black"/>
<path d="M469.875 50.3438H318.844C309.576 50.3438 302.062 57.857 302.062 67.125V218.156C302.062 227.424 309.576 234.938 318.844 234.938H469.875C479.143 234.938 486.656 227.424 486.656 218.156V67.125C486.656 57.857 479.143 50.3438 469.875 50.3438Z" stroke="black" stroke-width="20" stroke-linecap="round" stroke-linejoin="round"/>
<path d="M176.203 100.688H109.078C104.444 100.688 100.688 104.444 100.688 109.078V176.203C100.688 180.837 104.444 184.594 109.078 184.594H176.203C180.837 184.594 184.594 180.837 184.594 176.203V109.078C184.594 104.444 180.837 100.688 176.203 100.688Z" fill="black"/>
<path d="M218.156 50.3438H67.125C57.857 50.3438 50.3438 57.857 50.3438 67.125V218.156C50.3438 227.424 57.857 234.938 67.125 234.938H218.156C227.424 234.938 234.938 227.424 234.938 218.156V67.125C234.938 57.857 227.424 50.3438 218.156 50.3438Z" stroke="black" stroke-width="20" stroke-linecap="round" stroke-linejoin="round"/>
<path d="M176.203 352.406H109.078C104.444 352.406 100.688 356.163 100.688 360.797V427.922C100.688 432.556 104.444 436.312 109.078 436.312H176.203C180.837 436.312 184.594 432.556 184.594 427.922V360.797C184.594 356.163 180.837 352.406 176.203 352.406Z" fill="black"/>
<path d="M218.156 302.062H67.125C57.857 302.062 50.3438 309.576 50.3438 318.844V469.875C50.3438 479.143 57.857 486.656 67.125 486.656H218.156C227.424 486.656 234.938 479.143 234.938 469.875V318.844C234.938 309.576 227.424 302.062 218.156 302.062Z" stroke="black" stroke-width="20" stroke-linecap="round" stroke-linejoin="round"/>
</svg>
