<svg width="59" height="50" viewBox="0 0 59 50" fill="none" xmlns="http://www.w3.org/2000/svg">
<g clip-path="url(#clip0_122_1751)">
<path fill-rule="evenodd" clip-rule="evenodd" d="M43.1436 31.3288C43.1545 28.9358 45.0951 27.0051 47.4776 27.016C48.7027 27.0217 49.806 27.5397 50.5876 28.3667L50.6212 21.0297L42.8134 20.9935C43.8189 20.2051 44.4677 18.9778 44.474 17.5969C44.4852 15.204 42.5627 13.2553 40.1802 13.2444C37.7975 13.2333 35.8571 15.1642 35.846 17.5572C35.8396 18.9381 36.4775 20.1713 37.4757 20.969L29.7839 20.9335L29.7481 28.7472C30.5428 27.7444 31.7702 27.1042 33.1454 27.1106C35.5278 27.1215 37.4503 29.0701 37.4392 31.4628C37.4283 33.8558 35.4879 35.7869 33.1054 35.776C31.7303 35.7697 30.5087 35.1176 29.7234 34.1078L29.6875 41.9115L37.5885 41.9478V41.9462L37.8252 41.9474C36.5687 42.6999 35.7241 44.0756 35.7168 45.6517C35.706 48.0447 37.6287 49.9933 40.0111 50.0042C42.3938 50.0151 44.334 48.0844 44.3449 45.6915C44.3522 44.1153 43.5203 42.7319 42.2708 41.9678L50.5249 42.006L50.5599 34.3594C49.7711 35.1794 48.663 35.6872 47.4379 35.6815C45.0552 35.6706 43.1327 33.7217 43.1436 31.3288Z" fill="#FFC81A"/>
<path fill-rule="evenodd" clip-rule="evenodd" d="M40.1129 7.51227C37.7363 7.50136 35.8191 5.55182 35.83 3.15818C35.8356 1.92727 36.3501 0.818637 37.1713 0.033637L29.8848 0L29.8487 7.84454C29.0656 6.83432 27.8468 6.1825 26.4753 6.17614C24.0989 6.16523 22.1635 8.09659 22.1524 10.4902C22.1415 12.8841 24.059 14.8336 26.4353 14.8445C27.8071 14.8509 29.0316 14.21 29.824 13.207L29.7886 20.9348L37.5484 20.9707C36.5527 20.1723 35.9169 18.9391 35.9232 17.5575C35.9341 15.1639 37.8695 13.2323 40.2459 13.2434C42.6224 13.2543 44.5402 15.2034 44.5293 17.5973C44.5229 18.9786 43.8753 20.2059 42.8723 20.9952L50.6224 21.0309L50.6589 13.093H50.6573L50.6585 12.8552C51.4057 14.1175 52.7718 14.9659 54.3373 14.9732C56.7137 14.9841 58.6491 13.0523 58.66 10.6586C58.6711 8.265 56.7536 6.31568 54.3771 6.30477C52.8117 6.2975 51.4377 7.13318 50.6791 8.38864L50.717 0.0961356L43.123 0.0611357C43.9375 0.853636 44.4417 1.96705 44.436 3.19773C44.4249 5.59136 42.4892 7.52318 40.1129 7.51227Z" fill="#A162FF"/>
<path fill-rule="evenodd" clip-rule="evenodd" d="M33.117 35.7389C31.7378 35.7325 30.5122 35.0825 29.7243 34.0752L29.6884 41.8961L21.8383 41.86C22.6643 41.0773 23.1814 39.972 23.1871 38.745C23.1982 36.3586 21.2696 34.4148 18.8796 34.4039C16.4897 34.3927 14.5431 36.3186 14.532 38.7052C14.5266 39.9323 15.0335 41.042 15.8527 41.8325L8.21516 41.7973L8.25329 33.5295C7.49037 34.7811 6.10873 35.6143 4.53433 35.607C2.14438 35.5961 0.215761 33.6525 0.226608 31.2661C0.237773 28.8795 2.18409 26.9539 4.57405 26.965C6.14844 26.972 7.52237 27.8179 8.27371 29.0766L8.31161 20.8091L15.6492 20.8427C15.0002 21.5943 14.6062 22.5716 14.6012 23.6418C14.5903 26.0286 16.5192 27.972 18.9091 27.9829C21.2991 27.9941 23.2454 26.0684 23.2563 23.6818C23.2613 22.6116 22.8764 21.6307 22.2347 20.8732L29.7849 20.9079L29.749 28.7289C30.546 27.7289 31.7775 27.0902 33.1567 27.0966C35.5467 27.1077 37.4753 29.0511 37.4646 31.4377C37.4535 33.8241 35.507 35.7498 33.117 35.7389Z" fill="#FF5E1F"/>
</g>
<defs>
<clipPath id="clip0_122_1751">
<rect width="59" height="50" fill="white"/>
</clipPath>
</defs>
</svg>
