<svg width="500" height="500" viewBox="0 0 500 500" fill="none" xmlns="http://www.w3.org/2000/svg">
<path opacity="0.3" d="M386.34 68.03C436.81 89.58 476.43 148.7 487.36 222.07C496.57 283.9 483.27 359.58 401.12 393.63C317.26 428.38 81.8302 442.35 36.9202 341.66C-7.99983 240.96 -0.209824 112.69 89.1202 68.46C151.74 37.45 287.77 25.94 386.34 68.03Z" fill="#F2EAFF"/>
<path d="M459.27 85.67H143.78V432.11H459.27V85.67Z" fill="#F2EAFF"/>
<path d="M383.08 279.41V279.43H383.1L383.08 279.41Z" fill="black" fill-opacity="0.956863"/>
<path d="M315.91 221.83V221.85H315.93L315.91 221.83Z" fill="black" fill-opacity="0.956863"/>
<path d="M383.08 327.38V317.82H373.55V298.58H383.08V279.44H373.48V260.24H363.95V250.62H373.48V241H363.87V231.42H315.91V221.86H306.29V202.69H296.72V221.78H287.13C287.13 221.4 287.13 221.08 287.13 220.76C287.13 211.53 287.13 202.3 287.12 193.07H277.51V269.86H248.79V279.43H277.56V289.04H287.12C287.12 292.23 287.14 295.42 287.15 298.61H296.68V308.23H287.15C287.15 314.62 287.15 321.01 287.15 327.4H306.37V317.86H354.26V327.45H335.16V337.03H344.73V346.6H363.95V356.17H373.53V336.99H402.25V327.41H383.09L383.08 327.38ZM344.74 241.08H354.23V250.57H344.74V241.08ZM325.48 308.16H315.99V298.67H325.48V308.16ZM325.53 269.83V288.95H315.93V279.45H306.36V289C299.9 289 293.52 289 287.15 289V279.43H296.69V269.85H287.19V250.65H306.29V241.08H335.09V260.18H354.3V269.8C345.11 269.8 335.92 269.8 326.73 269.81C326.33 269.81 325.93 269.81 325.54 269.82L325.53 269.83ZM344.7 298.6H335.17V289.07H344.7V298.6ZM363.84 308.15H344.72V298.62C351.07 298.62 357.42 298.62 363.84 298.62V308.15ZM363.84 279.36H354.31C354.31 276.18 354.31 273 354.31 269.83H363.84V279.36Z" fill="black" fill-opacity="0.956863"/>
<path d="M344.72 346.6V346.58H344.7L344.72 346.6Z" fill="black" fill-opacity="0.956863"/>
<path d="M325.51 269.83H325.53V269.81L325.51 269.83Z" fill="black" fill-opacity="0.956863"/>
<path d="M287.12 193.04V193.06H287.14L287.12 193.04Z" fill="black" fill-opacity="0.956863"/>
<path d="M287.14 327.41V327.39H287.12L287.14 327.41Z" fill="black" fill-opacity="0.956863"/>
<path d="M383.08 317.79V317.81H383.1L383.08 317.79Z" fill="black" fill-opacity="0.956863"/>
<path d="M373.48 260.24H373.5V260.22H373.48V260.24Z" fill="black" fill-opacity="0.956863"/>
<path d="M287.14 298.6H287.12V298.62H287.14C287.14 298.62 287.14 298.61 287.14 298.6Z" fill="black" fill-opacity="0.956863"/>
<path d="M267.87 154.71H200.8V221.78H267.87V154.71ZM258.3 212.18H210.42V164.3H258.3V212.18Z" fill="black" fill-opacity="0.956863"/>
<path d="M402.23 154.73H335.16V221.8H402.23V154.73ZM392.66 212.2H344.78V164.32H392.66V212.2Z" fill="black" fill-opacity="0.956863"/>
<path d="M200.82 356.12H267.89V289.05H200.82V356.12ZM210.42 298.66H258.3V346.54H210.42V298.66Z" fill="black" fill-opacity="0.956863"/>
<path d="M287.12 193.04L287.14 193.06V193.04H287.12Z" fill="black" fill-opacity="0.956863"/>
<path d="M296.77 183.5H306.35V193.07H315.93V202.59H325.48V183.44H315.99V173.83H325.47V154.72H277.59V173.87H287.15V193.03C290.33 193.03 293.51 193.03 296.78 193.03V183.49L296.77 183.5ZM296.77 164.3H306.26V173.8H296.77V164.3Z" fill="black" fill-opacity="0.956863"/>
<path d="M229.57 241.05V269.76H210.33V260.28H200.83V279.37H239.17V260.19H267.9V250.61H248.74V241.04C242.35 241.04 235.96 241.04 229.58 241.04L229.57 241.05Z" fill="black" fill-opacity="0.956863"/>
<path d="M229.54 241.05H229.56V241.03L229.54 241.05Z" fill="black" fill-opacity="0.956863"/>
<path d="M277.6 356.14H306.27V346.55H296.7V336.97H287.12V327.4C283.94 327.4 280.76 327.4 277.6 327.4V356.14Z" fill="black" fill-opacity="0.956863"/>
<path d="M287.14 327.41L287.12 327.39V327.41H287.14Z" fill="black" fill-opacity="0.956863"/>
<path d="M229.54 241.05L229.56 241.03H229.54V241.05Z" fill="black" fill-opacity="0.956863"/>
<path d="M200.83 231.49V250.58H210.38V241.02H229.54C229.54 237.84 229.54 234.66 229.54 231.49H200.83Z" fill="black" fill-opacity="0.956863"/>
<path d="M402.23 260.19V231.48H383.15V241.07H392.72V260.19H402.24H402.23Z" fill="black" fill-opacity="0.956863"/>
<path d="M248.76 241.02H248.74V241.04H248.76V241.02Z" fill="black" fill-opacity="0.956863"/>
<path d="M267.88 231.49H248.75V241.02C255.12 241.02 261.5 241.02 267.88 241.02V231.49Z" fill="black" fill-opacity="0.956863"/>
<path d="M383.08 279.41L383.1 279.43V279.41H383.08Z" fill="black" fill-opacity="0.956863"/>
<path d="M392.63 269.88H383.1V279.41C386.28 279.41 389.45 279.41 392.63 279.41V269.88Z" fill="black" fill-opacity="0.956863"/>
<path d="M402.23 289.05H392.74V298.56H402.23V289.05Z" fill="black" fill-opacity="0.956863"/>
<path d="M315.91 221.83L315.93 221.85V221.83H315.91Z" fill="black" fill-opacity="0.956863"/>
<path d="M325.46 212.3H315.93V221.83C319.11 221.83 322.28 221.83 325.46 221.83V212.3Z" fill="black" fill-opacity="0.956863"/>
<path d="M277.59 298.62V308.19H287.12V298.62H277.59Z" fill="black" fill-opacity="0.956863"/>
<path d="M287.12 308.19V308.21H287.14V308.19H287.12Z" fill="black" fill-opacity="0.956863"/>
<path d="M383.08 317.79L383.1 317.81V317.79H383.08Z" fill="black" fill-opacity="0.956863"/>
<path d="M392.63 308.26H383.1V317.79C386.28 317.79 389.45 317.79 392.63 317.79V308.26Z" fill="black" fill-opacity="0.956863"/>
<path d="M373.51 250.64V250.62H373.49V250.64H373.51Z" fill="black" fill-opacity="0.956863"/>
<path d="M383.03 260.21V250.64H373.5V260.21H383.03Z" fill="black" fill-opacity="0.956863"/>
<path d="M315.96 346.55H325.46V337.05H315.96V346.55Z" fill="black" fill-opacity="0.956863"/>
<path d="M344.72 346.6L344.7 346.58V346.6H344.72Z" fill="black" fill-opacity="0.956863"/>
<path d="M335.16 356.13H344.69V346.6C341.51 346.6 338.34 346.6 335.16 346.6V356.13Z" fill="black" fill-opacity="0.956863"/>
<path d="M392.73 356.15H402.22V346.65H392.73V356.15Z" fill="black" fill-opacity="0.956863"/>
<path d="M325.51 269.83L325.53 269.81H325.51V269.83Z" fill="black" fill-opacity="0.956863"/>
<path d="M315.98 260.28V269.81H325.51C325.51 266.63 325.51 263.46 325.51 260.28H315.98Z" fill="black" fill-opacity="0.956863"/>
<path d="M248.69 173.92H220V202.61H248.69V173.92Z" fill="black" fill-opacity="0.956863"/>
<path d="M383.03 173.9H354.34V202.59H383.03V173.9Z" fill="black" fill-opacity="0.956863"/>
<path d="M219.99 336.94H248.68V308.25H219.99V336.94Z" fill="black" fill-opacity="0.956863"/>
<path opacity="0.2" d="M283.14 120.89H144.3V370.67H283.14V120.89Z" fill="#000001"/>
<path d="M313.54 62.71H289.5V100.45H313.54V62.71Z" fill="black"/>
<path opacity="0.46" d="M383.14 387.59H220.55V397.3H383.14V387.59Z" fill="white"/>
<path d="M130.44 229.68C139.467 229.68 147.538 236.32 153.166 246.675C158.785 257.013 161.9 270.946 161.049 285.26C160.198 299.57 155.385 314.23 145.189 326.045C135.06 337.784 119.585 346.75 97.3037 349.759L79.0215 298.628C79.0243 298.616 79.0281 298.602 79.0312 298.588C79.06 298.458 79.1039 298.265 79.1621 298.012C79.2787 297.506 79.455 296.762 79.6924 295.816C80.1672 293.922 80.8871 291.214 81.8672 287.965C83.828 281.465 86.8277 272.804 90.9824 264.147C95.1391 255.486 100.44 246.855 106.994 240.396C113.544 233.941 121.318 229.68 130.44 229.68Z" fill="white" fill-opacity="0.980392" stroke="black"/>
<path opacity="0.1" d="M130.44 229.68C139.467 229.68 147.538 236.32 153.166 246.675C158.785 257.013 161.9 270.946 161.049 285.26C160.198 299.57 155.385 314.23 145.189 326.045C135.06 337.784 119.585 346.75 97.3037 349.759L79.0215 298.628C79.0243 298.616 79.0281 298.602 79.0312 298.588C79.06 298.458 79.1039 298.265 79.1621 298.012C79.2787 297.506 79.455 296.762 79.6924 295.816C80.1672 293.922 80.8871 291.214 81.8672 287.965C83.828 281.465 86.8277 272.804 90.9824 264.147C95.1391 255.486 100.44 246.855 106.994 240.396C113.544 233.941 121.318 229.68 130.44 229.68Z" fill="#000001" stroke="black"/>
<path d="M252.77 103.28V355.08H111.52V103.28H252.77Z" fill="white" stroke="black"/>
<path opacity="0.46" d="M252.77 103.28V355.08H111.52V103.28H252.77Z" fill="white" stroke="black"/>
<path d="M241.2 123.83V311.95H123.08V123.83H241.2Z" fill="white" stroke="black"/>
<path d="M226.87 257.83V285.43H135.31V257.83H226.87Z" fill="white" stroke="black"/>
<path opacity="0.1" d="M154.396 251.169C154.808 251.45 155.392 251.868 156.075 252.415C157.442 253.509 159.198 255.11 160.765 257.137C163.896 261.189 166.238 266.893 163.3 273.712C161.809 277.169 159.548 280.304 156.966 283.362C155.676 284.891 154.31 286.395 152.923 287.91C151.539 289.423 150.133 290.949 148.773 292.509C143.332 298.748 138.533 305.633 138.39 315.072C138.25 324.332 138.25 334.463 138.285 342.278C138.302 346.186 138.328 349.516 138.35 351.868C138.361 353.044 138.371 353.976 138.378 354.614C138.38 354.797 138.383 354.956 138.384 355.09H111.53V312.605L154.145 251.003C154.219 251.052 154.304 251.106 154.396 251.169Z" fill="#000001" stroke="black"/>
<path d="M143.513 247.021C145.319 246.514 146.94 246.346 148.323 246.577L148.597 246.629C150.977 247.13 152.772 248.686 153.805 251.029C154.842 253.386 155.111 256.55 154.374 260.215C152.946 267.312 147.759 276.192 137.378 284.391L136.357 285.182C127.395 291.997 121.639 302.112 120.579 313.291L120.491 314.376V314.377C119.876 323.623 116.862 334.547 107.729 342.891L107.288 343.285V343.286C102.282 347.72 97.6386 350.043 93.543 350.701C89.4606 351.358 85.8919 350.367 82.9863 348.112C77.3283 343.723 74.0961 334.456 74.7803 322.969L74.8584 321.851C75.8403 309.753 76.6542 302.046 80.9004 295.151C85.1496 288.253 92.8759 282.11 107.873 273.312L108.12 273.166V273.074C108.168 273.026 108.228 272.965 108.3 272.894C108.512 272.681 108.825 272.368 109.228 271.971C110.034 271.176 111.2 270.042 112.639 268.691C115.516 265.986 119.48 262.41 123.827 258.916C128.177 255.42 132.898 252.018 137.291 249.655C139.487 248.474 141.589 247.56 143.513 247.021Z" fill="white" fill-opacity="0.980392" stroke="black"/>
<path d="M118.242 340.152L109.674 458.85H23.9917L64.3442 323.814L118.242 340.152Z" fill="white" stroke="black"/>
<path opacity="0.1" d="M118.241 340.152L109.674 458.85H76.957L93.0508 332.519L118.241 340.152Z" fill="#000001" stroke="black"/>
<path opacity="0.1" d="M150.95 108.91C153.065 108.91 154.78 110.625 154.78 112.74C154.78 114.855 153.065 116.57 150.95 116.57C148.834 116.57 147.12 114.855 147.12 112.74C147.12 110.625 148.834 108.91 150.95 108.91Z" fill="#000001" stroke="black"/>
<path opacity="0.1" d="M164.97 111.74H208.32C208.718 111.74 209.04 112.062 209.04 112.46V113.96C209.04 114.357 208.718 114.68 208.32 114.68H164.97C164.572 114.68 164.25 114.357 164.25 113.96V112.46C164.25 112.112 164.497 111.822 164.825 111.755L164.97 111.74Z" fill="#000001" stroke="black"/>
<path opacity="0.1" d="M178.78 319.76C186.147 319.76 192.12 325.732 192.12 333.1C192.12 340.467 186.147 346.44 178.78 346.44C171.412 346.44 165.44 340.467 165.44 333.1C165.44 325.732 171.412 319.76 178.78 319.76Z" fill="#000001" stroke="black"/>
<mask id="path-63-inside-1_207_1722" fill="white">
<path d="M218.77 202.85V202.86H218.78L218.77 202.85Z"/>
</mask>
<path d="M218.77 202.85V202.86H218.78L218.77 202.85Z" fill="black"/>
<path d="M218.77 202.85L219.477 202.143L217.77 200.436V202.85H218.77ZM218.77 202.86H217.77V203.86H218.77V202.86ZM218.78 202.86V203.86H221.194L219.487 202.153L218.78 202.86ZM218.77 202.85H217.77V202.86H218.77H219.77V202.85H218.77ZM218.77 202.86V203.86H218.78V202.86V201.86H218.77V202.86ZM218.78 202.86L219.487 202.153L219.477 202.143L218.77 202.85L218.063 203.557L218.073 203.567L218.78 202.86Z" fill="black" mask="url(#path-63-inside-1_207_1722)"/>
<mask id="path-65-inside-2_207_1722" fill="white">
<path d="M188.6 177V177.01H188.61L188.6 177Z"/>
</mask>
<path d="M188.6 177V177.01H188.61L188.6 177Z" fill="black"/>
<path d="M188.6 177L189.307 176.293L187.6 174.586V177H188.6ZM188.6 177.01H187.6V178.01H188.6V177.01ZM188.61 177.01V178.01H191.024L189.317 176.303L188.61 177.01ZM188.6 177H187.6V177.01H188.6H189.6V177H188.6ZM188.6 177.01V178.01H188.61V177.01V176.01H188.6V177.01ZM188.61 177.01L189.317 176.303L189.307 176.293L188.6 177L187.893 177.707L187.902 177.717L188.61 177.01Z" fill="black" mask="url(#path-65-inside-2_207_1722)"/>
<path d="M175.18 164.56V177.46H180.479V168.89H183.78V177.5H188.1V181.791H209.64V186.09H213.96V189.41H209.68V194.73H213.96V203.35H218.27V210.95H213.99V220.59H218.27V224.182L217.552 224.9H226.86V228.2H213.96V236.81H210.66V232.51H202.03V228.21H197.729V224.91H206.31V219.6H183.81V223.88H176.18V216.27H180.46V210.95H176.179C176.173 209.855 176.171 208.756 176.171 207.66H184.82V203.37H188.12V207.64H193.43V199.041H205.36V203.33H210.64V198.05H206.35V193.72H197.72V185.14H183.79V189.44H175.21V199.06H179.47V202.36H175.19V206.65H171.88V202.34H158.96V199.041H171.86V164.56H175.18ZM188.15 216.26H193.41V211H188.15V216.26ZM196.76 211.97H201.06V216.26H210.64V210.98H202.04V206.69H196.76V211.97ZM201.06 190.4H206.32V185.14H201.06V190.4Z" fill="black" stroke="black"/>
<mask id="path-68-inside-3_207_1722" fill="white">
<path d="M201.54 233.02V233.01H201.53L201.54 233.02Z"/>
</mask>
<path d="M201.54 233.02V233.01H201.53L201.54 233.02Z" fill="black"/>
<path d="M201.54 233.02L200.832 233.727L202.54 235.437V233.02H201.54ZM201.54 233.01H202.54V232.01H201.54V233.01ZM201.53 233.01V232.01H199.118L200.822 233.717L201.53 233.01ZM201.54 233.02H202.54V233.01H201.54H200.54V233.02H201.54ZM201.54 233.01V232.01H201.53V233.01V234.01H201.54V233.01ZM201.53 233.01L200.822 233.717L200.832 233.727L201.54 233.02L202.247 232.313L202.237 232.303L201.53 233.01Z" fill="black" mask="url(#path-68-inside-3_207_1722)"/>
<mask id="path-70-inside-4_207_1722" fill="white">
<path d="M192.92 198.55H192.93V198.54L192.92 198.55Z"/>
</mask>
<path d="M192.92 198.55H192.93V198.54L192.92 198.55Z" fill="black"/>
<path d="M192.92 198.55L192.212 197.843L190.508 199.55H192.92V198.55ZM192.93 198.55V199.55H193.93V198.55H192.93ZM192.93 198.54H193.93V196.123L192.222 197.833L192.93 198.54ZM192.92 198.55V199.55H192.93V198.55V197.55H192.92V198.55ZM192.93 198.55H193.93V198.54H192.93H191.93V198.55H192.93ZM192.93 198.54L192.222 197.833L192.212 197.843L192.92 198.55L193.628 199.257L193.638 199.247L192.93 198.54Z" fill="black" mask="url(#path-70-inside-4_207_1722)"/>
<mask id="path-72-inside-5_207_1722" fill="white">
<path d="M175.68 164.07V164.08H175.69L175.68 164.07Z"/>
</mask>
<path d="M175.68 164.07V164.08H175.69L175.68 164.07Z" fill="black"/>
<path d="M175.68 164.07L176.386 163.362L174.68 161.658V164.07H175.68ZM175.68 164.08H174.68V165.08H175.68V164.08ZM175.69 164.08V165.08H178.107L176.396 163.372L175.69 164.08ZM175.68 164.07H174.68V164.08H175.68H176.68V164.07H175.68ZM175.68 164.08V165.08H175.69V164.08V163.08H175.68V164.08ZM175.69 164.08L176.396 163.372L176.386 163.362L175.68 164.07L174.973 164.778L174.983 164.788L175.69 164.08Z" fill="black" mask="url(#path-72-inside-5_207_1722)"/>
<mask id="path-74-inside-6_207_1722" fill="white">
<path d="M175.69 224.41V224.39H175.68L175.69 224.41Z"/>
</mask>
<path d="M175.69 224.41V224.39H175.68L175.69 224.41Z" fill="black"/>
<path d="M175.69 224.41L174.795 224.858L176.69 224.41H175.69ZM175.69 224.39H176.69V223.39H175.69V224.39ZM175.68 224.39V223.39H174.061L174.785 224.838L175.68 224.39ZM175.69 224.41H176.69V224.39H175.69H174.69V224.41H175.69ZM175.69 224.39V223.39H175.68V224.39V225.39H175.69V224.39ZM175.68 224.39L174.785 224.838L174.795 224.858L175.69 224.41L176.584 223.963L176.574 223.943L175.68 224.39Z" fill="black" mask="url(#path-74-inside-6_207_1722)"/>
<mask id="path-76-inside-7_207_1722" fill="white">
<path d="M218.77 220.09V220.1H218.78L218.77 220.09Z"/>
</mask>
<path d="M218.77 220.09V220.1H218.78L218.77 220.09Z" fill="black"/>
<path d="M218.77 220.09L219.478 219.383L217.77 217.673V220.09H218.77ZM218.77 220.1H217.77V221.1H218.77V220.1ZM218.78 220.1V221.1H221.192L219.488 219.393L218.78 220.1ZM218.77 220.09H217.77V220.1H218.77H219.77V220.09H218.77ZM218.77 220.1V221.1H218.78V220.1V219.1H218.77V220.1ZM218.78 220.1L219.488 219.393L219.478 219.383L218.77 220.09L218.062 220.797L218.072 220.807L218.78 220.1Z" fill="black" mask="url(#path-76-inside-7_207_1722)"/>
<mask id="path-78-inside-8_207_1722" fill="white">
<path d="M214.46 194.24H214.47V194.23H214.46V194.24Z"/>
</mask>
<path d="M214.46 194.24H214.47V194.23H214.46V194.24Z" fill="black"/>
<path d="M214.46 194.24H213.46V195.24H214.46V194.24ZM214.47 194.24V195.24H215.47V194.24H214.47ZM214.47 194.23H215.47V193.23H214.47V194.23ZM214.46 194.23V193.23H213.46V194.23H214.46ZM214.46 194.24V195.24H214.47V194.24V193.24H214.46V194.24ZM214.47 194.24H215.47V194.23H214.47H213.47V194.24H214.47ZM214.47 194.23V193.23H214.46V194.23V195.23H214.47V194.23ZM214.46 194.23H213.46V194.24H214.46H215.46V194.23H214.46Z" fill="black" mask="url(#path-78-inside-8_207_1722)"/>
<mask id="path-80-inside-9_207_1722" fill="white">
<path d="M175.69 211.47H175.68V211.48H175.69V211.47Z"/>
</mask>
<path d="M175.69 211.47H175.68V211.48H175.69V211.47Z" fill="black"/>
<path d="M175.69 211.47H176.69V210.47H175.69V211.47ZM175.68 211.47V210.47H174.68V211.47H175.68ZM175.68 211.48H174.68V212.48H175.68V211.48ZM175.69 211.48V212.48H176.69V211.48H175.69ZM175.69 211.47V210.47H175.68V211.47V212.47H175.69V211.47ZM175.68 211.47H174.68V211.48H175.68H176.68V211.47H175.68ZM175.68 211.48V212.48H175.69V211.48V210.48H175.68V211.48ZM175.69 211.48H176.69V211.47H175.69H174.69V211.48H175.69Z" fill="black" mask="url(#path-80-inside-9_207_1722)"/>
<path d="M166.54 147.36V176.48H137.42V147.36H166.54ZM140.74 173.17H163.24V150.67H140.74V173.17Z" fill="black" stroke="black"/>
<path d="M226.87 147.37V176.49H197.75V147.37H226.87ZM201.07 173.18H223.57V150.68H201.07V173.18Z" fill="black" stroke="black"/>
<path d="M166.55 207.68V236.8H137.43V207.68H166.55ZM140.739 233.5H163.239V211H140.739V233.5Z" fill="black" stroke="black"/>
<mask id="path-85-inside-10_207_1722" fill="white">
<path d="M175.68 164.07L175.69 164.08V164.07H175.68Z"/>
</mask>
<path d="M175.68 164.07L175.69 164.08V164.07H175.68Z" fill="black"/>
<path d="M175.68 164.07V163.07H173.263L174.973 164.778L175.68 164.07ZM175.69 164.08L174.983 164.788L176.69 166.492V164.08H175.69ZM175.69 164.07H176.69V163.07H175.69V164.07ZM175.68 164.07L174.973 164.778L174.983 164.788L175.69 164.08L176.396 163.372L176.386 163.362L175.68 164.07ZM175.69 164.08H176.69V164.07H175.69H174.69V164.08H175.69ZM175.69 164.07V163.07H175.68V164.07V165.07H175.69V164.07Z" fill="black" mask="url(#path-85-inside-10_207_1722)"/>
<path d="M192.4 147.37V154.95H188.14V160.26H192.4V167.86H189.11V163.58H184.81V159.28H179.51V163.58H176.19V154.97H171.9V147.37H192.4ZM179.51 155.92H184.77V150.66H179.51V155.92Z" fill="black" stroke="black"/>
<path d="M157.93 186.11V190.41H166.54V193.71H153.64V202.32H137.42V194.75H140.689V199.01H150.33V186.11H157.93Z" fill="black" stroke="black"/>
<mask id="path-89-inside-11_207_1722" fill="white">
<path d="M149.82 185.62H149.83V185.61L149.82 185.62Z"/>
</mask>
<path d="M149.82 185.62H149.83V185.61L149.82 185.62Z" fill="black"/>
<path d="M149.82 185.62L149.113 184.913L147.406 186.62H149.82V185.62ZM149.83 185.62V186.62H150.83V185.62H149.83ZM149.83 185.61H150.83V183.196L149.123 184.903L149.83 185.61ZM149.82 185.62V186.62H149.83V185.62V184.62H149.82V185.62ZM149.83 185.62H150.83V185.61H149.83H148.83V185.62H149.83ZM149.83 185.61L149.123 184.903L149.113 184.913L149.82 185.62L150.527 186.327L150.537 186.317L149.83 185.61Z" fill="black" mask="url(#path-89-inside-11_207_1722)"/>
<path d="M175.18 224.9V229.2H179.48V233.5H183.78V236.81H171.9V224.9H175.18Z" fill="black" stroke="black"/>
<mask id="path-92-inside-12_207_1722" fill="white">
<path d="M175.69 224.41L175.68 224.39V224.41H175.69Z"/>
</mask>
<path d="M175.69 224.41L175.68 224.39V224.41H175.69Z" fill="black"/>
<path d="M175.69 224.41V225.41H177.308L176.584 223.963L175.69 224.41ZM175.68 224.39L176.574 223.943L174.68 224.39H175.68ZM175.68 224.41H174.68V225.41H175.68V224.41ZM175.69 224.41L176.584 223.963L176.574 223.943L175.68 224.39L174.785 224.838L174.795 224.858L175.69 224.41ZM175.68 224.39H174.68V224.41H175.68H176.68V224.39H175.68ZM175.68 224.41V225.41H175.69V224.41V223.41H175.68V224.41Z" fill="black" mask="url(#path-92-inside-12_207_1722)"/>
<mask id="path-94-inside-13_207_1722" fill="white">
<path d="M149.82 185.62L149.83 185.61H149.82V185.62Z"/>
</mask>
<path d="M149.82 185.62L149.83 185.61H149.82V185.62Z" fill="black"/>
<path d="M149.82 185.62H148.82V188.034L150.527 186.327L149.82 185.62ZM149.83 185.61L150.537 186.317L152.244 184.61H149.83V185.61ZM149.82 185.61V184.61H148.82V185.61H149.82ZM149.82 185.62L150.527 186.327L150.537 186.317L149.83 185.61L149.123 184.903L149.113 184.913L149.82 185.62ZM149.83 185.61V184.61H149.82V185.61V186.61H149.83V185.61ZM149.82 185.61H148.82V185.62H149.82H150.82V185.61H149.82Z" fill="black" mask="url(#path-94-inside-13_207_1722)"/>
<path d="M149.319 181.84V185.12H140.72V189.41H137.43V181.84H149.319Z" fill="black" stroke="black"/>
<path d="M226.87 181.83V193.72H223.6V185.13H219.3V181.83H226.87Z" fill="black" stroke="black"/>
<mask id="path-98-inside-14_207_1722" fill="white">
<path d="M158.45 185.61H158.44V185.62H158.45V185.61Z"/>
</mask>
<path d="M158.45 185.61H158.44V185.62H158.45V185.61Z" fill="black"/>
<path d="M158.45 185.61H159.45V184.61H158.45V185.61ZM158.44 185.61V184.61H157.44V185.61H158.44ZM158.44 185.62H157.44V186.62H158.44V185.62ZM158.45 185.62V186.62H159.45V185.62H158.45ZM158.45 185.61V184.61H158.44V185.61V186.61H158.45V185.61ZM158.44 185.61H157.44V185.62H158.44H159.44V185.61H158.44ZM158.44 185.62V186.62H158.45V185.62V184.62H158.44V185.62ZM158.45 185.62H159.45V185.61H158.45H157.45V185.62H158.45Z" fill="black" mask="url(#path-98-inside-14_207_1722)"/>
<path d="M166.54 181.83V185.11H158.95V181.83H166.54Z" fill="black" stroke="black"/>
<mask id="path-101-inside-15_207_1722" fill="white">
<path d="M218.77 202.85L218.78 202.86V202.85H218.77Z"/>
</mask>
<path d="M218.77 202.85L218.78 202.86V202.85H218.77Z" fill="black"/>
<path d="M218.77 202.85V201.85H216.356L218.063 203.557L218.77 202.85ZM218.78 202.86L218.073 203.567L219.78 205.274V202.86H218.78ZM218.78 202.85H219.78V201.85H218.78V202.85ZM218.77 202.85L218.063 203.557L218.073 203.567L218.78 202.86L219.487 202.153L219.477 202.143L218.77 202.85ZM218.78 202.86H219.78V202.85H218.78H217.78V202.86H218.78ZM218.78 202.85V201.85H218.77V202.85V203.85H218.78V202.85Z" fill="black" mask="url(#path-101-inside-15_207_1722)"/>
<path d="M222.56 199.07V202.35H219.28V199.07H222.56Z" fill="black" stroke="black"/>
<path d="M226.87 207.68V210.95H223.61V207.68H226.87Z" fill="black" stroke="black"/>
<mask id="path-105-inside-16_207_1722" fill="white">
<path d="M188.6 177L188.61 177.01V177H188.6Z"/>
</mask>
<path d="M188.6 177L188.61 177.01V177H188.6Z" fill="black"/>
<path d="M188.6 177V176H186.185L187.893 177.707L188.6 177ZM188.61 177.01L187.902 177.717L189.61 179.424V177.01H188.61ZM188.61 177H189.61V176H188.61V177ZM188.6 177L187.893 177.707L187.902 177.717L188.61 177.01L189.317 176.303L189.307 176.293L188.6 177ZM188.61 177.01H189.61V177H188.61H187.61V177.01H188.61ZM188.61 177V176H188.6V177V178H188.61V177Z" fill="black" mask="url(#path-105-inside-16_207_1722)"/>
<path d="M192.4 173.22V176.5H189.12V173.22H192.4Z" fill="black" stroke="black"/>
<path d="M175.18 211.98V215.28H171.9V211.98H175.18Z" fill="black" stroke="black"/>
<mask id="path-109-inside-17_207_1722" fill="white">
<path d="M175.68 215.78V215.79H175.69V215.78H175.68Z"/>
</mask>
<path d="M175.68 215.78V215.79H175.69V215.78H175.68Z" fill="black"/>
<path d="M175.68 215.78V214.78H174.68V215.78H175.68ZM175.68 215.79H174.68V216.79H175.68V215.79ZM175.69 215.79V216.79H176.69V215.79H175.69ZM175.69 215.78H176.69V214.78H175.69V215.78ZM175.68 215.78H174.68V215.79H175.68H176.68V215.78H175.68ZM175.68 215.79V216.79H175.69V215.79V214.79H175.68V215.79ZM175.69 215.79H176.69V215.78H175.69H174.69V215.79H175.69ZM175.69 215.78V214.78H175.68V215.78V216.78H175.69V215.78Z" fill="black" mask="url(#path-109-inside-17_207_1722)"/>
<mask id="path-111-inside-18_207_1722" fill="white">
<path d="M218.77 220.09L218.78 220.1V220.09H218.77Z"/>
</mask>
<path d="M218.77 220.09L218.78 220.1V220.09H218.77Z" fill="black"/>
<path d="M218.77 220.09V219.09H216.358L218.062 220.797L218.77 220.09ZM218.78 220.1L218.072 220.807L219.78 222.517V220.1H218.78ZM218.78 220.09H219.78V219.09H218.78V220.09ZM218.77 220.09L218.062 220.797L218.072 220.807L218.78 220.1L219.488 219.393L219.478 219.383L218.77 220.09ZM218.78 220.1H219.78V220.09H218.78H217.78V220.1H218.78ZM218.78 220.09V219.09H218.77V220.09V221.09H218.78V220.09Z" fill="black" mask="url(#path-111-inside-18_207_1722)"/>
<path d="M222.56 216.31V219.59H219.28V216.31H222.56Z" fill="black" stroke="black"/>
<mask id="path-114-inside-19_207_1722" fill="white">
<path d="M214.47 189.93V189.92H214.46V189.93H214.47Z"/>
</mask>
<path d="M214.47 189.93V189.92H214.46V189.93H214.47Z" fill="black"/>
<path d="M214.47 189.93V190.93H215.47V189.93H214.47ZM214.47 189.92H215.47V188.92H214.47V189.92ZM214.46 189.92V188.92H213.46V189.92H214.46ZM214.46 189.93H213.46V190.93H214.46V189.93ZM214.47 189.93H215.47V189.92H214.47H213.47V189.93H214.47ZM214.47 189.92V188.92H214.46V189.92V190.92H214.47V189.92ZM214.46 189.92H213.46V189.93H214.46H215.46V189.92H214.46ZM214.46 189.93V190.93H214.47V189.93V188.93H214.46V189.93Z" fill="black" mask="url(#path-114-inside-19_207_1722)"/>
<path d="M218.25 190.43V193.73H214.97V190.43H218.25Z" fill="black" stroke="black"/>
<path d="M192.39 229.24V232.5H189.13V229.24H192.39Z" fill="black" stroke="black"/>
<mask id="path-118-inside-20_207_1722" fill="white">
<path d="M201.54 233.02L201.53 233.01V233.02H201.54Z"/>
</mask>
<path d="M201.54 233.02L201.53 233.01V233.02H201.54Z" fill="black"/>
<path d="M201.54 233.02V234.02H203.951L202.247 232.313L201.54 233.02ZM201.53 233.01L202.237 232.303L200.53 230.593V233.01H201.53ZM201.53 233.02H200.53V234.02H201.53V233.02ZM201.54 233.02L202.247 232.313L202.237 232.303L201.53 233.01L200.822 233.717L200.832 233.727L201.54 233.02ZM201.53 233.01H200.53V233.02H201.53H202.53V233.01H201.53ZM201.53 233.02V234.02H201.54V233.02V232.02H201.53V233.02Z" fill="black" mask="url(#path-118-inside-20_207_1722)"/>
<path d="M201.03 233.52V236.8H197.75V233.52H201.03Z" fill="black" stroke="black"/>
<path d="M226.859 233.55V236.81H223.6V233.55H226.859Z" fill="black" stroke="black"/>
<mask id="path-122-inside-21_207_1722" fill="white">
<path d="M192.92 198.55L192.93 198.54H192.92V198.55Z"/>
</mask>
<path d="M192.92 198.55L192.93 198.54H192.92V198.55Z" fill="black"/>
<path d="M192.92 198.55H191.92V200.967L193.628 199.257L192.92 198.55ZM192.93 198.54L193.638 199.247L195.342 197.54H192.93V198.54ZM192.92 198.54V197.54H191.92V198.54H192.92ZM192.92 198.55L193.628 199.257L193.638 199.247L192.93 198.54L192.222 197.833L192.212 197.843L192.92 198.55ZM192.93 198.54V197.54H192.92V198.54V199.54H192.93V198.54ZM192.92 198.54H191.92V198.55H192.92H193.92V198.54H192.92Z" fill="black" mask="url(#path-122-inside-21_207_1722)"/>
<path d="M192.42 194.76V198.04H189.14V194.76H192.42Z" fill="black" stroke="black"/>
<path d="M157.92 155.98V167.86H146.04V155.98H157.92Z" fill="black" stroke="black"/>
<path d="M218.25 155.97V167.85H206.37V155.97H218.25Z" fill="black" stroke="black"/>
<path d="M157.92 216.3V228.18H146.04V216.3H157.92Z" fill="black" stroke="black"/>
</svg>
