<svg width="500" height="500" viewBox="0 0 500 500" fill="none" xmlns="http://www.w3.org/2000/svg">
<path opacity="0.3" d="M386.34 68.03C436.81 89.58 476.43 148.7 487.36 222.07C496.57 283.9 483.27 359.58 401.12 393.63C317.26 428.38 81.83 442.35 36.92 341.66C-7.99999 240.96 -0.209991 112.69 89.12 68.46C151.74 37.45 287.77 25.94 386.34 68.03Z" fill="#EFD2BF" fill-opacity="0.580392"/>
<path d="M459.27 85.67H143.78V432.11H459.27V85.67Z" fill="#EFD2BF" fill-opacity="0.580392"/>
<path d="M383.08 279.41V279.43H383.1L383.08 279.41Z" fill="#FF6428" fill-opacity="0.956863"/>
<path d="M315.91 221.83V221.85H315.93L315.91 221.83Z" fill="#FF6428" fill-opacity="0.956863"/>
<path d="M383.08 327.38V317.82H373.55V298.58H383.08V279.44H373.48V260.24H363.95V250.62H373.48V241H363.87V231.42H315.91V221.86H306.29V202.69H296.72V221.78H287.13C287.13 221.4 287.13 221.08 287.13 220.76C287.13 211.53 287.13 202.3 287.12 193.07H277.51V269.86H248.79V279.43H277.56V289.04H287.12C287.12 292.23 287.14 295.42 287.15 298.61H296.68V308.23H287.15C287.15 314.62 287.15 321.01 287.15 327.4H306.37V317.86H354.26V327.45H335.16V337.03H344.73V346.6H363.95V356.17H373.53V336.99H402.25V327.41H383.09L383.08 327.38ZM344.74 241.08H354.23V250.57H344.74V241.08ZM325.48 308.16H315.99V298.67H325.48V308.16ZM325.53 269.83V288.95H315.93V279.45H306.36V289C299.9 289 293.52 289 287.15 289V279.43H296.69V269.85H287.19V250.65H306.29V241.08H335.09V260.18H354.3V269.8C345.11 269.8 335.92 269.8 326.73 269.81C326.33 269.81 325.93 269.81 325.54 269.82L325.53 269.83ZM344.7 298.6H335.17V289.07H344.7V298.6ZM363.84 308.15H344.72V298.62C351.07 298.62 357.42 298.62 363.84 298.62V308.15ZM363.84 279.36H354.31C354.31 276.18 354.31 273 354.31 269.83H363.84V279.36Z" fill="#FF6428" fill-opacity="0.956863"/>
<path d="M344.72 346.6V346.58H344.7L344.72 346.6Z" fill="#FF6428" fill-opacity="0.956863"/>
<path d="M325.51 269.83H325.53V269.81L325.51 269.83Z" fill="#FF6428" fill-opacity="0.956863"/>
<path d="M287.12 193.04V193.06H287.14L287.12 193.04Z" fill="#FF6428" fill-opacity="0.956863"/>
<path d="M287.14 327.41V327.39H287.12L287.14 327.41Z" fill="#FF6428" fill-opacity="0.956863"/>
<path d="M383.08 317.79V317.81H383.1L383.08 317.79Z" fill="#FF6428" fill-opacity="0.956863"/>
<path d="M373.48 260.24H373.5V260.22H373.48V260.24Z" fill="#FF6428" fill-opacity="0.956863"/>
<path d="M287.14 298.6H287.12V298.62H287.14C287.14 298.62 287.14 298.61 287.14 298.6Z" fill="#FF6428" fill-opacity="0.956863"/>
<path d="M267.87 154.71H200.8V221.78H267.87V154.71ZM258.3 212.18H210.42V164.3H258.3V212.18Z" fill="#FF6428" fill-opacity="0.956863"/>
<path d="M402.23 154.73H335.16V221.8H402.23V154.73ZM392.66 212.2H344.78V164.32H392.66V212.2Z" fill="#FF6428" fill-opacity="0.956863"/>
<path d="M200.82 356.12H267.89V289.05H200.82V356.12ZM210.42 298.66H258.3V346.54H210.42V298.66Z" fill="#FF6428" fill-opacity="0.956863"/>
<path d="M287.12 193.04L287.14 193.06V193.04H287.12Z" fill="#FF6428" fill-opacity="0.956863"/>
<path d="M296.77 183.5H306.35V193.07H315.93V202.59H325.48V183.44H315.99V173.83H325.47V154.72H277.59V173.87H287.15V193.03C290.33 193.03 293.51 193.03 296.78 193.03V183.49L296.77 183.5ZM296.77 164.3H306.26V173.8H296.77V164.3Z" fill="#FF6428" fill-opacity="0.956863"/>
<path d="M229.57 241.05V269.76H210.33V260.28H200.83V279.37H239.17V260.19H267.9V250.61H248.74V241.04C242.35 241.04 235.96 241.04 229.58 241.04L229.57 241.05Z" fill="#FF6428" fill-opacity="0.956863"/>
<path d="M229.54 241.05H229.56V241.03L229.54 241.05Z" fill="#FF6428" fill-opacity="0.956863"/>
<path d="M277.6 356.14H306.27V346.55H296.7V336.97H287.12V327.4C283.94 327.4 280.76 327.4 277.6 327.4V356.14Z" fill="#FF6428" fill-opacity="0.956863"/>
<path d="M287.14 327.41L287.12 327.39V327.41H287.14Z" fill="#FF6428" fill-opacity="0.956863"/>
<path d="M229.54 241.05L229.56 241.03H229.54V241.05Z" fill="#FF6428" fill-opacity="0.956863"/>
<path d="M200.83 231.49V250.58H210.38V241.02H229.54C229.54 237.84 229.54 234.66 229.54 231.49H200.83Z" fill="#FF6428" fill-opacity="0.956863"/>
<path d="M402.23 260.19V231.48H383.15V241.07H392.72V260.19H402.24H402.23Z" fill="#FF6428" fill-opacity="0.956863"/>
<path d="M248.76 241.02H248.74V241.04H248.76V241.02Z" fill="#FF6428" fill-opacity="0.956863"/>
<path d="M267.88 231.49H248.75V241.02C255.12 241.02 261.5 241.02 267.88 241.02V231.49Z" fill="#FF6428" fill-opacity="0.956863"/>
<path d="M383.08 279.41L383.1 279.43V279.41H383.08Z" fill="#FF6428" fill-opacity="0.956863"/>
<path d="M392.63 269.88H383.1V279.41C386.28 279.41 389.45 279.41 392.63 279.41V269.88Z" fill="#FF6428" fill-opacity="0.956863"/>
<path d="M402.23 289.05H392.74V298.56H402.23V289.05Z" fill="#FF6428" fill-opacity="0.956863"/>
<path d="M315.91 221.83L315.93 221.85V221.83H315.91Z" fill="#FF6428" fill-opacity="0.956863"/>
<path d="M325.46 212.3H315.93V221.83C319.11 221.83 322.28 221.83 325.46 221.83V212.3Z" fill="#FF6428" fill-opacity="0.956863"/>
<path d="M277.59 298.62V308.19H287.12V298.62H277.59Z" fill="#FF6428" fill-opacity="0.956863"/>
<path d="M287.12 308.19V308.21H287.14V308.19H287.12Z" fill="#FF6428" fill-opacity="0.956863"/>
<path d="M383.08 317.79L383.1 317.81V317.79H383.08Z" fill="#FF6428" fill-opacity="0.956863"/>
<path d="M392.63 308.26H383.1V317.79C386.28 317.79 389.45 317.79 392.63 317.79V308.26Z" fill="#FF6428" fill-opacity="0.956863"/>
<path d="M373.51 250.64V250.62H373.49V250.64H373.51Z" fill="#FF6428" fill-opacity="0.956863"/>
<path d="M383.03 260.21V250.64H373.5V260.21H383.03Z" fill="#FF6428" fill-opacity="0.956863"/>
<path d="M315.96 346.55H325.46V337.05H315.96V346.55Z" fill="#FF6428" fill-opacity="0.956863"/>
<path d="M344.72 346.6L344.7 346.58V346.6H344.72Z" fill="#FF6428" fill-opacity="0.956863"/>
<path d="M335.16 356.13H344.69V346.6C341.51 346.6 338.34 346.6 335.16 346.6V356.13Z" fill="#FF6428" fill-opacity="0.956863"/>
<path d="M392.73 356.15H402.22V346.65H392.73V356.15Z" fill="#FF6428" fill-opacity="0.956863"/>
<path d="M325.51 269.83L325.53 269.81H325.51V269.83Z" fill="#FF6428" fill-opacity="0.956863"/>
<path d="M315.98 260.28V269.81H325.51C325.51 266.63 325.51 263.46 325.51 260.28H315.98Z" fill="#FF6428" fill-opacity="0.956863"/>
<path d="M248.69 173.92H220V202.61H248.69V173.92Z" fill="#FF6428" fill-opacity="0.956863"/>
<path d="M383.03 173.9H354.34V202.59H383.03V173.9Z" fill="#FF6428" fill-opacity="0.956863"/>
<path d="M219.99 336.94H248.68V308.25H219.99V336.94Z" fill="#FF6428" fill-opacity="0.956863"/>
<path opacity="0.2" d="M283.14 120.89H144.3V370.67H283.14V120.89Z" fill="#000001"/>
<path d="M313.54 62.71H289.5V100.45H313.54V62.71Z" fill="#FF5E1F"/>
<path opacity="0.46" d="M383.14 387.59H220.55V397.3H383.14V387.59Z" fill="white"/>
<path d="M78.5 298.68C78.5 298.68 93.27 229.18 130.44 229.18C167.61 229.18 187.38 338.43 96.97 350.31L78.51 298.68H78.5Z" fill="#FFE3B6" fill-opacity="0.980392"/>
<path opacity="0.1" d="M78.5 298.68C78.5 298.68 93.27 229.18 130.44 229.18C167.61 229.18 187.38 338.43 96.97 350.31L78.51 298.68H78.5Z" fill="#000001"/>
<path d="M253.27 102.78H111.02V355.58H253.27V102.78Z" fill="#FF2E63"/>
<path opacity="0.46" d="M253.27 102.78H111.02V355.58H253.27V102.78Z" fill="white"/>
<path d="M241.7 123.33H122.58V312.45H241.7V123.33Z" fill="white"/>
<path d="M227.37 257.33H134.81V285.93H227.37V257.33Z" fill="#FFD200"/>
<path opacity="0.1" d="M154.01 250.32C154.01 250.32 169.83 259.82 163.76 273.91C157.68 288 139.17 296.57 138.89 315.08C138.61 333.59 138.89 355.59 138.89 355.59H111.03V312.45L154.01 250.32Z" fill="#000001"/>
<path d="M107.62 272.87C107.62 272.87 136.31 243.53 148.7 246.14C158.92 248.29 158.93 268.64 136.66 285.58C127.52 292.53 121.76 302.95 120.99 314.41C120.36 323.88 117.23 335.15 107.62 343.66C87.41 361.56 72.41 345.97 74.36 321.81C76.32 297.66 77.62 290.48 107.62 272.88V272.87Z" fill="#FFE3B6" fill-opacity="0.980392"/>
<path d="M110.14 459.35L118.77 339.79L64.01 323.19L23.32 459.35H110.14Z" fill="#FF2E63"/>
<path opacity="0.1" d="M110.14 459.35L118.77 339.79L92.63 331.87L76.39 459.35H110.14Z" fill="#000001"/>
<path opacity="0.1" d="M150.95 117.07C153.341 117.07 155.28 115.131 155.28 112.74C155.28 110.349 153.341 108.41 150.95 108.41C148.559 108.41 146.62 110.349 146.62 112.74C146.62 115.131 148.559 117.07 150.95 117.07Z" fill="#000001"/>
<path opacity="0.1" d="M208.32 111.24H164.97C164.296 111.24 163.75 111.786 163.75 112.46V113.96C163.75 114.634 164.296 115.18 164.97 115.18H208.32C208.994 115.18 209.54 114.634 209.54 113.96V112.46C209.54 111.786 208.994 111.24 208.32 111.24Z" fill="#000001"/>
<path opacity="0.1" d="M178.78 346.94C186.424 346.94 192.62 340.744 192.62 333.1C192.62 325.456 186.424 319.26 178.78 319.26C171.136 319.26 164.94 325.456 164.94 333.1C164.94 340.744 171.136 346.94 178.78 346.94Z" fill="#000001"/>
<path d="M218.77 202.85V202.86H218.78L218.77 202.85Z" fill="#FF5E1F"/>
<path d="M188.6 177V177.01H188.61L188.6 177Z" fill="#FF5E1F"/>
<path d="M218.77 224.39V220.09H214.49V211.45H218.77V202.85H214.46V194.23H210.18V189.91H214.46V185.59H210.14V181.29H188.6V177H184.28V168.39H179.98V176.96H175.68C175.68 176.79 175.68 176.65 175.68 176.5C175.68 172.35 175.68 168.21 175.68 164.06H171.36V198.54H158.46V202.84H171.38V207.15H175.67C175.67 208.58 175.67 210.02 175.68 211.45H179.96V215.77H175.68C175.68 218.64 175.68 221.51 175.68 224.38H184.31V220.1H205.81V224.41H197.23V228.71H201.53V233.01H210.16V237.31H214.46V228.7H227.36V224.4H218.76L218.77 224.39ZM201.56 185.64H205.82V189.9H201.56V185.64ZM192.91 215.76H188.65V211.5H192.91V215.76ZM192.93 198.55V207.14H188.62V202.87H184.32V207.16C181.42 207.16 178.56 207.16 175.69 207.16V202.86H179.97V198.56H175.71V189.94H184.29V185.64H197.22V194.22H205.85V198.54C201.72 198.54 197.6 198.54 193.47 198.54C193.29 198.54 193.11 198.54 192.93 198.54V198.55ZM201.54 211.47H197.26V207.19H201.54V211.47ZM210.14 215.76H201.56V211.48C204.41 211.48 207.27 211.48 210.14 211.48V215.76ZM210.14 202.83H205.86C205.86 201.4 205.86 199.98 205.86 198.55H210.14V202.83Z" fill="#FF5E1F"/>
<path d="M201.54 233.02V233.01H201.53L201.54 233.02Z" fill="#FF5E1F"/>
<path d="M192.92 198.55H192.93V198.54L192.92 198.55Z" fill="#FF5E1F"/>
<path d="M175.68 164.07V164.08H175.69L175.68 164.07Z" fill="#FF5E1F"/>
<path d="M175.69 224.41V224.39H175.68L175.69 224.41Z" fill="#FF5E1F"/>
<path d="M218.77 220.09V220.1H218.78L218.77 220.09Z" fill="#FF5E1F"/>
<path d="M214.46 194.24H214.47V194.23H214.46V194.24Z" fill="#FF5E1F"/>
<path d="M175.69 211.47H175.68V211.48H175.69V211.47Z" fill="#FF5E1F"/>
<path d="M167.04 146.86H136.92V176.98H167.04V146.86ZM162.74 172.67H141.24V151.17H162.74V172.67Z" fill="#FF5E1F"/>
<path d="M227.37 146.87H197.25V176.99H227.37V146.87ZM223.07 172.68H201.57V151.18H223.07V172.68Z" fill="#FF5E1F"/>
<path d="M136.93 237.3H167.05V207.18H136.93V237.3ZM141.24 211.5H162.74V233H141.24V211.5Z" fill="#FF5E1F"/>
<path d="M175.68 164.07L175.69 164.08V164.07H175.68Z" fill="#FF5E1F"/>
<path d="M180.01 159.78H184.31V164.08H188.61V168.36H192.9V159.76H188.64V155.45H192.9V146.87H171.4V155.47H175.69V164.08C177.12 164.08 178.55 164.08 180.01 164.08V159.8V159.78ZM180.01 151.16H184.27V155.42H180.01V151.16Z" fill="#FF5E1F"/>
<path d="M149.83 185.62V198.51H141.19V194.25H136.92V202.82H154.14V194.21H167.04V189.91H158.43V185.61C155.56 185.61 152.69 185.61 149.82 185.61L149.83 185.62Z" fill="#FF5E1F"/>
<path d="M149.82 185.62H149.83V185.61L149.82 185.62Z" fill="#FF5E1F"/>
<path d="M171.4 237.31H184.28V233H179.98V228.7H175.68V224.4C174.25 224.4 172.82 224.4 171.4 224.4V237.3V237.31Z" fill="#FF5E1F"/>
<path d="M175.69 224.41L175.68 224.39V224.41H175.69Z" fill="#FF5E1F"/>
<path d="M149.82 185.62L149.83 185.61H149.82V185.62Z" fill="#FF5E1F"/>
<path d="M136.93 181.34V189.91H141.22V185.62H149.82C149.82 184.19 149.82 182.77 149.82 181.34H136.93Z" fill="#FF5E1F"/>
<path d="M227.37 194.22V181.33H218.8V185.63H223.1V194.22H227.37Z" fill="#FF5E1F"/>
<path d="M158.45 185.61H158.44V185.62H158.45V185.61Z" fill="#FF5E1F"/>
<path d="M167.04 181.33H158.45V185.61C161.31 185.61 164.17 185.61 167.04 185.61V181.33Z" fill="#FF5E1F"/>
<path d="M218.77 202.85L218.78 202.86V202.85H218.77Z" fill="#FF5E1F"/>
<path d="M223.06 198.57H218.78V202.85C220.21 202.85 221.63 202.85 223.06 202.85V198.57Z" fill="#FF5E1F"/>
<path d="M227.37 207.18H223.11V211.45H227.37V207.18Z" fill="#FF5E1F"/>
<path d="M188.6 177L188.61 177.01V177H188.6Z" fill="#FF5E1F"/>
<path d="M192.9 172.72H188.62V177C190.05 177 191.47 177 192.9 177V172.72Z" fill="#FF5E1F"/>
<path d="M171.4 211.48V215.78H175.68V211.48H171.4Z" fill="#FF5E1F"/>
<path d="M175.68 215.78V215.79H175.69V215.78H175.68Z" fill="#FF5E1F"/>
<path d="M218.77 220.09L218.78 220.1V220.09H218.77Z" fill="#FF5E1F"/>
<path d="M223.06 215.81H218.78V220.09C220.21 220.09 221.63 220.09 223.06 220.09V215.81Z" fill="#FF5E1F"/>
<path d="M214.47 189.93V189.92H214.46V189.93H214.47Z" fill="#FF5E1F"/>
<path d="M218.75 194.23V189.93H214.47V194.23H218.75Z" fill="#FF5E1F"/>
<path d="M188.63 233H192.89V228.74H188.63V233Z" fill="#FF5E1F"/>
<path d="M201.54 233.02L201.53 233.01V233.02H201.54Z" fill="#FF5E1F"/>
<path d="M197.25 237.3H201.53V233.02C200.1 233.02 198.68 233.02 197.25 233.02V237.3Z" fill="#FF5E1F"/>
<path d="M223.1 237.31H227.36V233.05H223.1V237.31Z" fill="#FF5E1F"/>
<path d="M192.92 198.55L192.93 198.54H192.92V198.55Z" fill="#FF5E1F"/>
<path d="M188.64 194.26V198.54H192.92C192.92 197.11 192.92 195.69 192.92 194.26H188.64Z" fill="#FF5E1F"/>
<path d="M158.42 155.48H145.54V168.36H158.42V155.48Z" fill="#FF5E1F"/>
<path d="M218.75 155.47H205.87V168.35H218.75V155.47Z" fill="#FF5E1F"/>
<path d="M145.54 228.68H158.42V215.8H145.54V228.68Z" fill="#FF5E1F"/>
</svg>
