<svg width="670" height="549" viewBox="0 0 670 549" fill="none" xmlns="http://www.w3.org/2000/svg">
<g clip-path="url(#clip0_215_266)">
<path opacity="0.5" d="M313.034 549C430.491 549 525.709 543.464 525.709 536.635C525.709 529.806 430.491 524.271 313.034 524.271C195.576 524.271 100.358 529.806 100.358 536.635C100.358 543.464 195.576 549 313.034 549Z" fill="#C9C9C9"/>
<g opacity="0.5">
<path fill-rule="evenodd" clip-rule="evenodd" d="M347.149 479.525C328.841 480.147 310.572 479.523 292.345 477.554C274.729 475.651 257.284 472.777 240.403 466.979C207.082 455.535 175.008 440.957 144.98 421.825C107.382 397.872 79.4425 364.409 60.3961 322.583C52.3402 304.892 45.6768 286.672 41.4623 267.502C38.7205 255.029 37.7386 242.438 39.2273 229.7C39.5555 226.892 40.0561 224.055 40.8843 221.372C44.4788 209.727 49.6609 198.979 57.1509 189.527C63.126 181.986 70.3202 176.228 78.9404 172.632C93.4582 166.574 108.478 162.285 121.439 152.837C137.533 141.106 149.982 125.221 164.581 111.701C179.883 97.5316 195.587 83.9926 212.279 71.6809C243.902 48.3576 277.614 29.3155 314.605 17.2139C333.189 11.1348 352.002 6.12584 371.279 3.26033C383.057 1.50958 394.911 0.723038 406.801 0.253883C440.55 -1.0783 473.659 2.75203 505.91 13.645C527.195 20.8328 547.368 30.508 565.539 44.4538C581.71 56.8624 595.489 71.6688 605.576 90.0648C610.222 98.5395 613.746 107.489 615.218 117.253C617.893 135.036 613.421 150.596 602.372 164.158C595.449 172.65 587.045 179.102 577.762 184.364C567.88 189.966 557.325 193.792 546.744 197.546C534.012 202.063 521.321 206.695 509.129 212.714C502.277 216.096 495.573 219.791 489.678 224.85C487.214 226.964 484.886 229.399 482.989 232.079C479.805 236.575 479.869 241.298 483.116 245.721C484.866 248.107 486.956 250.419 489.332 252.047C495.395 256.2 501.573 260.213 507.945 263.804C520.437 270.843 533.174 277.395 545.661 284.452C556.526 290.593 567.002 297.436 576.18 306.25C585.707 315.398 593.568 325.888 598.708 338.462C603.295 349.674 605.032 361.298 602.741 373.416C601.339 380.824 598.354 387.512 594.416 393.763C588.447 403.249 580.816 411.066 572.472 418.163C561.432 427.556 549.11 434.628 536.238 440.745C509.636 453.39 481.928 462.274 453.363 468.316C437.042 471.767 420.634 474.627 404.099 476.596C389.508 478.334 374.858 479.28 360.174 479.514C355.834 479.584 351.491 479.525 347.149 479.525Z" fill="#F1ECE8"/>
</g>
<path fill-rule="evenodd" clip-rule="evenodd" d="M138.028 70.9951C138.245 70.9689 138.445 70.9427 138.635 70.9174C138.599 65.9348 138.556 61.0749 138.707 56.2259C138.903 49.907 142.058 46.7165 148.429 46.0944C151.36 45.8091 154.331 45.8443 157.285 45.8651C200.285 46.1676 243.285 46.5458 286.286 46.7959C320.753 46.9954 355.223 47 389.692 47.176C425.307 47.3584 460.922 47.6464 496.537 47.8811C506.714 47.9479 516.89 47.938 527.066 48.0671C533.74 48.152 536.358 50.1869 537.235 56.8867C537.952 62.3741 537.83 67.9724 538.103 74.0123C537.995 74.024 537.898 74.0358 537.794 74.0475C537.792 74.7201 537.785 75.3882 537.772 76.0545C537.591 85.1765 537.334 94.2968 537.188 103.419C536.635 137.885 536.121 172.352 535.58 206.818C535.137 235.034 534.668 263.249 534.222 291.465C533.541 334.547 532.873 377.629 532.191 420.711C532.105 426.226 531.973 431.74 531.853 437.67C398.538 436.843 265.705 436.021 132.323 435.194C134.229 313.548 136.124 192.485 138.028 70.9951Z" fill="white"/>
<path fill-rule="evenodd" clip-rule="evenodd" d="M536.123 74.2473C536.7 74.1757 537.347 74.0955 538.102 74.0131C538.017 72.1243 537.97 70.2785 537.924 68.4659C537.824 64.4825 537.727 60.6585 537.234 56.8867C536.357 50.1869 533.739 48.1528 527.065 48.0679C520.508 47.9848 513.951 47.9593 507.394 47.9339C503.775 47.9198 500.156 47.9058 496.536 47.882C484.802 47.8043 473.067 47.7212 461.333 47.6379C437.452 47.4686 413.571 47.2992 389.691 47.1769C373.56 47.0945 357.43 47.0497 341.3 47.0049H341.299C322.961 46.954 304.623 46.9029 286.286 46.7968C259.267 46.6397 232.249 46.4319 205.231 46.2242C189.249 46.1013 173.265 45.9784 157.283 45.866L156.883 45.8632C154.062 45.8427 151.227 45.822 148.428 46.0953C142.057 46.7173 138.903 49.9079 138.706 56.2258C138.562 60.8669 138.594 65.5133 138.629 70.272V70.2759V70.279C138.644 72.3858 138.659 74.5146 138.659 76.6747C138.77 76.7001 138.908 76.7429 139.064 76.7917C139.481 76.9214 140.032 77.0933 140.582 77.09C149.151 77.0399 157.722 76.9227 166.293 76.8057C184.309 76.5595 202.325 76.3132 220.329 76.69C282.201 77.9846 344.071 77.8889 405.944 77.4574C431.871 77.2768 457.797 76.7947 483.718 76.2305C495.602 75.9714 507.482 75.5091 519.363 75.0469L519.366 75.0468C524.042 74.8649 528.718 74.6829 533.394 74.5133C534.225 74.4829 535.055 74.38 536.123 74.2473ZM139.328 81.4544C138.953 81.5058 138.528 81.564 138.027 81.623C136.932 149.476 135.84 217.192 134.747 284.958C133.939 335.009 133.131 385.087 132.323 435.267C265.704 436.07 398.538 436.869 531.853 437.671C531.892 435.79 531.932 433.953 531.972 432.144C532.053 428.416 532.133 424.809 532.191 421.203C532.52 401.007 532.846 380.811 533.171 360.615C533.52 338.978 533.869 317.34 534.222 295.703C534.437 282.49 534.657 269.276 534.877 256.062C535.114 241.878 535.35 227.694 535.58 213.511C535.808 199.422 536.031 185.335 536.254 171.247V171.245C536.56 151.866 536.867 132.486 537.187 113.107C537.273 107.869 537.399 102.631 537.524 97.3929C537.61 93.7739 537.697 90.1551 537.771 86.5361C537.805 84.8802 537.796 83.2234 537.787 81.4694C537.783 80.6406 537.779 79.7898 537.779 78.9073C537.332 78.8525 536.915 78.7849 536.517 78.7205C535.724 78.592 535.009 78.4761 534.299 78.5001C529.153 78.6767 524.007 78.878 518.862 79.0792C509.747 79.4357 500.632 79.7922 491.514 80.0115C488.136 80.0928 484.759 80.1756 481.38 80.2585L481.37 80.2587C459.655 80.7912 437.937 81.3238 416.218 81.4488C369.941 81.7151 323.66 81.7873 277.381 81.6058C258.001 81.5301 238.623 81.2583 219.244 80.9864C204.003 80.7725 188.762 80.5588 173.521 80.4403C165.974 80.3818 158.425 80.6605 150.875 80.9393C147.602 81.0602 144.328 81.1812 141.055 81.2745C140.532 81.2897 140.01 81.3611 139.328 81.4544ZM372.502 440.7C359.027 440.625 345.551 440.55 332.077 440.474V440.435C299.504 440.22 266.93 440.005 234.357 439.791C201.784 439.576 169.212 439.363 136.639 439.148C135.764 439.141 134.979 439.147 134.274 439.151H134.27C131.375 439.169 129.835 439.178 129.031 438.415C128.115 437.545 128.15 435.675 128.224 431.68C128.23 431.326 128.236 430.955 128.244 430.566C128.53 413.556 128.853 396.548 129.176 379.539V379.538L129.177 379.492C129.468 364.2 129.759 348.908 130.023 333.616C130.41 311.062 130.764 288.508 131.117 265.954V265.949V265.946C131.317 253.23 131.515 240.515 131.721 227.801C131.872 218.469 132.03 209.137 132.189 199.806C132.466 183.547 132.742 167.288 132.977 151.028C133.275 130.346 133.535 109.662 133.795 88.9789L133.798 88.777C133.918 79.1746 134.039 69.5722 134.163 59.9698C134.166 59.7342 134.168 59.4983 134.17 59.2624C134.177 58.3491 134.183 57.435 134.259 56.5274C134.99 47.7492 139.296 43.0356 148.062 42.0326C150.594 41.7423 153.169 41.8388 155.743 41.9353C156.931 41.9798 158.119 42.0243 159.302 42.0308C173.781 42.1093 188.26 42.1861 202.739 42.2627H202.74C233.222 42.4242 263.704 42.5858 294.186 42.7639C312.41 42.8701 330.635 42.989 348.859 43.108H348.86C383.637 43.3351 418.415 43.5622 453.193 43.7001C465.77 43.7499 478.346 43.6625 490.922 43.575C502.289 43.496 513.655 43.417 525.021 43.4392C534.264 43.4572 539.866 46.4302 541.447 56.6817C541.795 58.9388 542.03 61.2446 541.997 63.5242C541.882 71.6479 541.729 79.7713 541.575 87.8947C541.465 93.7158 541.355 99.5369 541.259 105.358C540.594 145.715 539.939 186.073 539.298 226.431C538.808 257.404 538.326 288.376 537.844 319.349C537.583 336.117 537.323 352.885 537.06 369.653C536.99 374.138 536.92 378.623 536.851 383.108C536.578 400.605 536.306 418.103 536.011 435.6C535.908 441.69 535.856 441.735 529.976 441.71C526.578 441.695 523.18 441.644 519.783 441.594C516.618 441.547 513.453 441.5 510.288 441.482C464.377 441.215 418.466 440.958 372.555 440.7H372.529H372.502ZM514.559 57.8022C511.528 57.7571 509.72 59.0553 509.646 61.3295C509.566 63.7879 513.179 66.8421 516.227 66.8936C518.437 66.9306 520.181 65.2306 520.326 62.8986C520.516 59.8643 518.243 57.8573 514.559 57.8022ZM505.526 61.6645C505.376 56.8687 509.073 53.6935 515.092 53.447C519.831 53.252 524.26 57.4294 524.448 62.2712C524.621 66.7591 521.126 70.8895 516.98 71.0971C511.627 71.3662 505.676 66.4648 505.526 61.6645ZM454.738 63.1802C454.703 61.4703 457.161 58.8828 458.826 58.8765C460.803 58.8693 463.202 61.6193 463.318 64.0298C463.428 66.2895 461.969 67.8397 459.793 67.7747C457.493 67.707 454.78 65.2405 454.738 63.1802ZM458.441 54.7163C455.135 54.6233 450.679 59.132 450.506 62.746C450.298 67.0669 455.061 71.7218 459.782 71.8112C464.187 71.8933 467.26 68.9736 467.377 64.594C467.514 59.4082 463.396 54.8562 458.441 54.7163ZM481.94 63.5287C482.125 65.2973 484.512 66.9937 487.625 66.9043C487.74 66.753 487.915 66.5743 488.114 66.3721C488.65 65.8267 489.352 65.1113 489.476 64.3069C489.785 62.3009 487.068 59.8037 485.106 59.8317C483.476 59.8551 481.765 61.8531 481.94 63.5287ZM484.78 55.7798C489.357 55.6345 493.582 59.754 493.641 64.418C493.688 68.3398 490.922 71.0366 486.789 71.0961C482.28 71.1602 478.034 67.6429 477.856 63.6948C477.663 59.4687 480.78 55.9071 484.78 55.7798Z" fill="#670224"/>
<rect x="174.639" y="144.965" width="321.861" height="25" rx="7.5" stroke="black"/>
<path d="M181.253 134.605C180.999 134.605 180.799 134.532 180.653 134.385C180.506 134.225 180.433 134.012 180.433 133.745V121.785H175.933C175.693 121.785 175.506 121.718 175.373 121.585C175.239 121.452 175.173 121.278 175.173 121.065C175.173 120.838 175.239 120.665 175.373 120.545C175.506 120.425 175.693 120.365 175.933 120.365H186.593C186.833 120.365 187.019 120.425 187.153 120.545C187.286 120.665 187.353 120.838 187.353 121.065C187.353 121.292 187.286 121.472 187.153 121.605C187.019 121.725 186.833 121.785 186.593 121.785H182.093V133.745C182.093 134.012 182.019 134.225 181.873 134.385C181.739 134.532 181.533 134.605 181.253 134.605ZM190.092 134.565C189.825 134.565 189.625 134.492 189.492 134.345C189.358 134.185 189.292 133.965 189.292 133.685V125.505C189.292 125.225 189.358 125.012 189.492 124.865C189.625 124.718 189.825 124.645 190.092 124.645C190.345 124.645 190.545 124.718 190.692 124.865C190.838 125.012 190.912 125.225 190.912 125.505V133.685C190.912 133.965 190.838 134.185 190.692 134.345C190.558 134.492 190.358 134.565 190.092 134.565ZM190.092 122.405C189.758 122.405 189.498 122.318 189.312 122.145C189.125 121.958 189.032 121.712 189.032 121.405C189.032 121.085 189.125 120.845 189.312 120.685C189.498 120.512 189.758 120.425 190.092 120.425C190.438 120.425 190.698 120.512 190.872 120.685C191.058 120.845 191.152 121.085 191.152 121.405C191.152 121.712 191.058 121.958 190.872 122.145C190.698 122.318 190.438 122.405 190.092 122.405ZM197.84 134.645C197.08 134.645 196.44 134.512 195.92 134.245C195.413 133.965 195.033 133.565 194.78 133.045C194.527 132.512 194.4 131.865 194.4 131.105V126.005H193.06C192.833 126.005 192.66 125.952 192.54 125.845C192.42 125.725 192.36 125.565 192.36 125.365C192.36 125.165 192.42 125.012 192.54 124.905C192.66 124.798 192.833 124.745 193.06 124.745H194.4V122.445C194.4 122.178 194.473 121.978 194.62 121.845C194.767 121.698 194.967 121.625 195.22 121.625C195.473 121.625 195.667 121.698 195.8 121.845C195.947 121.978 196.02 122.178 196.02 122.445V124.745H198.54C198.767 124.745 198.94 124.798 199.06 124.905C199.18 125.012 199.24 125.165 199.24 125.365C199.24 125.565 199.18 125.725 199.06 125.845C198.94 125.952 198.767 126.005 198.54 126.005H196.02V130.945C196.02 131.705 196.18 132.285 196.5 132.685C196.82 133.072 197.34 133.265 198.06 133.265C198.313 133.265 198.527 133.238 198.7 133.185C198.887 133.132 199.04 133.105 199.16 133.105C199.28 133.092 199.38 133.132 199.46 133.225C199.54 133.318 199.58 133.478 199.58 133.705C199.58 133.865 199.547 134.012 199.48 134.145C199.427 134.278 199.327 134.372 199.18 134.425C199.02 134.478 198.807 134.525 198.54 134.565C198.287 134.618 198.053 134.645 197.84 134.645ZM204.01 134.645C203.05 134.645 202.316 134.352 201.81 133.765C201.303 133.178 201.05 132.338 201.05 131.245V121.045C201.05 120.778 201.116 120.578 201.25 120.445C201.383 120.298 201.583 120.225 201.85 120.225C202.103 120.225 202.303 120.298 202.45 120.445C202.596 120.578 202.67 120.778 202.67 121.045V131.125C202.67 131.845 202.81 132.385 203.09 132.745C203.383 133.092 203.81 133.265 204.37 133.265C204.49 133.265 204.596 133.258 204.69 133.245C204.783 133.232 204.876 133.225 204.97 133.225C205.116 133.212 205.216 133.245 205.27 133.325C205.336 133.405 205.37 133.565 205.37 133.805C205.37 134.045 205.316 134.225 205.21 134.345C205.103 134.465 204.93 134.545 204.69 134.585C204.583 134.598 204.47 134.612 204.35 134.625C204.23 134.638 204.116 134.645 204.01 134.645ZM211.25 134.645C210.223 134.645 209.336 134.445 208.59 134.045C207.856 133.632 207.283 133.052 206.87 132.305C206.47 131.558 206.27 130.665 206.27 129.625C206.27 128.612 206.47 127.732 206.87 126.985C207.27 126.225 207.816 125.632 208.51 125.205C209.216 124.778 210.03 124.565 210.95 124.565C211.603 124.565 212.19 124.678 212.71 124.905C213.23 125.118 213.67 125.432 214.03 125.845C214.403 126.258 214.683 126.758 214.87 127.345C215.07 127.932 215.17 128.592 215.17 129.325C215.17 129.538 215.11 129.698 214.99 129.805C214.87 129.898 214.696 129.945 214.47 129.945H207.51V128.885H214.09L213.77 129.145C213.77 128.425 213.663 127.818 213.45 127.325C213.236 126.818 212.923 126.432 212.51 126.165C212.11 125.898 211.603 125.765 210.99 125.765C210.31 125.765 209.73 125.925 209.25 126.245C208.783 126.552 208.43 126.985 208.19 127.545C207.95 128.092 207.83 128.732 207.83 129.465V129.585C207.83 130.812 208.123 131.745 208.71 132.385C209.31 133.025 210.156 133.345 211.25 133.345C211.703 133.345 212.15 133.285 212.59 133.165C213.043 133.045 213.483 132.845 213.91 132.565C214.096 132.445 214.263 132.392 214.41 132.405C214.57 132.405 214.696 132.452 214.79 132.545C214.883 132.625 214.943 132.732 214.97 132.865C215.01 132.985 214.996 133.118 214.93 133.265C214.876 133.412 214.763 133.538 214.59 133.645C214.15 133.965 213.63 134.212 213.03 134.385C212.43 134.558 211.836 134.645 211.25 134.645Z" fill="black"/>
<rect x="174.64" y="205.965" width="321.861" height="25" rx="7.5" stroke="black"/>
<path d="M186.346 195.645C184.959 195.645 183.772 195.352 182.786 194.765C181.799 194.178 181.039 193.345 180.506 192.265C179.986 191.185 179.726 189.898 179.726 188.405C179.726 187.285 179.872 186.285 180.166 185.405C180.472 184.512 180.906 183.758 181.466 183.145C182.039 182.518 182.739 182.038 183.566 181.705C184.392 181.358 185.319 181.185 186.346 181.185C187.172 181.185 187.959 181.305 188.706 181.545C189.452 181.772 190.099 182.112 190.646 182.565C190.819 182.698 190.932 182.852 190.986 183.025C191.052 183.185 191.059 183.345 191.006 183.505C190.966 183.652 190.886 183.778 190.766 183.885C190.659 183.978 190.526 184.025 190.366 184.025C190.206 184.025 190.026 183.958 189.826 183.825C189.346 183.438 188.819 183.152 188.246 182.965C187.672 182.778 187.052 182.685 186.386 182.685C185.332 182.685 184.439 182.912 183.706 183.365C182.972 183.805 182.419 184.452 182.046 185.305C181.672 186.158 181.486 187.192 181.486 188.405C181.486 189.618 181.672 190.658 182.046 191.525C182.419 192.378 182.972 193.032 183.706 193.485C184.439 193.925 185.332 194.145 186.386 194.145C187.039 194.145 187.659 194.052 188.246 193.865C188.832 193.665 189.372 193.372 189.866 192.985C190.066 192.852 190.246 192.792 190.406 192.805C190.566 192.805 190.699 192.852 190.806 192.945C190.912 193.038 190.986 193.158 191.026 193.305C191.079 193.452 191.079 193.605 191.026 193.765C190.986 193.925 190.886 194.065 190.726 194.185C190.166 194.665 189.506 195.032 188.746 195.285C187.999 195.525 187.199 195.645 186.346 195.645ZM196.82 195.645C195.873 195.645 195.053 195.438 194.36 195.025C193.666 194.612 193.126 194.032 192.74 193.285C192.366 192.525 192.18 191.632 192.18 190.605C192.18 189.832 192.286 189.138 192.5 188.525C192.713 187.898 193.026 187.365 193.44 186.925C193.853 186.485 194.34 186.152 194.9 185.925C195.473 185.685 196.113 185.565 196.82 185.565C197.766 185.565 198.586 185.772 199.28 186.185C199.973 186.598 200.506 187.185 200.88 187.945C201.266 188.692 201.46 189.578 201.46 190.605C201.46 191.378 201.353 192.072 201.14 192.685C200.926 193.298 200.613 193.832 200.2 194.285C199.786 194.725 199.293 195.065 198.72 195.305C198.16 195.532 197.526 195.645 196.82 195.645ZM196.82 194.345C197.42 194.345 197.946 194.198 198.4 193.905C198.853 193.612 199.2 193.185 199.44 192.625C199.693 192.065 199.82 191.392 199.82 190.605C199.82 189.392 199.546 188.465 199 187.825C198.466 187.185 197.74 186.865 196.82 186.865C196.206 186.865 195.673 187.012 195.22 187.305C194.78 187.585 194.433 188.005 194.18 188.565C193.94 189.112 193.82 189.792 193.82 190.605C193.82 191.805 194.093 192.732 194.64 193.385C195.186 194.025 195.913 194.345 196.82 194.345ZM204.693 195.605C204.426 195.605 204.226 195.532 204.093 195.385C203.96 195.238 203.893 195.032 203.893 194.765V186.425C203.893 186.158 203.96 185.958 204.093 185.825C204.226 185.678 204.42 185.605 204.673 185.605C204.926 185.605 205.12 185.678 205.253 185.825C205.4 185.958 205.473 186.158 205.473 186.425V188.145L205.253 187.905C205.533 187.132 205.986 186.552 206.613 186.165C207.253 185.765 207.986 185.565 208.813 185.565C209.586 185.565 210.226 185.705 210.733 185.985C211.253 186.265 211.64 186.692 211.893 187.265C212.146 187.825 212.273 188.538 212.273 189.405V194.765C212.273 195.032 212.2 195.238 212.053 195.385C211.92 195.532 211.726 195.605 211.473 195.605C211.206 195.605 211 195.532 210.853 195.385C210.72 195.238 210.653 195.032 210.653 194.765V189.505C210.653 188.598 210.473 187.938 210.113 187.525C209.766 187.098 209.206 186.885 208.433 186.885C207.54 186.885 206.826 187.165 206.293 187.725C205.773 188.272 205.513 189.005 205.513 189.925V194.765C205.513 195.325 205.24 195.605 204.693 195.605ZM219.16 195.645C218.4 195.645 217.76 195.512 217.24 195.245C216.734 194.965 216.354 194.565 216.1 194.045C215.847 193.512 215.72 192.865 215.72 192.105V187.005H214.38C214.154 187.005 213.98 186.952 213.86 186.845C213.74 186.725 213.68 186.565 213.68 186.365C213.68 186.165 213.74 186.012 213.86 185.905C213.98 185.798 214.154 185.745 214.38 185.745H215.72V183.445C215.72 183.178 215.794 182.978 215.94 182.845C216.087 182.698 216.287 182.625 216.54 182.625C216.794 182.625 216.987 182.698 217.12 182.845C217.267 182.978 217.34 183.178 217.34 183.445V185.745H219.86C220.087 185.745 220.26 185.798 220.38 185.905C220.5 186.012 220.56 186.165 220.56 186.365C220.56 186.565 220.5 186.725 220.38 186.845C220.26 186.952 220.087 187.005 219.86 187.005H217.34V191.945C217.34 192.705 217.5 193.285 217.82 193.685C218.14 194.072 218.66 194.265 219.38 194.265C219.634 194.265 219.847 194.238 220.02 194.185C220.207 194.132 220.36 194.105 220.48 194.105C220.6 194.092 220.7 194.132 220.78 194.225C220.86 194.318 220.9 194.478 220.9 194.705C220.9 194.865 220.867 195.012 220.8 195.145C220.747 195.278 220.647 195.372 220.5 195.425C220.34 195.478 220.127 195.525 219.86 195.565C219.607 195.618 219.374 195.645 219.16 195.645ZM226.535 195.645C225.508 195.645 224.621 195.445 223.875 195.045C223.141 194.632 222.568 194.052 222.155 193.305C221.755 192.558 221.555 191.665 221.555 190.625C221.555 189.612 221.755 188.732 222.155 187.985C222.555 187.225 223.101 186.632 223.795 186.205C224.501 185.778 225.315 185.565 226.235 185.565C226.888 185.565 227.475 185.678 227.995 185.905C228.515 186.118 228.955 186.432 229.315 186.845C229.688 187.258 229.968 187.758 230.155 188.345C230.355 188.932 230.455 189.592 230.455 190.325C230.455 190.538 230.395 190.698 230.275 190.805C230.155 190.898 229.981 190.945 229.755 190.945H222.795V189.885H229.375L229.055 190.145C229.055 189.425 228.948 188.818 228.735 188.325C228.521 187.818 228.208 187.432 227.795 187.165C227.395 186.898 226.888 186.765 226.275 186.765C225.595 186.765 225.015 186.925 224.535 187.245C224.068 187.552 223.715 187.985 223.475 188.545C223.235 189.092 223.115 189.732 223.115 190.465V190.585C223.115 191.812 223.408 192.745 223.995 193.385C224.595 194.025 225.441 194.345 226.535 194.345C226.988 194.345 227.435 194.285 227.875 194.165C228.328 194.045 228.768 193.845 229.195 193.565C229.381 193.445 229.548 193.392 229.695 193.405C229.855 193.405 229.981 193.452 230.075 193.545C230.168 193.625 230.228 193.732 230.255 193.865C230.295 193.985 230.281 194.118 230.215 194.265C230.161 194.412 230.048 194.538 229.875 194.645C229.435 194.965 228.915 195.212 228.315 195.385C227.715 195.558 227.121 195.645 226.535 195.645ZM233.599 195.605C233.333 195.605 233.133 195.532 232.999 195.385C232.866 195.238 232.799 195.032 232.799 194.765V186.425C232.799 186.158 232.866 185.958 232.999 185.825C233.133 185.678 233.326 185.605 233.579 185.605C233.833 185.605 234.026 185.678 234.159 185.825C234.306 185.958 234.379 186.158 234.379 186.425V188.145L234.159 187.905C234.439 187.132 234.893 186.552 235.519 186.165C236.159 185.765 236.893 185.565 237.719 185.565C238.493 185.565 239.133 185.705 239.639 185.985C240.159 186.265 240.546 186.692 240.799 187.265C241.053 187.825 241.179 188.538 241.179 189.405V194.765C241.179 195.032 241.106 195.238 240.959 195.385C240.826 195.532 240.633 195.605 240.379 195.605C240.113 195.605 239.906 195.532 239.759 195.385C239.626 195.238 239.559 195.032 239.559 194.765V189.505C239.559 188.598 239.379 187.938 239.019 187.525C238.673 187.098 238.113 186.885 237.339 186.885C236.446 186.885 235.733 187.165 235.199 187.725C234.679 188.272 234.419 189.005 234.419 189.925V194.765C234.419 195.325 234.146 195.605 233.599 195.605ZM248.066 195.645C247.306 195.645 246.666 195.512 246.146 195.245C245.64 194.965 245.26 194.565 245.006 194.045C244.753 193.512 244.626 192.865 244.626 192.105V187.005H243.286C243.06 187.005 242.886 186.952 242.766 186.845C242.646 186.725 242.586 186.565 242.586 186.365C242.586 186.165 242.646 186.012 242.766 185.905C242.886 185.798 243.06 185.745 243.286 185.745H244.626V183.445C244.626 183.178 244.7 182.978 244.846 182.845C244.993 182.698 245.193 182.625 245.446 182.625C245.7 182.625 245.893 182.698 246.026 182.845C246.173 182.978 246.246 183.178 246.246 183.445V185.745H248.766C248.993 185.745 249.166 185.798 249.286 185.905C249.406 186.012 249.466 186.165 249.466 186.365C249.466 186.565 249.406 186.725 249.286 186.845C249.166 186.952 248.993 187.005 248.766 187.005H246.246V191.945C246.246 192.705 246.406 193.285 246.726 193.685C247.046 194.072 247.566 194.265 248.286 194.265C248.54 194.265 248.753 194.238 248.926 194.185C249.113 194.132 249.266 194.105 249.386 194.105C249.506 194.092 249.606 194.132 249.686 194.225C249.766 194.318 249.806 194.478 249.806 194.705C249.806 194.865 249.773 195.012 249.706 195.145C249.653 195.278 249.553 195.372 249.406 195.425C249.246 195.478 249.033 195.525 248.766 195.565C248.513 195.618 248.28 195.645 248.066 195.645ZM251.939 195.545C251.605 195.545 251.339 195.445 251.139 195.245C250.939 195.032 250.839 194.765 250.839 194.445C250.839 194.125 250.939 193.865 251.139 193.665C251.339 193.452 251.605 193.345 251.939 193.345C252.272 193.345 252.532 193.452 252.719 193.665C252.919 193.865 253.019 194.125 253.019 194.445C253.019 194.765 252.919 195.032 252.719 195.245C252.532 195.445 252.272 195.545 251.939 195.545ZM251.939 187.865C251.605 187.865 251.339 187.758 251.139 187.545C250.939 187.332 250.839 187.072 250.839 186.765C250.839 186.432 250.939 186.165 251.139 185.965C251.339 185.765 251.605 185.665 251.939 185.665C252.272 185.665 252.532 185.765 252.719 185.965C252.919 186.165 253.019 186.432 253.019 186.765C253.019 187.072 252.919 187.332 252.719 187.545C252.532 187.758 252.272 187.865 251.939 187.865Z" fill="black"/>
</g>
<defs>
<clipPath id="clip0_215_266">
<rect width="670" height="549" fill="white"/>
</clipPath>
</defs>
</svg>
