<svg width="670" height="549" viewBox="0 0 670 549" fill="none" xmlns="http://www.w3.org/2000/svg">
<path opacity="0.5" d="M325.5 507C431.263 507 517 502.075 517 496C517 489.925 431.263 485 325.5 485C219.737 485 134 489.925 134 496C134 502.075 219.737 507 325.5 507Z" fill="#C9C9C9"/>
<path fill-rule="evenodd" clip-rule="evenodd" d="M318.679 55.0213C339.929 54.9386 360.941 57.2071 381.313 64.5318C387.499 66.7559 393.664 69.219 399.566 72.2564C405.916 75.5242 411.686 80.0716 417.271 84.8403C424.613 91.1085 431.151 98.3382 436.752 106.611C442.281 114.777 446.269 123.745 447.532 134.129C448.333 140.728 447.936 147.152 445.916 153.389C442.149 165.021 437.057 175.717 428.867 184.203C422.404 190.897 415.995 197.658 409.556 204.382C402.246 212.016 395.274 220.01 389.304 229.062C384.606 236.186 380.691 243.774 378.926 252.571C378.538 254.505 378.186 256.47 378.045 258.441C377.408 267.312 381.127 273.797 387.261 278.524C392.19 282.322 397.924 283.949 403.848 283.854C416.172 283.655 428.496 283.279 440.813 282.754C457.888 282.027 474.953 280.968 492.051 281.408C513.541 281.96 534.887 283.946 555.795 290.041C566.925 293.286 577.677 297.673 587.621 304.357C591.987 307.292 596.151 310.573 599.585 314.83C601.606 317.333 603.495 320.072 604.997 322.999C607.896 328.654 608.212 334.709 606.209 340.88C604.219 347.003 600.934 352.167 597.02 356.849C590.695 364.405 583.071 369.816 574.835 374.219C564.702 379.641 554.099 383.625 543.281 386.729C525.602 391.801 507.844 396.531 490.093 401.266C461.196 408.974 432.264 416.518 403.368 424.23C383.336 429.576 363.212 434.373 342.833 437.661C327.144 440.193 311.368 441.547 295.513 441.033C282.007 440.595 268.897 437.915 256.553 431.319C250.875 428.284 245.703 424.429 241.374 419.234C226.157 400.977 236.043 378.878 245.96 361.065C247.83 357.707 249.94 354.511 251.653 351.057C252.831 348.682 253.795 346.067 254.359 343.421C255.519 337.976 253.726 333.874 249.345 331.341C246.007 329.41 242.402 328.591 238.675 328.392C229.891 327.925 221.197 329.044 212.604 330.849C194.668 334.617 176.769 338.625 158.874 342.647C144.857 345.797 130.753 346.417 116.556 344.938C115.21 344.797 113.832 344.572 112.558 344.084C99.8669 339.223 88.4224 332.036 79.0993 320.858C70.8809 311.005 66.3272 299.104 63.8848 286.012C61.375 272.56 61.5529 259.057 63.1278 245.477C65.2839 226.881 70.0657 209.285 77.8631 192.747C82.4349 183.05 87.799 174.001 94.7727 166.328C106.078 153.887 117.12 141.094 128.925 129.294C148.418 109.807 170.813 95.4601 194.616 83.9199C218.382 72.3993 243.085 64.5731 268.557 59.7796C282.654 57.1263 296.823 55.3836 311.113 55.0304C313.634 54.9678 316.157 55.0213 318.679 55.0213Z" fill="white"/>
<path fill-rule="evenodd" clip-rule="evenodd" d="M459.282 231.314C458.181 233.503 457.039 235.77 457.638 238.827C458.008 238.682 458.307 238.581 458.553 238.499C458.975 238.357 459.239 238.268 459.434 238.098C460.12 237.497 460.826 236.871 461.34 236.124C470.356 222.978 473.432 208.796 467.066 193.694C460.548 178.237 447.945 170.54 432.089 168.402C422.727 167.139 413.581 168.739 405.792 174.828C404.099 176.152 402.716 177.918 401.361 179.648L401.361 179.648C401.212 179.838 401.063 180.028 400.914 180.217C400.642 180.563 400.666 181.15 400.691 181.757C400.702 182.041 400.714 182.329 400.696 182.599C400.947 182.581 401.154 182.58 401.324 182.58C401.614 182.58 401.801 182.579 401.936 182.493C402.956 181.831 403.962 181.141 404.932 180.405C416.956 171.297 429.885 170.006 443.535 175.967C458.775 182.621 466.9 197.17 465.026 213.998C464.367 219.927 462.235 225.32 459.641 230.596C459.523 230.835 459.403 231.074 459.282 231.314ZM414.375 225.729C411.953 224.661 411.562 222.708 411.23 220.697C411.053 219.619 410.893 218.536 410.733 217.453V217.452V217.452V217.451L410.732 217.45V217.45V217.449H410.732V217.448C410.349 214.856 409.967 212.262 409.339 209.733C405.261 193.296 391.765 182.011 375.221 181.367C368.455 181.104 362.046 182.997 356.035 186.205C350.205 189.317 345.15 193.463 340.492 198.18C340.239 198.437 339.982 198.759 339.717 199.092C338.676 200.399 337.501 201.874 335.867 200.206C334.269 198.574 335.977 196.735 337.235 195.381C337.335 195.273 337.432 195.168 337.524 195.067C345.906 185.893 355.873 179.652 368.167 177.374C392.377 172.89 415.693 192.438 416.417 218.635C416.519 222.33 416.424 222.645 414.375 225.729ZM246.594 241.152C248.382 242.836 250.168 244.518 253.173 245.075C254.148 242.311 252.863 240.584 251.686 239.003L251.624 238.919L251.553 238.823C246.537 232.06 240.379 226.661 232.505 223.701C219.152 218.682 206.619 220.161 195.582 229.692C187.001 237.103 181.68 246.678 179.517 257.931C178.864 261.331 178.712 264.845 178.561 268.329V268.332L178.56 268.335V268.338V268.34V268.342V268.345L178.56 268.347V268.349L178.538 268.844C178.53 269.029 178.522 269.215 178.514 269.4C178.422 271.442 178.963 273.375 182.05 273.755C182.151 273.111 182.264 272.478 182.375 271.853C182.614 270.519 182.846 269.22 182.945 267.91C183.483 260.761 185.234 253.967 188.316 247.517C190.939 242.027 194.574 237.328 199.088 233.379C209.681 224.116 225.455 223.753 237.216 232.618C239.628 234.437 241.823 236.561 244.014 238.683C244.786 239.43 245.557 240.177 246.338 240.91C246.423 240.99 246.509 241.071 246.594 241.152ZM386.365 244.365C385.231 245.402 384.123 246.947 385.674 249.072C386.049 248.822 386.413 248.575 386.771 248.332C387.542 247.809 388.286 247.304 389.047 246.831C390.214 246.106 391.363 245.334 392.513 244.562L392.513 244.562C395.153 242.789 397.794 241.015 400.66 239.802C410.228 235.751 420.269 234.996 430.401 237.271C442.862 240.071 452.595 246.6 457.954 258.993C461.071 266.198 462.664 273.622 462.11 281.533C461.894 284.61 461.9 287.729 462.138 290.801C462.19 291.482 462.742 292.123 463.294 292.763V292.764C463.546 293.056 463.798 293.348 464.003 293.644C464.252 293.409 464.524 293.186 464.796 292.962C465.411 292.458 466.025 291.954 466.373 291.3C466.928 290.257 467.19 288.933 467.21 287.725C467.235 286.135 467.31 284.536 467.383 282.936C467.574 278.796 467.765 274.647 467.135 270.639C464.988 256.993 459.333 245.014 446.926 238.212C429.847 228.85 412.25 228.745 394.851 237.546C392.237 238.869 389.977 240.988 387.756 243.071C387.292 243.506 386.829 243.94 386.365 244.365ZM476.881 334.97C477.259 335.367 477.638 335.765 477.995 336.176L478.206 336.083L478.433 335.983L478.755 335.841L478.991 335.736L479.146 335.667L479.512 335.506C479.453 334.958 479.43 334.395 479.407 333.834C479.357 332.622 479.307 331.412 478.904 330.339C473.085 314.853 463.262 302.736 448.964 294.714C440.571 290.004 431.547 288.64 422.047 290.686C409.694 293.347 400.203 300.505 392.285 310.114C385.134 318.792 380.058 328.598 377.646 339.735C377.607 339.912 377.562 340.091 377.516 340.273C377.187 341.566 376.834 342.958 378.902 344.096C379.09 343.821 379.297 343.55 379.506 343.275C379.977 342.657 380.457 342.027 380.752 341.316C381.248 340.116 381.639 338.871 382.03 337.625L382.031 337.622V337.621L382.032 337.621L382.032 337.62V337.62V337.619L382.033 337.618L382.033 337.618V337.617V337.616H382.034V337.616C382.245 336.944 382.456 336.271 382.683 335.606C387.709 320.935 396.01 308.686 409.191 300.594C421.492 293.043 434.453 291.761 447.246 299.437C456.563 305.026 464.23 312.496 469.342 322.415C469.49 322.704 469.639 322.992 469.787 323.281L469.8 323.306C471.343 326.305 472.888 329.309 474.608 332.202C475.213 333.22 476.046 334.095 476.881 334.97ZM305.855 300.519V300.518C305.658 299.544 305.516 298.838 305.648 298.189C306.104 295.925 306.686 293.644 307.562 291.519C314.809 273.949 326.966 261.246 344.493 254.575C370.231 244.778 396.298 258.66 404.124 286.2C404.454 287.361 404.539 288.639 404.483 289.851C404.462 290.328 404.187 290.793 403.927 291.235C403.814 291.426 403.704 291.613 403.618 291.794C401.16 292.006 400.301 290.275 399.522 288.707L399.465 288.593C398.232 286.114 397.121 283.554 396.173 280.946C389.636 262.953 368.562 250.568 346.144 258.666C330.101 264.461 318.948 275.674 311.807 291.249C311.147 292.688 310.562 294.163 309.976 295.638L309.975 295.639V295.64L309.975 295.641V295.641L309.974 295.642V295.643L309.974 295.643L309.973 295.644V295.645L309.973 295.646V295.647L309.973 295.647V295.648L309.972 295.648V295.649H309.972V295.65C309.477 296.896 308.982 298.142 308.442 299.367C308.225 299.86 307.87 300.29 307.328 300.949C307.014 301.33 306.637 301.787 306.187 302.377C306.084 301.656 305.961 301.048 305.855 300.519ZM316.28 260.197L316.28 260.196L316.279 260.195C315.389 259.345 314.524 258.52 313.704 257.651C304.454 247.857 293.28 242.305 279.802 242.163C265.486 242.012 253.976 250.024 248.829 263.667C244.605 274.866 243.889 286.45 245.62 298.253C245.695 298.765 245.785 299.279 245.877 299.796L245.877 299.796C246.339 302.416 246.818 305.127 245.375 308.198C245.039 307.946 244.699 307.732 244.382 307.533C243.737 307.128 243.182 306.78 242.926 306.275C242.314 305.073 241.958 303.659 241.818 302.299C240.506 289.617 240.725 276.965 244.621 264.757C249.095 250.736 258.076 241.124 272.772 238.088C278.485 236.908 284.274 237.27 289.964 238.552C298.73 240.525 306.553 244.497 313.275 250.521C315.175 252.224 316.709 254.417 318.131 256.574C318.901 257.745 319.799 259.306 317.543 261.412C317.118 260.997 316.696 260.594 316.281 260.197L316.28 260.197ZM214.436 217.223C214.492 217.87 214.553 218.596 214.572 219.422C217.295 217.57 218.045 215.466 218.73 213.544C218.931 212.984 219.125 212.439 219.361 211.921C227.299 194.485 239.258 181.893 258.878 179.585C271.538 178.095 282.996 181.343 291.589 191.811C292.126 192.466 292.646 193.134 293.167 193.803C293.872 194.709 294.578 195.615 295.323 196.485C296.507 197.867 297.749 199.261 299.845 198.813C300.573 195.816 300.596 195.558 299.257 193.198C296.721 188.728 293.516 184.856 289.296 181.916C279.085 174.802 267.681 173.113 255.8 175.054C238.817 177.829 227.103 188.295 218.826 203.082C217.156 206.066 216.077 209.416 215.012 212.727L215.011 212.727C214.848 213.234 214.686 213.74 214.521 214.244C214.252 215.067 214.332 216.008 214.436 217.223ZM471.027 272.632C470.441 269.487 472.196 268.531 473.762 267.677C473.866 267.621 473.969 267.564 474.072 267.508C480.407 263.993 487.27 262.963 494.323 263.89C512.838 266.324 528.265 281.616 531.132 300.458C532.809 311.494 529.751 321.618 524.491 331.146C524.085 331.884 523.459 332.499 522.742 333.208V333.209V333.21C522.374 333.571 521.987 333.956 521.586 334.394C519.947 331.934 520.52 329.867 521.041 327.973C521.06 327.907 521.079 327.84 521.099 327.774C521.605 325.925 522.231 324.111 522.862 322.297V322.297V322.296V322.295V322.294V322.293V322.293V322.292V322.291V322.29V322.289L522.866 322.289V322.288V322.287V322.287V322.286V322.285V322.284V322.283V322.282V322.282V322.281V322.28V322.279V322.278V322.278V322.277V322.276V322.275L522.871 322.275V322.274V322.273V322.272V322.27V322.269V322.267V322.266V322.265V322.263V322.262V322.26L522.876 322.259V322.257V322.256V322.255V322.254V322.252V322.251V322.249V322.248V322.247V322.245L522.881 322.244V322.242V322.241V322.24V322.239V322.237V322.236V322.234V322.233V322.231V322.23L522.886 322.229V322.227V322.226V322.225C523.311 321 523.736 319.773 524.123 318.536C531.127 296.099 518.59 273.809 496.058 268.776C489.347 267.277 482.833 268.403 476.494 270.951C475.327 271.419 474.112 271.758 472.849 272.109H472.848C472.251 272.276 471.645 272.445 471.027 272.632ZM390.298 346.307C390.265 346.828 390.232 347.349 390.165 347.856C390.653 348.059 391.141 348.26 391.629 348.462C391.926 348 392.227 347.539 392.528 347.079C393.177 346.088 393.826 345.097 394.433 344.08C395.428 342.412 396.389 340.72 397.351 339.028L397.351 339.027L397.352 339.026L397.352 339.026L397.353 339.025L397.353 339.024L397.353 339.023V339.023L397.354 339.023L397.354 339.022L397.355 339.021L397.355 339.021L397.356 339.02V339.02L397.356 339.019L397.357 339.018L397.357 339.018L397.358 339.017L397.358 339.016L397.359 339.016L397.359 339.015L397.36 339.014V339.013L397.36 339.013L397.361 339.012L397.361 339.012L397.362 339.011L397.362 339.01C399.361 335.495 401.358 331.98 403.656 328.679C408.231 322.105 414.074 316.929 422.273 315.582C424.587 315.201 426.955 315.152 429.321 315.103C430.157 315.086 430.992 315.069 431.824 315.037C437.427 314.823 442.243 316.923 446.486 320.453C451.12 324.31 454.824 328.99 457.924 334.179L458.008 334.319C459.241 336.383 460.476 338.45 461.827 340.434C462.81 341.877 464.065 342.963 466.611 341.632C466.468 341.062 466.353 340.475 466.237 339.886V339.885C465.984 338.596 465.729 337.297 465.172 336.149C461.226 328.02 456.045 320.766 448.74 315.442C445.846 313.333 442.418 311.551 438.976 310.724C428.554 308.22 418.629 310.097 409.943 316.476C400.812 323.182 395.083 332.65 390.846 343.068C390.444 344.056 390.371 345.181 390.298 346.307ZM473.315 197.859C473.119 194.468 474.988 193.336 476.683 192.641L476.915 192.546C480.469 191.089 484.103 189.599 487.843 188.932C508.447 185.256 529.288 200.196 532.895 221.153C533.836 226.649 533.684 232.214 532.437 237.702C530.473 246.336 527.348 254.487 522.628 261.957L522.585 262.026L522.542 262.098L522.441 262.258C521.304 264.077 520.1 266.001 517.219 265.394C516.521 263.469 517.281 261.875 518.031 260.293V260.292C518.184 259.969 518.337 259.646 518.476 259.32C519.307 257.392 520.167 255.474 521.022 253.556V253.554V253.553L521.027 253.552V253.551V253.55V253.548V253.547V253.546V253.545V253.544V253.543L521.032 253.542V253.541V253.539V253.538V253.537V253.536V253.535V253.533V253.532L521.036 253.531V253.53V253.529V253.528V253.527V253.526V253.524V253.523V253.522L521.041 253.521V253.52V253.519V253.517V253.515V253.514V253.512L521.046 253.51V253.509V253.507V253.505V253.502V253.501C522.943 249.263 524.835 245.025 526.459 240.683C529.331 233.006 529.79 225.027 527.611 217.043C523.096 200.53 505.747 189.45 489.157 192.686C486.328 193.237 483.585 194.239 480.841 195.243C479.597 195.697 478.354 196.152 477.102 196.564C476.395 196.797 475.691 197.04 474.839 197.334C474.381 197.493 473.881 197.665 473.315 197.859ZM125.815 282.659C126.174 283.082 126.532 283.505 126.856 283.942L127.086 283.865L127.352 283.776L127.552 283.708L127.681 283.665L127.846 283.61C127.896 283.312 127.971 283.01 128.046 282.708V282.707L128.047 282.707V282.706V282.705C128.211 282.042 128.376 281.379 128.272 280.764C127.88 278.459 127.364 276.178 126.848 273.897V273.896L126.848 273.896V273.895V273.895L126.847 273.894C126.717 273.318 126.587 272.742 126.459 272.166C124.214 262.076 125.427 252.522 130.74 243.63C137.303 232.643 147.504 229.918 158.215 236.598C161.063 238.375 163.668 240.565 166.269 242.752H166.269V242.752H166.27L166.27 242.753L166.271 242.753H166.271V242.754H166.272V242.754H166.272L166.273 242.755H166.273V242.755C167.177 243.514 168.079 244.273 168.991 245.015C169.336 245.295 169.671 245.589 170.005 245.884C171.37 247.084 172.731 248.283 174.743 248.469C175.794 246.24 174.653 244.593 173.571 243.032L173.478 242.898C168.971 236.381 162.882 231.949 155.589 229.291C144.304 225.18 135.187 229.292 129.231 237.031C119.193 250.076 117.746 264.518 123.846 279.778C124.27 280.836 125.042 281.747 125.815 282.659ZM358.9 245.133C356.153 244.925 355.68 243.192 355.263 241.586C354.769 239.684 354.387 237.751 354.005 235.817C353.909 235.33 353.813 234.842 353.715 234.356C350.236 217.082 334.509 203.581 318.128 204.577C302.039 205.554 290.002 213.144 283.606 228.854C283.486 229.149 283.388 229.506 283.287 229.877C282.915 231.238 282.491 232.787 280.713 232.156C278.678 231.435 279.32 229.547 279.852 227.983V227.983C279.933 227.743 280.013 227.51 280.079 227.291C282.299 219.944 286.695 214.015 292.729 209.651C321.191 189.067 352.447 205.831 358.761 234.015C359.264 236.259 359.502 238.594 359.583 240.897C359.618 241.863 359.396 242.839 359.175 243.815C359.075 244.254 358.976 244.694 358.9 245.133ZM317.213 316.693C318.667 317.452 320.216 318.262 322.319 316.709C322.154 316.411 322.007 316.091 321.858 315.769C321.526 315.047 321.189 314.317 320.647 313.821C319.422 312.699 317.972 311.781 316.503 310.999C303.363 304.011 289.356 301.209 274.663 302.818C264.807 303.899 256.381 308.276 250 316.256C244.823 322.729 242.553 330.374 241.713 338.528C241.701 338.642 241.688 338.759 241.675 338.878C241.502 340.424 241.284 342.369 243.469 342.62C245.483 342.852 245.87 341.093 246.211 339.544C246.244 339.395 246.276 339.248 246.309 339.105C246.619 337.775 246.853 336.426 247.088 335.078V335.077L247.088 335.077V335.076V335.075V335.074L247.089 335.074V335.073V335.072L247.089 335.071V335.07V335.069V335.069L247.09 335.068V335.068C247.115 334.921 247.141 334.773 247.167 334.626C247.198 334.447 247.229 334.268 247.261 334.089C249.425 321.934 255.951 313.425 267.517 309.426C274.219 307.108 281.183 306.868 288.212 307.686C298.272 308.857 307.747 311.911 316.798 316.479C316.847 316.504 316.898 316.529 316.947 316.555C317.036 316.601 317.125 316.647 317.213 316.693ZM153.86 304.117L152.869 303.386L152.864 303.383C151.88 302.657 150.896 301.932 149.911 301.208C143.132 296.227 135.602 292.891 127.233 292.606C107.684 291.943 91.465 305.114 88.7216 324.442C88.2906 327.477 87.7923 330.514 87.0904 333.493C86.8677 334.44 86.3723 335.32 85.8911 336.174C85.6771 336.555 85.4659 336.931 85.2824 337.305C82.6785 336.611 82.3694 334.97 82.4907 333.216C83.5743 317.443 88.8668 303.898 102.448 294.763C116.751 285.143 136.053 285.54 149.866 295.856C151.546 297.111 153.031 298.712 154.33 300.374C154.742 300.901 154.837 301.681 154.933 302.461C154.976 302.815 155.02 303.169 155.093 303.499C154.681 303.705 154.27 303.91 153.86 304.117ZM157.363 339.491C157.468 340.021 157.579 340.581 157.67 341.186C159.781 339.866 159.997 338.281 160.198 336.803V336.802L160.218 336.658C160.224 336.615 160.23 336.572 160.236 336.529C160.243 336.478 160.251 336.427 160.258 336.376C160.585 334.168 160.878 331.954 161.171 329.74L161.172 329.739V329.738L161.172 329.735V329.734V329.733L161.173 329.733V329.732V329.731V329.73L161.173 329.73V329.729V329.728V329.727L161.174 329.726V329.725V329.724V329.724H161.174V329.723C161.669 325.983 162.164 322.243 162.823 318.533C165.752 302.031 174.114 289.636 189.935 283.642C204.213 278.235 218.425 278.731 232.218 285.776C232.429 285.884 232.639 286.012 232.854 286.143C233.911 286.787 235.055 287.484 236.795 286.037C236.428 285.623 236.083 285.184 235.74 284.747C234.98 283.779 234.229 282.824 233.278 282.173C231.292 280.812 229.074 279.699 226.82 278.857C217.17 275.247 207.216 274.861 197.276 277.025C180.791 280.613 168.522 289.742 162.401 306.218C158.773 315.98 157.452 326.217 157.009 336.583C156.97 337.506 157.155 338.439 157.363 339.491ZM315.63 303.832C315.768 303.208 315.865 302.621 315.955 302.07C316.136 300.98 316.293 300.029 316.695 299.2C324.314 283.525 336.161 273.571 353.703 271.219C371.267 268.864 382.963 277.833 392.26 291.441C392.822 292.263 393.015 293.344 393.207 294.419C393.296 294.917 393.384 295.413 393.51 295.883C390.583 297.106 389.267 295.591 388.001 294.133L387.905 294.022C386.823 292.778 385.762 291.514 384.702 290.251C383.401 288.7 382.1 287.149 380.758 285.635C367.568 270.751 341.418 273.107 330.556 286.557C328.139 289.552 325.884 292.68 323.63 295.808L323.629 295.81C322.574 297.274 321.519 298.739 320.447 300.189C320.234 300.477 320.051 300.797 319.864 301.123C319.147 302.377 318.367 303.739 315.63 303.832ZM311.835 346.697C311.837 347.115 311.839 347.532 311.808 347.935C312.146 348.111 312.485 348.287 312.823 348.462C313.195 348.079 313.588 347.71 313.982 347.342C314.849 346.531 315.717 345.72 316.341 344.746C317.349 343.173 318.259 341.534 319.168 339.894L319.169 339.894L319.169 339.893L319.169 339.892L319.17 339.892V339.891L319.17 339.89L319.171 339.89L319.171 339.889L319.172 339.888L319.172 339.888V339.887L319.173 339.887L319.173 339.886L319.174 339.885L319.174 339.885L319.175 339.884L319.175 339.883C320.047 338.311 320.919 336.738 321.879 335.225C329.398 323.367 339.844 316.722 353.965 317.498C357.625 317.699 361.261 318.366 364.896 319.032L364.897 319.032H364.898L364.899 319.033H364.899H364.9H364.901L364.902 319.033H364.903H364.903L364.903 319.034H364.904H364.905H364.905L364.906 319.034H364.907H364.908L364.908 319.035H364.909H364.91L364.911 319.035C366.609 319.346 368.307 319.657 370.007 319.921C370.958 320.068 371.911 320.192 372.914 320.323L372.916 320.323H372.918C373.394 320.385 373.882 320.449 374.385 320.517C374.581 317.14 372.531 316.192 370.612 315.483C359.789 311.48 348.848 310.539 337.998 315.217C325.085 320.785 317.62 331.591 312.153 344.145C311.826 344.896 311.831 345.797 311.835 346.697ZM233.247 306.957C232.282 306.64 231.336 306.362 230.411 306.092C228.457 305.52 226.603 304.977 224.886 304.141C216.605 300.113 208.578 301.122 200.806 305.274C189.362 311.386 182.305 320.969 179.531 333.851C179.421 334.36 179.359 334.896 179.296 335.442C179.084 337.284 178.857 339.249 176.73 340.701C176.595 340.295 176.447 339.923 176.308 339.572C176.031 338.872 175.787 338.256 175.735 337.623C175.263 331.767 176.517 326.189 179.194 321.067C185.486 309.027 194.915 300.754 208.124 297.414C216.448 295.309 224.106 297.155 231.082 302.058L231.132 302.093L231.165 302.117C231.216 302.152 231.267 302.187 231.318 302.223C232.573 303.091 233.984 304.067 233.247 306.957ZM256.787 301.556C257.01 301.966 257.243 302.396 257.467 302.862C259.367 301.218 259.223 299.593 259.084 298.031C259.064 297.797 259.043 297.565 259.029 297.334C258.626 290.515 259.556 283.891 261.988 277.51C267.788 262.292 284.006 256.197 298.25 263.86C299.004 264.266 299.755 264.68 300.506 265.093L300.507 265.094L300.507 265.094L300.508 265.095H300.508L300.509 265.095L300.51 265.096L300.511 265.096L300.511 265.096H300.512L300.513 265.097L300.514 265.097L300.514 265.098H300.515L300.516 265.098L300.516 265.099L300.517 265.099C301.892 265.857 303.265 266.613 304.663 267.324C306.174 268.092 307.752 268.691 309.419 266.656C309.236 266.37 309.069 266.057 308.899 265.739C308.527 265.041 308.145 264.325 307.57 263.847C296.793 254.868 281.792 252.76 270.027 260.849C259.366 268.179 252.561 286.377 255.734 299.182C255.932 299.982 256.338 300.729 256.787 301.556ZM449.979 288.308C447.149 286.626 446.921 284.62 446.712 282.776C446.68 282.502 446.649 282.231 446.611 281.966C446.465 280.969 446.417 279.957 446.369 278.945C446.313 277.77 446.258 276.596 446.049 275.449C443.778 262.984 432.743 253.214 420.175 252.45C412.141 251.962 404.521 253.406 397.482 257.62C396.777 258.042 396.018 258.367 394.994 258.805L394.994 258.805C394.431 259.045 393.789 259.32 393.032 259.664C393.217 258.94 393.332 258.326 393.43 257.807C393.604 256.881 393.721 256.257 394.075 255.854C395.07 254.72 396.314 253.728 397.619 252.99C411.822 244.961 431.787 246.371 443.554 259.69C449.149 266.022 451.497 273.585 451.312 282.013C451.284 283.277 450.949 284.533 450.564 285.973C450.37 286.697 450.165 287.467 449.979 288.308ZM501.246 326.334C500.735 327.789 500.171 329.393 502.149 330.998C505.169 329.613 506.45 326.975 507.687 324.416V324.415C507.892 323.99 508.098 323.566 508.313 323.151C517.386 305.376 506.583 284.736 484.15 283.471C482.132 283.356 480.032 283.986 478.028 284.588C477.855 284.64 477.683 284.691 477.511 284.742C477.005 284.893 476.624 285.467 476.237 286.05L476.237 286.051C476.06 286.317 475.882 286.586 475.689 286.816C475.932 286.998 476.115 287.158 476.261 287.285C476.5 287.493 476.643 287.617 476.791 287.623C477.68 287.657 478.571 287.669 479.462 287.68C480.697 287.697 481.932 287.713 483.164 287.791C500.587 288.888 510.563 303.914 504.099 319.258C503.889 319.752 503.678 320.245 503.468 320.738L503.463 320.742V320.746V320.747V320.748V320.749V320.75V320.751V320.751V320.752V320.753V320.754V320.755L503.459 320.755C502.708 322.506 501.958 324.259 501.342 326.057C501.309 326.149 501.28 326.241 501.246 326.334ZM255.245 347.007C252.981 345.631 253.437 343.877 253.882 342.16C253.897 342.105 253.911 342.05 253.925 341.995L253.942 341.929L253.956 341.875C256.062 333.617 261.319 327.91 268.32 323.953C276.702 319.218 285.838 317.89 295.194 319.558C298.183 320.09 301.072 321.251 303.95 322.407C304.88 322.78 305.808 323.153 306.738 323.505C307.69 323.864 308.628 324.605 309.256 325.429C309.73 326.051 310.085 327.294 309.787 327.874C309.475 328.479 308.228 329.043 307.548 328.887C305.492 328.416 303.489 327.651 301.507 326.888C293.328 323.736 285.018 322.974 276.567 325.505C267.918 328.095 261.56 333.423 258.214 342.247C257.718 343.551 257.172 344.84 256.548 346.083C256.429 346.318 256.158 346.47 255.82 346.66C255.643 346.76 255.447 346.869 255.245 347.007ZM101.128 333.711C101.051 335.377 100.97 337.165 103.757 338.275C103.945 337.784 104.128 337.322 104.304 336.877L104.305 336.874L104.307 336.872L104.307 336.87C104.664 335.969 104.993 335.139 105.277 334.292C109.568 321.472 121.241 314.214 134.205 316.378C135.761 316.638 137.304 316.984 138.847 317.33H138.847C139.832 317.551 140.817 317.772 141.805 317.971C144.907 318.593 148.003 318.8 151.27 317.606C150.288 316.313 149.229 315.222 147.951 314.733C147.541 314.577 147.131 314.419 146.72 314.261L146.716 314.26L146.715 314.259C143.427 312.996 140.116 311.723 136.707 310.952C124.963 308.295 115.073 312.303 106.739 320.669C103.283 324.14 101.357 328.598 101.13 333.655L101.128 333.711ZM240.139 255.109C237.478 256.029 235.911 255.012 234.44 254.058C234.287 253.959 234.134 253.86 233.982 253.764C232.857 253.056 231.767 252.289 230.678 251.523C229.525 250.711 228.372 249.9 227.178 249.159C220.969 245.299 214.753 245.723 209.058 250.327C205.792 252.967 203.34 256.271 201.752 260.187C201.245 261.44 200.853 262.741 200.46 264.042L200.46 264.043V264.043V264.044L200.459 264.045V264.046L200.459 264.046V264.047L200.458 264.048V264.048C200.274 264.659 200.09 265.27 199.894 265.876C199.789 266.201 199.715 266.571 199.64 266.947C199.371 268.305 199.088 269.732 197.254 269.315C195.504 268.917 195.648 267.161 195.772 265.64C195.792 265.404 195.81 265.173 195.822 264.954C196.411 253.37 205.834 242.747 217.12 241.355C219.872 241.015 222.876 241.56 225.584 242.343C230.838 243.861 234.817 247.499 238.365 251.575C238.855 252.138 239.161 252.866 239.52 253.718C239.703 254.152 239.899 254.618 240.139 255.109ZM482.874 210.447C480.689 210.688 478.359 211.093 476.167 214.276C476.985 214.306 477.698 214.366 478.337 214.421C479.546 214.524 480.489 214.604 481.375 214.409C485.525 213.493 489.608 214.02 493.578 215.016C510.621 219.291 514.558 233.901 508.389 245.77C507.396 247.675 506.43 249.61 505.68 251.619C505.308 252.619 505.117 253.689 504.93 254.759C504.844 255.237 504.758 255.716 504.658 256.188L504.892 256.321L505.05 256.412L505.317 256.566L505.465 256.652C505.537 256.693 505.609 256.734 505.68 256.776C505.986 256.519 506.316 256.278 506.645 256.037V256.036V256.035C507.362 255.51 508.079 254.985 508.566 254.294C511.404 250.28 513.951 246.099 515.102 241.194C517.51 230.94 513.822 221.234 505.102 215.502C498.337 211.055 490.822 209.567 482.874 210.447ZM394.932 229.124C392.638 226.758 391.868 224.091 391.112 221.475L391.109 221.466C391.027 221.18 390.944 220.894 390.86 220.61C389.536 216.145 387.67 212.043 384.167 208.857C378.558 203.753 372.191 201.981 365.036 204.516C362.665 205.356 360.395 206.498 358.126 207.64L358.125 207.641C357.168 208.122 356.211 208.604 355.246 209.063C355.087 209.139 354.928 209.22 354.77 209.301C353.58 209.908 352.407 210.506 351.464 208.676C356.242 199.593 372.378 196.089 382.736 201.872C393.221 207.726 399.334 220.937 394.932 229.124ZM339.522 245.645L339.523 245.646C339.77 246.067 340.044 246.533 340.33 247.074C342.458 244.499 342.415 242.189 342.375 240.054C342.369 239.734 342.363 239.418 342.365 239.106C342.427 227.299 335.138 217.217 324.914 215.443C314.638 213.662 303.389 218.026 296.199 228.578C295.516 229.581 295.01 230.761 296.727 232.134C297.079 231.79 297.435 231.445 297.792 231.099L297.796 231.096L297.796 231.095L297.797 231.095C298.597 230.319 299.404 229.538 300.191 228.736C304.122 224.726 308.488 221.346 313.973 220.107C325.343 217.536 333.617 221.531 336.835 233.807C337.092 234.79 337.242 235.802 337.392 236.814C337.447 237.191 337.503 237.568 337.564 237.943C337.661 238.536 337.742 239.132 337.824 239.728C337.996 240.989 338.168 242.25 338.48 243.473C338.66 244.177 339.042 244.828 339.522 245.645ZM329.728 307.228C328.34 304.879 329.218 303.371 330.196 302.031C337.064 292.631 345.675 287.148 357.686 288.516C364.406 289.282 370.756 290.866 376.388 294.76C378.241 296.04 379.989 297.633 381.375 299.42C381.99 300.213 382.261 301.289 382.548 302.436H382.549V302.437C382.683 302.97 382.82 303.518 382.998 304.061C380.049 305.165 378.557 303.66 377.175 302.265C377.105 302.194 377.035 302.124 376.966 302.054C372.965 298.045 368.179 295.665 362.843 294.122C352.318 291.078 343.187 293.065 335.587 301.435C334.363 302.784 333.044 304.043 331.677 305.348L331.675 305.35L331.668 305.357C331.031 305.965 330.383 306.584 329.728 307.228ZM415.483 189.342C414.198 190.034 412.776 190.801 413.164 193.457C413.939 193.223 414.695 192.996 415.438 192.774C416.99 192.31 418.485 191.862 419.973 191.397C430.803 188.008 440.517 192.705 444.166 203.039C445.556 206.974 445.325 210.909 444.397 214.852C444.07 216.241 443.68 217.615 443.291 218.988C442.969 220.126 442.646 221.264 442.358 222.411C441.953 224.029 441.54 225.732 443.564 226.699C443.73 226.612 443.892 226.54 444.045 226.472C444.36 226.332 444.638 226.209 444.838 226.005C445.363 225.469 445.916 224.889 446.228 224.217C449.258 217.675 451.015 210.929 449.074 203.666C444.524 186.645 426.527 183.176 415.831 189.152C415.717 189.216 415.601 189.279 415.483 189.342ZM325.012 354.76C323.691 352.948 324.263 350.965 325.125 349.264C330.567 338.536 338.404 330.705 350.534 328.423C355.921 327.409 361.01 328.818 365.926 330.986C366.472 331.227 367.085 331.532 367.418 331.993C367.831 332.564 368.305 333.413 368.16 333.986C368.023 334.525 367.123 335.205 366.544 335.22C365.56 335.246 364.572 335.115 363.584 334.984C363.083 334.918 362.581 334.852 362.079 334.805C360.909 334.698 359.735 334.542 358.56 334.385H358.559L358.559 334.385H358.558H358.557H358.556H358.556L358.555 334.384H358.554H358.553H358.552C355.834 334.022 353.115 333.66 350.451 333.903C345.084 334.394 340.252 336.884 336.613 341.026C334.57 343.352 332.729 345.861 330.887 348.37L330.886 348.371C330.024 349.545 329.162 350.719 328.279 351.874C328.057 352.166 327.884 352.512 327.709 352.862C327.213 353.854 326.703 354.875 325.012 354.76ZM138.006 279.448C138.567 280.772 139.185 282.226 141.65 281.973C141.591 281.35 141.527 280.734 141.463 280.121C141.324 278.792 141.188 277.482 141.115 276.169C141.051 275.022 140.95 273.87 140.849 272.718C140.596 269.84 140.343 266.959 140.679 264.155C141.554 256.87 147.779 252.983 154.603 255.004C156.047 255.432 157.454 255.99 158.863 256.549C159.99 256.997 161.117 257.444 162.263 257.825C163.285 258.165 164.349 258.366 165.413 258.567L165.414 258.567H165.414H165.415H165.415H165.416H165.417C165.896 258.658 166.375 258.749 166.851 258.852C167.071 258.521 167.294 258.19 167.515 257.859C167.232 257.464 166.972 257.035 166.713 256.608C166.144 255.671 165.575 254.734 164.767 254.142C161.285 251.596 157.377 249.903 153.061 249.553C145.373 248.932 138.247 253.712 136.371 261.038C134.782 267.238 135.417 273.392 137.934 279.281C137.958 279.337 137.982 279.392 138.006 279.448ZM235.8 215.056C234.038 212.025 235.134 209.995 236.438 208.123C239.409 203.857 243.522 200.99 248.287 199.202C255.655 196.437 263.084 196.315 270.435 199.398C270.84 199.568 271.246 199.737 271.651 199.905H271.652L271.653 199.906L271.654 199.906L271.657 199.907C273.629 200.727 275.603 201.547 277.489 202.538C278.428 203.032 279.261 203.732 280.093 204.433C280.469 204.749 280.844 205.066 281.229 205.363L281.155 205.583L281.093 205.766C281.018 205.99 280.943 206.214 280.868 206.439C280.526 206.46 280.178 206.508 279.83 206.555C279.071 206.659 278.311 206.763 277.612 206.602L277.423 206.558L277.254 206.519L277.057 206.473L276.803 206.415C273.977 205.765 271.127 205.109 268.44 204.058C257.843 199.913 245.452 202.565 237.832 213.346C237.574 213.709 237.2 213.988 236.71 214.352C236.442 214.552 236.138 214.777 235.8 215.056ZM417.613 330.424C409.721 335.509 403.655 344.321 404.595 349.375C406.212 349.689 406.783 348.66 407.352 347.635C407.514 347.343 407.675 347.051 407.861 346.792C408.522 345.865 409.162 344.921 409.802 343.976L409.803 343.975C411.141 341.999 412.479 340.024 414.015 338.218C421.394 329.542 431.653 328.7 440.344 336.048C441.962 337.415 443.414 338.98 444.867 340.546L444.867 340.546H444.868L444.868 340.547L444.869 340.547H444.869L444.87 340.548L444.87 340.548L444.871 340.549L444.871 340.549H444.872V340.55L444.872 340.55L444.873 340.551L444.873 340.551C445.611 341.346 446.349 342.142 447.11 342.912C447.257 343.061 447.402 343.214 447.549 343.369C448.639 344.519 449.759 345.702 451.92 345.401C451.956 345.104 452.026 344.799 452.095 344.5V344.499C452.24 343.871 452.378 343.269 452.177 342.82C450.103 338.185 446.325 334.993 442.429 332.026C434.599 326.062 425.195 325.539 417.613 330.424ZM271.175 300.436C267.932 298.258 268.218 295.827 268.471 293.685L268.487 293.548C269.508 284.807 274.284 278.851 282.04 275.315C287.499 272.825 293.162 272.782 298.855 274.254C299.696 274.471 300.47 274.962 301.228 275.443C301.571 275.661 301.911 275.876 302.252 276.063C301.701 278.476 300.162 278.62 298.661 278.64C297.302 278.658 295.942 278.63 294.582 278.601C293.376 278.576 292.171 278.551 290.966 278.558C281.013 278.62 273.746 285.165 272.366 295.201C272.224 296.235 271.966 297.253 271.664 298.444L271.664 298.445C271.509 299.055 271.343 299.71 271.175 300.436ZM229.354 322.52L229.355 322.52C229.871 322.396 230.387 322.272 230.904 322.163L231.061 320.537C230.662 320.339 230.266 320.096 229.869 319.852C229.002 319.32 228.135 318.787 227.238 318.732C226.795 318.705 226.351 318.676 225.905 318.647C222.287 318.411 218.614 318.173 215.079 318.71C207.146 319.915 200.253 326.795 198.82 334.156C198.408 336.273 198.167 338.368 200.99 340.215C201.189 339.653 201.38 339.133 201.56 338.639V338.638H201.56C201.924 337.64 202.249 336.751 202.53 335.847C204.642 329.054 209.095 324.899 216.015 323.839C217.933 323.545 219.881 323.474 221.83 323.403C223.197 323.353 224.564 323.303 225.923 323.176C227.076 323.069 228.215 322.794 229.354 322.52ZM473.637 234.546C472.656 232.349 473.996 231.512 475.38 230.782C479.615 228.553 486.141 229.604 489.892 233.071C493.535 236.438 494.371 240.954 492.13 246.006C491.397 247.657 490.497 249.313 489.317 250.657C488.863 251.175 488.061 251.391 487.26 251.606C486.899 251.703 486.539 251.8 486.21 251.925C486.125 251.59 486.004 251.249 485.884 250.909L485.884 250.908C485.615 250.147 485.345 249.385 485.47 248.694C485.67 247.588 486.132 246.531 486.594 245.473V245.472V245.472L486.595 245.471L486.595 245.47V245.47V245.469L486.595 245.468C486.807 244.984 487.019 244.499 487.206 244.008C489.254 238.634 486.934 234.919 481.201 234.573C479.444 234.466 477.679 234.495 475.946 234.522C475.169 234.534 474.398 234.546 473.637 234.546ZM414.28 263.122C410.393 262.907 406.545 263.447 404.021 267.979C404.442 268.095 404.768 268.205 405.032 268.293C405.476 268.442 405.746 268.533 406.001 268.499C406.762 268.399 407.514 268.223 408.266 268.048C408.539 267.984 408.812 267.921 409.086 267.861C416.407 266.254 422.307 269.762 424.519 277.04C424.631 277.409 424.727 277.787 424.824 278.165C425.034 278.99 425.244 279.816 425.623 280.552C426.004 281.294 426.544 281.953 427.176 282.724L427.176 282.725L427.177 282.726C427.482 283.097 427.808 283.496 428.149 283.942C431.605 279.77 430.202 275.966 428.72 272.611C425.986 266.419 420.753 263.478 414.28 263.122ZM276.912 349.918C275.69 346.568 277.139 344.277 278.472 342.171L278.517 342.101C283.097 334.866 294.248 331.081 302.295 333.846C302.349 333.865 302.407 333.878 302.464 333.892C302.555 333.914 302.647 333.935 302.727 333.979C302.99 334.122 303.275 334.257 303.565 334.394H303.565C304.99 335.067 306.508 335.784 305.96 337.746C305.435 339.622 304.04 339.232 302.673 338.85C302.357 338.762 302.044 338.674 301.742 338.615C294.024 337.096 286.948 337.928 281.716 344.845C281.339 345.344 281.027 345.896 280.716 346.448C280.342 347.11 279.969 347.77 279.486 348.334C279.091 348.794 278.51 349.086 277.866 349.41C277.558 349.565 277.235 349.727 276.912 349.918ZM378.666 233.353C379.27 234.949 379.897 236.607 382.494 236.886C382.617 236.645 382.75 236.426 382.874 236.223C383.119 235.821 383.33 235.474 383.372 235.107C384.276 227.325 379.246 217.159 369.232 216.531C366.913 216.386 364.441 217.066 362.203 217.843C360.676 218.372 359.436 219.731 360.41 222.223C360.815 222.153 361.222 222.09 361.628 222.027C362.515 221.889 363.402 221.752 364.272 221.544C369.93 220.194 374.18 222.168 376.565 227.453C377.042 228.51 377.399 229.62 377.757 230.731L377.757 230.732C378.009 231.515 378.262 232.297 378.555 233.062C378.574 233.109 378.592 233.157 378.61 233.204C378.628 233.253 378.647 233.303 378.666 233.352L378.666 233.352V233.353ZM485.704 323.236C484.308 320.941 484.844 319.178 485.37 317.45C485.389 317.387 485.409 317.324 485.428 317.261L485.452 317.181C485.465 317.136 485.479 317.09 485.492 317.044C485.506 316.999 485.52 316.953 485.533 316.908C487.625 309.719 485.354 306.096 478.103 305.001C477.357 304.888 476.606 304.749 475.896 304.504C475.639 304.416 475.42 304.217 475.162 303.982C475.032 303.864 474.893 303.737 474.734 303.611C475.383 301.067 477.343 300.763 479.31 300.977C484.304 301.522 488.25 303.846 490.435 308.614C492.512 313.156 491.15 317.368 488.76 321.285C488.374 321.919 487.581 322.297 486.78 322.679C486.41 322.855 486.038 323.033 485.704 323.236ZM343.447 350.443C342.475 352.031 341.564 353.772 343.645 355.235C343.721 355.235 343.791 355.24 343.855 355.246C343.979 355.255 344.08 355.264 344.162 355.226C344.257 355.182 344.355 355.14 344.454 355.099C344.778 354.962 345.106 354.824 345.338 354.589C349.844 350.029 355.061 347.425 361.612 347.824C362.716 347.891 363.847 347.497 364.978 347.104C365.498 346.923 366.018 346.742 366.535 346.606C366.607 346.206 366.68 345.807 366.753 345.407C366.443 345.175 366.143 344.916 365.843 344.656L365.842 344.656C365.194 344.095 364.546 343.535 363.797 343.252C357.974 341.062 346.745 345.057 343.447 350.443ZM274.844 221.421C274.296 221.549 273.75 221.693 273.204 221.837C271.947 222.168 270.691 222.499 269.413 222.642C268.434 222.75 267.439 222.684 266.442 222.617C265.774 222.572 265.104 222.528 264.438 222.536L264.184 222.538C260.796 222.577 257.429 222.616 254.513 224.981C254.098 225.316 253.383 225.257 252.667 225.197C252.337 225.17 252.007 225.142 251.707 225.154C251.716 224.837 251.686 224.484 251.657 224.132V224.132V224.131V224.131C251.593 223.357 251.529 222.584 251.872 222.19C253.145 220.728 254.627 219.165 256.34 218.466C261.417 216.394 266.693 216.71 271.875 218.194C272.656 218.417 273.352 218.959 274.048 219.5C274.369 219.75 274.689 219.999 275.018 220.218L274.982 220.471L274.93 220.827C274.901 221.025 274.873 221.223 274.844 221.421ZM145.614 332.767L145.615 332.766L145.617 332.766H145.617H145.618C146.173 332.489 146.773 332.19 147.448 331.883C141.809 327.927 133.511 328.284 129.519 331.967C127.767 333.582 126.601 335.563 126.972 337.993C127.074 338.664 127.602 339.267 128.13 339.87C128.37 340.145 128.611 340.42 128.811 340.701C129.03 340.509 129.278 340.332 129.527 340.154C130.07 339.766 130.614 339.379 130.844 338.848C132.026 336.132 134.038 335.031 136.815 334.856C138.741 334.736 140.692 334.531 142.555 334.053C143.547 333.796 144.487 333.329 145.614 332.767ZM416.444 351.858C417.348 346.178 422.621 343.202 429.918 343.657C435.231 343.988 438.69 346.81 438.9 351.014C437.233 352.439 435.609 351.388 434.342 350.567L434.323 350.555C429.179 347.223 424.319 347.796 419.436 351.027C418.995 351.319 418.428 351.432 417.713 351.574C417.332 351.65 416.91 351.734 416.444 351.858ZM432.314 203.939C429.273 200.373 424.743 199.825 420.266 203.475C420.963 203.636 421.563 203.777 422.1 203.904H422.101L422.102 203.905C423.128 204.147 423.923 204.335 424.723 204.495C428.142 205.178 429.393 206.319 429.909 209.852C430.104 211.188 430.129 212.549 430.154 213.91V213.911V213.911V213.912V213.913V213.913V213.914C430.169 214.702 430.183 215.491 430.231 216.276C430.248 216.568 430.253 216.865 430.258 217.164V217.164C430.283 218.675 430.308 220.226 431.999 221.363C432.181 221.236 432.385 221.122 432.589 221.008C433.03 220.761 433.473 220.513 433.703 220.13C436.057 216.206 435.253 207.39 432.314 203.939ZM165.604 275.697C164.971 275.697 164.347 275.699 163.729 275.7C162.387 275.704 161.073 275.707 159.759 275.694C155.226 275.647 153.724 277.374 154.38 281.913C154.436 282.303 154.496 282.693 154.556 283.082V283.083V283.084C154.682 283.898 154.807 284.711 154.897 285.529C154.918 285.712 154.819 285.907 154.72 286.103C154.675 286.192 154.63 286.28 154.597 286.368C151.215 285.725 149.569 283.045 149.872 278.67C150.187 274.13 153.726 270.587 158.161 270.372C162.074 270.183 164.95 272.044 165.604 275.697ZM212.219 265.993C218.297 264.393 224.288 262.816 231.061 261.033C225.713 256.617 215.461 257.721 212.317 262.249C211.452 263.493 210.996 264.781 212.219 265.993ZM328.529 245.618C327.847 245.081 327.218 244.624 326.641 244.205C325.515 243.387 324.588 242.713 323.848 241.863C321.245 238.868 318.263 237.4 314.344 238.377C314.081 238.443 313.78 238.349 313.488 238.258C313.355 238.216 313.225 238.176 313.101 238.151C312.271 236.636 313.105 235.74 314.156 235.089C316.481 233.646 318.926 233.736 321.442 234.617C325.553 236.056 328.597 240.198 328.529 245.618ZM292.874 292.71C295.179 291.749 297.536 290.767 299.385 288.691C295.608 286.443 291.149 287.1 287.939 289.894C285.621 291.909 285.429 292.81 287.149 296.07C288.735 294.434 290.783 293.581 292.874 292.71ZM420.266 281.941C417.063 282.397 411.808 280.222 410.497 277.898C409.77 276.609 410.595 275.399 412.314 275.233C415.741 274.903 419.658 278.206 420.266 281.941ZM224.977 338.022C225.25 337.656 225.525 337.288 225.806 336.921C225.61 336.603 225.461 336.306 225.33 336.046C225.092 335.575 224.918 335.229 224.65 335.113C222.905 334.359 221.82 335.555 221.043 336.86C221.016 336.905 220.989 336.951 220.961 336.997C220.229 338.217 219.379 339.634 220.994 340.884C221.371 341.177 222.344 341.301 222.568 341.052C223.424 340.1 224.195 339.068 224.977 338.022Z" fill="#FF7B4D"/>
<path d="M382.93 357.303C393.059 353.397 401.944 348.384 408.962 342.213C417.23 335.023 422.511 325.003 423.767 314.119C425.024 303.235 422.167 292.274 415.755 283.39C409.289 274.421 399.776 268.115 388.997 265.654C388.258 265.43 387.596 265.004 387.086 264.423C386.576 263.843 386.238 263.132 386.11 262.37C384.746 247.933 378.41 234.417 368.185 224.134C357.795 213.767 344.224 207.189 329.649 205.456C315.074 203.722 300.339 206.934 287.807 214.575C275.375 222.162 265.933 233.796 261.066 247.522C260.739 248.162 260.238 248.697 259.62 249.064C259.002 249.431 258.292 249.616 257.574 249.596C250.614 250.044 243.809 251.847 237.54 254.903C231.315 257.94 225.739 262.154 221.118 267.314C216.538 272.426 213.025 278.402 210.787 284.891C208.549 291.38 207.63 298.251 208.085 305.1C209.036 318.894 215.518 331.755 226.148 340.865C231.766 345.687 238.629 349.87 246.39 353.414" fill="#F5F5F5"/>
<path d="M382.93 357.303C393.059 353.397 401.944 348.384 408.962 342.213C417.23 335.023 422.511 325.003 423.767 314.119C425.024 303.235 422.167 292.274 415.755 283.39C409.289 274.421 399.776 268.115 388.997 265.654C388.258 265.43 387.596 265.004 387.086 264.423C386.576 263.843 386.238 263.132 386.11 262.37C384.746 247.933 378.41 234.417 368.185 224.134C357.795 213.767 344.224 207.189 329.649 205.456C315.074 203.722 300.339 206.934 287.807 214.575C275.375 222.162 265.933 233.796 261.066 247.522C260.739 248.162 260.238 248.697 259.62 249.064C259.002 249.431 258.292 249.616 257.574 249.596C250.614 250.044 243.809 251.847 237.54 254.903C231.315 257.94 225.739 262.154 221.118 267.314C216.538 272.426 213.025 278.402 210.787 284.891C208.549 291.38 207.63 298.251 208.085 305.1C209.036 318.894 215.518 331.755 226.148 340.865C231.766 345.687 238.629 349.87 246.39 353.414" stroke="#FF5E1F" stroke-width="9" stroke-linecap="round" stroke-linejoin="round"/>
<path d="M382.93 357.303C393.059 353.397 401.944 348.384 408.962 342.213C417.23 335.023 422.511 325.003 423.767 314.119C425.024 303.235 422.167 292.274 415.755 283.39C409.289 274.421 399.776 268.115 388.997 265.654C388.258 265.43 387.596 265.004 387.086 264.423C386.576 263.843 386.238 263.132 386.11 262.37C384.746 247.933 378.41 234.417 368.185 224.134C357.795 213.767 344.224 207.189 329.649 205.456C315.074 203.722 300.339 206.934 287.807 214.575C275.375 222.162 265.933 233.796 261.066 247.522C260.739 248.162 260.238 248.697 259.62 249.064C259.002 249.431 258.292 249.616 257.574 249.596C250.614 250.044 243.809 251.847 237.54 254.903C231.315 257.94 225.739 262.154 221.118 267.314C216.538 272.426 213.025 278.402 210.787 284.891C208.549 291.38 207.63 298.251 208.085 305.1C209.036 318.894 215.518 331.755 226.148 340.865C231.766 345.687 238.629 349.87 246.39 353.414" fill="url(#paint0_linear_187_9053)" fill-opacity="0.5"/>
<path d="M382.93 357.303C393.059 353.397 401.944 348.384 408.962 342.213C417.23 335.023 422.511 325.003 423.767 314.119C425.024 303.235 422.167 292.274 415.755 283.39C409.289 274.421 399.776 268.115 388.997 265.654C388.258 265.43 387.596 265.004 387.086 264.423C386.576 263.843 386.238 263.132 386.11 262.37C384.746 247.933 378.41 234.417 368.185 224.134C357.795 213.767 344.224 207.189 329.649 205.456C315.074 203.722 300.339 206.934 287.807 214.575C275.375 222.162 265.933 233.796 261.066 247.522C260.739 248.162 260.238 248.697 259.62 249.064C259.002 249.431 258.292 249.616 257.574 249.596C250.614 250.044 243.809 251.847 237.54 254.903C231.315 257.94 225.739 262.154 221.118 267.314C216.538 272.426 213.025 278.402 210.787 284.891C208.549 291.38 207.63 298.251 208.085 305.1C209.036 318.894 215.518 331.755 226.148 340.865C231.766 345.687 238.629 349.87 246.39 353.414" stroke="#FF5E1F" stroke-width="9" stroke-linecap="round" stroke-linejoin="round"/>
<path d="M255.102 249.648C275.654 249.648 294.029 263.2 299.837 275.577M281.773 388.625C294.115 403.681 301.652 411.218 316.103 422.955C330.571 411.2 338.09 403.681 350.432 388.625M315.999 331.375V422.782" stroke="#FF5E1F" stroke-width="9" stroke-linecap="round" stroke-linejoin="round"/>
<defs>
<linearGradient id="paint0_linear_187_9053" x1="316.015" y1="204.997" x2="316.015" y2="357.303" gradientUnits="userSpaceOnUse">
<stop stop-color="#FF4800"/>
<stop offset="1" stop-color="#FF5E1F" stop-opacity="0"/>
</linearGradient>
</defs>
</svg>
