<svg width="670" height="549" viewBox="0 0 670 549" fill="none" xmlns="http://www.w3.org/2000/svg">
<path opacity="0.5" d="M311.999 506C406.992 506 483.999 501.523 483.999 496C483.999 490.477 406.992 486 311.999 486C217.006 486 139.999 490.477 139.999 496C139.999 501.523 217.006 506 311.999 506Z" fill="#C9C9C9"/>
<path fill-rule="evenodd" clip-rule="evenodd" d="M339.59 449.813C324.783 450.316 310.008 449.812 295.267 448.219C281.021 446.68 266.912 444.355 253.259 439.666C226.312 430.411 200.372 418.621 176.087 403.149C145.68 383.776 123.084 356.714 107.68 322.887C101.165 308.579 95.776 293.844 92.3675 278.341C90.1501 268.253 89.356 258.071 90.56 247.768C90.8254 245.497 91.2303 243.203 91.9001 241.033C94.8071 231.615 98.9981 222.923 105.056 215.279C109.888 209.18 115.706 204.523 122.678 201.615C134.419 196.716 146.566 193.247 157.048 185.606C170.064 176.118 180.132 163.272 191.939 152.338C204.315 140.878 217.015 129.929 230.515 119.971C256.089 101.109 283.354 85.7088 313.27 75.9216C328.299 71.0052 343.515 66.9542 359.105 64.6368C368.63 63.2209 378.217 62.5848 387.833 62.2053C415.127 61.1279 441.904 64.2257 467.987 73.0353C485.201 78.8484 501.515 86.6732 516.211 97.9517C529.289 107.987 540.433 119.962 548.591 134.839C552.348 141.693 555.198 148.931 556.389 156.827C558.552 171.209 554.936 183.794 545.999 194.761C540.401 201.629 533.604 206.847 526.096 211.103C518.104 215.634 509.568 218.728 501.011 221.764C490.714 225.417 480.45 229.163 470.59 234.031C465.049 236.767 459.626 239.755 454.859 243.846C452.867 245.556 450.984 247.525 449.449 249.692C446.874 253.329 446.926 257.148 449.552 260.726C450.968 262.655 452.658 264.525 454.579 265.841C459.483 269.2 464.479 272.446 469.633 275.35C479.735 281.042 490.036 286.341 500.135 292.049C508.922 297.015 517.394 302.549 524.817 309.678C532.522 317.076 538.879 325.56 543.037 335.729C546.746 344.797 548.151 354.197 546.298 363.998C545.164 369.989 542.75 375.398 539.565 380.453C534.738 388.125 528.566 394.447 521.818 400.187C512.89 407.783 502.924 413.503 492.514 418.45C471 428.676 448.591 435.861 425.489 440.748C412.29 443.539 399.02 445.851 385.647 447.444C373.847 448.849 361.999 449.615 350.123 449.804C346.613 449.861 343.101 449.813 339.59 449.813Z" fill="white"/>
<path fill-rule="evenodd" clip-rule="evenodd" d="M119.806 185.506C119.494 185.34 119.183 185.173 118.87 185.008C118.93 184.9 118.989 184.791 119.048 184.683C118.758 184.647 118.445 184.643 118.131 184.639C117.444 184.629 116.758 184.62 116.326 184.283C114.981 183.241 113.475 182.56 111.969 181.88C111.275 181.565 110.581 181.252 109.902 180.902C108.183 180.017 106.577 179.764 104.863 180.745C104.112 182.674 104.312 184.075 105.963 185.782C106.919 186.769 107.976 187.205 109.018 187.633C109.282 187.742 109.545 187.85 109.805 187.967C111.786 188.854 113.441 190.183 115.101 191.517C116.313 192.49 117.528 193.465 118.873 194.271C119.775 194.813 120.748 195.267 121.725 195.723C124.009 196.79 126.319 197.87 127.822 200.1C129.032 199.954 129.489 200.819 129.785 201.378C129.863 201.525 129.93 201.651 129.996 201.732C130.559 201.743 131.064 201.738 131.529 201.733C132.451 201.724 133.215 201.716 133.954 201.846C135.824 202.174 137.635 202.108 139.718 201.776C139.391 201.14 139.153 200.479 138.921 199.834C138.34 198.217 137.795 196.702 135.971 195.953C135.561 195.784 135.22 195.342 134.952 194.953C133.882 193.402 132.835 192.792 130.656 192.33C129.921 192.174 129.066 191.919 128.575 191.411C128.059 190.875 127.394 190.538 126.726 190.199C125.673 189.664 124.613 189.126 124.127 187.806C123.982 187.414 123.379 187.195 122.769 186.974C122.474 186.867 122.177 186.759 121.931 186.631C121.22 186.261 120.513 185.884 119.806 185.506ZM135.027 226.703L135.026 226.703C132.615 227.587 130.277 228.444 127.56 227.18C126.358 226.621 125.071 226.248 123.67 225.84C123.003 225.647 122.311 225.446 121.589 225.213C121.538 224.991 121.371 224.272 121.203 223.55C119.282 223.649 117.803 222.732 116.353 221.832C116.129 221.693 115.905 221.555 115.681 221.421C115.416 221.262 115.154 221.099 114.892 220.937C113.468 220.051 112.068 219.18 110.28 219.034C109.47 218.969 108.612 218.509 107.935 218.013C106.325 216.832 104.665 216.154 102.598 216.003C101.819 215.946 101.084 215.444 100.338 214.934C99.8914 214.629 99.4415 214.323 98.9752 214.106C98.0983 213.698 97.1848 213.369 96.2303 213.025C95.7996 212.87 95.3604 212.712 94.9121 212.543C94.8776 212.423 94.8515 212.274 94.8228 212.113C94.751 211.709 94.6643 211.221 94.3926 210.882C93.0733 209.234 94.0826 207.734 95.0036 206.731C95.596 206.085 96.7759 205.921 97.8543 205.771C98.0696 205.741 98.2813 205.712 98.4828 205.679C99.0677 205.584 99.8781 205.75 100.321 206.118C101.855 207.389 103.64 207.842 105.462 208.304V208.304C105.891 208.413 106.321 208.522 106.75 208.642C107.069 208.731 107.386 208.826 107.704 208.921C108.711 209.222 109.719 209.524 110.78 209.648C111.057 209.68 111.483 209.774 111.562 209.96C112.326 211.746 113.851 212.134 115.421 212.533C115.723 212.611 116.026 212.688 116.326 212.775C117.009 212.974 117.618 213.421 118.229 213.868C118.532 214.09 118.835 214.312 119.149 214.504C119.303 214.6 119.456 214.718 119.609 214.837C120.303 215.376 120.989 215.909 121.803 214.182C123.138 216.887 125.109 217.765 127.408 218.441C129.249 218.981 130.967 219.927 132.415 221.473C132.586 221.655 132.749 221.826 132.903 221.989L132.904 221.99C134.258 223.416 135.035 224.235 135.729 226.448C135.494 226.532 135.26 226.618 135.027 226.703ZM90.0195 240.403C90.1434 238.64 91.3478 237.616 92.7086 237.066C93.8401 236.607 95.2184 236.63 96.4834 236.655C99.2836 236.713 102.083 236.874 104.877 237.072C105.23 237.097 105.571 237.242 105.914 237.389C106.193 237.507 106.472 237.626 106.76 237.682C106.833 237.697 106.907 237.711 106.982 237.726C107.651 237.86 108.371 238.004 108.981 237.836C111.175 237.231 113.247 237.427 115.343 238.24C116.176 238.563 117.094 238.692 117.99 238.818L118.135 238.838C118.586 238.902 119.049 238.922 119.51 238.943C120.282 238.978 121.052 239.012 121.756 239.25C122.339 239.445 122.932 239.624 123.526 239.804C126.243 240.625 128.973 241.45 130.787 243.898C130.748 244.026 130.722 244.147 130.699 244.251V244.251C130.659 244.435 130.631 244.568 130.561 244.594C130.037 244.796 129.516 245.011 128.994 245.226C126.375 246.308 123.757 247.389 120.74 246.704C120.36 246.618 119.946 246.702 119.528 246.786C119.276 246.837 119.024 246.887 118.776 246.902L118.753 246.903C118.234 246.934 117.689 246.966 117.197 246.839C116.67 246.703 116.15 246.537 115.63 246.372C114.749 246.092 113.869 245.811 112.967 245.679C112.613 245.628 112.208 245.933 111.736 246.289C111.499 246.468 111.245 246.659 110.972 246.824C110.779 246.733 110.584 246.637 110.388 246.54C108.839 245.777 107.158 244.95 105.015 245.826C104.122 246.191 102.971 245.983 101.868 245.784C101.571 245.729 101.276 245.676 100.992 245.635C100.662 245.587 100.402 245.058 100.4 245.019L100.405 245.02C100.402 245.016 100.4 245.016 100.4 245.019L91.9487 243.981C91.4478 243.053 90.7741 241.803 90.0195 240.403Z" fill="#F5A37B"/>
<path fill-rule="evenodd" clip-rule="evenodd" d="M455.28 36.8053C457.876 33.2393 459.457 29.5388 459.326 25.3425C459.221 25.2612 459.146 25.1963 459.089 25.1463C459.001 25.0692 458.955 25.0303 458.908 25.0272C458.535 25.0048 458.159 24.9905 457.786 25.0075C455.102 25.1255 454.66 25.5643 454.248 28.3522C454.197 28.6947 454.103 29.0319 454.008 29.3686C453.895 29.7722 453.782 30.1749 453.746 30.5854C453.551 32.7538 453.64 34.8763 455.28 36.8053ZM469.363 46.3194C468.001 43.3799 467.016 40.6075 468.104 37.4244C468.43 36.4713 468.594 35.4624 468.769 34.3849C468.851 33.8749 468.936 33.3494 469.042 32.8069C469.225 32.7644 469.425 32.683 469.637 32.5974C470.355 32.3059 471.218 31.9565 472.074 32.8218C473.157 33.9158 473.376 35.2523 472.974 36.7585C472.769 37.5238 472.61 38.3056 472.45 39.0901V39.0906C471.935 41.6174 471.413 44.1751 469.363 46.3194ZM396.118 73.1131C394.391 70.5342 393.13 67.8234 393.803 64.4999C393.946 63.7888 394.047 63.0693 394.147 62.3497C394.227 61.779 394.307 61.2078 394.408 60.6414C394.626 59.424 395.062 58.3763 396.621 58.6066C398.033 58.8151 398.691 59.6724 398.663 61.236C398.652 61.8497 398.655 62.4651 398.659 63.081C398.668 64.5451 398.677 66.0098 398.487 67.4474C398.312 68.7722 397.929 70.0699 397.547 71.3671C397.379 71.9383 397.21 72.5095 397.059 73.0828L396.118 73.1131ZM435.528 68.9179C434.903 67.1543 434.352 65.6008 433.663 63.6538C433.218 64.0994 432.683 64.4286 432.167 64.7456C430.935 65.5035 429.817 66.1917 430.305 68.2313C430.38 68.5441 430.22 68.9099 430.059 69.2796C429.976 69.471 429.892 69.6636 429.839 69.8502C429.687 70.3959 429.527 70.9405 429.367 71.4846L429.366 71.4851V71.4857V71.4862V71.4867L429.366 71.4873V71.4878V71.4883C428.944 72.92 428.522 74.3523 428.245 75.8111C428.11 76.5227 428.219 77.2806 428.322 77.9981C428.367 78.3108 428.411 78.6155 428.433 78.9054C430.862 79.3521 431.902 78.0895 432.559 76.5738C433.351 74.7458 434.047 72.8759 434.713 71.0862L434.713 71.0841L434.715 71.0809V71.0804C434.989 70.3433 435.259 69.6194 435.528 68.9179ZM460.096 78.1629C459.999 78.1379 459.907 78.114 459.821 78.0964C458.695 80.4908 457.732 82.8176 458.383 85.4763C458.508 85.9858 458.427 86.7681 458.107 87.1282C456.672 88.7466 456.906 90.5245 457.14 92.2972C457.237 93.0327 457.334 93.7677 457.311 94.4899C457.299 94.8835 457.417 95.2808 457.551 95.7307C457.619 95.9562 457.69 96.195 457.75 96.453C459.723 95.4877 460.788 93.9762 461.393 92.344C462.813 88.5174 463.897 84.5876 463.359 80.4062C463.168 78.9187 462.57 78.3704 460.845 78.2996C460.585 78.289 460.326 78.2225 460.096 78.1629ZM507.328 111.293C506.164 108.933 505.585 106.981 506.233 104.334L506.314 104.005C506.973 101.325 507.657 98.5404 507.638 95.6563C507.631 94.6101 508.08 93.5608 508.537 92.4945C508.745 92.0078 508.955 91.518 509.123 91.0229C509.204 91.0165 509.289 91.009 509.378 91.0016L509.5 90.9915H509.501C509.854 90.9612 510.259 90.9266 510.663 90.9021C512.553 90.7873 512.948 91.2489 513.051 93.0986C513.175 95.3425 512.452 97.3624 511.729 99.3818C511.394 100.318 511.059 101.255 510.808 102.213C510.741 102.47 510.661 102.719 510.582 102.966C510.301 103.845 510.027 104.699 510.36 105.785C510.828 107.306 509.808 108.783 507.328 111.293ZM431.436 136.163C433.85 137.988 434.275 139.321 433.63 141.667C432.743 144.893 431.858 148.13 431.226 151.411C430.883 153.19 430.023 154.508 428.982 155.792C428.869 155.745 428.76 155.712 428.665 155.683C428.495 155.632 428.369 155.593 428.333 155.513C427.266 153.145 427.206 147.93 427.865 145.622C428.426 143.656 428.753 141.585 428.871 139.543C428.949 138.167 429.769 137.518 430.654 136.817C430.915 136.61 431.182 136.399 431.436 136.163ZM428.482 88.495C432.213 89.0795 432.216 91.3553 431.17 93.982C431.062 94.2549 430.95 94.525 430.839 94.7947C430.123 96.5285 429.426 98.2197 429.632 100.262C429.696 100.903 429.189 101.606 428.685 102.304C428.467 102.605 428.25 102.905 428.08 103.198C427.622 103.991 427.155 104.778 426.618 105.681L426.617 105.684L426.616 105.685L426.611 105.693L426.609 105.697C426.354 106.126 426.083 106.582 425.791 107.077C423.997 103.012 423.562 99.5701 425.654 96.0334C426.266 94.9984 426.773 93.6635 426.692 92.511C426.57 90.7894 427.186 89.6289 428.482 88.495ZM463.162 126.122C463.162 125.161 463.098 124.249 463.037 123.388C462.912 121.606 462.803 120.044 463.311 118.72C463.798 117.448 464.088 116.139 464.376 114.836C464.683 113.451 464.987 112.073 465.527 110.757C465.74 110.239 466.075 109.655 466.524 109.383C467.022 109.081 467.808 108.858 468.297 109.048C468.798 109.241 469.461 110.012 469.416 110.466C469.349 111.14 469.295 111.817 469.24 112.494C469.01 115.35 468.779 118.207 467.601 120.917C466.896 122.538 465.717 123.664 464.32 124.998V124.999L464.318 125C463.947 125.355 463.56 125.724 463.162 126.122ZM509.671 135.508C508.165 139.029 507.589 142.39 510.337 145.98C513.888 141.604 514.156 136.671 514.419 131.826V131.823C514.454 131.171 514.49 130.519 514.533 129.871C513.041 129.13 512.265 129.438 511.464 130.441C510.713 131.381 510.472 132.472 510.232 133.553C510.084 134.221 509.937 134.885 509.671 135.508ZM380.098 167.853C381.511 170.243 381.678 172.788 380.956 175.44C380.689 176.423 380.703 177.454 380.718 178.483C380.743 180.139 380.767 181.793 379.617 183.248C377.409 182.53 375.557 179.584 376.413 177.381C376.941 176.021 376.694 175.037 376.331 173.85C375.295 170.455 376.286 168.852 380.098 167.853ZM407.275 196.718C407.223 198.621 407.166 200.681 409.634 202.012C409.866 201.45 410.078 200.914 410.282 200.397C410.709 199.315 411.101 198.321 411.578 197.37C412.536 195.456 412.473 193.451 412.408 191.447C412.376 190.442 412.344 189.436 412.441 188.444C412.608 186.746 411.053 185.966 409.436 186.701C409.004 186.897 408.63 187.221 408.374 187.442C408.288 187.517 408.215 187.581 408.159 187.623C408.159 187.985 408.168 188.308 408.176 188.606C408.193 189.19 408.206 189.673 408.143 190.145C408.048 190.843 407.915 191.54 407.781 192.236C407.539 193.499 407.297 194.761 407.289 196.025C407.288 196.253 407.281 196.484 407.275 196.718ZM442.981 213.642C442.873 213.262 442.748 212.906 442.629 212.564C442.379 211.851 442.153 211.205 442.161 210.562C442.181 208.852 442.366 207.115 442.743 205.448L442.785 205.259C443.196 203.445 443.594 201.686 443.303 199.782C443.08 198.328 443.775 197.878 445.159 198.196C446.947 198.606 447.877 199.817 448.378 201.493C446.93 203.687 446.653 206.191 446.634 208.77C446.614 211.293 445.908 212.306 442.981 213.642ZM411.226 79.4925C411.025 79.5819 410.826 79.6696 410.627 79.7356C410.404 80.5865 410.147 81.4269 409.893 82.2608C409.303 84.194 408.723 86.0948 408.592 88.0265C408.575 88.2701 408.551 88.5232 408.526 88.7828C408.353 90.574 408.151 92.6753 410.307 94.0512C410.42 93.9188 410.533 93.7874 410.647 93.656C411.668 92.478 412.68 91.3085 412.808 89.6874C412.984 87.4377 413.844 85.4657 414.867 83.5175C415.856 81.6306 415.575 81.0668 413.923 79.6627C412.87 78.7676 412.026 79.1399 411.226 79.4925ZM474.592 137.814H474.593C474.84 138.47 475.091 139.135 474.959 139.711C474.238 142.863 473.345 145.986 472.313 149.051C472.082 149.735 471.582 150.329 470.998 151.021C470.704 151.37 470.388 151.744 470.076 152.167C469.867 151.924 469.643 151.709 469.434 151.509C469.024 151.115 468.676 150.781 468.631 150.41C468.594 150.097 468.547 149.784 468.501 149.472V149.472C468.262 147.863 468.023 146.258 468.998 144.611C469.487 143.785 469.715 142.811 469.944 141.832C470.089 141.212 470.236 140.59 470.448 140.001C470.99 138.506 471.586 136.953 474.292 136.932C474.367 137.218 474.48 137.515 474.592 137.814ZM363.437 108.368C365.785 103.292 368.011 98.4782 366.124 92.6679C364.023 93.3109 362.47 94.6394 362.445 96.195C362.428 97.305 362.157 98.2873 361.888 99.2643C361.743 99.7881 361.599 100.31 361.494 100.85C361.445 101.102 361.388 101.36 361.331 101.62C361.097 102.675 360.856 103.767 361.106 104.706C361.2 105.058 361.26 105.429 361.322 105.811C361.515 106.992 361.723 108.273 362.979 109.359C363.131 109.027 363.284 108.698 363.437 108.368ZM490.675 121.052C488.68 118.217 488.679 115.283 490.453 106.084C493.268 105.645 494.604 106.792 494.343 109.82C494.122 112.404 493.702 115.005 493.013 117.5C492.774 118.364 492.167 119.125 491.535 119.918C491.242 120.285 490.944 120.658 490.675 121.052ZM442.958 90.1719C443.244 89.3428 443.531 88.5067 443.836 87.6675C443.718 87.5425 443.605 87.4101 443.49 87.2771C443.239 86.9841 442.985 86.6878 442.68 86.4602C441.309 85.4375 438.725 86.2054 438.553 87.8919C438.366 89.7385 437.702 91.3973 437.047 93.0364C436.69 93.9283 436.336 94.8138 436.063 95.7212L436.324 96.3232C436.731 97.2635 437.156 98.2447 437.717 99.5398C438.09 99.1175 438.476 98.733 438.847 98.3628C439.624 97.5879 440.339 96.8758 440.732 96.0169C441.593 94.1379 442.269 92.1743 442.958 90.1719ZM482.909 165.371C483.743 163.333 483.183 161.653 482.208 159.742C480.008 160.131 478.973 161.263 478.873 163.301C478.835 164.059 478.778 164.904 478.428 165.544C476.754 168.597 477.643 171.352 479.306 174.564C479.657 174.064 480.041 173.631 480.41 173.215C481.294 172.216 482.094 171.315 482.154 169.83C482.215 168.329 482.351 166.736 482.909 165.371ZM460.728 177.416C460.446 176.647 460.094 175.971 459.761 175.333C459.041 173.952 458.414 172.75 458.798 171.165C458.972 170.444 458.917 169.603 458.738 168.874C458.042 166.042 459.333 164.181 461.577 162.55C463.345 164.015 464.833 165.321 463.36 167.865C462.897 168.665 462.737 169.987 463.06 170.833C463.772 172.695 462.95 173.872 462.022 175.201C461.558 175.867 461.066 176.57 460.728 177.416ZM493.754 140.021C493.801 139.308 493.85 138.558 493.912 137.756C493.91 137.751 493.905 137.737 493.898 137.715C493.853 137.572 493.702 137.097 493.505 136.643C493.467 136.556 493.431 136.465 493.394 136.373L493.394 136.372V136.371L493.393 136.371V136.37L493.393 136.369L493.392 136.368C493.137 135.729 492.858 135.028 491.969 135.313C491.316 135.521 490.74 136.076 490.228 136.576C490.053 136.746 489.997 137.043 489.942 137.334C489.922 137.44 489.902 137.546 489.877 137.644C489.851 137.745 489.825 137.845 489.799 137.946L489.708 138.294L489.708 138.295C489.479 139.176 489.249 140.058 489.049 140.946C488.933 141.46 488.778 141.967 488.621 142.474V142.475V142.475V142.476H488.621V142.477C488.202 143.838 487.784 145.199 488.139 146.681C488.435 147.917 489.348 148.399 490.512 147.907C492.123 147.227 493.153 145.996 493.383 144.283C493.564 142.926 493.654 141.557 493.754 140.021ZM410.172 165.492C410.205 166.744 410.239 168.046 409.925 169.407C410.378 169.356 410.782 169.346 411.129 169.337C411.747 169.321 412.183 169.309 412.378 169.087C412.521 168.925 412.669 168.763 412.818 168.6C413.952 167.358 415.14 166.058 414.567 164.129C414.071 162.455 414.675 161.211 415.642 160.226C415.576 159.953 415.528 159.695 415.481 159.451C415.387 158.952 415.304 158.515 415.111 158.132C414.634 157.18 413.98 156.193 412.725 156.447C411.394 156.716 411.061 157.818 411.077 159.049C411.079 159.19 411.097 159.341 411.114 159.493C411.154 159.837 411.194 160.183 411.052 160.418C410.08 162.024 410.125 163.708 410.172 165.492ZM389.392 99.1835C385.011 94.3134 384.491 88.3466 388.259 84.6982C388.415 84.8599 388.603 85.0141 388.79 85.1683V85.1689C389.197 85.5034 389.604 85.8379 389.692 86.2416C390.587 90.3666 391.158 94.5272 389.943 98.7027C389.915 98.7989 389.811 98.8729 389.667 98.975C389.586 99.0324 389.492 99.0989 389.392 99.1835ZM449.584 132.553C447.529 135.169 448.469 137.484 449.98 140.027C452.439 139.071 453.711 137.663 453.364 135.048C453.276 134.376 453.569 133.629 453.845 132.927C453.894 132.801 453.944 132.676 453.99 132.553C454.986 129.902 454.819 129.366 452.13 127.6L451.106 128.327L450.363 128.854L449.649 129.361C449.649 129.847 449.693 130.309 449.734 130.73C449.812 131.533 449.875 132.183 449.584 132.553ZM412.622 39.2912C415.541 37.7557 416.378 38.0211 416.312 41.1749C416.304 41.5834 416.304 41.9972 416.303 42.4136C416.303 44.9111 416.302 47.5039 414.492 49.6897C414.13 50.1258 413.995 50.7497 413.832 51.4985C413.749 51.8836 413.658 52.3016 413.527 52.7441C410.838 49.5376 411.464 46.3428 412.087 43.1646C412.34 41.8706 412.593 40.5793 412.622 39.2912ZM499.234 73.1322C498.486 76.6158 498.475 80.0898 500.28 83.6558C500.495 83.2293 500.69 82.8229 500.876 82.4336C501.262 81.6284 501.614 80.8955 502.034 80.2047C503.278 78.1635 503.471 75.8984 503.663 73.6407V73.6401C503.721 72.9573 503.779 72.2749 503.866 71.6C503.933 71.0767 503.185 70.2055 502.606 69.9242C502.194 69.7237 501.24 70.0688 500.867 70.4789C500.175 71.2405 499.441 72.1659 499.234 73.1322ZM501.875 179.907L500.531 180.481C500.062 180.681 499.572 180.89 499.099 181.092C497.202 179.524 497.523 177.759 497.838 176.024C497.934 175.496 498.03 174.971 498.061 174.455C498.196 172.301 499.003 170.59 501.343 169.956C503.484 170.673 503.329 172.503 503.087 174.22C502.909 175.486 502.614 176.735 502.301 178.06C502.16 178.658 502.014 179.27 501.875 179.907ZM461.311 196.155L460.973 195.487C457.808 197.142 457.532 199.673 457.267 202.103C457.18 202.9 457.095 203.684 456.909 204.425C456.478 206.142 458.897 208.04 459.918 207.088C460.827 206.241 461.59 204.974 461.862 203.766C462.193 202.303 462.283 200.785 462.355 199.571C462.381 199.128 462.405 198.726 462.437 198.382C461.985 197.485 461.628 196.78 461.311 196.155ZM481.614 203.006C480.729 201.218 481.13 199.445 481.525 197.699C481.818 196.404 482.108 195.124 481.867 193.863C482.068 193.648 482.257 193.431 482.442 193.217C482.847 192.753 483.235 192.307 483.687 191.94C484.727 191.096 485.689 191.338 486.207 192.585C487.404 195.474 486.068 202.363 481.614 203.006ZM436.055 173.858C439.286 173.933 440.09 174.677 439.846 177.582C439.837 177.692 439.828 177.802 439.819 177.913C439.811 178.01 439.804 178.107 439.796 178.203C439.574 181.003 439.348 183.848 436.966 186.123C436.852 186.039 436.722 185.962 436.593 185.886C436.314 185.723 436.039 185.561 435.933 185.325C434.989 183.19 435.062 178.88 436.055 173.858ZM422.469 124.218C422.787 122.854 423.103 121.5 423.584 120.189C423.336 120.091 423.133 120.009 422.957 119.939L422.955 119.938C422.652 119.816 422.431 119.727 422.208 119.643C419.457 118.606 418.576 119.2 418.454 122.12C418.422 122.876 418.387 123.673 418.133 124.371C417.375 126.459 418.059 128.349 418.814 130.226C418.928 130.509 419.185 130.734 419.457 130.972C419.587 131.086 419.721 131.203 419.844 131.331C421.34 129.061 421.907 126.625 422.469 124.218ZM435.691 112.856L435.709 112.829C436.167 112.143 436.613 111.475 437.108 110.734C437.658 110.954 438.339 111.227 439.088 111.527L439.748 111.791C439.659 112.583 439.584 113.366 439.51 114.141V114.142V114.143C439.326 116.058 439.146 117.928 438.786 119.761C438.656 120.42 438.148 121.005 437.605 121.631C437.346 121.929 437.078 122.238 436.84 122.567C435.865 122.105 435.111 121.748 434.054 121.247C434.109 120.951 434.143 120.641 434.177 120.329C434.253 119.634 434.33 118.932 434.641 118.356C435.474 116.809 435.723 115.365 434.881 114.069L435.23 113.547L435.691 112.856ZM407.538 112.757C407.482 111.071 406.753 110.022 404.737 109.945C401.108 114.249 400.928 117.307 404.141 120.601C407.232 118.833 407.642 115.913 407.538 112.757ZM399.626 145.759C400.637 142.848 401.456 140.491 402.378 137.837C403.19 138.113 403.923 138.361 404.79 138.655L404.793 138.656L405.746 138.979C405.632 139.542 405.523 140.095 405.415 140.64C405.165 141.902 404.924 143.123 404.65 144.337C404.538 144.829 404.392 145.314 404.246 145.799C404.06 146.414 403.875 147.027 403.762 147.655C403.511 149.044 402.687 149.6 401.399 149.677C399.933 148.888 399.819 147.56 399.732 146.551C399.705 146.251 399.682 145.98 399.626 145.759ZM451.552 149.026C451.603 147.612 450.832 146.472 448.838 146.589C448.701 146.823 448.536 147.063 448.365 147.31C447.97 147.883 447.547 148.497 447.377 149.175C447.261 149.639 447.123 150.103 446.984 150.569C446.421 152.454 445.851 154.362 446.762 156.338C447.041 156.944 447.776 157.808 448.219 157.762C448.899 157.691 449.737 157.07 450.105 156.445C451.372 154.293 451.456 151.83 451.538 149.429L451.544 149.275C451.546 149.192 451.55 149.109 451.552 149.026ZM435.664 37.6499C435.946 37.6307 436.216 37.6026 436.477 37.5749C437.026 37.5175 437.535 37.4643 438.036 37.5074C439.528 37.6366 440.701 38.8093 440.328 40.2171C440.192 40.733 440.067 41.2552 439.942 41.7802V41.7807L439.941 41.7818C439.345 44.2825 438.733 46.847 436.733 49.0722C434.481 46.3652 434.906 43.5863 435.329 40.8218V40.8207C435.491 39.7602 435.653 38.7019 435.664 37.6499ZM449.952 64.7823L450.703 66.5656C452.595 64.0175 453.039 61.2488 453.478 58.5114C453.652 57.4323 453.824 56.358 454.084 55.3038C453.714 55.0166 453.333 54.7199 452.956 54.4268L452.532 54.0971L452.195 53.8349C451.968 53.9742 451.735 54.1077 451.5 54.2423C450.937 54.5651 450.368 54.8917 449.865 55.2996C449.469 55.6203 449.159 56.1846 449.048 56.692C448.841 57.6296 448.701 58.5821 448.546 59.6213V59.6219V59.6229C448.482 60.0527 448.417 60.4973 448.343 60.9616C448.811 62.0731 449.347 63.3458 449.952 64.7823ZM422.238 57.7508C423.423 61.5104 423.061 64.8302 419.554 69.7981C417.399 67.6037 417.701 65.0504 417.996 62.5513C418.067 61.9567 418.137 61.3652 418.174 60.7823C418.263 59.3559 420.47 57.8966 422.238 57.7508ZM382.671 121.417C382.084 124.208 381.485 127.054 383.569 130.014C385.746 127.316 386.699 124.575 386.879 121.382C387.07 118.003 386.37 117.227 383.178 118.383C383.098 119.389 382.885 120.399 382.671 121.417ZM516.75 177.03C515.004 175.111 514.635 173.137 515.567 170.887C515.889 170.108 516.144 169.296 516.35 168.478C516.703 167.077 517.843 165.957 518.793 166.158C519.612 166.332 521.019 168.165 520.688 169.122C520.453 169.803 520.286 170.518 520.118 171.239C519.62 173.383 519.11 175.576 516.75 177.03ZM385.118 153.693C384.925 154.356 384.733 155.012 384.487 155.647C384.63 155.899 384.771 156.135 384.905 156.362V156.363C385.183 156.831 385.439 157.262 385.656 157.712C386.448 159.357 387.233 159.538 388.351 158.173C388.807 157.615 389.117 156.868 389.283 156.157C389.523 155.123 389.694 154.073 389.869 152.988C389.943 152.532 390.018 152.07 390.1 151.601C389.461 150.582 388.781 149.497 388.062 148.348C386.228 149.895 385.667 151.813 385.118 153.693ZM481.471 68.4632C481.255 68.1909 481.065 67.9776 480.904 67.7973C480.625 67.4851 480.435 67.2724 480.353 67.024C479.427 64.2239 479.704 61.4557 480.747 58.747C481.178 57.6275 482.332 57.1366 483.589 57.5184C484.903 57.9173 484.904 58.639 484.519 59.9346C484.305 60.6568 484.207 61.4104 484.109 62.1667C483.943 63.4474 483.776 64.7339 483.039 65.8832C482.744 66.3438 482.463 66.814 482.109 67.4043C481.921 67.7176 481.713 68.0648 481.471 68.4632ZM477.143 92.904C479.82 91.35 481.735 85.8688 480.667 82.6969C480.515 82.6862 480.362 82.6724 480.209 82.6591C478.815 82.5352 477.359 82.406 476.891 84.2701L476.863 84.3818C476.151 87.2191 475.424 90.114 477.143 92.904ZM369.478 148.729C369.276 148.458 369.052 148.195 368.829 147.932C368.329 147.343 367.828 146.755 367.568 146.074C367.044 144.698 366.744 143.191 366.625 141.718C366.522 140.444 367.36 139.802 368.19 139.165C368.565 138.877 368.938 138.591 369.223 138.249C371.094 138.347 371.675 139.909 371.616 141.027C371.521 142.812 371.155 144.583 370.789 146.353C370.64 147.073 370.491 147.792 370.361 148.513L370.004 148.6C369.829 148.643 369.654 148.686 369.478 148.729ZM453.959 111.868L454.204 111.759C454.302 111.428 454.409 111.096 454.516 110.766C455.208 108.632 455.888 106.533 453.87 104.569C451.852 104.389 450.458 105.51 450.043 107.19C449.63 108.859 450.389 110.369 451.172 111.926C451.333 112.248 451.495 112.571 451.649 112.898C452.588 112.479 453.291 112.166 453.959 111.868Z" fill="#FF6428" fill-opacity="0.956863"/>
<path fill-rule="evenodd" clip-rule="evenodd" d="M174.637 138.672C174.783 138.654 174.918 138.636 175.046 138.619C175.022 135.258 174.993 131.979 175.095 128.707C175.227 124.444 177.356 122.291 181.654 121.872C183.632 121.679 185.637 121.703 187.629 121.717C216.641 121.921 245.653 122.176 274.664 122.345C297.919 122.48 321.176 122.483 344.431 122.601C368.46 122.724 392.49 122.919 416.519 123.077C423.385 123.122 430.251 123.115 437.116 123.203C441.619 123.26 443.385 124.633 443.977 129.153C444.461 132.855 444.379 136.632 444.562 140.707C444.489 140.715 444.424 140.723 444.354 140.731C444.352 141.185 444.348 141.636 444.339 142.085C444.217 148.24 444.044 154.393 443.945 160.548C443.572 183.801 443.225 207.056 442.86 230.31C442.562 249.347 442.245 268.383 441.944 287.42C441.485 316.487 441.034 345.554 440.574 374.621C440.516 378.342 440.427 382.062 440.346 386.063C350.4 385.505 260.779 384.95 170.787 384.392C172.074 302.319 173.352 220.64 174.637 138.672Z" fill="white"/>
<path fill-rule="evenodd" clip-rule="evenodd" d="M443.228 140.866C443.617 140.817 444.053 140.763 444.563 140.708C444.505 139.433 444.474 138.188 444.443 136.965C444.375 134.277 444.309 131.697 443.977 129.153C443.385 124.632 441.619 123.26 437.116 123.203C432.692 123.147 428.268 123.129 423.844 123.112C421.402 123.103 418.96 123.093 416.519 123.077C408.602 123.025 400.684 122.969 392.767 122.913C376.655 122.798 360.543 122.684 344.431 122.601C333.548 122.546 322.665 122.516 311.782 122.485H311.782C299.409 122.451 287.037 122.417 274.665 122.345C256.436 122.239 238.207 122.099 219.979 121.959C209.196 121.876 198.412 121.793 187.628 121.717L187.359 121.715C185.456 121.701 183.542 121.687 181.654 121.872C177.356 122.291 175.228 124.444 175.095 128.707C174.998 131.838 175.02 134.973 175.043 138.184V138.186V138.188C175.053 139.61 175.064 141.046 175.064 142.503C175.138 142.52 175.231 142.549 175.336 142.582C175.618 142.67 175.989 142.786 176.361 142.783C182.142 142.75 187.924 142.671 193.707 142.592C205.862 142.426 218.018 142.259 230.165 142.514C271.909 143.387 313.652 143.323 355.397 143.031C372.889 142.91 390.382 142.584 407.87 142.204C415.889 142.029 423.904 141.717 431.919 141.405L431.921 141.405C435.076 141.282 438.231 141.159 441.386 141.045C441.947 141.025 442.506 140.955 443.228 140.866ZM175.515 145.728C175.261 145.763 174.975 145.802 174.637 145.842C173.898 191.622 173.161 237.309 172.424 283.029C171.879 316.798 171.334 350.585 170.788 384.441C260.779 384.983 350.401 385.522 440.346 386.063C440.373 384.794 440.4 383.554 440.426 382.334C440.482 379.819 440.535 377.385 440.575 374.952C440.796 361.326 441.016 347.7 441.236 334.074C441.471 319.476 441.707 304.877 441.945 290.279C442.089 281.364 442.238 272.449 442.387 263.534C442.546 253.964 442.706 244.394 442.861 234.825C443.015 225.32 443.165 215.815 443.315 206.31V206.309C443.522 193.234 443.729 180.159 443.945 167.084C444.003 163.55 444.088 160.015 444.172 156.482C444.231 154.04 444.289 151.598 444.339 149.157C444.362 148.039 444.356 146.922 444.35 145.738C444.347 145.179 444.345 144.605 444.345 144.01C444.043 143.973 443.762 143.927 443.493 143.884C442.958 143.797 442.476 143.719 441.996 143.735C438.525 143.854 435.053 143.99 431.582 144.126C425.432 144.366 419.282 144.607 413.13 144.755C410.851 144.809 408.572 144.865 406.293 144.921L406.286 144.921C391.635 145.281 376.983 145.64 362.329 145.724C331.106 145.904 299.881 145.953 268.657 145.83C255.582 145.779 242.508 145.596 229.433 145.412C219.15 145.268 208.867 145.124 198.584 145.044C193.492 145.004 188.399 145.192 183.305 145.381C181.097 145.462 178.888 145.544 176.679 145.607C176.327 145.617 175.975 145.665 175.515 145.728ZM332.834 388.107C323.743 388.056 314.651 388.005 305.56 387.954V387.928C283.583 387.783 261.606 387.638 239.63 387.494C217.653 387.349 195.677 387.204 173.7 387.059C173.11 387.055 172.58 387.059 172.104 387.062H172.102C170.149 387.074 169.11 387.08 168.567 386.565C167.95 385.978 167.973 384.717 168.023 382.021C168.027 381.782 168.031 381.532 168.036 381.27C168.229 369.793 168.447 358.318 168.665 346.842V346.842L168.666 346.81C168.862 336.493 169.059 326.176 169.237 315.859C169.498 300.642 169.737 285.425 169.975 270.207V270.204V270.202C170.11 261.623 170.244 253.044 170.382 244.466C170.484 238.17 170.591 231.874 170.698 225.578C170.885 214.609 171.071 203.639 171.23 192.669C171.431 178.715 171.606 164.76 171.782 150.805L171.783 150.669C171.864 144.19 171.946 137.711 172.03 131.233C172.032 131.074 172.033 130.915 172.034 130.755C172.039 130.139 172.043 129.523 172.095 128.91C172.588 122.988 175.493 119.807 181.407 119.131C183.115 118.935 184.853 119 186.59 119.065C187.391 119.095 188.192 119.125 188.991 119.129C198.76 119.182 208.529 119.234 218.297 119.286H218.298C238.863 119.395 259.43 119.504 279.995 119.624C292.291 119.696 304.587 119.776 316.883 119.856H316.883C340.347 120.009 363.811 120.163 387.276 120.256C395.761 120.289 404.246 120.23 412.731 120.171C420.4 120.118 428.069 120.065 435.737 120.08C441.973 120.092 445.753 122.098 446.819 129.014C447.054 130.537 447.212 132.093 447.19 133.631C447.113 139.112 447.009 144.593 446.906 150.073C446.832 154.001 446.757 157.928 446.693 161.856C446.244 189.084 445.802 216.313 445.37 243.542C445.039 264.439 444.713 285.336 444.389 306.233C444.213 317.546 444.037 328.859 443.86 340.172C443.812 343.198 443.765 346.224 443.718 349.25C443.534 361.055 443.351 372.861 443.152 384.666C443.082 388.775 443.047 388.805 439.08 388.788C436.787 388.778 434.495 388.744 432.203 388.71C430.068 388.678 427.932 388.647 425.797 388.634C394.821 388.454 363.846 388.281 332.87 388.107H332.853H332.834ZM428.678 129.77C426.633 129.74 425.413 130.616 425.363 132.15C425.31 133.809 427.748 135.869 429.804 135.904C431.295 135.929 432.471 134.782 432.569 133.209C432.697 131.162 431.164 129.807 428.678 129.77ZM422.584 132.376C422.483 129.14 424.977 126.998 429.038 126.832C432.236 126.7 435.223 129.519 435.35 132.785C435.467 135.813 433.109 138.6 430.312 138.74C426.7 138.922 422.685 135.615 422.584 132.376ZM388.318 133.399C388.294 132.245 389.953 130.499 391.076 130.495C392.41 130.49 394.028 132.346 394.107 133.972C394.181 135.497 393.196 136.542 391.728 136.499C390.177 136.453 388.346 134.789 388.318 133.399ZM390.816 127.688C388.586 127.626 385.579 130.667 385.462 133.106C385.322 136.021 388.536 139.162 391.721 139.222C394.693 139.277 396.766 137.307 396.845 134.353C396.937 130.854 394.159 127.783 390.816 127.688ZM406.671 133.634C406.795 134.827 408.406 135.972 410.506 135.911C410.584 135.809 410.702 135.689 410.836 135.552C411.197 135.184 411.671 134.702 411.755 134.159C411.963 132.805 410.13 131.121 408.807 131.14C407.707 131.155 406.552 132.503 406.671 133.634ZM408.587 128.406C411.675 128.308 414.525 131.087 414.565 134.234C414.597 136.88 412.731 138.699 409.942 138.74C406.9 138.783 404.036 136.41 403.915 133.746C403.785 130.895 405.888 128.492 408.587 128.406Z" fill="#670224"/>
<g clip-path="url(#clip0_186_9028)">
<rect x="199.501" y="198.5" width="217" height="25" rx="7.5" stroke="#670224"/>
<path d="M202.012 184.112C201.81 184.112 201.65 184.053 201.532 183.936C201.415 183.808 201.356 183.637 201.356 183.424V173.856H197.756C197.564 173.856 197.415 173.803 197.308 173.696C197.202 173.589 197.148 173.451 197.148 173.28C197.148 173.099 197.202 172.96 197.308 172.864C197.415 172.768 197.564 172.72 197.756 172.72H206.284C206.476 172.72 206.626 172.768 206.732 172.864C206.839 172.96 206.892 173.099 206.892 173.28C206.892 173.461 206.839 173.605 206.732 173.712C206.626 173.808 206.476 173.856 206.284 173.856H202.684V183.424C202.684 183.637 202.626 183.808 202.508 183.936C202.402 184.053 202.236 184.112 202.012 184.112ZM209.084 184.08C208.87 184.08 208.71 184.021 208.604 183.904C208.497 183.776 208.444 183.6 208.444 183.376V176.832C208.444 176.608 208.497 176.437 208.604 176.32C208.71 176.203 208.87 176.144 209.084 176.144C209.286 176.144 209.446 176.203 209.564 176.32C209.681 176.437 209.74 176.608 209.74 176.832V183.376C209.74 183.6 209.681 183.776 209.564 183.904C209.457 184.021 209.297 184.08 209.084 184.08ZM209.084 174.352C208.817 174.352 208.609 174.283 208.46 174.144C208.31 173.995 208.236 173.797 208.236 173.552C208.236 173.296 208.31 173.104 208.46 172.976C208.609 172.837 208.817 172.768 209.084 172.768C209.361 172.768 209.569 172.837 209.708 172.976C209.857 173.104 209.932 173.296 209.932 173.552C209.932 173.797 209.857 173.995 209.708 174.144C209.569 174.283 209.361 174.352 209.084 174.352ZM215.282 184.144C214.674 184.144 214.162 184.037 213.746 183.824C213.341 183.6 213.037 183.28 212.834 182.864C212.632 182.437 212.53 181.92 212.53 181.312V177.232H211.458C211.277 177.232 211.138 177.189 211.042 177.104C210.946 177.008 210.898 176.88 210.898 176.72C210.898 176.56 210.946 176.437 211.042 176.352C211.138 176.267 211.277 176.224 211.458 176.224H212.53V174.384C212.53 174.171 212.589 174.011 212.706 173.904C212.824 173.787 212.984 173.728 213.186 173.728C213.389 173.728 213.544 173.787 213.65 173.904C213.768 174.011 213.826 174.171 213.826 174.384V176.224H215.842C216.024 176.224 216.162 176.267 216.258 176.352C216.354 176.437 216.402 176.56 216.402 176.72C216.402 176.88 216.354 177.008 216.258 177.104C216.162 177.189 216.024 177.232 215.842 177.232H213.826V181.184C213.826 181.792 213.954 182.256 214.21 182.576C214.466 182.885 214.882 183.04 215.458 183.04C215.661 183.04 215.832 183.019 215.97 182.976C216.12 182.933 216.242 182.912 216.338 182.912C216.434 182.901 216.514 182.933 216.578 183.008C216.642 183.083 216.674 183.211 216.674 183.392C216.674 183.52 216.648 183.637 216.594 183.744C216.552 183.851 216.472 183.925 216.354 183.968C216.226 184.011 216.056 184.048 215.842 184.08C215.64 184.123 215.453 184.144 215.282 184.144ZM220.218 184.144C219.45 184.144 218.863 183.909 218.458 183.44C218.052 182.971 217.85 182.299 217.85 181.424V173.264C217.85 173.051 217.903 172.891 218.01 172.784C218.116 172.667 218.276 172.608 218.49 172.608C218.692 172.608 218.852 172.667 218.97 172.784C219.087 172.891 219.146 173.051 219.146 173.264V181.328C219.146 181.904 219.258 182.336 219.482 182.624C219.716 182.901 220.058 183.04 220.506 183.04C220.602 183.04 220.687 183.035 220.762 183.024C220.836 183.013 220.911 183.008 220.986 183.008C221.103 182.997 221.183 183.024 221.226 183.088C221.279 183.152 221.306 183.28 221.306 183.472C221.306 183.664 221.263 183.808 221.178 183.904C221.092 184 220.954 184.064 220.762 184.096C220.676 184.107 220.586 184.117 220.49 184.128C220.394 184.139 220.303 184.144 220.218 184.144ZM226.01 184.144C225.189 184.144 224.479 183.984 223.882 183.664C223.295 183.333 222.837 182.869 222.506 182.272C222.186 181.675 222.026 180.96 222.026 180.128C222.026 179.317 222.186 178.613 222.506 178.016C222.826 177.408 223.263 176.933 223.818 176.592C224.383 176.251 225.034 176.08 225.77 176.08C226.293 176.08 226.762 176.171 227.178 176.352C227.594 176.523 227.946 176.773 228.234 177.104C228.533 177.435 228.757 177.835 228.906 178.304C229.066 178.773 229.146 179.301 229.146 179.888C229.146 180.059 229.098 180.187 229.002 180.272C228.906 180.347 228.767 180.384 228.586 180.384H223.018V179.536H228.282L228.026 179.744C228.026 179.168 227.941 178.683 227.77 178.288C227.599 177.883 227.349 177.573 227.018 177.36C226.698 177.147 226.293 177.04 225.802 177.04C225.258 177.04 224.794 177.168 224.41 177.424C224.037 177.669 223.754 178.016 223.562 178.464C223.37 178.901 223.274 179.413 223.274 180V180.096C223.274 181.077 223.509 181.824 223.978 182.336C224.458 182.848 225.135 183.104 226.01 183.104C226.373 183.104 226.73 183.056 227.082 182.96C227.445 182.864 227.797 182.704 228.138 182.48C228.287 182.384 228.421 182.341 228.538 182.352C228.666 182.352 228.767 182.389 228.842 182.464C228.917 182.528 228.965 182.613 228.986 182.72C229.018 182.816 229.007 182.923 228.954 183.04C228.911 183.157 228.821 183.259 228.682 183.344C228.33 183.6 227.914 183.797 227.434 183.936C226.954 184.075 226.479 184.144 226.01 184.144Z" fill="#670224"/>
<rect x="199.502" y="259.5" width="217" height="25" rx="7.5" stroke="#670224"/>
<path d="M203.5 245.144C202.39 245.144 201.441 244.909 200.652 244.44C199.862 243.971 199.254 243.304 198.828 242.44C198.412 241.576 198.204 240.547 198.204 239.352C198.204 238.456 198.321 237.656 198.556 236.952C198.801 236.237 199.148 235.635 199.596 235.144C200.054 234.643 200.614 234.259 201.276 233.992C201.937 233.715 202.678 233.576 203.5 233.576C204.161 233.576 204.79 233.672 205.388 233.864C205.985 234.045 206.502 234.317 206.94 234.68C207.078 234.787 207.169 234.909 207.212 235.048C207.265 235.176 207.27 235.304 207.228 235.432C207.196 235.549 207.132 235.651 207.036 235.736C206.95 235.811 206.844 235.848 206.716 235.848C206.588 235.848 206.444 235.795 206.284 235.688C205.9 235.379 205.478 235.149 205.02 235C204.561 234.851 204.065 234.776 203.532 234.776C202.689 234.776 201.974 234.957 201.388 235.32C200.801 235.672 200.358 236.189 200.06 236.872C199.761 237.555 199.612 238.381 199.612 239.352C199.612 240.323 199.761 241.155 200.06 241.848C200.358 242.531 200.801 243.053 201.388 243.416C201.974 243.768 202.689 243.944 203.532 243.944C204.054 243.944 204.55 243.869 205.02 243.72C205.489 243.56 205.921 243.325 206.316 243.016C206.476 242.909 206.62 242.861 206.748 242.872C206.876 242.872 206.982 242.909 207.068 242.984C207.153 243.059 207.212 243.155 207.244 243.272C207.286 243.389 207.286 243.512 207.244 243.64C207.212 243.768 207.132 243.88 207.004 243.976C206.556 244.36 206.028 244.653 205.42 244.856C204.822 245.048 204.182 245.144 203.5 245.144ZM211.879 245.144C211.121 245.144 210.465 244.979 209.911 244.648C209.356 244.317 208.924 243.853 208.615 243.256C208.316 242.648 208.167 241.933 208.167 241.112C208.167 240.493 208.252 239.939 208.423 239.448C208.593 238.947 208.844 238.52 209.175 238.168C209.505 237.816 209.895 237.549 210.343 237.368C210.801 237.176 211.313 237.08 211.879 237.08C212.636 237.08 213.292 237.245 213.847 237.576C214.401 237.907 214.828 238.376 215.127 238.984C215.436 239.581 215.591 240.291 215.591 241.112C215.591 241.731 215.505 242.285 215.335 242.776C215.164 243.267 214.913 243.693 214.583 244.056C214.252 244.408 213.857 244.68 213.399 244.872C212.951 245.053 212.444 245.144 211.879 245.144ZM211.879 244.104C212.359 244.104 212.78 243.987 213.143 243.752C213.505 243.517 213.783 243.176 213.975 242.728C214.177 242.28 214.279 241.741 214.279 241.112C214.279 240.141 214.06 239.4 213.623 238.888C213.196 238.376 212.615 238.12 211.879 238.12C211.388 238.12 210.961 238.237 210.599 238.472C210.247 238.696 209.969 239.032 209.767 239.48C209.575 239.917 209.479 240.461 209.479 241.112C209.479 242.072 209.697 242.813 210.135 243.336C210.572 243.848 211.153 244.104 211.879 244.104ZM218.177 245.112C217.964 245.112 217.804 245.053 217.697 244.936C217.591 244.819 217.537 244.653 217.537 244.44V237.768C217.537 237.555 217.591 237.395 217.697 237.288C217.804 237.171 217.959 237.112 218.161 237.112C218.364 237.112 218.519 237.171 218.625 237.288C218.743 237.395 218.801 237.555 218.801 237.768V239.144L218.625 238.952C218.849 238.333 219.212 237.869 219.713 237.56C220.225 237.24 220.812 237.08 221.473 237.08C222.092 237.08 222.604 237.192 223.009 237.416C223.425 237.64 223.735 237.981 223.937 238.44C224.14 238.888 224.241 239.459 224.241 240.152V244.44C224.241 244.653 224.183 244.819 224.065 244.936C223.959 245.053 223.804 245.112 223.601 245.112C223.388 245.112 223.223 245.053 223.105 244.936C222.999 244.819 222.945 244.653 222.945 244.44V240.232C222.945 239.507 222.801 238.979 222.513 238.648C222.236 238.307 221.788 238.136 221.169 238.136C220.455 238.136 219.884 238.36 219.457 238.808C219.041 239.245 218.833 239.832 218.833 240.568V244.44C218.833 244.888 218.615 245.112 218.177 245.112ZM229.751 245.144C229.143 245.144 228.631 245.037 228.215 244.824C227.81 244.6 227.506 244.28 227.303 243.864C227.1 243.437 226.999 242.92 226.999 242.312V238.232H225.927C225.746 238.232 225.607 238.189 225.511 238.104C225.415 238.008 225.367 237.88 225.367 237.72C225.367 237.56 225.415 237.437 225.511 237.352C225.607 237.267 225.746 237.224 225.927 237.224H226.999V235.384C226.999 235.171 227.058 235.011 227.175 234.904C227.292 234.787 227.452 234.728 227.655 234.728C227.858 234.728 228.012 234.787 228.119 234.904C228.236 235.011 228.295 235.171 228.295 235.384V237.224H230.311C230.492 237.224 230.631 237.267 230.727 237.352C230.823 237.437 230.871 237.56 230.871 237.72C230.871 237.88 230.823 238.008 230.727 238.104C230.631 238.189 230.492 238.232 230.311 238.232H228.295V242.184C228.295 242.792 228.423 243.256 228.679 243.576C228.935 243.885 229.351 244.04 229.927 244.04C230.13 244.04 230.3 244.019 230.439 243.976C230.588 243.933 230.711 243.912 230.807 243.912C230.903 243.901 230.983 243.933 231.047 244.008C231.111 244.083 231.143 244.211 231.143 244.392C231.143 244.52 231.116 244.637 231.063 244.744C231.02 244.851 230.94 244.925 230.823 244.968C230.695 245.011 230.524 245.048 230.311 245.08C230.108 245.123 229.922 245.144 229.751 245.144ZM235.651 245.144C234.829 245.144 234.12 244.984 233.523 244.664C232.936 244.333 232.477 243.869 232.147 243.272C231.827 242.675 231.667 241.96 231.667 241.128C231.667 240.317 231.827 239.613 232.147 239.016C232.467 238.408 232.904 237.933 233.459 237.592C234.024 237.251 234.675 237.08 235.411 237.08C235.933 237.08 236.403 237.171 236.819 237.352C237.235 237.523 237.587 237.773 237.875 238.104C238.173 238.435 238.397 238.835 238.547 239.304C238.707 239.773 238.787 240.301 238.787 240.888C238.787 241.059 238.739 241.187 238.643 241.272C238.547 241.347 238.408 241.384 238.227 241.384H232.659V240.536H237.923L237.667 240.744C237.667 240.168 237.581 239.683 237.411 239.288C237.24 238.883 236.989 238.573 236.659 238.36C236.339 238.147 235.933 238.04 235.443 238.04C234.899 238.04 234.435 238.168 234.051 238.424C233.677 238.669 233.395 239.016 233.203 239.464C233.011 239.901 232.915 240.413 232.915 241V241.096C232.915 242.077 233.149 242.824 233.619 243.336C234.099 243.848 234.776 244.104 235.651 244.104C236.013 244.104 236.371 244.056 236.723 243.96C237.085 243.864 237.437 243.704 237.779 243.48C237.928 243.384 238.061 243.341 238.179 243.352C238.307 243.352 238.408 243.389 238.483 243.464C238.557 243.528 238.605 243.613 238.627 243.72C238.659 243.816 238.648 243.923 238.595 244.04C238.552 244.157 238.461 244.259 238.323 244.344C237.971 244.6 237.555 244.797 237.075 244.936C236.595 245.075 236.12 245.144 235.651 245.144ZM241.302 245.112C241.089 245.112 240.929 245.053 240.822 244.936C240.716 244.819 240.662 244.653 240.662 244.44V237.768C240.662 237.555 240.716 237.395 240.822 237.288C240.929 237.171 241.084 237.112 241.286 237.112C241.489 237.112 241.644 237.171 241.75 237.288C241.868 237.395 241.926 237.555 241.926 237.768V239.144L241.75 238.952C241.974 238.333 242.337 237.869 242.838 237.56C243.35 237.24 243.937 237.08 244.598 237.08C245.217 237.08 245.729 237.192 246.134 237.416C246.55 237.64 246.86 237.981 247.062 238.44C247.265 238.888 247.366 239.459 247.366 240.152V244.44C247.366 244.653 247.308 244.819 247.19 244.936C247.084 245.053 246.929 245.112 246.726 245.112C246.513 245.112 246.348 245.053 246.23 244.936C246.124 244.819 246.07 244.653 246.07 244.44V240.232C246.07 239.507 245.926 238.979 245.638 238.648C245.361 238.307 244.913 238.136 244.294 238.136C243.58 238.136 243.009 238.36 242.582 238.808C242.166 239.245 241.958 239.832 241.958 240.568V244.44C241.958 244.888 241.74 245.112 241.302 245.112ZM252.876 245.144C252.268 245.144 251.756 245.037 251.34 244.824C250.935 244.6 250.631 244.28 250.428 243.864C250.225 243.437 250.124 242.92 250.124 242.312V238.232H249.052C248.871 238.232 248.732 238.189 248.636 238.104C248.54 238.008 248.492 237.88 248.492 237.72C248.492 237.56 248.54 237.437 248.636 237.352C248.732 237.267 248.871 237.224 249.052 237.224H250.124V235.384C250.124 235.171 250.183 235.011 250.3 234.904C250.417 234.787 250.577 234.728 250.78 234.728C250.983 234.728 251.137 234.787 251.244 234.904C251.361 235.011 251.42 235.171 251.42 235.384V237.224H253.436C253.617 237.224 253.756 237.267 253.852 237.352C253.948 237.437 253.996 237.56 253.996 237.72C253.996 237.88 253.948 238.008 253.852 238.104C253.756 238.189 253.617 238.232 253.436 238.232H251.42V242.184C251.42 242.792 251.548 243.256 251.804 243.576C252.06 243.885 252.476 244.04 253.052 244.04C253.255 244.04 253.425 244.019 253.564 243.976C253.713 243.933 253.836 243.912 253.932 243.912C254.028 243.901 254.108 243.933 254.172 244.008C254.236 244.083 254.268 244.211 254.268 244.392C254.268 244.52 254.241 244.637 254.188 244.744C254.145 244.851 254.065 244.925 253.948 244.968C253.82 245.011 253.649 245.048 253.436 245.08C253.233 245.123 253.047 245.144 252.876 245.144ZM255.974 245.064C255.707 245.064 255.494 244.984 255.334 244.824C255.174 244.653 255.094 244.44 255.094 244.184C255.094 243.928 255.174 243.72 255.334 243.56C255.494 243.389 255.707 243.304 255.974 243.304C256.24 243.304 256.448 243.389 256.598 243.56C256.758 243.72 256.838 243.928 256.838 244.184C256.838 244.44 256.758 244.653 256.598 244.824C256.448 244.984 256.24 245.064 255.974 245.064ZM255.974 238.92C255.707 238.92 255.494 238.835 255.334 238.664C255.174 238.493 255.094 238.285 255.094 238.04C255.094 237.773 255.174 237.56 255.334 237.4C255.494 237.24 255.707 237.16 255.974 237.16C256.24 237.16 256.448 237.24 256.598 237.4C256.758 237.56 256.838 237.773 256.838 238.04C256.838 238.285 256.758 238.493 256.598 238.664C256.448 238.835 256.24 238.92 255.974 238.92Z" fill="#670224"/>
</g>
<path fill-rule="evenodd" clip-rule="evenodd" d="M446.955 403.382C445.99 401.352 445.991 401.371 443.908 401.459C443.34 401.482 442.765 401.357 442.195 401.287C440.719 401.106 439.386 400.454 437.777 400.543C436.153 400.633 434.382 400.114 432.874 399.425C431.935 398.996 431.191 398.905 430.211 398.945C426.733 399.087 423.432 401.02 419.835 399.947C419.516 399.851 419.096 400.122 418.718 400.194C416.527 400.61 414.245 400.685 412.279 401.932C409.694 401.189 407.53 402.899 405.115 403.167C402.659 403.44 400.565 404.484 398.754 406.195C398.229 406.692 397.405 407.117 396.703 407.141C393.931 407.231 391.995 408.895 389.992 410.455C389.097 411.152 388.11 411.811 387.434 412.693C386.528 413.879 385.912 415.282 385.117 416.558C383.929 418.468 385.033 420.932 387.288 421.312C388.964 421.596 390.658 421.787 392.315 422.15C394.159 422.554 395.945 423.557 397.832 422.196C398.085 422.014 398.711 422.352 399.165 422.442C399.624 422.532 400.307 422.851 400.509 422.661C402.268 421.012 404.131 422.055 405.983 422.29C407.085 422.43 408.885 422.808 409.192 422.328C409.923 421.178 410.559 421.817 411.338 421.786C413.233 421.705 415.199 421.687 416.987 421.149C418.623 420.656 420.406 419.967 421.982 420.047C422.531 420.075 423.201 420.053 423.625 419.769C425.071 418.801 426.545 418.374 428.254 418.926C428.589 419.035 429.172 419.072 429.345 418.879C430.735 417.321 432.777 417.844 434.46 417.242C435.913 416.724 437.753 417.047 439.011 416.303C440.489 415.429 441.887 415.099 443.517 415.015C444.325 414.973 445.505 414.701 445.825 414.139C446.575 412.824 447.801 413.163 448.806 412.903C450.789 412.39 452.843 412.156 454.832 411.66C455.663 411.454 456.401 410.877 457.183 410.47C455.298 409.481 455.017 407.019 452.866 406.984C452.685 406.981 452.407 406.592 452.349 406.344C451.686 403.465 449.417 403.525 446.955 403.382ZM484.352 343.493C485.526 343.01 486.516 342.667 487.441 342.197C488.005 341.91 488.799 341.513 488.924 341.022C489.571 338.469 490.961 336.389 492.586 334.387C493.388 333.398 493.052 331.904 492.14 331.589C489.821 330.789 487.645 328.455 484.828 330.414C484.533 330.619 483.918 330.469 483.485 330.355C482.462 330.083 481.33 329.927 480.481 329.365C479.473 328.698 478.24 330.313 477.471 328.883C476.016 329.52 474.759 328.315 473.385 328.423C470.206 328.673 467.077 329.495 463.844 329.174C463.322 329.123 462.63 329.295 462.244 329.627C460.003 331.554 457.233 331.593 454.538 332.047C452.4 332.407 450.267 332.961 448.23 333.697C446.549 334.306 445.643 336.612 443.349 336.011C442.54 338.358 439.397 337.4 438.414 339.5C435.059 340.006 433.825 342.49 433.201 345.085C432.498 345.817 431.706 344.792 431.131 346.008C430.484 347.376 428.212 347.928 429.08 350.129C429.091 350.158 428.933 350.241 428.874 350.314C427.122 352.473 426.911 355.167 426.358 357.731C426.247 358.242 426.384 358.902 426.631 359.377C427.784 361.592 429.006 363.771 430.23 365.948C430.357 366.175 430.633 366.413 430.878 366.466C434.286 367.196 437.165 369.811 440.924 369.289C441.852 369.16 442.798 369.143 443.718 368.974C445.295 368.684 446.774 368.122 448.448 368.976C449.561 369.545 450.885 369.885 452.057 368.43C452.747 367.573 454.067 367.147 455.179 366.723C457.758 365.74 460.441 365.011 462.97 363.919C464.813 363.123 466.507 361.957 468.21 360.867C469.379 360.119 470.488 359.264 471.556 358.376C473.239 356.978 474.907 355.556 476.501 354.059C477.525 353.099 478.218 351.552 479.394 351.045C481.196 350.267 481.784 349.044 481.778 347.414C485.508 346.501 485.428 345.926 484.352 343.493ZM525.62 342.528C526.47 344.626 527.247 347.043 528.422 349.244C529.129 350.56 530.278 351.563 529.613 353.273C529.459 353.659 529.608 354.285 529.831 354.678C531.299 357.246 530.703 360.047 530.879 362.772C531.15 366.865 529.262 370.414 528.215 374.175C528.14 374.433 527.949 374.74 527.725 374.86C526.306 375.618 526.327 376.926 526.348 377.679C525.263 378.82 524.429 379.615 523.689 380.492C522.043 382.455 520.449 384.461 518.818 386.438C518.653 386.637 518.375 386.886 518.161 386.876C515.766 386.771 515.62 388.421 515.62 390.26C513.876 390.675 512.749 392.616 510.649 392.06C509.854 393.162 509.053 394.259 508.269 395.369C508.11 395.594 508.018 395.868 507.853 396.205C506.303 396.639 504.561 396.28 503.225 397.896C502.224 399.107 499.876 398.643 498.911 400.405C498.759 400.683 498.274 400.796 497.926 400.948C495.758 401.889 493.691 402.868 491.87 404.537C490.648 405.66 488.715 406.292 487.02 406.506C486.038 406.629 485.675 406.621 485.169 407.546C484.445 408.866 483.954 408.841 482.328 408.518C477.188 410.879 472.5 413.032 467.476 415.339C466.971 418.516 466.465 421.879 465.891 425.23C465.59 426.996 465.126 428.735 464.826 430.501C464.643 431.582 463.4 431.576 463.001 432.743C462.524 434.142 462.218 436.092 460.362 436.777C460.213 436.831 460.092 437.067 460.035 437.243C458.902 440.749 456.074 442.94 453.68 445.47C453.437 445.727 453.234 446.24 452.994 446.252C450.196 446.392 448.801 448.586 446.974 450.185C446.32 450.759 445.245 450.854 444.593 451.429C442.808 453.001 440.856 454.331 438.777 455.428C436.85 456.445 434.747 457.124 432.782 458.077C430.819 459.028 428.95 460.172 427 461.151C426.385 461.46 425.641 461.522 424.952 461.673C424.586 461.754 424.083 461.65 423.858 461.861C421.592 463.981 418.442 464.19 415.853 465.607C415.078 466.032 414.259 466.851 413.232 465.908C413.063 465.751 412.497 465.9 412.181 466.05C408.931 467.592 405.68 468.667 401.927 468.756C398.856 468.829 395.832 470.301 392.755 471.022C390.825 471.473 388.832 471.649 386.879 472.012C385.86 472.2 384.869 472.533 383.863 472.783C381.833 473.285 379.946 474.204 377.653 473.409C376.412 472.98 374.776 473.422 373.386 473.753C371.387 474.231 369.388 474.254 367.362 474.33C365.279 474.41 363.089 474.433 361.154 475.091C357.903 476.198 354.56 475.205 351.333 475.966C351.004 476.044 350.575 475.577 350.165 475.464C349.703 475.337 349.211 475.297 348.731 475.281C348.575 475.277 348.361 475.596 348.261 475.554C344.102 473.841 339.577 473.898 335.285 472.841C335.159 472.81 335.088 472.557 334.894 472.254C335.762 471.064 337.144 471.092 338.415 470.896C339.978 470.656 341.594 470.785 343.025 469.801C343.472 469.493 344.299 469.774 344.946 469.713C346.731 469.547 348.619 469.652 350.272 469.083C353.181 468.081 356.028 467.387 359.106 467.995C360.343 468.241 362.423 467.576 363.533 466.73C364.996 467.955 366.438 467.908 368.311 467.345C371.658 466.339 375.166 465.414 378.618 465.377C380.597 465.356 382.516 465.433 384.411 464.878C385.435 464.578 386.373 463.935 387.406 463.73C388.801 463.453 390.015 462.936 391.737 463.405C393.494 463.885 396.006 463.054 397.656 461.98C398.839 461.21 399.801 462.157 400.479 461.619C401.786 460.584 403.342 460.659 404.751 460.16C405.664 459.835 406.446 459.671 407.433 459.677C408.631 459.685 409.884 459.188 411.024 458.701C413.302 457.729 415.489 456.541 417.774 455.59C418.888 455.127 420.176 455.1 421.321 454.693C423.29 453.995 425.283 453.299 427.126 452.335C429.251 451.224 431.173 449.725 433.284 448.582C434.582 447.879 436.078 447.55 437.472 447.017C440.124 446.002 442.877 445.19 444.621 442.621C444.975 442.099 445.965 442.054 446.571 441.651C448.063 440.66 449.663 438.014 450.352 436.337C450.653 435.602 451.681 435.166 452.808 434.244C452.881 434.111 451.516 432.88 453.394 432.662C454.923 432.483 456.612 430.156 456.83 428.611C456.934 427.877 457.003 426.988 457.444 426.48C459.424 424.204 458.949 421.281 459.665 418.681C459.724 418.467 459.475 418.168 459.313 417.769C457.589 418.312 455.768 418.597 454.24 419.425C450.642 421.374 446.66 421.759 442.81 422.718C441.242 423.109 439.548 423.55 438.289 424.48C436.727 425.633 434.543 424.739 433.271 426.361C430.52 425.677 428.045 427.007 425.451 427.45C422.75 427.911 420.011 428.075 417.387 429.088C415.849 429.682 414.02 430.03 412.415 429.811C410.626 429.567 409.034 430.162 407.38 430.185C403.983 430.232 400.525 430.764 397.175 429.657C396.907 429.569 396.598 429.534 396.318 429.562C390.563 430.147 390.563 430.15 385.278 428.059C382.197 428.569 381.059 424.907 378.24 424.75C377.886 424.73 377.557 423.895 377.255 423.412C376.886 422.821 376.553 422.206 376.212 421.597C376.077 421.356 375.794 421.039 375.861 420.869C376.849 418.376 376.048 415.388 377.993 413.164C378.18 412.949 378.412 412.708 378.465 412.447C378.803 410.768 379.714 409.568 381.063 408.478C383.238 406.722 385.212 404.717 387.276 402.823C388.294 401.89 390.083 402.043 390.629 400.443C393.096 401.304 394.092 397.865 396.463 398.447C397.89 396.269 400.573 396.808 402.538 395.694C403.971 394.881 405.926 395.036 407.609 394.603C409.054 394.231 410.441 393.639 412.274 392.998C412.476 393.09 413.152 393.397 413.828 393.705C413.813 393.547 413.799 393.39 413.784 393.233C415.086 392.851 416.372 392.234 417.693 392.146C419.412 392.031 421.094 391.865 422.802 391.617C424.548 391.364 426.4 391.929 428.211 392.016C430.34 392.119 432.485 391.98 434.607 392.152C437.248 392.365 439.883 392.47 442.455 393.51C443.511 393.937 444.944 393.834 446.138 394.338C446.659 394.557 447.209 394.715 447.71 394.973C450.994 396.657 454.612 397.554 457.802 399.544C458.961 400.268 459.084 400.916 459.137 401.961C462.339 401.656 462.163 405.68 466.027 406.116C467.903 405.822 470.962 405.059 473.739 403.386C473.9 403.289 474.099 403.242 474.287 403.2C475.851 402.843 477.605 402.817 478.932 402.05C480.242 401.295 481.318 400.257 482.949 400.095C483.542 400.036 484.145 399.528 484.636 399.102C485.641 398.232 486.56 397.645 488.073 397.506C489.603 397.366 491.067 396.148 492.487 395.282C493.675 394.556 494.76 393.662 495.877 392.825C496.017 392.72 496.118 392.36 496.171 392.374C498.319 392.936 499.017 390.55 500.751 390.096C501.659 389.857 502.265 388.466 503.169 387.406C504.598 388.416 505.616 387.133 506.74 386.12C507.514 385.421 508.358 384.797 509.092 384.062C509.6 383.554 509.954 382.897 510.412 382.337C510.753 381.919 511.08 381.413 511.533 381.179C513.915 379.946 516.263 378.803 516.675 375.639C516.775 374.87 517.758 374.119 518.482 373.544C521.581 371.085 523.181 368.039 522.607 363.989C522.507 363.28 522.516 362.322 522.909 361.817C524.413 359.881 523.235 357.78 523.228 355.852C523.222 354.254 521.759 352.665 520.955 351.067C520.697 350.554 520.302 350.025 520.284 349.493C520.237 348.137 519.257 347.549 518.441 346.743C517.81 346.119 517.508 345.173 516.901 344.518C515.233 342.722 513.606 340.844 511.693 339.344C511.043 338.835 509.974 338.719 509.426 337.857C509.328 337.703 509.117 337.489 508.99 337.508C506.199 337.923 504.825 335.298 502.588 334.545C502.413 334.486 502.214 334.498 501.749 334.445C500.359 336.655 498.927 338.988 497.433 341.281C496.569 342.604 495.551 343.829 494.701 345.162C493.936 346.363 493.484 347.802 492.575 348.864C490.958 350.755 489.105 352.445 487.34 354.209C486.999 354.55 486.362 354.793 486.286 355.167C485.847 357.342 483.807 357.752 482.413 358.871C482.053 359.16 481.544 359.494 481.474 359.874C481.07 362.075 479.061 362.788 477.658 363.996C476.242 365.217 474.82 366.484 472.835 366.973C471.709 367.251 470.725 368.192 469.733 368.912C468.227 370.004 466.922 371.416 464.87 371.533C464.433 371.558 464.026 371.96 463.589 372.15C461.354 373.122 459.373 374.87 456.673 374.434C453.705 376.494 449.665 375.52 446.797 377.917C446.469 378.192 445.825 378.346 445.428 378.225C444.507 377.944 443.681 377.28 442.753 377.11C441.786 376.933 440.714 377.33 439.745 377.157C438.35 376.907 437.015 376.062 435.637 376.018C433 375.934 430.826 375.22 428.704 373.539C426.724 371.972 424.627 370.612 422.743 368.851C420.969 367.193 421.092 365.016 420.096 363.204C419.597 362.298 419.251 361.291 418.953 360.295C418.602 359.12 417.837 358.107 418.878 356.646C419.545 355.712 419.16 354.042 419.289 352.706C419.396 351.588 419.684 350.594 420.215 349.512C421.681 346.532 422.911 343.457 425.196 340.953C425.458 340.666 425.355 340.072 425.516 339.658C425.689 339.216 426.091 338.429 426.196 338.461C427.774 338.929 428.141 337.758 428.728 336.777C428.949 336.407 429.434 335.979 429.815 335.961C431.356 335.893 432.108 334.788 433.093 333.87C434.308 332.737 435.257 331.1 437.273 331.12C437.507 331.123 437.848 330.884 437.963 330.664C438.909 328.867 440.738 328.837 442.366 328.316C443.723 327.881 445.164 327.38 446.246 326.51C447.389 325.59 448.222 324.371 449.944 324.95C450.095 325.002 450.38 324.941 450.475 324.826C452.269 322.648 454.935 323.195 457.238 322.721C460.378 322.075 463.567 321.656 466.747 321.226C467.767 321.087 468.827 321.258 469.865 321.222C470.655 321.194 471.418 321.708 472.275 320.9C472.689 320.51 473.877 320.947 474.715 321.004C476.411 321.12 477.858 322.076 479.88 321.25C481.41 320.626 483.628 321.681 485.538 321.995C487.41 322.301 489.275 322.66 491.154 322.914C493.032 323.168 494.988 323.103 496.488 324.553C497.737 324.338 498.291 323.586 498.561 322.43C499.191 319.732 499.937 317.061 500.571 314.363C500.949 312.752 500.841 311.017 501.978 309.613C502.176 309.37 502.209 308.774 502.048 308.5C501.063 306.817 502.604 305.562 502.952 304.198C503.206 303.2 503.592 302.549 503.201 301.416C502.826 300.332 502.867 298.963 503.146 297.822C503.836 295.005 503.863 292.252 503.226 289.432C502.999 288.428 503.149 287.341 503.116 286.292C503.034 283.697 502.509 281.193 501.814 278.688C501.038 275.885 502.496 273.446 505.193 272.631C505.535 272.528 506.099 272.495 506.299 272.694C508.179 274.556 510.826 275.692 510.341 279.355C509.995 281.977 510.985 284.777 511.386 287.498C511.428 287.781 511.669 288.189 511.559 288.318C510.181 289.928 510.958 291.817 511.136 293.454C511.496 296.771 510.476 300.092 511.361 303.381C511.499 303.893 511.376 304.521 511.228 305.055C510.571 307.43 509.803 309.775 509.19 312.16C508.748 313.881 508.356 315.634 508.175 317.397C507.918 319.887 507.447 322.192 505.832 324.26C504.548 325.903 505.443 328.277 507.521 328.899C509.587 329.518 511.534 330.2 512.932 331.948C513.041 332.085 513.26 332.165 513.441 332.204C514.835 332.502 515.9 333.173 516.816 334.348C517.714 335.499 518.966 336.376 520.082 337.351C520.569 337.777 521.056 338.249 521.629 338.52C522.614 338.988 523.392 339.432 523.721 340.669C523.907 341.377 524.907 341.868 525.62 342.528Z" fill="#F67A49"/>
<defs>
<clipPath id="clip0_186_9028">
<rect width="220" height="117" fill="white" transform="translate(197.001 168)"/>
</clipPath>
</defs>
</svg>
